G75*
G70*
%OFA0B0*%
%FSLAX24Y24*%
%IPPOS*%
%LPD*%
%AMOC8*
5,1,8,0,0,1.08239X$1,22.5*
%
%ADD10C,0.0000*%
%ADD11C,0.0050*%
D10*
X003995Y017775D02*
X003997Y017825D01*
X004003Y017875D01*
X004013Y017924D01*
X004027Y017972D01*
X004044Y018019D01*
X004065Y018064D01*
X004090Y018108D01*
X004118Y018149D01*
X004150Y018188D01*
X004184Y018225D01*
X004221Y018259D01*
X004261Y018289D01*
X004303Y018316D01*
X004347Y018340D01*
X004393Y018361D01*
X004440Y018377D01*
X004488Y018390D01*
X004538Y018399D01*
X004587Y018404D01*
X004638Y018405D01*
X004688Y018402D01*
X004737Y018395D01*
X004786Y018384D01*
X004834Y018369D01*
X004880Y018351D01*
X004925Y018329D01*
X004968Y018303D01*
X005009Y018274D01*
X005048Y018242D01*
X005084Y018207D01*
X005116Y018169D01*
X005146Y018129D01*
X005173Y018086D01*
X005196Y018042D01*
X005215Y017996D01*
X005231Y017948D01*
X005243Y017899D01*
X005251Y017850D01*
X005255Y017800D01*
X005255Y017750D01*
X005251Y017700D01*
X005243Y017651D01*
X005231Y017602D01*
X005215Y017554D01*
X005196Y017508D01*
X005173Y017464D01*
X005146Y017421D01*
X005116Y017381D01*
X005084Y017343D01*
X005048Y017308D01*
X005009Y017276D01*
X004968Y017247D01*
X004925Y017221D01*
X004880Y017199D01*
X004834Y017181D01*
X004786Y017166D01*
X004737Y017155D01*
X004688Y017148D01*
X004638Y017145D01*
X004587Y017146D01*
X004538Y017151D01*
X004488Y017160D01*
X004440Y017173D01*
X004393Y017189D01*
X004347Y017210D01*
X004303Y017234D01*
X004261Y017261D01*
X004221Y017291D01*
X004184Y017325D01*
X004150Y017362D01*
X004118Y017401D01*
X004090Y017442D01*
X004065Y017486D01*
X004044Y017531D01*
X004027Y017578D01*
X004013Y017626D01*
X004003Y017675D01*
X003997Y017725D01*
X003995Y017775D01*
X003995Y022275D02*
X003997Y022325D01*
X004003Y022375D01*
X004013Y022424D01*
X004027Y022472D01*
X004044Y022519D01*
X004065Y022564D01*
X004090Y022608D01*
X004118Y022649D01*
X004150Y022688D01*
X004184Y022725D01*
X004221Y022759D01*
X004261Y022789D01*
X004303Y022816D01*
X004347Y022840D01*
X004393Y022861D01*
X004440Y022877D01*
X004488Y022890D01*
X004538Y022899D01*
X004587Y022904D01*
X004638Y022905D01*
X004688Y022902D01*
X004737Y022895D01*
X004786Y022884D01*
X004834Y022869D01*
X004880Y022851D01*
X004925Y022829D01*
X004968Y022803D01*
X005009Y022774D01*
X005048Y022742D01*
X005084Y022707D01*
X005116Y022669D01*
X005146Y022629D01*
X005173Y022586D01*
X005196Y022542D01*
X005215Y022496D01*
X005231Y022448D01*
X005243Y022399D01*
X005251Y022350D01*
X005255Y022300D01*
X005255Y022250D01*
X005251Y022200D01*
X005243Y022151D01*
X005231Y022102D01*
X005215Y022054D01*
X005196Y022008D01*
X005173Y021964D01*
X005146Y021921D01*
X005116Y021881D01*
X005084Y021843D01*
X005048Y021808D01*
X005009Y021776D01*
X004968Y021747D01*
X004925Y021721D01*
X004880Y021699D01*
X004834Y021681D01*
X004786Y021666D01*
X004737Y021655D01*
X004688Y021648D01*
X004638Y021645D01*
X004587Y021646D01*
X004538Y021651D01*
X004488Y021660D01*
X004440Y021673D01*
X004393Y021689D01*
X004347Y021710D01*
X004303Y021734D01*
X004261Y021761D01*
X004221Y021791D01*
X004184Y021825D01*
X004150Y021862D01*
X004118Y021901D01*
X004090Y021942D01*
X004065Y021986D01*
X004044Y022031D01*
X004027Y022078D01*
X004013Y022126D01*
X004003Y022175D01*
X003997Y022225D01*
X003995Y022275D01*
X003795Y024875D02*
X003797Y024925D01*
X003803Y024975D01*
X003813Y025024D01*
X003827Y025072D01*
X003844Y025119D01*
X003865Y025164D01*
X003890Y025208D01*
X003918Y025249D01*
X003950Y025288D01*
X003984Y025325D01*
X004021Y025359D01*
X004061Y025389D01*
X004103Y025416D01*
X004147Y025440D01*
X004193Y025461D01*
X004240Y025477D01*
X004288Y025490D01*
X004338Y025499D01*
X004387Y025504D01*
X004438Y025505D01*
X004488Y025502D01*
X004537Y025495D01*
X004586Y025484D01*
X004634Y025469D01*
X004680Y025451D01*
X004725Y025429D01*
X004768Y025403D01*
X004809Y025374D01*
X004848Y025342D01*
X004884Y025307D01*
X004916Y025269D01*
X004946Y025229D01*
X004973Y025186D01*
X004996Y025142D01*
X005015Y025096D01*
X005031Y025048D01*
X005043Y024999D01*
X005051Y024950D01*
X005055Y024900D01*
X005055Y024850D01*
X005051Y024800D01*
X005043Y024751D01*
X005031Y024702D01*
X005015Y024654D01*
X004996Y024608D01*
X004973Y024564D01*
X004946Y024521D01*
X004916Y024481D01*
X004884Y024443D01*
X004848Y024408D01*
X004809Y024376D01*
X004768Y024347D01*
X004725Y024321D01*
X004680Y024299D01*
X004634Y024281D01*
X004586Y024266D01*
X004537Y024255D01*
X004488Y024248D01*
X004438Y024245D01*
X004387Y024246D01*
X004338Y024251D01*
X004288Y024260D01*
X004240Y024273D01*
X004193Y024289D01*
X004147Y024310D01*
X004103Y024334D01*
X004061Y024361D01*
X004021Y024391D01*
X003984Y024425D01*
X003950Y024462D01*
X003918Y024501D01*
X003890Y024542D01*
X003865Y024586D01*
X003844Y024631D01*
X003827Y024678D01*
X003813Y024726D01*
X003803Y024775D01*
X003797Y024825D01*
X003795Y024875D01*
X003795Y029375D02*
X003797Y029425D01*
X003803Y029475D01*
X003813Y029524D01*
X003827Y029572D01*
X003844Y029619D01*
X003865Y029664D01*
X003890Y029708D01*
X003918Y029749D01*
X003950Y029788D01*
X003984Y029825D01*
X004021Y029859D01*
X004061Y029889D01*
X004103Y029916D01*
X004147Y029940D01*
X004193Y029961D01*
X004240Y029977D01*
X004288Y029990D01*
X004338Y029999D01*
X004387Y030004D01*
X004438Y030005D01*
X004488Y030002D01*
X004537Y029995D01*
X004586Y029984D01*
X004634Y029969D01*
X004680Y029951D01*
X004725Y029929D01*
X004768Y029903D01*
X004809Y029874D01*
X004848Y029842D01*
X004884Y029807D01*
X004916Y029769D01*
X004946Y029729D01*
X004973Y029686D01*
X004996Y029642D01*
X005015Y029596D01*
X005031Y029548D01*
X005043Y029499D01*
X005051Y029450D01*
X005055Y029400D01*
X005055Y029350D01*
X005051Y029300D01*
X005043Y029251D01*
X005031Y029202D01*
X005015Y029154D01*
X004996Y029108D01*
X004973Y029064D01*
X004946Y029021D01*
X004916Y028981D01*
X004884Y028943D01*
X004848Y028908D01*
X004809Y028876D01*
X004768Y028847D01*
X004725Y028821D01*
X004680Y028799D01*
X004634Y028781D01*
X004586Y028766D01*
X004537Y028755D01*
X004488Y028748D01*
X004438Y028745D01*
X004387Y028746D01*
X004338Y028751D01*
X004288Y028760D01*
X004240Y028773D01*
X004193Y028789D01*
X004147Y028810D01*
X004103Y028834D01*
X004061Y028861D01*
X004021Y028891D01*
X003984Y028925D01*
X003950Y028962D01*
X003918Y029001D01*
X003890Y029042D01*
X003865Y029086D01*
X003844Y029131D01*
X003827Y029178D01*
X003813Y029226D01*
X003803Y029275D01*
X003797Y029325D01*
X003795Y029375D01*
X003995Y032375D02*
X003997Y032425D01*
X004003Y032475D01*
X004013Y032524D01*
X004027Y032572D01*
X004044Y032619D01*
X004065Y032664D01*
X004090Y032708D01*
X004118Y032749D01*
X004150Y032788D01*
X004184Y032825D01*
X004221Y032859D01*
X004261Y032889D01*
X004303Y032916D01*
X004347Y032940D01*
X004393Y032961D01*
X004440Y032977D01*
X004488Y032990D01*
X004538Y032999D01*
X004587Y033004D01*
X004638Y033005D01*
X004688Y033002D01*
X004737Y032995D01*
X004786Y032984D01*
X004834Y032969D01*
X004880Y032951D01*
X004925Y032929D01*
X004968Y032903D01*
X005009Y032874D01*
X005048Y032842D01*
X005084Y032807D01*
X005116Y032769D01*
X005146Y032729D01*
X005173Y032686D01*
X005196Y032642D01*
X005215Y032596D01*
X005231Y032548D01*
X005243Y032499D01*
X005251Y032450D01*
X005255Y032400D01*
X005255Y032350D01*
X005251Y032300D01*
X005243Y032251D01*
X005231Y032202D01*
X005215Y032154D01*
X005196Y032108D01*
X005173Y032064D01*
X005146Y032021D01*
X005116Y031981D01*
X005084Y031943D01*
X005048Y031908D01*
X005009Y031876D01*
X004968Y031847D01*
X004925Y031821D01*
X004880Y031799D01*
X004834Y031781D01*
X004786Y031766D01*
X004737Y031755D01*
X004688Y031748D01*
X004638Y031745D01*
X004587Y031746D01*
X004538Y031751D01*
X004488Y031760D01*
X004440Y031773D01*
X004393Y031789D01*
X004347Y031810D01*
X004303Y031834D01*
X004261Y031861D01*
X004221Y031891D01*
X004184Y031925D01*
X004150Y031962D01*
X004118Y032001D01*
X004090Y032042D01*
X004065Y032086D01*
X004044Y032131D01*
X004027Y032178D01*
X004013Y032226D01*
X004003Y032275D01*
X003997Y032325D01*
X003995Y032375D01*
X003995Y036875D02*
X003997Y036925D01*
X004003Y036975D01*
X004013Y037024D01*
X004027Y037072D01*
X004044Y037119D01*
X004065Y037164D01*
X004090Y037208D01*
X004118Y037249D01*
X004150Y037288D01*
X004184Y037325D01*
X004221Y037359D01*
X004261Y037389D01*
X004303Y037416D01*
X004347Y037440D01*
X004393Y037461D01*
X004440Y037477D01*
X004488Y037490D01*
X004538Y037499D01*
X004587Y037504D01*
X004638Y037505D01*
X004688Y037502D01*
X004737Y037495D01*
X004786Y037484D01*
X004834Y037469D01*
X004880Y037451D01*
X004925Y037429D01*
X004968Y037403D01*
X005009Y037374D01*
X005048Y037342D01*
X005084Y037307D01*
X005116Y037269D01*
X005146Y037229D01*
X005173Y037186D01*
X005196Y037142D01*
X005215Y037096D01*
X005231Y037048D01*
X005243Y036999D01*
X005251Y036950D01*
X005255Y036900D01*
X005255Y036850D01*
X005251Y036800D01*
X005243Y036751D01*
X005231Y036702D01*
X005215Y036654D01*
X005196Y036608D01*
X005173Y036564D01*
X005146Y036521D01*
X005116Y036481D01*
X005084Y036443D01*
X005048Y036408D01*
X005009Y036376D01*
X004968Y036347D01*
X004925Y036321D01*
X004880Y036299D01*
X004834Y036281D01*
X004786Y036266D01*
X004737Y036255D01*
X004688Y036248D01*
X004638Y036245D01*
X004587Y036246D01*
X004538Y036251D01*
X004488Y036260D01*
X004440Y036273D01*
X004393Y036289D01*
X004347Y036310D01*
X004303Y036334D01*
X004261Y036361D01*
X004221Y036391D01*
X004184Y036425D01*
X004150Y036462D01*
X004118Y036501D01*
X004090Y036542D01*
X004065Y036586D01*
X004044Y036631D01*
X004027Y036678D01*
X004013Y036726D01*
X004003Y036775D01*
X003997Y036825D01*
X003995Y036875D01*
X003895Y040475D02*
X003897Y040525D01*
X003903Y040575D01*
X003913Y040624D01*
X003927Y040672D01*
X003944Y040719D01*
X003965Y040764D01*
X003990Y040808D01*
X004018Y040849D01*
X004050Y040888D01*
X004084Y040925D01*
X004121Y040959D01*
X004161Y040989D01*
X004203Y041016D01*
X004247Y041040D01*
X004293Y041061D01*
X004340Y041077D01*
X004388Y041090D01*
X004438Y041099D01*
X004487Y041104D01*
X004538Y041105D01*
X004588Y041102D01*
X004637Y041095D01*
X004686Y041084D01*
X004734Y041069D01*
X004780Y041051D01*
X004825Y041029D01*
X004868Y041003D01*
X004909Y040974D01*
X004948Y040942D01*
X004984Y040907D01*
X005016Y040869D01*
X005046Y040829D01*
X005073Y040786D01*
X005096Y040742D01*
X005115Y040696D01*
X005131Y040648D01*
X005143Y040599D01*
X005151Y040550D01*
X005155Y040500D01*
X005155Y040450D01*
X005151Y040400D01*
X005143Y040351D01*
X005131Y040302D01*
X005115Y040254D01*
X005096Y040208D01*
X005073Y040164D01*
X005046Y040121D01*
X005016Y040081D01*
X004984Y040043D01*
X004948Y040008D01*
X004909Y039976D01*
X004868Y039947D01*
X004825Y039921D01*
X004780Y039899D01*
X004734Y039881D01*
X004686Y039866D01*
X004637Y039855D01*
X004588Y039848D01*
X004538Y039845D01*
X004487Y039846D01*
X004438Y039851D01*
X004388Y039860D01*
X004340Y039873D01*
X004293Y039889D01*
X004247Y039910D01*
X004203Y039934D01*
X004161Y039961D01*
X004121Y039991D01*
X004084Y040025D01*
X004050Y040062D01*
X004018Y040101D01*
X003990Y040142D01*
X003965Y040186D01*
X003944Y040231D01*
X003927Y040278D01*
X003913Y040326D01*
X003903Y040375D01*
X003897Y040425D01*
X003895Y040475D01*
X003895Y044975D02*
X003897Y045025D01*
X003903Y045075D01*
X003913Y045124D01*
X003927Y045172D01*
X003944Y045219D01*
X003965Y045264D01*
X003990Y045308D01*
X004018Y045349D01*
X004050Y045388D01*
X004084Y045425D01*
X004121Y045459D01*
X004161Y045489D01*
X004203Y045516D01*
X004247Y045540D01*
X004293Y045561D01*
X004340Y045577D01*
X004388Y045590D01*
X004438Y045599D01*
X004487Y045604D01*
X004538Y045605D01*
X004588Y045602D01*
X004637Y045595D01*
X004686Y045584D01*
X004734Y045569D01*
X004780Y045551D01*
X004825Y045529D01*
X004868Y045503D01*
X004909Y045474D01*
X004948Y045442D01*
X004984Y045407D01*
X005016Y045369D01*
X005046Y045329D01*
X005073Y045286D01*
X005096Y045242D01*
X005115Y045196D01*
X005131Y045148D01*
X005143Y045099D01*
X005151Y045050D01*
X005155Y045000D01*
X005155Y044950D01*
X005151Y044900D01*
X005143Y044851D01*
X005131Y044802D01*
X005115Y044754D01*
X005096Y044708D01*
X005073Y044664D01*
X005046Y044621D01*
X005016Y044581D01*
X004984Y044543D01*
X004948Y044508D01*
X004909Y044476D01*
X004868Y044447D01*
X004825Y044421D01*
X004780Y044399D01*
X004734Y044381D01*
X004686Y044366D01*
X004637Y044355D01*
X004588Y044348D01*
X004538Y044345D01*
X004487Y044346D01*
X004438Y044351D01*
X004388Y044360D01*
X004340Y044373D01*
X004293Y044389D01*
X004247Y044410D01*
X004203Y044434D01*
X004161Y044461D01*
X004121Y044491D01*
X004084Y044525D01*
X004050Y044562D01*
X004018Y044601D01*
X003990Y044642D01*
X003965Y044686D01*
X003944Y044731D01*
X003927Y044778D01*
X003913Y044826D01*
X003903Y044875D01*
X003897Y044925D01*
X003895Y044975D01*
D11*
X000125Y052625D02*
X000125Y005875D01*
X020125Y005875D01*
X020128Y005982D01*
X020135Y006089D01*
X020148Y006195D01*
X020166Y006301D01*
X020188Y006405D01*
X020216Y006509D01*
X020249Y006611D01*
X020286Y006711D01*
X020328Y006810D01*
X020375Y006906D01*
X020426Y007000D01*
X020482Y007091D01*
X020542Y007180D01*
X020606Y007266D01*
X020675Y007348D01*
X020747Y007428D01*
X020822Y007503D01*
X020902Y007575D01*
X020984Y007644D01*
X021070Y007708D01*
X021159Y007768D01*
X021250Y007824D01*
X021344Y007875D01*
X021440Y007922D01*
X021539Y007964D01*
X021639Y008001D01*
X021741Y008034D01*
X021845Y008062D01*
X021949Y008084D01*
X022055Y008102D01*
X022161Y008115D01*
X022268Y008122D01*
X022375Y008125D01*
X029375Y008125D01*
X029482Y008122D01*
X029589Y008115D01*
X029695Y008102D01*
X029801Y008084D01*
X029905Y008062D01*
X030009Y008034D01*
X030111Y008001D01*
X030211Y007964D01*
X030310Y007922D01*
X030406Y007875D01*
X030500Y007824D01*
X030591Y007768D01*
X030680Y007708D01*
X030766Y007644D01*
X030848Y007575D01*
X030928Y007503D01*
X031003Y007428D01*
X031075Y007348D01*
X031144Y007266D01*
X031208Y007180D01*
X031268Y007091D01*
X031324Y007000D01*
X031375Y006906D01*
X031422Y006810D01*
X031464Y006711D01*
X031501Y006611D01*
X031534Y006509D01*
X031562Y006405D01*
X031584Y006301D01*
X031602Y006195D01*
X031615Y006089D01*
X031622Y005982D01*
X031625Y005875D01*
X051625Y005875D01*
X051625Y052625D01*
X000125Y052625D01*
M02*
