G75*
G70*
%OFA0B0*%
%FSLAX24Y24*%
%IPPOS*%
%LPD*%
%AMOC8*
5,1,8,0,0,1.08239X$1,22.5*
%
%ADD10C,0.0740*%
%ADD11R,0.0880X0.0880*%
%ADD12C,0.0880*%
%ADD13C,0.0820*%
%ADD14C,0.0780*%
%ADD15R,0.0820X0.0820*%
%ADD16C,0.1340*%
%ADD17C,0.0848*%
%ADD18R,0.0714X0.0714*%
%ADD19C,0.0714*%
D10*
X017875Y007625D03*
X017875Y008625D03*
X017875Y009625D03*
X017875Y010625D03*
X017875Y011625D03*
X017875Y012625D03*
X017875Y013625D03*
X017875Y014625D03*
X017875Y015625D03*
X017875Y016625D03*
X017875Y017625D03*
X017875Y018625D03*
X017875Y019625D03*
X017875Y020625D03*
X017875Y021625D03*
X017875Y022625D03*
X017875Y023625D03*
X017875Y024625D03*
X017875Y025625D03*
X017875Y026625D03*
X017875Y027625D03*
X017875Y028625D03*
X017875Y029625D03*
X018875Y029625D03*
X018875Y028625D03*
X018875Y027625D03*
X018875Y026625D03*
X018875Y025625D03*
X018875Y024625D03*
X018875Y023625D03*
X018875Y022625D03*
X018875Y021625D03*
X018875Y020625D03*
X018875Y019625D03*
X018875Y018625D03*
X018875Y017625D03*
X018875Y016625D03*
X018875Y015625D03*
X018875Y014625D03*
X018875Y013625D03*
X018875Y012625D03*
X018875Y011625D03*
X018875Y010625D03*
X018875Y009625D03*
X018875Y008625D03*
X018875Y007625D03*
X032875Y007625D03*
X032875Y008625D03*
X032875Y009625D03*
X032875Y010625D03*
X032875Y011625D03*
X032875Y012625D03*
X032875Y013625D03*
X032875Y014625D03*
X032875Y015625D03*
X032875Y016625D03*
X032875Y017625D03*
X032875Y018625D03*
X032875Y019625D03*
X032875Y020625D03*
X032875Y021625D03*
X032875Y022625D03*
X032875Y023625D03*
X032875Y024625D03*
X032875Y025625D03*
X032875Y026625D03*
X032875Y027625D03*
X032875Y028625D03*
X032875Y029625D03*
X033875Y029625D03*
X033875Y028625D03*
X033875Y027625D03*
X033875Y026625D03*
X033875Y025625D03*
X033875Y024625D03*
X033875Y023625D03*
X033875Y022625D03*
X033875Y021625D03*
X033875Y020625D03*
X033875Y019625D03*
X033875Y018625D03*
X033875Y017625D03*
X033875Y016625D03*
X033875Y015625D03*
X033875Y014625D03*
X033875Y013625D03*
X033875Y012625D03*
X033875Y011625D03*
X033875Y010625D03*
X033875Y009625D03*
X033875Y008625D03*
X033875Y007625D03*
D11*
X015025Y049725D03*
X034125Y050325D03*
D12*
X035503Y050325D03*
X036881Y050325D03*
X038259Y050325D03*
X039637Y050325D03*
X041015Y050325D03*
X042393Y050325D03*
X043771Y050325D03*
X021915Y049725D03*
X020537Y049725D03*
X019159Y049725D03*
X017781Y049725D03*
X016403Y049725D03*
D13*
X024425Y049025D03*
X025425Y049025D03*
X025525Y051125D03*
X024525Y051125D03*
X027825Y051025D03*
X028825Y051025D03*
X028825Y049025D03*
X027825Y049025D03*
X016805Y035615D03*
X016805Y033835D03*
X014245Y033835D03*
X014245Y035615D03*
X008125Y035875D03*
X008125Y034875D03*
X008125Y033875D03*
X008125Y032875D03*
X007125Y033375D03*
X007125Y034375D03*
X007125Y035375D03*
X008025Y040975D03*
X008025Y041975D03*
X008025Y042975D03*
X008025Y043975D03*
X007025Y043475D03*
X007025Y042475D03*
X007025Y041475D03*
X007925Y028375D03*
X007925Y027375D03*
X007925Y026375D03*
X007925Y025375D03*
X006925Y025875D03*
X006925Y026875D03*
X006925Y027875D03*
X008125Y021275D03*
X008125Y020275D03*
X008125Y019275D03*
X008125Y018275D03*
X007125Y018775D03*
X007125Y019775D03*
X007125Y020775D03*
D14*
X046325Y027045D03*
X046325Y029605D03*
D15*
X006925Y028875D03*
X007125Y021775D03*
X007125Y036375D03*
X007025Y044475D03*
D16*
X004525Y044975D03*
X004525Y040475D03*
X004625Y036875D03*
X004625Y032375D03*
X004425Y029375D03*
X004425Y024875D03*
X004625Y022275D03*
X004625Y017775D03*
D17*
X014725Y042625D03*
X013725Y045625D03*
X016725Y045625D03*
X020725Y045625D03*
X023025Y045625D03*
X026025Y045625D03*
X024025Y042625D03*
X020725Y042625D03*
X030025Y042625D03*
X032725Y042625D03*
X031725Y045625D03*
X030025Y045625D03*
X034725Y045625D03*
X038725Y045625D03*
X040225Y045625D03*
X043225Y045625D03*
X041225Y042625D03*
X038725Y042625D03*
X047225Y042625D03*
X047225Y045625D03*
D18*
X035875Y007625D03*
X016875Y007625D03*
D19*
X015875Y007625D03*
X015875Y008625D03*
X015875Y009625D03*
X015875Y010625D03*
X015875Y011625D03*
X015875Y012625D03*
X015875Y013625D03*
X015875Y014625D03*
X015875Y015625D03*
X015875Y016625D03*
X015875Y017625D03*
X015875Y018625D03*
X015875Y019625D03*
X015875Y020625D03*
X015875Y021625D03*
X015875Y022625D03*
X015875Y023625D03*
X015875Y024625D03*
X015875Y025625D03*
X015875Y026625D03*
X015875Y027625D03*
X015875Y028625D03*
X015875Y029625D03*
X016875Y029625D03*
X016875Y028625D03*
X016875Y027625D03*
X016875Y026625D03*
X016875Y025625D03*
X016875Y024625D03*
X016875Y023625D03*
X016875Y022625D03*
X016875Y021625D03*
X016875Y020625D03*
X016875Y019625D03*
X016875Y018625D03*
X016875Y017625D03*
X016875Y016625D03*
X016875Y015625D03*
X016875Y014625D03*
X016875Y013625D03*
X016875Y012625D03*
X016875Y011625D03*
X016875Y010625D03*
X016875Y009625D03*
X016875Y008625D03*
X034875Y008625D03*
X034875Y007625D03*
X035875Y008625D03*
X035875Y009625D03*
X035875Y010625D03*
X035875Y011625D03*
X035875Y012625D03*
X035875Y013625D03*
X035875Y014625D03*
X035875Y015625D03*
X035875Y016625D03*
X035875Y017625D03*
X035875Y018625D03*
X035875Y019625D03*
X035875Y020625D03*
X035875Y021625D03*
X035875Y022625D03*
X035875Y023625D03*
X035875Y024625D03*
X035875Y025625D03*
X035875Y026625D03*
X035875Y027625D03*
X035875Y028625D03*
X035875Y029625D03*
X034875Y029625D03*
X034875Y028625D03*
X034875Y027625D03*
X034875Y026625D03*
X034875Y025625D03*
X034875Y024625D03*
X034875Y023625D03*
X034875Y022625D03*
X034875Y021625D03*
X034875Y020625D03*
X034875Y019625D03*
X034875Y018625D03*
X034875Y017625D03*
X034875Y016625D03*
X034875Y015625D03*
X034875Y014625D03*
X034875Y013625D03*
X034875Y012625D03*
X034875Y011625D03*
X034875Y010625D03*
X034875Y009625D03*
M02*
