%
M48
M72
T01C0.0320
T02C0.0394
T03C0.0400
T04C0.1260
%
T01
X7600Y3200
X6850Y3700
X7600Y4200
T02
X10600Y4450
X11600Y4950
X10600Y5450
X11600Y3950
X10600Y3450
X11600Y2950
X10600Y2450
X11600Y1950
T03
X1100Y1200
X3100Y1200
X4100Y1200
X5100Y1200
X6100Y1200
X7100Y1200
X8100Y1200
X1100Y2200
X1100Y3200
X1100Y4200
X1100Y5200
X1100Y6200
X3100Y6200
X4100Y6200
X5100Y6200
X6100Y6200
X7100Y6200
X8100Y6200
T04
X14100Y5950
X14100Y1450
M30
