G75*
G70*
%OFA0B0*%
%FSLAX24Y24*%
%IPPOS*%
%LPD*%
%AMOC8*
5,1,8,0,0,1.08239X$1,22.5*
%
%ADD10C,0.0040*%
%ADD11C,0.0050*%
%ADD12C,0.0080*%
%ADD13R,0.0079X0.0079*%
%ADD14R,0.0059X0.0098*%
%ADD15C,0.0060*%
%ADD16C,0.0197*%
D10*
X001170Y000320D02*
X001170Y000520D01*
X001303Y000520D01*
X001391Y000420D02*
X001424Y000453D01*
X001491Y000453D01*
X001524Y000420D01*
X001524Y000387D01*
X001391Y000387D01*
X001391Y000420D02*
X001391Y000353D01*
X001424Y000320D01*
X001491Y000320D01*
X001612Y000320D02*
X001712Y000320D01*
X001745Y000353D01*
X001745Y000420D01*
X001712Y000453D01*
X001612Y000453D01*
X001612Y000520D02*
X001612Y000320D01*
X001833Y000320D02*
X001833Y000453D01*
X001833Y000387D02*
X001900Y000453D01*
X001933Y000453D01*
X002017Y000453D02*
X002017Y000353D01*
X002050Y000320D01*
X002151Y000320D01*
X002151Y000453D01*
X002271Y000453D02*
X002338Y000453D01*
X002372Y000420D01*
X002372Y000320D01*
X002271Y000320D01*
X002238Y000353D01*
X002271Y000387D01*
X002372Y000387D01*
X002459Y000387D02*
X002526Y000453D01*
X002559Y000453D01*
X002643Y000453D02*
X002643Y000353D01*
X002677Y000320D01*
X002777Y000320D01*
X002777Y000287D02*
X002743Y000253D01*
X002710Y000253D01*
X002777Y000287D02*
X002777Y000453D01*
X003085Y000487D02*
X003119Y000520D01*
X003185Y000520D01*
X003219Y000487D01*
X003219Y000453D01*
X003085Y000320D01*
X003219Y000320D01*
X003306Y000353D02*
X003440Y000487D01*
X003440Y000353D01*
X003406Y000320D01*
X003340Y000320D01*
X003306Y000353D01*
X003306Y000487D01*
X003340Y000520D01*
X003406Y000520D01*
X003440Y000487D01*
X003527Y000453D02*
X003594Y000520D01*
X003594Y000320D01*
X003527Y000320D02*
X003661Y000320D01*
X003748Y000353D02*
X003782Y000320D01*
X003848Y000320D01*
X003882Y000353D01*
X003882Y000387D01*
X003848Y000420D01*
X003815Y000420D01*
X003848Y000420D02*
X003882Y000453D01*
X003882Y000487D01*
X003848Y000520D01*
X003782Y000520D01*
X003748Y000487D01*
X002459Y000453D02*
X002459Y000320D01*
X001237Y000420D02*
X001170Y000420D01*
X001653Y001220D02*
X001720Y001220D01*
X001753Y001253D01*
X001753Y001320D01*
X001687Y001320D01*
X001753Y001387D02*
X001720Y001420D01*
X001653Y001420D01*
X001620Y001387D01*
X001620Y001253D01*
X001653Y001220D01*
X001841Y001220D02*
X001841Y001420D01*
X001974Y001220D01*
X001974Y001420D01*
X002062Y001420D02*
X002162Y001420D01*
X002195Y001387D01*
X002195Y001253D01*
X002162Y001220D01*
X002062Y001220D01*
X002062Y001420D01*
X002880Y001720D02*
X003013Y001720D01*
X003080Y001787D01*
X003013Y001853D01*
X002880Y001853D01*
X002913Y001941D02*
X003047Y001941D01*
X003080Y001974D01*
X003080Y002041D01*
X003047Y002074D01*
X003047Y002162D02*
X002913Y002162D01*
X002880Y002195D01*
X002880Y002262D01*
X002913Y002295D01*
X002858Y002287D02*
X002858Y002253D01*
X002825Y002220D01*
X002725Y002220D01*
X002725Y002420D01*
X002825Y002420D01*
X002858Y002387D01*
X002858Y002353D01*
X002825Y002320D01*
X002725Y002320D01*
X002825Y002320D02*
X002858Y002287D01*
X003047Y002295D02*
X003080Y002262D01*
X003080Y002195D01*
X003047Y002162D01*
X002913Y002074D02*
X002880Y002041D01*
X002880Y001974D01*
X002913Y001941D01*
X002637Y002187D02*
X002504Y002187D01*
X002416Y002220D02*
X002416Y002420D01*
X002283Y002420D02*
X002283Y002220D01*
X002350Y002287D01*
X002416Y002220D01*
X002195Y002253D02*
X002195Y002387D01*
X002162Y002420D01*
X002095Y002420D01*
X002062Y002387D01*
X002062Y002253D01*
X002095Y002220D01*
X002162Y002220D01*
X002195Y002253D01*
X001974Y002220D02*
X001841Y002220D01*
X001841Y002420D01*
X001753Y002420D02*
X001620Y002420D01*
X001620Y002220D01*
X001620Y002320D02*
X001687Y002320D01*
X003880Y002343D02*
X003913Y002309D01*
X004047Y002309D01*
X004080Y002343D01*
X004080Y002409D01*
X004047Y002443D01*
X003913Y002443D01*
X003880Y002409D01*
X003880Y002343D01*
X003880Y002229D02*
X003880Y002162D01*
X003880Y002195D02*
X004080Y002195D01*
X004080Y002162D02*
X004080Y002229D01*
X003980Y002074D02*
X004013Y002041D01*
X004013Y001941D01*
X004080Y001941D02*
X003880Y001941D01*
X003880Y002041D01*
X003913Y002074D01*
X003980Y002074D01*
X003980Y001853D02*
X003980Y001787D01*
X003980Y001853D02*
X004047Y001853D01*
X004080Y001820D01*
X004080Y001753D01*
X004047Y001720D01*
X003913Y001720D01*
X003880Y001753D01*
X003880Y001820D01*
X003913Y001853D01*
X004880Y001820D02*
X004880Y001753D01*
X004913Y001720D01*
X005047Y001720D01*
X005080Y001753D01*
X005080Y001820D01*
X005047Y001853D01*
X004980Y001853D01*
X004980Y001787D01*
X004913Y001853D02*
X004880Y001820D01*
X004880Y001941D02*
X005080Y002074D01*
X004880Y002074D01*
X004880Y002162D02*
X004880Y002262D01*
X004913Y002295D01*
X005047Y002295D01*
X005080Y002262D01*
X005080Y002162D01*
X004880Y002162D01*
X004880Y001941D02*
X005080Y001941D01*
X005880Y001974D02*
X005913Y001941D01*
X006047Y001941D01*
X006080Y001974D01*
X006080Y002041D01*
X006047Y002074D01*
X006047Y002162D02*
X005913Y002162D01*
X005880Y002195D01*
X005880Y002262D01*
X005913Y002295D01*
X006047Y002295D02*
X006080Y002262D01*
X006080Y002195D01*
X006047Y002162D01*
X005913Y002074D02*
X005880Y002041D01*
X005880Y001974D01*
X005880Y001853D02*
X006013Y001853D01*
X006080Y001787D01*
X006013Y001720D01*
X005880Y001720D01*
X006880Y001753D02*
X006913Y001720D01*
X007047Y001720D01*
X007080Y001753D01*
X007080Y001820D01*
X007047Y001853D01*
X006980Y001853D01*
X006980Y001787D01*
X006913Y001853D02*
X006880Y001820D01*
X006880Y001753D01*
X006880Y001941D02*
X006880Y002041D01*
X006913Y002074D01*
X006980Y002074D01*
X007013Y002041D01*
X007013Y001941D01*
X007080Y001941D02*
X006880Y001941D01*
X006880Y002162D02*
X006880Y002229D01*
X006880Y002195D02*
X007080Y002195D01*
X007080Y002162D02*
X007080Y002229D01*
X007047Y002309D02*
X006913Y002309D01*
X006880Y002343D01*
X006880Y002409D01*
X006913Y002443D01*
X007047Y002443D01*
X007080Y002409D01*
X007080Y002343D01*
X007047Y002309D01*
X007113Y002530D02*
X007113Y002664D01*
X007080Y002751D02*
X006880Y002751D01*
X006880Y002851D01*
X006913Y002885D01*
X006947Y002885D01*
X006980Y002851D01*
X006980Y002751D01*
X007080Y002751D02*
X007080Y002851D01*
X007047Y002885D01*
X007013Y002885D01*
X006980Y002851D01*
X007880Y002262D02*
X007913Y002295D01*
X008047Y002295D01*
X008080Y002262D01*
X008080Y002162D01*
X007880Y002162D01*
X007880Y002262D01*
X007880Y002074D02*
X008080Y002074D01*
X007880Y001941D01*
X008080Y001941D01*
X008047Y001853D02*
X007980Y001853D01*
X007980Y001787D01*
X008047Y001853D02*
X008080Y001820D01*
X008080Y001753D01*
X008047Y001720D01*
X007913Y001720D01*
X007880Y001753D01*
X007880Y001820D01*
X007913Y001853D01*
X005317Y003397D02*
X005294Y003420D01*
X005268Y003440D01*
X005240Y003457D01*
X005211Y003471D01*
X005180Y003482D01*
X005149Y003489D01*
X005116Y003493D01*
X005084Y003493D01*
X005051Y003489D01*
X005020Y003482D01*
X004989Y003471D01*
X004960Y003457D01*
X004932Y003440D01*
X004906Y003420D01*
X004883Y003397D01*
X004883Y003003D02*
X004906Y002980D01*
X004932Y002960D01*
X004960Y002943D01*
X004989Y002929D01*
X005020Y002918D01*
X005051Y002911D01*
X005084Y002907D01*
X005116Y002907D01*
X005149Y002911D01*
X005180Y002918D01*
X005211Y002929D01*
X005240Y002943D01*
X005268Y002960D01*
X005294Y002980D01*
X005317Y003003D01*
X004080Y002885D02*
X003947Y002885D01*
X003880Y002818D01*
X003947Y002751D01*
X004080Y002751D01*
X004113Y002664D02*
X004113Y002530D01*
X003980Y002751D02*
X003980Y002885D01*
X002195Y003253D02*
X002162Y003220D01*
X002095Y003220D01*
X002062Y003253D01*
X002062Y003387D01*
X002095Y003420D01*
X002162Y003420D01*
X002195Y003387D01*
X001974Y003387D02*
X001941Y003420D01*
X001874Y003420D01*
X001841Y003387D01*
X001841Y003253D01*
X001874Y003220D01*
X001941Y003220D01*
X001974Y003253D01*
X001753Y003287D02*
X001753Y003420D01*
X001620Y003420D02*
X001620Y003287D01*
X001687Y003220D01*
X001753Y003287D01*
X001720Y004220D02*
X001653Y004220D01*
X001620Y004253D01*
X001620Y004387D01*
X001653Y004420D01*
X001720Y004420D01*
X001753Y004387D01*
X001753Y004320D02*
X001687Y004320D01*
X001753Y004320D02*
X001753Y004253D01*
X001720Y004220D01*
X001841Y004220D02*
X001841Y004420D01*
X001974Y004220D01*
X001974Y004420D01*
X002062Y004420D02*
X002162Y004420D01*
X002195Y004387D01*
X002195Y004253D01*
X002162Y004220D01*
X002062Y004220D01*
X002062Y004420D01*
X003120Y005090D02*
X003153Y005057D01*
X003287Y005057D01*
X003320Y005090D01*
X003320Y005157D01*
X003287Y005190D01*
X003220Y005190D01*
X003220Y005124D01*
X003153Y005190D02*
X003120Y005157D01*
X003120Y005090D01*
X002858Y005220D02*
X002858Y005353D01*
X002792Y005420D01*
X002725Y005353D01*
X002725Y005220D01*
X002637Y005187D02*
X002504Y005187D01*
X002416Y005220D02*
X002416Y005420D01*
X002283Y005420D02*
X002283Y005220D01*
X002350Y005287D01*
X002416Y005220D01*
X002725Y005320D02*
X002858Y005320D01*
X003120Y005278D02*
X003320Y005411D01*
X003120Y005411D01*
X003120Y005499D02*
X003120Y005599D01*
X003153Y005632D01*
X003287Y005632D01*
X003320Y005599D01*
X003320Y005499D01*
X003120Y005499D01*
X003120Y005278D02*
X003320Y005278D01*
X004120Y005190D02*
X004320Y005190D01*
X004253Y005124D01*
X004320Y005057D01*
X004120Y005057D01*
X004153Y004969D02*
X004120Y004936D01*
X004120Y004869D01*
X004153Y004836D01*
X004287Y004836D01*
X004320Y004869D01*
X004320Y004936D01*
X004287Y004969D01*
X004153Y004969D01*
X004353Y005278D02*
X004353Y005411D01*
X004320Y005499D02*
X004120Y005499D01*
X004120Y005599D01*
X004153Y005632D01*
X004187Y005632D01*
X004220Y005599D01*
X004220Y005499D01*
X004320Y005499D02*
X004320Y005599D01*
X004287Y005632D01*
X004253Y005632D01*
X004220Y005599D01*
X005120Y005599D02*
X005120Y005532D01*
X005153Y005499D01*
X005287Y005499D01*
X005320Y005532D01*
X005320Y005599D01*
X005287Y005632D01*
X005153Y005632D02*
X005120Y005599D01*
X005153Y005411D02*
X005120Y005378D01*
X005120Y005311D01*
X005153Y005278D01*
X005287Y005278D01*
X005320Y005311D01*
X005320Y005378D01*
X005287Y005411D01*
X005253Y005190D02*
X005120Y005190D01*
X005120Y005057D02*
X005253Y005057D01*
X005320Y005124D01*
X005253Y005190D01*
X006120Y005157D02*
X006120Y005090D01*
X006153Y005057D01*
X006287Y005057D01*
X006320Y005090D01*
X006320Y005157D01*
X006287Y005190D01*
X006220Y005190D01*
X006220Y005124D01*
X006153Y005190D02*
X006120Y005157D01*
X006120Y005278D02*
X006320Y005411D01*
X006120Y005411D01*
X006120Y005499D02*
X006120Y005599D01*
X006153Y005632D01*
X006287Y005632D01*
X006320Y005599D01*
X006320Y005499D01*
X006120Y005499D01*
X006120Y005278D02*
X006320Y005278D01*
X007120Y005190D02*
X007320Y005190D01*
X007253Y005124D01*
X007320Y005057D01*
X007120Y005057D01*
X007153Y004969D02*
X007120Y004936D01*
X007120Y004869D01*
X007153Y004836D01*
X007287Y004836D01*
X007320Y004869D01*
X007320Y004936D01*
X007287Y004969D01*
X007153Y004969D01*
X007353Y005278D02*
X007353Y005411D01*
X007320Y005499D02*
X007187Y005499D01*
X007120Y005566D01*
X007187Y005632D01*
X007320Y005632D01*
X007220Y005632D02*
X007220Y005499D01*
X008120Y005532D02*
X008153Y005499D01*
X008287Y005499D01*
X008320Y005532D01*
X008320Y005599D01*
X008287Y005632D01*
X008153Y005632D02*
X008120Y005599D01*
X008120Y005532D01*
X008153Y005411D02*
X008120Y005378D01*
X008120Y005311D01*
X008153Y005278D01*
X008287Y005278D01*
X008320Y005311D01*
X008320Y005378D01*
X008287Y005411D01*
X008253Y005190D02*
X008120Y005190D01*
X008120Y005057D02*
X008253Y005057D01*
X008320Y005124D01*
X008253Y005190D01*
X002195Y005253D02*
X002195Y005387D01*
X002162Y005420D01*
X002095Y005420D01*
X002062Y005387D01*
X002062Y005253D01*
X002095Y005220D01*
X002162Y005220D01*
X002195Y005253D01*
X001974Y005220D02*
X001841Y005220D01*
X001841Y005420D01*
X001753Y005420D02*
X001620Y005420D01*
X001620Y005220D01*
X001620Y005320D02*
X001687Y005320D01*
X001687Y006220D02*
X001753Y006287D01*
X001753Y006420D01*
X001841Y006387D02*
X001841Y006253D01*
X001874Y006220D01*
X001941Y006220D01*
X001974Y006253D01*
X002062Y006253D02*
X002095Y006220D01*
X002162Y006220D01*
X002195Y006253D01*
X002062Y006253D02*
X002062Y006387D01*
X002095Y006420D01*
X002162Y006420D01*
X002195Y006387D01*
X001974Y006387D02*
X001941Y006420D01*
X001874Y006420D01*
X001841Y006387D01*
X001620Y006420D02*
X001620Y006287D01*
X001687Y006220D01*
D11*
X001503Y006742D02*
X001461Y006742D01*
X001503Y006742D02*
X001544Y006783D01*
X001544Y006992D01*
X001419Y006992D01*
X001377Y006950D01*
X001377Y006867D01*
X001419Y006825D01*
X001544Y006825D01*
X001654Y006825D02*
X001779Y006825D01*
X001821Y006867D01*
X001821Y006950D01*
X001779Y006992D01*
X001654Y006992D01*
X001654Y007075D02*
X001654Y006825D01*
X001930Y006867D02*
X001930Y006950D01*
X001972Y006992D01*
X002055Y006992D01*
X002097Y006950D01*
X002097Y006867D01*
X002055Y006825D01*
X001972Y006825D01*
X001930Y006867D01*
X002206Y006992D02*
X002290Y006992D01*
X002248Y007034D02*
X002248Y006867D01*
X002290Y006825D01*
X002667Y006825D02*
X002667Y007075D01*
X002708Y006950D02*
X002833Y006825D01*
X002943Y006867D02*
X002943Y006950D01*
X002985Y006992D01*
X003068Y006992D01*
X003110Y006950D01*
X003110Y006908D01*
X002943Y006908D01*
X002943Y006867D02*
X002985Y006825D01*
X003068Y006825D01*
X003219Y006867D02*
X003261Y006825D01*
X003386Y006825D01*
X003386Y006783D02*
X003386Y006992D01*
X003261Y006992D01*
X003219Y006950D01*
X003219Y006867D01*
X003302Y006742D02*
X003344Y006742D01*
X003386Y006783D01*
X003495Y006825D02*
X003620Y006825D01*
X003662Y006867D01*
X003662Y006950D01*
X003620Y006992D01*
X003495Y006992D01*
X003495Y007075D02*
X003495Y006825D01*
X003772Y006867D02*
X003772Y006950D01*
X003813Y006992D01*
X003897Y006992D01*
X003938Y006950D01*
X003938Y006867D01*
X003897Y006825D01*
X003813Y006825D01*
X003772Y006867D01*
X004048Y006867D02*
X004089Y006908D01*
X004215Y006908D01*
X004215Y006950D02*
X004215Y006825D01*
X004089Y006825D01*
X004048Y006867D01*
X004089Y006992D02*
X004173Y006992D01*
X004215Y006950D01*
X004324Y006908D02*
X004407Y006992D01*
X004449Y006992D01*
X004554Y006950D02*
X004596Y006992D01*
X004721Y006992D01*
X004721Y007075D02*
X004721Y006825D01*
X004596Y006825D01*
X004554Y006867D01*
X004554Y006950D01*
X004324Y006992D02*
X004324Y006825D01*
X005107Y006867D02*
X005148Y006825D01*
X005232Y006825D01*
X005273Y006867D01*
X005383Y006867D02*
X005425Y006825D01*
X005508Y006825D01*
X005550Y006867D01*
X005550Y006950D01*
X005508Y006992D01*
X005425Y006992D01*
X005383Y006950D01*
X005383Y006867D01*
X005659Y006867D02*
X005701Y006908D01*
X005826Y006908D01*
X005826Y006950D02*
X005826Y006825D01*
X005701Y006825D01*
X005659Y006867D01*
X005701Y006992D02*
X005784Y006992D01*
X005826Y006950D01*
X005935Y006950D02*
X005977Y006908D01*
X006060Y006908D01*
X006102Y006867D01*
X006060Y006825D01*
X005935Y006825D01*
X006253Y006867D02*
X006295Y006825D01*
X006253Y006867D02*
X006253Y007034D01*
X006212Y006992D02*
X006295Y006992D01*
X006396Y006950D02*
X006437Y006992D01*
X006521Y006992D01*
X006563Y006950D01*
X006563Y006908D01*
X006396Y006908D01*
X006396Y006867D02*
X006396Y006950D01*
X006396Y006867D02*
X006437Y006825D01*
X006521Y006825D01*
X006672Y006825D02*
X006672Y006992D01*
X006755Y006992D02*
X006797Y006992D01*
X006755Y006992D02*
X006672Y006908D01*
X007178Y006992D02*
X007262Y006825D01*
X007345Y006992D01*
X007455Y006867D02*
X007496Y006867D01*
X007496Y006825D01*
X007455Y006825D01*
X007455Y006867D01*
X007593Y006825D02*
X007760Y006992D01*
X007760Y007034D01*
X007718Y007075D01*
X007634Y007075D01*
X007593Y007034D01*
X008007Y007034D02*
X008049Y007075D01*
X008132Y007075D01*
X008174Y007034D01*
X008007Y006867D01*
X008049Y006825D01*
X008132Y006825D01*
X008174Y006867D01*
X008174Y007034D01*
X008007Y007034D02*
X008007Y006867D01*
X007911Y006867D02*
X007911Y006825D01*
X007869Y006825D01*
X007869Y006867D01*
X007911Y006867D01*
X007760Y006825D02*
X007593Y006825D01*
X006102Y006992D02*
X005977Y006992D01*
X005935Y006950D01*
X005273Y007034D02*
X005232Y007075D01*
X005148Y007075D01*
X005107Y007034D01*
X005107Y006867D01*
X002833Y007075D02*
X002667Y006908D01*
X001268Y006908D02*
X001101Y006908D01*
X001101Y006867D02*
X001101Y006950D01*
X001143Y006992D01*
X001226Y006992D01*
X001268Y006950D01*
X001268Y006908D01*
X001226Y006825D02*
X001143Y006825D01*
X001101Y006867D01*
X000992Y006825D02*
X000867Y006950D01*
X000825Y006908D02*
X000992Y007075D01*
X000825Y007075D02*
X000825Y006825D01*
X009625Y006825D02*
X009625Y007075D01*
X009708Y006992D01*
X009792Y007075D01*
X009792Y006825D01*
X009901Y006867D02*
X009943Y006908D01*
X010068Y006908D01*
X010068Y006950D02*
X010068Y006825D01*
X009943Y006825D01*
X009901Y006867D01*
X009943Y006992D02*
X010026Y006992D01*
X010068Y006950D01*
X010177Y006950D02*
X010219Y006992D01*
X010344Y006992D01*
X010344Y007075D02*
X010344Y006825D01*
X010219Y006825D01*
X010177Y006867D01*
X010177Y006950D01*
X010454Y006950D02*
X010495Y006992D01*
X010579Y006992D01*
X010621Y006950D01*
X010621Y006908D01*
X010454Y006908D01*
X010454Y006867D02*
X010454Y006950D01*
X010454Y006867D02*
X010495Y006825D01*
X010579Y006825D01*
X011006Y006825D02*
X011090Y006825D01*
X011048Y006825D02*
X011048Y006992D01*
X011006Y006992D01*
X011048Y007075D02*
X011048Y007117D01*
X011190Y006992D02*
X011315Y006992D01*
X011357Y006950D01*
X011357Y006825D01*
X011190Y006825D02*
X011190Y006992D01*
X011743Y006992D02*
X011826Y006992D01*
X011785Y007034D02*
X011785Y006867D01*
X011826Y006825D01*
X011927Y006825D02*
X011927Y007075D01*
X011969Y006992D02*
X012052Y006992D01*
X012094Y006950D01*
X012094Y006825D01*
X012203Y006867D02*
X012203Y006950D01*
X012245Y006992D01*
X012328Y006992D01*
X012370Y006950D01*
X012370Y006908D01*
X012203Y006908D01*
X012203Y006867D02*
X012245Y006825D01*
X012328Y006825D01*
X011969Y006992D02*
X011927Y006950D01*
X012756Y006867D02*
X012797Y006825D01*
X012881Y006825D01*
X012922Y006867D01*
X012922Y007075D01*
X013032Y007034D02*
X013032Y006992D01*
X013074Y006950D01*
X013157Y006950D01*
X013199Y006908D01*
X013199Y006867D01*
X013157Y006825D01*
X013074Y006825D01*
X013032Y006867D01*
X013308Y006825D02*
X013308Y006992D01*
X013392Y007075D01*
X013475Y006992D01*
X013475Y006825D01*
X013475Y006950D02*
X013308Y006950D01*
X013199Y007034D02*
X013157Y007075D01*
X013074Y007075D01*
X013032Y007034D01*
X012756Y007075D02*
X012756Y006867D01*
X012813Y000575D02*
X012897Y000492D01*
X012897Y000325D01*
X013006Y000325D02*
X013006Y000575D01*
X013173Y000575D01*
X013090Y000450D02*
X013006Y000450D01*
X012897Y000450D02*
X012730Y000450D01*
X012730Y000492D02*
X012813Y000575D01*
X012730Y000492D02*
X012730Y000325D01*
X012621Y000367D02*
X012579Y000325D01*
X012495Y000325D01*
X012454Y000367D01*
X012454Y000534D01*
X012495Y000575D01*
X012579Y000575D01*
X012621Y000534D01*
X012344Y000575D02*
X012344Y000325D01*
X012177Y000575D01*
X012177Y000325D01*
X012068Y000325D02*
X011901Y000325D01*
X011901Y000575D01*
X012068Y000575D01*
X011985Y000450D02*
X011901Y000450D01*
X011792Y000408D02*
X011792Y000575D01*
X011625Y000575D02*
X011625Y000408D01*
X011708Y000325D01*
X011792Y000408D01*
X013282Y000367D02*
X013282Y000325D01*
X013324Y000325D01*
X013324Y000367D01*
X013282Y000367D01*
X013421Y000367D02*
X013462Y000325D01*
X013546Y000325D01*
X013587Y000367D01*
X013587Y000534D01*
X013546Y000575D01*
X013462Y000575D01*
X013421Y000534D01*
X013421Y000367D01*
X013697Y000408D02*
X013822Y000408D01*
X013864Y000450D01*
X013864Y000534D01*
X013822Y000575D01*
X013697Y000575D01*
X013697Y000325D01*
X013780Y000408D02*
X013864Y000325D01*
X013973Y000367D02*
X014015Y000325D01*
X014098Y000325D01*
X014140Y000367D01*
X014140Y000450D01*
X014056Y000450D01*
X013973Y000367D02*
X013973Y000534D01*
X014015Y000575D01*
X014098Y000575D01*
X014140Y000534D01*
D12*
X015281Y000700D02*
X015281Y006700D01*
X010163Y006700D01*
X010163Y000700D01*
X015281Y000700D01*
X008600Y000950D02*
X008600Y001450D01*
X008350Y001700D01*
X007850Y001700D01*
X007600Y001450D01*
X007350Y001700D01*
X006850Y001700D01*
X006600Y001450D01*
X006350Y001700D01*
X005850Y001700D01*
X005600Y001450D01*
X005350Y001700D01*
X004850Y001700D01*
X004600Y001450D01*
X004350Y001700D01*
X003850Y001700D01*
X003600Y001450D01*
X003350Y001700D01*
X002850Y001700D01*
X002600Y001450D01*
X002600Y000950D01*
X002850Y000700D01*
X003350Y000700D01*
X003600Y000950D01*
X003850Y000700D01*
X004350Y000700D01*
X004600Y000950D01*
X004850Y000700D01*
X005350Y000700D01*
X005600Y000950D01*
X005850Y000700D01*
X006350Y000700D01*
X006600Y000950D01*
X006850Y000700D01*
X007350Y000700D01*
X007600Y000950D01*
X007850Y000700D01*
X008350Y000700D01*
X008600Y000950D01*
X008092Y003649D02*
X007108Y003649D01*
X007108Y004751D01*
X008092Y004751D01*
X008092Y003649D01*
X007850Y005700D02*
X007600Y005950D01*
X007350Y005700D01*
X006850Y005700D01*
X006600Y005950D01*
X006350Y005700D01*
X005850Y005700D01*
X005600Y005950D01*
X005350Y005700D01*
X004850Y005700D01*
X004600Y005950D01*
X004350Y005700D01*
X003850Y005700D01*
X003600Y005950D01*
X003350Y005700D01*
X002850Y005700D01*
X002600Y005950D01*
X002600Y006450D01*
X002850Y006700D01*
X003350Y006700D01*
X003600Y006450D01*
X003850Y006700D01*
X004350Y006700D01*
X004600Y006450D01*
X004850Y006700D01*
X005350Y006700D01*
X005600Y006450D01*
X005850Y006700D01*
X006350Y006700D01*
X006600Y006450D01*
X006850Y006700D01*
X007350Y006700D01*
X007600Y006450D01*
X007850Y006700D01*
X008350Y006700D01*
X008600Y006450D01*
X008600Y005950D01*
X008350Y005700D01*
X007850Y005700D01*
X001600Y005450D02*
X001600Y004950D01*
X001350Y004700D01*
X001600Y004450D01*
X001600Y003950D01*
X001350Y003700D01*
X001600Y003450D01*
X001600Y002950D01*
X001350Y002700D01*
X001600Y002450D01*
X001600Y001950D01*
X001350Y001700D01*
X001600Y001450D01*
X001600Y000950D01*
X001350Y000700D01*
X000850Y000700D01*
X000600Y000950D01*
X000600Y001450D01*
X000850Y001700D01*
X000600Y001950D01*
X000600Y002450D01*
X000850Y002700D01*
X000600Y002950D01*
X000600Y003450D01*
X000850Y003700D01*
X000600Y003950D01*
X000600Y004450D01*
X000850Y004700D01*
X000600Y004950D01*
X000600Y005450D01*
X000850Y005700D01*
X000600Y005950D01*
X000600Y006450D01*
X000850Y006700D01*
X001350Y006700D01*
X001600Y006450D01*
X001600Y005950D01*
X001350Y005700D01*
X001600Y005450D01*
D13*
X005100Y003200D03*
D14*
X005307Y002974D03*
D15*
X008864Y004082D02*
X008864Y004318D01*
X009336Y004318D02*
X009336Y004082D01*
D16*
X007285Y004535D03*
M02*
