G75*
G70*
%OFA0B0*%
%FSLAX24Y24*%
%IPPOS*%
%LPD*%
%AMOC8*
5,1,8,0,0,1.08239X$1,22.5*
%
%ADD10R,0.0157X0.0531*%
%ADD11R,0.0315X0.0472*%
%ADD12R,0.0472X0.0315*%
%ADD13R,0.0248X0.0327*%
%ADD14R,0.0354X0.0315*%
%ADD15R,0.0472X0.0551*%
%ADD16R,0.0390X0.0120*%
%ADD17R,0.0780X0.0220*%
%ADD18R,0.0354X0.0276*%
%ADD19R,0.0276X0.0354*%
D10*
X011441Y025469D03*
X011697Y025469D03*
X011953Y025469D03*
X012209Y025469D03*
X012209Y027181D03*
X011953Y027181D03*
X011697Y027181D03*
X011441Y027181D03*
D11*
X009679Y026425D03*
X008971Y026425D03*
X008971Y025325D03*
X009679Y025325D03*
X011251Y022975D03*
X011959Y022975D03*
X011859Y021575D03*
X011151Y021575D03*
X011151Y020075D03*
X011859Y020075D03*
X011859Y018575D03*
X011151Y018575D03*
X009689Y018005D03*
X008981Y018005D03*
X008961Y019145D03*
X009669Y019145D03*
X009679Y020305D03*
X008971Y020305D03*
X008931Y021485D03*
X009639Y021485D03*
X013551Y021375D03*
X014259Y021375D03*
X014259Y020075D03*
X013551Y020075D03*
X013451Y017075D03*
X014159Y017075D03*
X014259Y024475D03*
X013551Y024475D03*
X017971Y038425D03*
X018679Y038425D03*
X018079Y039625D03*
X017371Y039625D03*
X024971Y038325D03*
X025679Y038325D03*
X025771Y039425D03*
X026479Y039425D03*
X034371Y038525D03*
X035079Y038525D03*
X035071Y039425D03*
X035779Y039425D03*
X043371Y039825D03*
X044079Y039825D03*
X044079Y038725D03*
X043371Y038725D03*
X038479Y030425D03*
X037771Y030425D03*
X032879Y030625D03*
X032171Y030625D03*
X039871Y020625D03*
X040579Y020625D03*
X040579Y019925D03*
X039871Y019925D03*
X043371Y020425D03*
X044079Y020425D03*
X045871Y020725D03*
X046579Y020725D03*
X046579Y018225D03*
X045871Y018225D03*
X044179Y017725D03*
X043471Y017725D03*
X045971Y015425D03*
X046679Y015425D03*
X044179Y014625D03*
X043471Y014625D03*
X045971Y012325D03*
X046679Y012325D03*
X046679Y009825D03*
X045971Y009825D03*
X044079Y012025D03*
X043371Y012025D03*
X038279Y013725D03*
X038279Y014425D03*
X037571Y014425D03*
X037571Y013725D03*
X037571Y016025D03*
X037571Y016725D03*
X038279Y016725D03*
X038279Y016025D03*
X018679Y006525D03*
X017971Y006525D03*
D12*
X010925Y012771D03*
X010925Y013479D03*
X014625Y013479D03*
X014625Y012771D03*
X020825Y009379D03*
X020825Y008671D03*
X038625Y022071D03*
X038625Y022779D03*
X030925Y029571D03*
X030925Y030279D03*
X024625Y034471D03*
X024625Y035179D03*
X026425Y037271D03*
X026425Y037979D03*
X020625Y035279D03*
X020625Y034571D03*
X018925Y036971D03*
X018925Y037679D03*
X035925Y037371D03*
X035925Y038079D03*
X044725Y038071D03*
X044725Y038779D03*
X047425Y019479D03*
X047425Y018771D03*
X047425Y016879D03*
X047425Y016171D03*
X047525Y013859D03*
X047525Y013151D03*
X047425Y010579D03*
X047425Y009871D03*
D13*
X046078Y039525D03*
X045172Y039525D03*
X037378Y039425D03*
X036472Y039425D03*
X028078Y039425D03*
X027172Y039425D03*
X020078Y039325D03*
X019172Y039325D03*
D14*
X019631Y038399D03*
X019631Y037651D03*
X020458Y038025D03*
X027231Y037951D03*
X027231Y038699D03*
X028058Y038325D03*
X036631Y037951D03*
X036631Y038699D03*
X037458Y038325D03*
X046031Y037951D03*
X046031Y038699D03*
X046858Y038325D03*
X046619Y019699D03*
X046619Y018951D03*
X045792Y019325D03*
X046519Y016999D03*
X045692Y016625D03*
X046519Y016251D03*
X046719Y013899D03*
X046719Y013151D03*
X045892Y013525D03*
X046619Y011299D03*
X046619Y010551D03*
X045792Y010925D03*
D15*
X044716Y010925D03*
X043534Y010925D03*
X043634Y013425D03*
X044816Y013425D03*
X044716Y016625D03*
X043534Y016625D03*
X043534Y019325D03*
X044716Y019325D03*
X040416Y030425D03*
X039234Y030425D03*
X037416Y040525D03*
X036234Y040525D03*
X028116Y040525D03*
X026934Y040525D03*
X020016Y040525D03*
X018834Y040525D03*
X045534Y040725D03*
X046716Y040725D03*
D16*
X023874Y034277D03*
X023874Y034021D03*
X023874Y033765D03*
X023874Y033509D03*
X023874Y033253D03*
X023874Y032997D03*
X023874Y032741D03*
X023874Y032485D03*
X023874Y032229D03*
X023874Y031973D03*
X021576Y031973D03*
X021576Y032229D03*
X021576Y032485D03*
X021576Y032741D03*
X021576Y032997D03*
X021576Y033253D03*
X021576Y033509D03*
X021576Y033765D03*
X021576Y034021D03*
X021576Y034277D03*
X013874Y015877D03*
X013874Y015621D03*
X013874Y015365D03*
X013874Y015109D03*
X013874Y014853D03*
X013874Y014597D03*
X013874Y014341D03*
X013874Y014085D03*
X013874Y013829D03*
X013874Y013573D03*
X011576Y013573D03*
X011576Y013829D03*
X011576Y014085D03*
X011576Y014341D03*
X011576Y014597D03*
X011576Y014853D03*
X011576Y015109D03*
X011576Y015365D03*
X011576Y015621D03*
X011576Y015877D03*
D17*
X039335Y033325D03*
X039335Y033825D03*
X039335Y034325D03*
X039335Y034825D03*
X041275Y034825D03*
X041275Y034325D03*
X041275Y033825D03*
X041275Y033325D03*
D18*
X014079Y018831D03*
X014079Y018319D03*
X013331Y018575D03*
D19*
X013749Y022601D03*
X014261Y022601D03*
X014005Y023349D03*
M02*
