%
M48
M72
T01C0.0140
T02C0.0354
T03C0.0394
T04C0.0400
T05C0.0472
T06C0.0512
T07C0.1260
%
T01
X13705Y6275
X13945Y6995
X14185Y7635
X14425Y9075
X13625Y9315
X17465Y10195
X19625Y8675
X19945Y8915
X20345Y8435
X20345Y7635
X19865Y6995
X19625Y6275
X17945Y6995
X21385Y8675
X17465Y14195
X17385Y16115
X18185Y16115
X19225Y16195
X19625Y15635
X19865Y15075
X20825Y17235
X20345Y18035
X20585Y18835
X20105Y19155
X19785Y19395
X19465Y19875
X19225Y20195
X19625Y20595
X19625Y21875
X20105Y22195
X18185Y20115
X17385Y20115
X17465Y20995
X17465Y22195
X17465Y24995
X18345Y24995
X17465Y26195
X15225Y27875
X14905Y27635
X14505Y28115
X14665Y26115
X14025Y25875
X13705Y25635
X14265Y24995
X13545Y23955
X14265Y22995
X14025Y22115
X13225Y20835
X13545Y20595
X13225Y19555
X13785Y19155
X14825Y19155
X12345Y19555
X11865Y19155
X11145Y19555
X10345Y19315
X10105Y18755
X10585Y18515
X9705Y19635
X8985Y19635
X8985Y18515
X9625Y20995
X10105Y21235
X10825Y22115
X11865Y22115
X12345Y21875
X12585Y22995
X12185Y24915
X12185Y26675
X10905Y27395
X10665Y27795
X11465Y28355
X10505Y26115
X8985Y27955
X8585Y26355
X8585Y25395
X9705Y23955
X9305Y22115
X8905Y21955
X11145Y20995
X11145Y20595
X6425Y20755
X6025Y19795
X6265Y21795
X6505Y24675
X6025Y26915
X6265Y28915
X14025Y30195
X14505Y30435
X14025Y33155
X15785Y33155
X16025Y35635
X17945Y35875
X18905Y33875
X20825Y30595
X20585Y30275
X24745Y26195
X24985Y26515
X26105Y26595
X27065Y26115
X27305Y26595
X27785Y25875
X28025Y25475
X28025Y24995
X28905Y25795
X29785Y26115
X29945Y25475
X30425Y25795
X30665Y26515
X32185Y26275
X30185Y24515
X29145Y24035
X29385Y23635
X28025Y23635
X28025Y24035
X27145Y23955
X26745Y23955
X26665Y24355
X27145Y24515
X26505Y23555
X26185Y22995
X26265Y22275
X26025Y21955
X25785Y21635
X25705Y21235
X25545Y22275
X25225Y22995
X24825Y23555
X24825Y23955
X24825Y24515
X24825Y24915
X23545Y24435
X23305Y24915
X23785Y22995
X24265Y20355
X24425Y19555
X25225Y19555
X25465Y19875
X25945Y20115
X26505Y20035
X26825Y19795
X27305Y20355
X27785Y20355
X27625Y19635
X28025Y18595
X28185Y18035
X27145Y18355
X27065Y17955
X27065Y17475
X26745Y18515
X26505Y18835
X26025Y18515
X25705Y18035
X25705Y17635
X25705Y17235
X24425Y17235
X23785Y17395
X24025Y18355
X24825Y18595
X23545Y16195
X19625Y17875
X18425Y18035
X18425Y17155
X17385Y18115
X19225Y19155
X20345Y24995
X27305Y22995
X27945Y26515
X27945Y26915
X29145Y26915
X31385Y29635
X31385Y30515
X32185Y31395
X34105Y30515
X34345Y31635
X37385Y30515
X37785Y29955
X38425Y29955
X38665Y29635
X38185Y31395
X40665Y31395
X40425Y29635
X42185Y30275
X43385Y31155
X42185Y27075
X39865Y23155
X40585Y22435
X41385Y21955
X41705Y21715
X40585Y21315
X39865Y21075
X39385Y21555
X38985Y22435
X38425Y23155
X38025Y21795
X36905Y22035
X34505Y19235
X33385Y18035
X32265Y18355
X31865Y18515
X32265Y19235
X35385Y16355
X36425Y16035
X37145Y16595
X37545Y15555
X37145Y15235
X37545Y14995
X36425Y14995
X32025Y10595
X32025Y8595
X31945Y6515
X32265Y6275
X38265Y8595
X42985Y6275
X44105Y10595
X42985Y11475
X45945Y11475
X45945Y16195
X45865Y18915
X44105Y21075
X45865Y21555
X46585Y21315
X47945Y6275
X30025Y30275
X29785Y31155
X30265Y31635
X27145Y35635
X27945Y35875
X27785Y36835
X27225Y37555
X26425Y36835
X24985Y37555
X26505Y38915
X26905Y39955
X25785Y39955
X27385Y42595
X27865Y45635
X26025Y46835
X25465Y46835
X26745Y47875
X26745Y49715
X28825Y49715
X28825Y47715
X29385Y47555
X31705Y46595
X34105Y47315
X34745Y46355
X35465Y47075
X36905Y46915
X37385Y45635
X38265Y46755
X39625Y46595
X40985Y46355
X42425Y45635
X43865Y45635
X46585Y45635
X45545Y41235
X45145Y40275
X46105Y40035
X46745Y40035
X47225Y40275
X44105Y41235
X43385Y40275
X38745Y40275
X38745Y39875
X36505Y39875
X35065Y39875
X33945Y39875
X30025Y39875
X23065Y47075
X21945Y48995
X20505Y47715
X19385Y48995
X19145Y50435
X17785Y48995
X16745Y47315
X15865Y47075
X15465Y47795
X15145Y48035
X13705Y47555
X15065Y50435
X15705Y52195
X20025Y45635
X19145Y42595
X17385Y40115
X18105Y38915
X19145Y38915
X18825Y40035
X20025Y37635
X25545Y52195
T02
X46325Y29605
X46325Y27045
T03
X35875Y26625
X35875Y25625
X35875Y24625
X35875Y23625
X35875Y22625
X35875Y21625
X35875Y20625
X35875Y19625
X35875Y18625
X35875Y17625
X35875Y16625
X35875Y15625
X35875Y14625
X35875Y13625
X35875Y12625
X35875Y11625
X35875Y10625
X35875Y9625
X35875Y8625
X35875Y7625
X34875Y7625
X34875Y8625
X34875Y9625
X34875Y10625
X34875Y11625
X34875Y12625
X34875Y13625
X34875Y14625
X34875Y15625
X34875Y16625
X34875Y17625
X34875Y18625
X34875Y19625
X34875Y20625
X34875Y21625
X34875Y22625
X34875Y23625
X34875Y24625
X34875Y25625
X34875Y26625
X34875Y27625
X34875Y28625
X34875Y29625
X33875Y29625
X33875Y28625
X33875Y27625
X33875Y26625
X33875Y25625
X33875Y24625
X33875Y23625
X33875Y22625
X33875Y21625
X33875Y20625
X33875Y19625
X33875Y18625
X33875Y17625
X33875Y16625
X33875Y15625
X33875Y14625
X33875Y13625
X33875Y12625
X33875Y11625
X33875Y10625
X33875Y9625
X33875Y8625
X33875Y7625
X32875Y7625
X32875Y8625
X32875Y9625
X32875Y10625
X32875Y11625
X32875Y12625
X32875Y13625
X32875Y14625
X32875Y15625
X32875Y16625
X32875Y17625
X32875Y18625
X32875Y19625
X32875Y20625
X32875Y21625
X32875Y22625
X32875Y23625
X32875Y24625
X32875Y25625
X32875Y26625
X32875Y27625
X32875Y28625
X32875Y29625
X35875Y29625
X35875Y28625
X35875Y27625
X18875Y27625
X18875Y26625
X18875Y25625
X18875Y24625
X18875Y23625
X18875Y22625
X18875Y21625
X18875Y20625
X18875Y19625
X18875Y18625
X18875Y17625
X18875Y16625
X18875Y15625
X18875Y14625
X18875Y13625
X18875Y12625
X18875Y11625
X18875Y10625
X18875Y9625
X18875Y8625
X18875Y7625
X17875Y7625
X17875Y8625
X17875Y9625
X17875Y10625
X17875Y11625
X17875Y12625
X17875Y13625
X17875Y14625
X17875Y15625
X17875Y16625
X17875Y17625
X17875Y18625
X17875Y19625
X17875Y20625
X17875Y21625
X17875Y22625
X17875Y23625
X17875Y24625
X17875Y25625
X17875Y26625
X17875Y27625
X17875Y28625
X17875Y29625
X16875Y29625
X16875Y28625
X16875Y27625
X16875Y26625
X16875Y25625
X16875Y24625
X16875Y23625
X16875Y22625
X16875Y21625
X16875Y20625
X16875Y19625
X16875Y18625
X16875Y17625
X16875Y16625
X16875Y15625
X16875Y14625
X16875Y13625
X16875Y12625
X16875Y11625
X16875Y10625
X16875Y9625
X16875Y8625
X16875Y7625
X15875Y7625
X15875Y8625
X15875Y9625
X15875Y10625
X15875Y11625
X15875Y12625
X15875Y13625
X15875Y14625
X15875Y15625
X15875Y16625
X15875Y17625
X15875Y18625
X15875Y19625
X15875Y20625
X15875Y21625
X15875Y22625
X15875Y23625
X15875Y24625
X15875Y25625
X15875Y26625
X15875Y27625
X15875Y28625
X15875Y29625
X18875Y29625
X18875Y28625
X7925Y28375
X7925Y27375
X7925Y26375
X7925Y25375
X6925Y25875
X6925Y26875
X6925Y27875
X6925Y28875
X7125Y21775
X7125Y20775
X7125Y19775
X7125Y18775
X8125Y18275
X8125Y19275
X8125Y20275
X8125Y21275
T04
X14245Y33835
X14245Y35615
X16805Y35615
X16805Y33835
X24425Y49025
X25425Y49025
X25525Y51125
X24525Y51125
X27825Y51025
X28825Y51025
X28825Y49025
X27825Y49025
T05
X21915Y49725
X20537Y49725
X19159Y49725
X17781Y49725
X16403Y49725
X15025Y49725
X34125Y50325
X35503Y50325
X36881Y50325
X38259Y50325
X39637Y50325
X41015Y50325
X42393Y50325
X43771Y50325
T06
X43225Y45625
X40225Y45625
X38725Y45625
X38725Y42625
X41225Y42625
X47225Y42625
X47225Y45625
X34725Y45625
X31725Y45625
X30025Y45625
X30025Y42625
X32725Y42625
X26025Y45625
X23025Y45625
X20725Y45625
X20725Y42625
X24025Y42625
X16725Y45625
X13725Y45625
X14725Y42625
T07
X4425Y29375
X4425Y24875
X4625Y22275
X4625Y17775
M30
