G75*
G70*
%OFA0B0*%
%FSLAX24Y24*%
%IPPOS*%
%LPD*%
%AMOC8*
5,1,8,0,0,1.08239X$1,22.5*
%
%ADD10C,0.0000*%
%ADD11C,0.0050*%
D10*
X003995Y017775D02*
X003997Y017825D01*
X004003Y017875D01*
X004013Y017924D01*
X004027Y017972D01*
X004044Y018019D01*
X004065Y018064D01*
X004090Y018108D01*
X004118Y018149D01*
X004150Y018188D01*
X004184Y018225D01*
X004221Y018259D01*
X004261Y018289D01*
X004303Y018316D01*
X004347Y018340D01*
X004393Y018361D01*
X004440Y018377D01*
X004488Y018390D01*
X004538Y018399D01*
X004587Y018404D01*
X004638Y018405D01*
X004688Y018402D01*
X004737Y018395D01*
X004786Y018384D01*
X004834Y018369D01*
X004880Y018351D01*
X004925Y018329D01*
X004968Y018303D01*
X005009Y018274D01*
X005048Y018242D01*
X005084Y018207D01*
X005116Y018169D01*
X005146Y018129D01*
X005173Y018086D01*
X005196Y018042D01*
X005215Y017996D01*
X005231Y017948D01*
X005243Y017899D01*
X005251Y017850D01*
X005255Y017800D01*
X005255Y017750D01*
X005251Y017700D01*
X005243Y017651D01*
X005231Y017602D01*
X005215Y017554D01*
X005196Y017508D01*
X005173Y017464D01*
X005146Y017421D01*
X005116Y017381D01*
X005084Y017343D01*
X005048Y017308D01*
X005009Y017276D01*
X004968Y017247D01*
X004925Y017221D01*
X004880Y017199D01*
X004834Y017181D01*
X004786Y017166D01*
X004737Y017155D01*
X004688Y017148D01*
X004638Y017145D01*
X004587Y017146D01*
X004538Y017151D01*
X004488Y017160D01*
X004440Y017173D01*
X004393Y017189D01*
X004347Y017210D01*
X004303Y017234D01*
X004261Y017261D01*
X004221Y017291D01*
X004184Y017325D01*
X004150Y017362D01*
X004118Y017401D01*
X004090Y017442D01*
X004065Y017486D01*
X004044Y017531D01*
X004027Y017578D01*
X004013Y017626D01*
X004003Y017675D01*
X003997Y017725D01*
X003995Y017775D01*
X003995Y022275D02*
X003997Y022325D01*
X004003Y022375D01*
X004013Y022424D01*
X004027Y022472D01*
X004044Y022519D01*
X004065Y022564D01*
X004090Y022608D01*
X004118Y022649D01*
X004150Y022688D01*
X004184Y022725D01*
X004221Y022759D01*
X004261Y022789D01*
X004303Y022816D01*
X004347Y022840D01*
X004393Y022861D01*
X004440Y022877D01*
X004488Y022890D01*
X004538Y022899D01*
X004587Y022904D01*
X004638Y022905D01*
X004688Y022902D01*
X004737Y022895D01*
X004786Y022884D01*
X004834Y022869D01*
X004880Y022851D01*
X004925Y022829D01*
X004968Y022803D01*
X005009Y022774D01*
X005048Y022742D01*
X005084Y022707D01*
X005116Y022669D01*
X005146Y022629D01*
X005173Y022586D01*
X005196Y022542D01*
X005215Y022496D01*
X005231Y022448D01*
X005243Y022399D01*
X005251Y022350D01*
X005255Y022300D01*
X005255Y022250D01*
X005251Y022200D01*
X005243Y022151D01*
X005231Y022102D01*
X005215Y022054D01*
X005196Y022008D01*
X005173Y021964D01*
X005146Y021921D01*
X005116Y021881D01*
X005084Y021843D01*
X005048Y021808D01*
X005009Y021776D01*
X004968Y021747D01*
X004925Y021721D01*
X004880Y021699D01*
X004834Y021681D01*
X004786Y021666D01*
X004737Y021655D01*
X004688Y021648D01*
X004638Y021645D01*
X004587Y021646D01*
X004538Y021651D01*
X004488Y021660D01*
X004440Y021673D01*
X004393Y021689D01*
X004347Y021710D01*
X004303Y021734D01*
X004261Y021761D01*
X004221Y021791D01*
X004184Y021825D01*
X004150Y021862D01*
X004118Y021901D01*
X004090Y021942D01*
X004065Y021986D01*
X004044Y022031D01*
X004027Y022078D01*
X004013Y022126D01*
X004003Y022175D01*
X003997Y022225D01*
X003995Y022275D01*
X003795Y024875D02*
X003797Y024925D01*
X003803Y024975D01*
X003813Y025024D01*
X003827Y025072D01*
X003844Y025119D01*
X003865Y025164D01*
X003890Y025208D01*
X003918Y025249D01*
X003950Y025288D01*
X003984Y025325D01*
X004021Y025359D01*
X004061Y025389D01*
X004103Y025416D01*
X004147Y025440D01*
X004193Y025461D01*
X004240Y025477D01*
X004288Y025490D01*
X004338Y025499D01*
X004387Y025504D01*
X004438Y025505D01*
X004488Y025502D01*
X004537Y025495D01*
X004586Y025484D01*
X004634Y025469D01*
X004680Y025451D01*
X004725Y025429D01*
X004768Y025403D01*
X004809Y025374D01*
X004848Y025342D01*
X004884Y025307D01*
X004916Y025269D01*
X004946Y025229D01*
X004973Y025186D01*
X004996Y025142D01*
X005015Y025096D01*
X005031Y025048D01*
X005043Y024999D01*
X005051Y024950D01*
X005055Y024900D01*
X005055Y024850D01*
X005051Y024800D01*
X005043Y024751D01*
X005031Y024702D01*
X005015Y024654D01*
X004996Y024608D01*
X004973Y024564D01*
X004946Y024521D01*
X004916Y024481D01*
X004884Y024443D01*
X004848Y024408D01*
X004809Y024376D01*
X004768Y024347D01*
X004725Y024321D01*
X004680Y024299D01*
X004634Y024281D01*
X004586Y024266D01*
X004537Y024255D01*
X004488Y024248D01*
X004438Y024245D01*
X004387Y024246D01*
X004338Y024251D01*
X004288Y024260D01*
X004240Y024273D01*
X004193Y024289D01*
X004147Y024310D01*
X004103Y024334D01*
X004061Y024361D01*
X004021Y024391D01*
X003984Y024425D01*
X003950Y024462D01*
X003918Y024501D01*
X003890Y024542D01*
X003865Y024586D01*
X003844Y024631D01*
X003827Y024678D01*
X003813Y024726D01*
X003803Y024775D01*
X003797Y024825D01*
X003795Y024875D01*
X003795Y029375D02*
X003797Y029425D01*
X003803Y029475D01*
X003813Y029524D01*
X003827Y029572D01*
X003844Y029619D01*
X003865Y029664D01*
X003890Y029708D01*
X003918Y029749D01*
X003950Y029788D01*
X003984Y029825D01*
X004021Y029859D01*
X004061Y029889D01*
X004103Y029916D01*
X004147Y029940D01*
X004193Y029961D01*
X004240Y029977D01*
X004288Y029990D01*
X004338Y029999D01*
X004387Y030004D01*
X004438Y030005D01*
X004488Y030002D01*
X004537Y029995D01*
X004586Y029984D01*
X004634Y029969D01*
X004680Y029951D01*
X004725Y029929D01*
X004768Y029903D01*
X004809Y029874D01*
X004848Y029842D01*
X004884Y029807D01*
X004916Y029769D01*
X004946Y029729D01*
X004973Y029686D01*
X004996Y029642D01*
X005015Y029596D01*
X005031Y029548D01*
X005043Y029499D01*
X005051Y029450D01*
X005055Y029400D01*
X005055Y029350D01*
X005051Y029300D01*
X005043Y029251D01*
X005031Y029202D01*
X005015Y029154D01*
X004996Y029108D01*
X004973Y029064D01*
X004946Y029021D01*
X004916Y028981D01*
X004884Y028943D01*
X004848Y028908D01*
X004809Y028876D01*
X004768Y028847D01*
X004725Y028821D01*
X004680Y028799D01*
X004634Y028781D01*
X004586Y028766D01*
X004537Y028755D01*
X004488Y028748D01*
X004438Y028745D01*
X004387Y028746D01*
X004338Y028751D01*
X004288Y028760D01*
X004240Y028773D01*
X004193Y028789D01*
X004147Y028810D01*
X004103Y028834D01*
X004061Y028861D01*
X004021Y028891D01*
X003984Y028925D01*
X003950Y028962D01*
X003918Y029001D01*
X003890Y029042D01*
X003865Y029086D01*
X003844Y029131D01*
X003827Y029178D01*
X003813Y029226D01*
X003803Y029275D01*
X003797Y029325D01*
X003795Y029375D01*
D11*
X000125Y052625D02*
X000125Y005875D01*
X020125Y005875D01*
X020128Y005982D01*
X020135Y006089D01*
X020148Y006195D01*
X020166Y006301D01*
X020188Y006405D01*
X020216Y006509D01*
X020249Y006611D01*
X020286Y006711D01*
X020328Y006810D01*
X020375Y006906D01*
X020426Y007000D01*
X020482Y007091D01*
X020542Y007180D01*
X020606Y007266D01*
X020675Y007348D01*
X020747Y007428D01*
X020822Y007503D01*
X020902Y007575D01*
X020984Y007644D01*
X021070Y007708D01*
X021159Y007768D01*
X021250Y007824D01*
X021344Y007875D01*
X021440Y007922D01*
X021539Y007964D01*
X021639Y008001D01*
X021741Y008034D01*
X021845Y008062D01*
X021949Y008084D01*
X022055Y008102D01*
X022161Y008115D01*
X022268Y008122D01*
X022375Y008125D01*
X029375Y008125D01*
X029482Y008122D01*
X029589Y008115D01*
X029695Y008102D01*
X029801Y008084D01*
X029905Y008062D01*
X030009Y008034D01*
X030111Y008001D01*
X030211Y007964D01*
X030310Y007922D01*
X030406Y007875D01*
X030500Y007824D01*
X030591Y007768D01*
X030680Y007708D01*
X030766Y007644D01*
X030848Y007575D01*
X030928Y007503D01*
X031003Y007428D01*
X031075Y007348D01*
X031144Y007266D01*
X031208Y007180D01*
X031268Y007091D01*
X031324Y007000D01*
X031375Y006906D01*
X031422Y006810D01*
X031464Y006711D01*
X031501Y006611D01*
X031534Y006509D01*
X031562Y006405D01*
X031584Y006301D01*
X031602Y006195D01*
X031615Y006089D01*
X031622Y005982D01*
X031625Y005875D01*
X051625Y005875D01*
X051625Y052625D01*
X000125Y052625D01*
M02*
