%
M48
M72
T01C0.0200
T02C0.0354
T03C0.0394
T04C0.0400
T05C0.0472
T06C0.0512
T07C0.1260
%
T01
X9305Y6275
X12025Y6675
X14905Y7635
X15225Y6995
X17625Y6995
X19545Y6675
X20025Y6995
X20425Y7635
X20425Y8275
X20025Y8915
X19545Y8595
X21385Y9315
X15225Y13795
X14585Y14035
X14425Y14755
X14505Y15235
X15465Y15155
X14745Y16675
X14185Y16515
X13465Y16275
X13385Y15795
X13065Y15235
X12745Y14755
X13225Y14435
X12105Y14355
X12105Y14835
X12105Y15395
X12425Y16275
X11625Y16595
X11785Y17075
X11465Y17475
X12825Y17875
X13785Y17875
X14745Y17635
X14905Y18755
X14025Y19315
X13545Y19555
X13145Y20915
X12505Y21635
X12345Y20595
X11865Y20595
X11145Y20915
X11145Y19555
X11865Y19235
X10345Y19315
X9465Y19715
X8985Y19715
X8985Y18595
X8905Y17475
X9705Y17475
X10025Y17075
X10345Y16595
X9705Y16035
X11065Y16035
X11065Y15315
X11065Y14675
X12105Y13475
X11705Y12755
X9705Y14035
X9305Y14355
X8905Y14675
X7145Y15155
X5625Y15635
X5145Y14915
X5785Y16595
X6425Y18755
X5785Y19795
X5305Y20755
X6105Y21795
X6905Y24035
X5945Y24355
X7945Y24675
X8985Y24675
X10185Y23315
X10425Y24035
X10905Y23875
X12185Y24355
X12425Y23875
X12185Y24915
X10665Y25395
X8985Y25875
X9305Y27395
X8985Y27875
X8985Y28355
X9785Y27875
X11065Y27395
X11465Y28675
X13945Y31555
X14585Y31875
X17465Y32915
X17945Y33155
X20105Y33875
X20185Y32835
X21065Y32835
X20745Y31555
X21545Y31555
X20905Y29955
X21785Y29635
X21385Y28995
X20185Y28595
X19545Y28595
X19865Y29635
X20345Y27635
X20025Y26595
X22105Y27635
X22425Y26595
X22905Y28995
X23225Y29955
X25145Y31235
X24425Y33155
X24345Y33635
X23305Y33635
X23385Y33155
X23785Y34675
X22585Y35635
X22905Y36035
X24985Y37475
X24105Y38595
X25785Y39955
X26905Y39955
X26505Y38595
X27225Y37475
X30025Y39955
X30985Y39955
X27465Y42595
X28825Y44915
X28105Y45635
X26585Y46355
X26025Y46995
X25465Y46595
X25065Y46915
X25065Y47635
X26585Y47635
X23705Y48995
X23385Y48595
X23065Y47315
X21945Y48995
X20505Y48595
X19465Y48995
X19145Y50435
X17785Y48995
X16745Y46915
X15865Y46595
X13705Y46355
X15065Y50435
X20025Y45635
X22905Y44915
X19145Y42595
X18105Y42595
X18105Y40675
X17385Y40195
X18105Y38995
X19145Y38835
X18825Y39955
X20105Y37475
X17465Y35955
X16025Y35635
X15705Y40995
X9785Y40995
X9625Y41475
X9465Y41955
X9305Y42995
X8985Y43395
X8745Y43955
X6345Y42515
X6025Y44515
X8665Y40675
X6025Y36355
X5465Y36355
X5145Y35395
X5785Y34355
X6345Y34355
X6425Y33395
X9305Y34915
X9465Y33875
X10425Y33875
X8665Y29235
X6105Y28915
X5465Y28915
X5625Y27875
X5945Y26915
X8745Y22035
X9625Y20915
X11865Y22435
X12825Y22435
X13945Y23875
X14745Y23315
X14265Y24995
X15225Y26595
X14905Y27635
X14905Y21635
X14585Y20595
X15225Y20595
X19545Y19075
X19865Y20115
X22745Y21635
X23065Y20595
X23385Y20115
X23785Y19795
X20505Y17075
X20185Y16115
X19545Y16755
X14025Y12755
X9865Y10115
X10185Y9235
X10185Y17795
X25945Y33155
X30345Y31235
X30985Y30995
X31465Y29635
X32185Y31555
X34345Y33635
X37305Y31475
X37785Y30995
X38185Y31315
X38665Y29635
X40425Y29635
X40585Y31315
X42345Y34275
X43385Y33955
X46105Y40035
X45545Y40115
X44985Y40675
X44105Y40355
X43385Y40675
X44985Y42595
X46745Y40035
X46505Y45635
X42425Y45635
X40985Y46355
X39625Y46675
X38265Y46835
X36905Y46995
X37385Y45635
X35465Y47315
X34745Y46355
X34105Y47475
X31705Y46675
X28825Y52115
X27865Y51795
X25545Y52275
X24505Y51795
X35065Y39955
X36505Y39955
X38745Y39955
X38745Y40675
X42345Y27075
X41545Y22675
X41705Y21955
X40585Y21635
X39865Y21155
X39385Y21475
X38585Y21555
X38745Y20755
X37785Y21155
X37465Y20755
X36745Y22675
X39145Y22355
X40585Y22355
X44105Y21155
X45865Y21475
X46585Y21795
X45865Y17235
X45945Y14595
X47145Y11875
X45945Y11555
X44105Y11235
X42905Y14595
X39065Y11875
X37945Y11555
X38265Y8595
X37945Y6995
X42905Y6275
X37545Y14995
X37545Y15475
X37065Y15235
X36505Y14915
X36505Y16115
X37065Y16595
X35385Y17235
X33305Y17075
X38745Y15475
X32185Y8915
X31865Y8515
X31145Y8995
X31145Y10595
X31865Y6995
X32185Y6275
X10105Y52115
X9625Y52275
T02
X46325Y29605
X46325Y27045
T03
X35875Y26625
X35875Y25625
X35875Y24625
X35875Y23625
X35875Y22625
X35875Y21625
X35875Y20625
X35875Y19625
X35875Y18625
X35875Y17625
X35875Y16625
X35875Y15625
X35875Y14625
X35875Y13625
X35875Y12625
X35875Y11625
X35875Y10625
X35875Y9625
X35875Y8625
X35875Y7625
X34875Y7625
X34875Y8625
X34875Y9625
X34875Y10625
X34875Y11625
X34875Y12625
X34875Y13625
X34875Y14625
X34875Y15625
X34875Y16625
X34875Y17625
X34875Y18625
X34875Y19625
X34875Y20625
X34875Y21625
X34875Y22625
X34875Y23625
X34875Y24625
X34875Y25625
X34875Y26625
X34875Y27625
X34875Y28625
X34875Y29625
X33875Y29625
X33875Y28625
X33875Y27625
X33875Y26625
X33875Y25625
X33875Y24625
X33875Y23625
X33875Y22625
X33875Y21625
X33875Y20625
X33875Y19625
X33875Y18625
X33875Y17625
X33875Y16625
X33875Y15625
X33875Y14625
X33875Y13625
X33875Y12625
X33875Y11625
X33875Y10625
X33875Y9625
X33875Y8625
X33875Y7625
X32875Y7625
X32875Y8625
X32875Y9625
X32875Y10625
X32875Y11625
X32875Y12625
X32875Y13625
X32875Y14625
X32875Y15625
X32875Y16625
X32875Y17625
X32875Y18625
X32875Y19625
X32875Y20625
X32875Y21625
X32875Y22625
X32875Y23625
X32875Y24625
X32875Y25625
X32875Y26625
X32875Y27625
X32875Y28625
X32875Y29625
X35875Y29625
X35875Y28625
X35875Y27625
X18875Y27625
X18875Y26625
X18875Y25625
X18875Y24625
X18875Y23625
X18875Y22625
X18875Y21625
X18875Y20625
X18875Y19625
X18875Y18625
X18875Y17625
X18875Y16625
X18875Y15625
X18875Y14625
X18875Y13625
X18875Y12625
X18875Y11625
X18875Y10625
X18875Y9625
X18875Y8625
X18875Y7625
X17875Y7625
X17875Y8625
X17875Y9625
X17875Y10625
X17875Y11625
X17875Y12625
X17875Y13625
X17875Y14625
X17875Y15625
X17875Y16625
X17875Y17625
X17875Y18625
X17875Y19625
X17875Y20625
X17875Y21625
X17875Y22625
X17875Y23625
X17875Y24625
X17875Y25625
X17875Y26625
X17875Y27625
X17875Y28625
X17875Y29625
X16875Y29625
X16875Y28625
X16875Y27625
X16875Y26625
X16875Y25625
X16875Y24625
X16875Y23625
X16875Y22625
X16875Y21625
X16875Y20625
X16875Y19625
X16875Y18625
X16875Y17625
X16875Y16625
X16875Y15625
X16875Y14625
X16875Y13625
X16875Y12625
X16875Y11625
X16875Y10625
X16875Y9625
X16875Y8625
X16875Y7625
X15875Y7625
X15875Y8625
X15875Y9625
X15875Y10625
X15875Y11625
X15875Y12625
X15875Y13625
X15875Y14625
X15875Y15625
X15875Y16625
X15875Y17625
X15875Y18625
X15875Y19625
X15875Y20625
X15875Y21625
X15875Y22625
X15875Y23625
X15875Y24625
X15875Y25625
X15875Y26625
X15875Y27625
X15875Y28625
X15875Y29625
X18875Y29625
X18875Y28625
X7925Y28375
X7925Y27375
X7925Y26375
X7925Y25375
X6925Y25875
X6925Y26875
X6925Y27875
X6925Y28875
X8125Y32875
X8125Y33875
X8125Y34875
X8125Y35875
X7125Y35375
X7125Y36375
X7125Y34375
X7125Y33375
X8025Y40975
X8025Y41975
X8025Y42975
X8025Y43975
X7025Y43475
X7025Y42475
X7025Y41475
X7025Y44475
X7125Y21775
X7125Y20775
X7125Y19775
X7125Y18775
X8125Y18275
X8125Y19275
X8125Y20275
X8125Y21275
T04
X14245Y33835
X14245Y35615
X16805Y35615
X16805Y33835
X24425Y49025
X25425Y49025
X25525Y51125
X24525Y51125
X27825Y51025
X28825Y51025
X28825Y49025
X27825Y49025
T05
X21915Y49725
X20537Y49725
X19159Y49725
X17781Y49725
X16403Y49725
X15025Y49725
X34125Y50325
X35503Y50325
X36881Y50325
X38259Y50325
X39637Y50325
X41015Y50325
X42393Y50325
X43771Y50325
T06
X43225Y45625
X40225Y45625
X38725Y45625
X38725Y42625
X41225Y42625
X47225Y42625
X47225Y45625
X34725Y45625
X31725Y45625
X30025Y45625
X30025Y42625
X32725Y42625
X26025Y45625
X23025Y45625
X20725Y45625
X20725Y42625
X24025Y42625
X16725Y45625
X13725Y45625
X14725Y42625
T07
X4525Y40475
X4625Y36875
X4625Y32375
X4425Y29375
X4425Y24875
X4625Y22275
X4625Y17775
X4525Y44975
M30
