G75*
G70*
%OFA0B0*%
%FSLAX24Y24*%
%IPPOS*%
%LPD*%
%AMOC8*
5,1,8,0,0,1.08239X$1,22.5*
%
%ADD10C,0.0660*%
%ADD11R,0.0800X0.0800*%
%ADD12C,0.0800*%
%ADD13C,0.0740*%
%ADD14C,0.0700*%
%ADD15R,0.0740X0.0740*%
%ADD16C,0.0000*%
%ADD17C,0.0768*%
%ADD18R,0.0157X0.0531*%
%ADD19R,0.0315X0.0472*%
%ADD20R,0.0472X0.0315*%
%ADD21R,0.0248X0.0327*%
%ADD22R,0.0354X0.0315*%
%ADD23R,0.0472X0.0551*%
%ADD24R,0.0390X0.0120*%
%ADD25R,0.0709X0.0709*%
%ADD26C,0.0050*%
%ADD27R,0.0591X0.0591*%
%ADD28C,0.0591*%
%ADD29R,0.0780X0.0220*%
%ADD30R,0.0354X0.0276*%
%ADD31R,0.0276X0.0354*%
%ADD32C,0.0060*%
%ADD33C,0.0300*%
D10*
X017875Y007625D03*
X017875Y008625D03*
X017875Y009625D03*
X017875Y010625D03*
X017875Y011625D03*
X017875Y012625D03*
X017875Y013625D03*
X017875Y014625D03*
X017875Y015625D03*
X017875Y016625D03*
X017875Y017625D03*
X017875Y018625D03*
X017875Y019625D03*
X017875Y020625D03*
X017875Y021625D03*
X017875Y022625D03*
X017875Y023625D03*
X017875Y024625D03*
X017875Y025625D03*
X017875Y026625D03*
X017875Y027625D03*
X017875Y028625D03*
X017875Y029625D03*
X018875Y029625D03*
X018875Y028625D03*
X018875Y027625D03*
X018875Y026625D03*
X018875Y025625D03*
X018875Y024625D03*
X018875Y023625D03*
X018875Y022625D03*
X018875Y021625D03*
X018875Y020625D03*
X018875Y019625D03*
X018875Y018625D03*
X018875Y017625D03*
X018875Y016625D03*
X018875Y015625D03*
X018875Y014625D03*
X018875Y013625D03*
X018875Y012625D03*
X018875Y011625D03*
X018875Y010625D03*
X018875Y009625D03*
X018875Y008625D03*
X018875Y007625D03*
X032875Y007625D03*
X032875Y008625D03*
X032875Y009625D03*
X032875Y010625D03*
X032875Y011625D03*
X032875Y012625D03*
X032875Y013625D03*
X032875Y014625D03*
X032875Y015625D03*
X032875Y016625D03*
X032875Y017625D03*
X032875Y018625D03*
X032875Y019625D03*
X032875Y020625D03*
X032875Y021625D03*
X032875Y022625D03*
X032875Y023625D03*
X032875Y024625D03*
X032875Y025625D03*
X032875Y026625D03*
X032875Y027625D03*
X032875Y028625D03*
X032875Y029625D03*
X033875Y029625D03*
X033875Y028625D03*
X033875Y027625D03*
X033875Y026625D03*
X033875Y025625D03*
X033875Y024625D03*
X033875Y023625D03*
X033875Y022625D03*
X033875Y021625D03*
X033875Y020625D03*
X033875Y019625D03*
X033875Y018625D03*
X033875Y017625D03*
X033875Y016625D03*
X033875Y015625D03*
X033875Y014625D03*
X033875Y013625D03*
X033875Y012625D03*
X033875Y011625D03*
X033875Y010625D03*
X033875Y009625D03*
X033875Y008625D03*
X033875Y007625D03*
D11*
X015025Y049725D03*
X034125Y050325D03*
D12*
X035503Y050325D03*
X036881Y050325D03*
X038259Y050325D03*
X039637Y050325D03*
X041015Y050325D03*
X042393Y050325D03*
X043771Y050325D03*
X021915Y049725D03*
X020537Y049725D03*
X019159Y049725D03*
X017781Y049725D03*
X016403Y049725D03*
D13*
X024425Y049025D03*
X025425Y049025D03*
X025525Y051125D03*
X024525Y051125D03*
X027825Y051025D03*
X028825Y051025D03*
X028825Y049025D03*
X027825Y049025D03*
X016805Y035615D03*
X016805Y033835D03*
X014245Y033835D03*
X014245Y035615D03*
X007925Y028375D03*
X007925Y027375D03*
X007925Y026375D03*
X007925Y025375D03*
X006925Y025875D03*
X006925Y026875D03*
X006925Y027875D03*
X008125Y021275D03*
X008125Y020275D03*
X008125Y019275D03*
X008125Y018275D03*
X007125Y018775D03*
X007125Y019775D03*
X007125Y020775D03*
D14*
X046325Y027045D03*
X046325Y029605D03*
D15*
X006925Y028875D03*
X007125Y021775D03*
D16*
X003995Y022275D02*
X003997Y022325D01*
X004003Y022375D01*
X004013Y022424D01*
X004027Y022472D01*
X004044Y022519D01*
X004065Y022564D01*
X004090Y022608D01*
X004118Y022649D01*
X004150Y022688D01*
X004184Y022725D01*
X004221Y022759D01*
X004261Y022789D01*
X004303Y022816D01*
X004347Y022840D01*
X004393Y022861D01*
X004440Y022877D01*
X004488Y022890D01*
X004538Y022899D01*
X004587Y022904D01*
X004638Y022905D01*
X004688Y022902D01*
X004737Y022895D01*
X004786Y022884D01*
X004834Y022869D01*
X004880Y022851D01*
X004925Y022829D01*
X004968Y022803D01*
X005009Y022774D01*
X005048Y022742D01*
X005084Y022707D01*
X005116Y022669D01*
X005146Y022629D01*
X005173Y022586D01*
X005196Y022542D01*
X005215Y022496D01*
X005231Y022448D01*
X005243Y022399D01*
X005251Y022350D01*
X005255Y022300D01*
X005255Y022250D01*
X005251Y022200D01*
X005243Y022151D01*
X005231Y022102D01*
X005215Y022054D01*
X005196Y022008D01*
X005173Y021964D01*
X005146Y021921D01*
X005116Y021881D01*
X005084Y021843D01*
X005048Y021808D01*
X005009Y021776D01*
X004968Y021747D01*
X004925Y021721D01*
X004880Y021699D01*
X004834Y021681D01*
X004786Y021666D01*
X004737Y021655D01*
X004688Y021648D01*
X004638Y021645D01*
X004587Y021646D01*
X004538Y021651D01*
X004488Y021660D01*
X004440Y021673D01*
X004393Y021689D01*
X004347Y021710D01*
X004303Y021734D01*
X004261Y021761D01*
X004221Y021791D01*
X004184Y021825D01*
X004150Y021862D01*
X004118Y021901D01*
X004090Y021942D01*
X004065Y021986D01*
X004044Y022031D01*
X004027Y022078D01*
X004013Y022126D01*
X004003Y022175D01*
X003997Y022225D01*
X003995Y022275D01*
X003795Y024875D02*
X003797Y024925D01*
X003803Y024975D01*
X003813Y025024D01*
X003827Y025072D01*
X003844Y025119D01*
X003865Y025164D01*
X003890Y025208D01*
X003918Y025249D01*
X003950Y025288D01*
X003984Y025325D01*
X004021Y025359D01*
X004061Y025389D01*
X004103Y025416D01*
X004147Y025440D01*
X004193Y025461D01*
X004240Y025477D01*
X004288Y025490D01*
X004338Y025499D01*
X004387Y025504D01*
X004438Y025505D01*
X004488Y025502D01*
X004537Y025495D01*
X004586Y025484D01*
X004634Y025469D01*
X004680Y025451D01*
X004725Y025429D01*
X004768Y025403D01*
X004809Y025374D01*
X004848Y025342D01*
X004884Y025307D01*
X004916Y025269D01*
X004946Y025229D01*
X004973Y025186D01*
X004996Y025142D01*
X005015Y025096D01*
X005031Y025048D01*
X005043Y024999D01*
X005051Y024950D01*
X005055Y024900D01*
X005055Y024850D01*
X005051Y024800D01*
X005043Y024751D01*
X005031Y024702D01*
X005015Y024654D01*
X004996Y024608D01*
X004973Y024564D01*
X004946Y024521D01*
X004916Y024481D01*
X004884Y024443D01*
X004848Y024408D01*
X004809Y024376D01*
X004768Y024347D01*
X004725Y024321D01*
X004680Y024299D01*
X004634Y024281D01*
X004586Y024266D01*
X004537Y024255D01*
X004488Y024248D01*
X004438Y024245D01*
X004387Y024246D01*
X004338Y024251D01*
X004288Y024260D01*
X004240Y024273D01*
X004193Y024289D01*
X004147Y024310D01*
X004103Y024334D01*
X004061Y024361D01*
X004021Y024391D01*
X003984Y024425D01*
X003950Y024462D01*
X003918Y024501D01*
X003890Y024542D01*
X003865Y024586D01*
X003844Y024631D01*
X003827Y024678D01*
X003813Y024726D01*
X003803Y024775D01*
X003797Y024825D01*
X003795Y024875D01*
X003795Y029375D02*
X003797Y029425D01*
X003803Y029475D01*
X003813Y029524D01*
X003827Y029572D01*
X003844Y029619D01*
X003865Y029664D01*
X003890Y029708D01*
X003918Y029749D01*
X003950Y029788D01*
X003984Y029825D01*
X004021Y029859D01*
X004061Y029889D01*
X004103Y029916D01*
X004147Y029940D01*
X004193Y029961D01*
X004240Y029977D01*
X004288Y029990D01*
X004338Y029999D01*
X004387Y030004D01*
X004438Y030005D01*
X004488Y030002D01*
X004537Y029995D01*
X004586Y029984D01*
X004634Y029969D01*
X004680Y029951D01*
X004725Y029929D01*
X004768Y029903D01*
X004809Y029874D01*
X004848Y029842D01*
X004884Y029807D01*
X004916Y029769D01*
X004946Y029729D01*
X004973Y029686D01*
X004996Y029642D01*
X005015Y029596D01*
X005031Y029548D01*
X005043Y029499D01*
X005051Y029450D01*
X005055Y029400D01*
X005055Y029350D01*
X005051Y029300D01*
X005043Y029251D01*
X005031Y029202D01*
X005015Y029154D01*
X004996Y029108D01*
X004973Y029064D01*
X004946Y029021D01*
X004916Y028981D01*
X004884Y028943D01*
X004848Y028908D01*
X004809Y028876D01*
X004768Y028847D01*
X004725Y028821D01*
X004680Y028799D01*
X004634Y028781D01*
X004586Y028766D01*
X004537Y028755D01*
X004488Y028748D01*
X004438Y028745D01*
X004387Y028746D01*
X004338Y028751D01*
X004288Y028760D01*
X004240Y028773D01*
X004193Y028789D01*
X004147Y028810D01*
X004103Y028834D01*
X004061Y028861D01*
X004021Y028891D01*
X003984Y028925D01*
X003950Y028962D01*
X003918Y029001D01*
X003890Y029042D01*
X003865Y029086D01*
X003844Y029131D01*
X003827Y029178D01*
X003813Y029226D01*
X003803Y029275D01*
X003797Y029325D01*
X003795Y029375D01*
X003995Y017775D02*
X003997Y017825D01*
X004003Y017875D01*
X004013Y017924D01*
X004027Y017972D01*
X004044Y018019D01*
X004065Y018064D01*
X004090Y018108D01*
X004118Y018149D01*
X004150Y018188D01*
X004184Y018225D01*
X004221Y018259D01*
X004261Y018289D01*
X004303Y018316D01*
X004347Y018340D01*
X004393Y018361D01*
X004440Y018377D01*
X004488Y018390D01*
X004538Y018399D01*
X004587Y018404D01*
X004638Y018405D01*
X004688Y018402D01*
X004737Y018395D01*
X004786Y018384D01*
X004834Y018369D01*
X004880Y018351D01*
X004925Y018329D01*
X004968Y018303D01*
X005009Y018274D01*
X005048Y018242D01*
X005084Y018207D01*
X005116Y018169D01*
X005146Y018129D01*
X005173Y018086D01*
X005196Y018042D01*
X005215Y017996D01*
X005231Y017948D01*
X005243Y017899D01*
X005251Y017850D01*
X005255Y017800D01*
X005255Y017750D01*
X005251Y017700D01*
X005243Y017651D01*
X005231Y017602D01*
X005215Y017554D01*
X005196Y017508D01*
X005173Y017464D01*
X005146Y017421D01*
X005116Y017381D01*
X005084Y017343D01*
X005048Y017308D01*
X005009Y017276D01*
X004968Y017247D01*
X004925Y017221D01*
X004880Y017199D01*
X004834Y017181D01*
X004786Y017166D01*
X004737Y017155D01*
X004688Y017148D01*
X004638Y017145D01*
X004587Y017146D01*
X004538Y017151D01*
X004488Y017160D01*
X004440Y017173D01*
X004393Y017189D01*
X004347Y017210D01*
X004303Y017234D01*
X004261Y017261D01*
X004221Y017291D01*
X004184Y017325D01*
X004150Y017362D01*
X004118Y017401D01*
X004090Y017442D01*
X004065Y017486D01*
X004044Y017531D01*
X004027Y017578D01*
X004013Y017626D01*
X004003Y017675D01*
X003997Y017725D01*
X003995Y017775D01*
D17*
X014725Y042625D03*
X013725Y045625D03*
X016725Y045625D03*
X020725Y045625D03*
X023025Y045625D03*
X026025Y045625D03*
X024025Y042625D03*
X020725Y042625D03*
X030025Y042625D03*
X032725Y042625D03*
X031725Y045625D03*
X030025Y045625D03*
X034725Y045625D03*
X038725Y045625D03*
X040225Y045625D03*
X043225Y045625D03*
X041225Y042625D03*
X038725Y042625D03*
X047225Y042625D03*
X047225Y045625D03*
D18*
X012209Y027181D03*
X011953Y027181D03*
X011697Y027181D03*
X011441Y027181D03*
X011441Y025469D03*
X011697Y025469D03*
X011953Y025469D03*
X012209Y025469D03*
D19*
X013551Y024475D03*
X014259Y024475D03*
X011959Y022975D03*
X011251Y022975D03*
X011151Y021575D03*
X011859Y021575D03*
X011859Y020075D03*
X011151Y020075D03*
X009679Y020305D03*
X008971Y020305D03*
X008961Y019145D03*
X009669Y019145D03*
X009689Y018005D03*
X008981Y018005D03*
X011151Y018575D03*
X011859Y018575D03*
X013451Y017075D03*
X014159Y017075D03*
X014259Y020075D03*
X013551Y020075D03*
X013551Y021375D03*
X014259Y021375D03*
X009639Y021485D03*
X008931Y021485D03*
X008971Y025325D03*
X009679Y025325D03*
X009679Y026425D03*
X008971Y026425D03*
X017971Y038425D03*
X018679Y038425D03*
X018079Y039625D03*
X017371Y039625D03*
X024971Y038325D03*
X025679Y038325D03*
X025771Y039425D03*
X026479Y039425D03*
X034371Y038525D03*
X035079Y038525D03*
X035071Y039425D03*
X035779Y039425D03*
X043371Y039825D03*
X044079Y039825D03*
X044079Y038725D03*
X043371Y038725D03*
X038479Y030425D03*
X037771Y030425D03*
X032879Y030625D03*
X032171Y030625D03*
X039871Y020625D03*
X040579Y020625D03*
X040579Y019925D03*
X039871Y019925D03*
X043371Y020425D03*
X044079Y020425D03*
X045871Y020725D03*
X046579Y020725D03*
X046579Y018225D03*
X045871Y018225D03*
X044179Y017725D03*
X043471Y017725D03*
X045971Y015425D03*
X046679Y015425D03*
X044179Y014625D03*
X043471Y014625D03*
X045971Y012325D03*
X046679Y012325D03*
X046679Y009825D03*
X045971Y009825D03*
X044079Y012025D03*
X043371Y012025D03*
X038279Y013725D03*
X038279Y014425D03*
X037571Y014425D03*
X037571Y013725D03*
X037571Y016025D03*
X037571Y016725D03*
X038279Y016725D03*
X038279Y016025D03*
X018679Y006525D03*
X017971Y006525D03*
D20*
X020825Y008671D03*
X020825Y009379D03*
X024725Y020271D03*
X024725Y020979D03*
X028325Y021079D03*
X028325Y020371D03*
X028425Y025771D03*
X028425Y026479D03*
X030925Y029571D03*
X030925Y030279D03*
X024225Y026479D03*
X024225Y025771D03*
X026425Y037271D03*
X026425Y037979D03*
X018925Y037679D03*
X018925Y036971D03*
X035925Y037371D03*
X035925Y038079D03*
X044725Y038071D03*
X044725Y038779D03*
X038625Y022779D03*
X038625Y022071D03*
X047425Y019479D03*
X047425Y018771D03*
X047425Y016879D03*
X047425Y016171D03*
X047525Y013859D03*
X047525Y013151D03*
X047425Y010579D03*
X047425Y009871D03*
D21*
X046078Y039525D03*
X045172Y039525D03*
X037378Y039425D03*
X036472Y039425D03*
X028078Y039425D03*
X027172Y039425D03*
X020078Y039325D03*
X019172Y039325D03*
D22*
X019631Y038399D03*
X019631Y037651D03*
X020458Y038025D03*
X027231Y037951D03*
X027231Y038699D03*
X028058Y038325D03*
X036631Y037951D03*
X036631Y038699D03*
X037458Y038325D03*
X046031Y037951D03*
X046031Y038699D03*
X046858Y038325D03*
X046619Y019699D03*
X046619Y018951D03*
X045792Y019325D03*
X046519Y016999D03*
X045692Y016625D03*
X046519Y016251D03*
X046719Y013899D03*
X046719Y013151D03*
X045892Y013525D03*
X046619Y011299D03*
X046619Y010551D03*
X045792Y010925D03*
D23*
X044716Y010925D03*
X043534Y010925D03*
X043634Y013425D03*
X044816Y013425D03*
X044716Y016625D03*
X043534Y016625D03*
X043534Y019325D03*
X044716Y019325D03*
X040416Y030425D03*
X039234Y030425D03*
X037416Y040525D03*
X036234Y040525D03*
X028116Y040525D03*
X026934Y040525D03*
X020016Y040525D03*
X018834Y040525D03*
X045534Y040725D03*
X046716Y040725D03*
D24*
X027574Y025577D03*
X027574Y025321D03*
X027574Y025065D03*
X027574Y024809D03*
X027574Y024553D03*
X027574Y024297D03*
X027574Y024041D03*
X027574Y023785D03*
X027574Y023529D03*
X027574Y023273D03*
X025276Y023273D03*
X025276Y023529D03*
X025276Y023785D03*
X025276Y024041D03*
X025276Y024297D03*
X025276Y024553D03*
X025276Y024809D03*
X025276Y025065D03*
X025276Y025321D03*
X025276Y025577D03*
X025276Y019277D03*
X025276Y019021D03*
X025276Y018765D03*
X025276Y018509D03*
X025276Y018253D03*
X025276Y017997D03*
X025276Y017741D03*
X025276Y017485D03*
X025276Y017229D03*
X025276Y016973D03*
X027574Y016973D03*
X027574Y017229D03*
X027574Y017485D03*
X027574Y017741D03*
X027574Y017997D03*
X027574Y018253D03*
X027574Y018509D03*
X027574Y018765D03*
X027574Y019021D03*
X027574Y019277D03*
D25*
X042025Y020625D03*
D26*
X000125Y005875D02*
X000125Y052625D01*
X051625Y052625D01*
X051625Y005875D01*
X031625Y005875D01*
X031622Y005982D01*
X031615Y006089D01*
X031602Y006195D01*
X031584Y006301D01*
X031562Y006405D01*
X031534Y006509D01*
X031501Y006611D01*
X031464Y006711D01*
X031422Y006810D01*
X031375Y006906D01*
X031324Y007000D01*
X031268Y007091D01*
X031208Y007180D01*
X031144Y007266D01*
X031075Y007348D01*
X031003Y007428D01*
X030928Y007503D01*
X030848Y007575D01*
X030766Y007644D01*
X030680Y007708D01*
X030591Y007768D01*
X030500Y007824D01*
X030406Y007875D01*
X030310Y007922D01*
X030211Y007964D01*
X030111Y008001D01*
X030009Y008034D01*
X029905Y008062D01*
X029801Y008084D01*
X029695Y008102D01*
X029589Y008115D01*
X029482Y008122D01*
X029375Y008125D01*
X022375Y008125D01*
X022268Y008122D01*
X022161Y008115D01*
X022055Y008102D01*
X021949Y008084D01*
X021845Y008062D01*
X021741Y008034D01*
X021639Y008001D01*
X021539Y007964D01*
X021440Y007922D01*
X021344Y007875D01*
X021250Y007824D01*
X021159Y007768D01*
X021070Y007708D01*
X020984Y007644D01*
X020902Y007575D01*
X020822Y007503D01*
X020747Y007428D01*
X020675Y007348D01*
X020606Y007266D01*
X020542Y007180D01*
X020482Y007091D01*
X020426Y007000D01*
X020375Y006906D01*
X020328Y006810D01*
X020286Y006711D01*
X020249Y006611D01*
X020216Y006509D01*
X020188Y006405D01*
X020166Y006301D01*
X020148Y006195D01*
X020135Y006089D01*
X020128Y005982D01*
X020125Y005875D01*
X000125Y005875D01*
D27*
X016875Y007625D03*
X035875Y007625D03*
D28*
X035875Y008625D03*
X035875Y009625D03*
X035875Y010625D03*
X035875Y011625D03*
X035875Y012625D03*
X035875Y013625D03*
X035875Y014625D03*
X035875Y015625D03*
X035875Y016625D03*
X035875Y017625D03*
X035875Y018625D03*
X035875Y019625D03*
X035875Y020625D03*
X035875Y021625D03*
X035875Y022625D03*
X035875Y023625D03*
X035875Y024625D03*
X035875Y025625D03*
X035875Y026625D03*
X035875Y027625D03*
X035875Y028625D03*
X035875Y029625D03*
X034875Y029625D03*
X034875Y028625D03*
X034875Y027625D03*
X034875Y026625D03*
X034875Y025625D03*
X034875Y024625D03*
X034875Y023625D03*
X034875Y022625D03*
X034875Y021625D03*
X034875Y020625D03*
X034875Y019625D03*
X034875Y018625D03*
X034875Y017625D03*
X034875Y016625D03*
X034875Y015625D03*
X034875Y014625D03*
X034875Y013625D03*
X034875Y012625D03*
X034875Y011625D03*
X034875Y010625D03*
X034875Y009625D03*
X034875Y008625D03*
X034875Y007625D03*
X016875Y008625D03*
X016875Y009625D03*
X016875Y010625D03*
X016875Y011625D03*
X016875Y012625D03*
X016875Y013625D03*
X016875Y014625D03*
X016875Y015625D03*
X016875Y016625D03*
X016875Y017625D03*
X016875Y018625D03*
X016875Y019625D03*
X016875Y020625D03*
X016875Y021625D03*
X016875Y022625D03*
X016875Y023625D03*
X016875Y024625D03*
X016875Y025625D03*
X016875Y026625D03*
X016875Y027625D03*
X016875Y028625D03*
X016875Y029625D03*
X015875Y029625D03*
X015875Y028625D03*
X015875Y027625D03*
X015875Y026625D03*
X015875Y025625D03*
X015875Y024625D03*
X015875Y023625D03*
X015875Y022625D03*
X015875Y021625D03*
X015875Y020625D03*
X015875Y019625D03*
X015875Y018625D03*
X015875Y017625D03*
X015875Y016625D03*
X015875Y015625D03*
X015875Y014625D03*
X015875Y013625D03*
X015875Y012625D03*
X015875Y011625D03*
X015875Y010625D03*
X015875Y009625D03*
X015875Y008625D03*
X015875Y007625D03*
D29*
X039335Y033325D03*
X039335Y033825D03*
X039335Y034325D03*
X039335Y034825D03*
X041275Y034825D03*
X041275Y034325D03*
X041275Y033825D03*
X041275Y033325D03*
D30*
X014079Y018831D03*
X014079Y018319D03*
X013331Y018575D03*
D31*
X013749Y022601D03*
X014261Y022601D03*
X014005Y023349D03*
D32*
X014025Y023315D01*
X014025Y022115D01*
X014265Y022115D02*
X014265Y021395D01*
X014259Y021375D01*
X014265Y021315D01*
X014265Y020115D01*
X014259Y020075D01*
X014265Y020035D01*
X014265Y019475D01*
X014585Y019155D01*
X014585Y018035D01*
X014185Y017635D01*
X014185Y017075D01*
X014159Y017075D01*
X014185Y017075D02*
X014185Y007635D01*
X014025Y007875D02*
X014025Y016675D01*
X013865Y016835D01*
X013865Y018355D01*
X014025Y018355D01*
X014079Y018319D01*
X013865Y018355D02*
X013625Y018355D01*
X013625Y018915D01*
X013545Y018995D01*
X013545Y020035D01*
X013551Y020075D01*
X013545Y020115D01*
X013545Y020595D01*
X013545Y020755D01*
X013705Y020915D01*
X013705Y020995D01*
X013865Y021155D01*
X013865Y021635D01*
X013785Y021715D01*
X013785Y022595D01*
X013749Y022601D01*
X013705Y022675D01*
X013545Y022835D01*
X013545Y023955D01*
X013545Y024435D01*
X013551Y024475D01*
X014259Y024475D02*
X014265Y024435D01*
X014265Y023875D01*
X014505Y023635D01*
X014505Y022355D01*
X014265Y022115D01*
X014261Y022601D02*
X014265Y022675D01*
X014265Y022995D01*
X014259Y024475D02*
X014265Y024515D01*
X014265Y024995D01*
X014265Y033795D01*
X014245Y033835D01*
X014025Y033155D02*
X014105Y033075D01*
X014105Y030675D01*
X013785Y030355D01*
X013785Y030035D01*
X013945Y029875D01*
X013945Y026195D01*
X013705Y025955D01*
X013705Y025635D01*
X014025Y025875D02*
X014105Y025955D01*
X014105Y030115D01*
X014025Y030195D01*
X014425Y030355D02*
X014425Y028195D01*
X014505Y028115D01*
X014745Y028035D02*
X014745Y027875D01*
X014665Y027795D01*
X014665Y026115D01*
X014905Y027635D02*
X014905Y027955D01*
X015065Y028115D01*
X015065Y033075D01*
X015465Y033475D01*
X015465Y035955D01*
X015545Y036035D01*
X015545Y046755D01*
X015465Y046835D01*
X015465Y047795D01*
X015305Y047555D02*
X015305Y046755D01*
X015385Y046675D01*
X015385Y036115D01*
X015305Y036035D01*
X015305Y033555D01*
X014905Y033155D01*
X014905Y028195D01*
X014745Y028035D01*
X015225Y027875D02*
X015225Y032995D01*
X015625Y033395D01*
X015625Y035875D01*
X015705Y035955D01*
X015705Y046835D01*
X015625Y046915D01*
X015625Y047235D01*
X015705Y047315D01*
X015705Y052195D01*
X015065Y050435D02*
X015065Y049795D01*
X015025Y049725D01*
X016403Y049725D02*
X016425Y049715D01*
X016425Y046595D01*
X016025Y046195D01*
X016025Y035635D01*
X015785Y035795D02*
X015785Y033155D01*
X015785Y035795D02*
X015865Y035875D01*
X015865Y047075D01*
X015305Y047555D02*
X015225Y047635D01*
X015225Y047955D01*
X015145Y048035D01*
X013705Y047555D02*
X013705Y045635D01*
X013725Y045625D01*
X016725Y045625D02*
X016745Y045635D01*
X016745Y047315D01*
X017785Y048995D02*
X017785Y049715D01*
X017781Y049725D01*
X019145Y049715D02*
X019159Y049725D01*
X019145Y049795D01*
X019145Y050435D01*
X019145Y049715D02*
X019145Y042595D01*
X019145Y040915D01*
X019225Y040835D01*
X019225Y040275D01*
X019145Y040195D01*
X019145Y039395D01*
X019172Y039325D01*
X019145Y039315D01*
X019145Y038915D01*
X019145Y038435D02*
X019145Y037715D01*
X018985Y037715D01*
X018925Y037679D01*
X018905Y037715D01*
X018665Y037715D01*
X018665Y038355D01*
X018679Y038425D01*
X019145Y038435D02*
X019625Y038435D01*
X019631Y038399D01*
X019945Y038595D02*
X019625Y038915D01*
X019625Y039715D01*
X019385Y039955D01*
X019385Y040915D01*
X019305Y040995D01*
X019305Y042355D01*
X019385Y042435D01*
X019385Y042755D01*
X019305Y042835D01*
X019305Y048915D01*
X019385Y048995D01*
X020505Y049715D02*
X020505Y047715D01*
X021945Y048995D02*
X021945Y049715D01*
X021915Y049725D01*
X020537Y049725D02*
X020505Y049715D01*
X023065Y047075D02*
X023065Y045635D01*
X023025Y045625D01*
X025465Y046835D02*
X025465Y048995D01*
X025425Y049025D01*
X024425Y049025D02*
X024425Y049795D01*
X024505Y049875D01*
X024505Y051075D01*
X024525Y051125D01*
X025525Y051125D02*
X025545Y051155D01*
X025545Y052195D01*
X027825Y051025D02*
X027865Y050995D01*
X027865Y049075D01*
X027825Y049025D01*
X027865Y048995D01*
X027865Y048275D01*
X027625Y048035D01*
X027625Y039155D01*
X027705Y039075D01*
X027705Y037555D01*
X027545Y037395D01*
X027545Y025955D01*
X027225Y025635D01*
X027225Y025075D01*
X027545Y025075D01*
X027574Y025065D01*
X027545Y024835D02*
X027574Y024809D01*
X027545Y024835D02*
X027065Y024835D01*
X027065Y026115D01*
X026665Y026355D02*
X026665Y025715D01*
X026745Y025635D01*
X026745Y024435D01*
X026665Y024355D01*
X026745Y023955D02*
X026745Y023395D01*
X026665Y023315D01*
X026665Y022035D01*
X026585Y021955D01*
X026585Y020355D01*
X026825Y020115D01*
X026825Y019795D01*
X026505Y020035D02*
X026425Y020115D01*
X026425Y022035D01*
X026505Y022115D01*
X026505Y023555D01*
X026105Y023075D02*
X026105Y026595D01*
X026665Y026355D02*
X027225Y026915D01*
X027225Y035555D01*
X027145Y035635D01*
X027865Y035795D02*
X027865Y026995D01*
X027945Y026915D01*
X027945Y026515D02*
X028425Y026515D01*
X028425Y026479D01*
X027785Y025875D02*
X027705Y025955D01*
X027705Y036755D01*
X027785Y036835D01*
X027385Y037395D02*
X027385Y026675D01*
X027305Y026595D01*
X027574Y025577D02*
X027625Y025555D01*
X028025Y025555D01*
X028025Y025475D01*
X028265Y025315D02*
X028265Y025795D01*
X028425Y025795D01*
X028425Y025771D01*
X028425Y025795D02*
X028905Y025795D01*
X028265Y025315D02*
X028265Y021155D01*
X028325Y021079D01*
X028265Y021075D01*
X027625Y021075D01*
X027545Y020995D01*
X027545Y020195D01*
X027865Y019875D01*
X027865Y018995D01*
X027625Y018995D01*
X027574Y019021D01*
X027574Y019277D02*
X027625Y019315D01*
X027625Y019635D01*
X027785Y020355D02*
X028265Y020355D01*
X028325Y020371D01*
X028345Y020435D01*
X028425Y020355D01*
X028425Y016995D01*
X027625Y016995D01*
X027574Y016973D01*
X027574Y017229D02*
X027545Y017235D01*
X026585Y017235D01*
X026585Y018275D01*
X026505Y018355D01*
X026505Y018835D01*
X026745Y018515D02*
X026745Y017715D01*
X027545Y017715D01*
X027574Y017741D01*
X027574Y017485D02*
X027545Y017475D01*
X027065Y017475D01*
X027065Y017955D02*
X027065Y018035D01*
X027545Y018035D01*
X027574Y017997D01*
X027574Y018253D02*
X027625Y018275D01*
X027785Y018275D01*
X028025Y018515D01*
X028025Y018595D01*
X027865Y018835D02*
X028185Y018835D01*
X028265Y018755D01*
X028265Y018115D01*
X028185Y018035D01*
X027574Y018509D02*
X027545Y018515D01*
X027145Y018515D01*
X027145Y018355D01*
X027574Y018765D02*
X027625Y018755D01*
X027785Y018755D01*
X027865Y018835D01*
X027305Y020355D02*
X027385Y020435D01*
X027385Y022995D01*
X027305Y022995D01*
X027385Y022995D02*
X027385Y023235D01*
X027545Y023235D01*
X027574Y023273D01*
X027574Y023529D02*
X027545Y023555D01*
X027225Y023555D01*
X027225Y023875D01*
X027145Y023955D01*
X027574Y024041D02*
X027625Y024035D01*
X028025Y024035D01*
X028025Y023795D02*
X028025Y023635D01*
X028025Y023795D02*
X027625Y023795D01*
X027574Y023785D01*
X027625Y024275D02*
X027574Y024297D01*
X027625Y024275D02*
X027785Y024275D01*
X028025Y024515D01*
X028025Y024995D01*
X028185Y025235D02*
X028265Y025315D01*
X028185Y025235D02*
X027865Y025235D01*
X027785Y025315D01*
X027625Y025315D01*
X027574Y025321D01*
X027574Y024553D02*
X027545Y024515D01*
X027145Y024515D01*
X025945Y025555D02*
X025945Y022035D01*
X026025Y021955D01*
X026265Y022275D02*
X026265Y018275D01*
X025305Y018275D01*
X025276Y018253D01*
X025305Y018035D02*
X025276Y017997D01*
X025305Y018035D02*
X025705Y018035D01*
X025625Y017715D02*
X025305Y017715D01*
X025276Y017741D01*
X025276Y017485D02*
X025225Y017475D01*
X024825Y017475D01*
X024825Y018595D01*
X024585Y018435D02*
X024585Y018915D01*
X024665Y018995D01*
X024825Y018995D01*
X024825Y019555D01*
X025225Y019955D01*
X025225Y021075D01*
X025145Y020995D01*
X024745Y020995D01*
X024725Y020979D01*
X025225Y021075D02*
X025225Y022995D01*
X025225Y023235D01*
X025276Y023273D01*
X025276Y023529D02*
X025225Y023555D01*
X024825Y023555D01*
X024825Y023795D02*
X024825Y023955D01*
X024825Y023795D02*
X025225Y023795D01*
X025276Y023785D01*
X025305Y024035D02*
X025276Y024041D01*
X025305Y024035D02*
X025625Y024035D01*
X025625Y022355D01*
X025545Y022275D01*
X025785Y021635D02*
X025785Y025075D01*
X025305Y025075D01*
X025276Y025065D01*
X025225Y024835D02*
X025276Y024809D01*
X025225Y024835D02*
X024825Y024835D01*
X024825Y024915D01*
X024825Y025315D02*
X024825Y025715D01*
X024825Y025795D01*
X024745Y025875D01*
X024745Y026195D01*
X024745Y025795D02*
X024265Y025795D01*
X024225Y025771D01*
X024185Y025795D01*
X023945Y025795D01*
X023865Y025715D01*
X023865Y023075D01*
X023785Y022995D01*
X023545Y022835D02*
X023865Y022515D01*
X023865Y018595D01*
X023785Y018515D01*
X023785Y017395D01*
X023545Y017555D02*
X023545Y016195D01*
X024425Y017235D02*
X024505Y017235D01*
X024505Y018275D01*
X024425Y018355D01*
X024425Y019555D01*
X024825Y018995D02*
X025225Y018995D01*
X025276Y019021D01*
X025276Y019277D02*
X025225Y019315D01*
X025225Y019555D01*
X025545Y019395D02*
X025545Y019795D01*
X025465Y019875D01*
X025705Y019475D02*
X025705Y021235D01*
X025945Y020115D02*
X025945Y018595D01*
X026025Y018515D01*
X025785Y018515D02*
X025785Y019395D01*
X025705Y019475D01*
X025545Y019395D02*
X025625Y019315D01*
X025625Y018755D01*
X025305Y018755D01*
X025276Y018765D01*
X025305Y018515D02*
X025276Y018509D01*
X025305Y018515D02*
X025785Y018515D01*
X025625Y017715D02*
X025705Y017635D01*
X025705Y017235D02*
X025305Y017235D01*
X025276Y017229D01*
X025225Y016995D02*
X025276Y016973D01*
X025225Y016995D02*
X024665Y016995D01*
X024665Y018355D01*
X024585Y018435D01*
X024025Y018355D02*
X024025Y024275D01*
X025225Y024275D01*
X025276Y024297D01*
X025225Y024515D02*
X025276Y024553D01*
X025225Y024515D02*
X024825Y024515D01*
X024825Y025315D02*
X025225Y025315D01*
X025276Y025321D01*
X025305Y025555D02*
X025276Y025577D01*
X025305Y025555D02*
X025945Y025555D01*
X024985Y026515D02*
X024265Y026515D01*
X024225Y026479D01*
X024745Y025795D02*
X024825Y025715D01*
X023305Y024915D02*
X023305Y024275D01*
X023385Y024195D01*
X023385Y022755D01*
X023705Y022435D01*
X023705Y018675D01*
X023625Y018595D01*
X023625Y017635D01*
X023545Y017555D01*
X020825Y017235D02*
X020825Y018995D01*
X020665Y019155D01*
X020665Y019475D01*
X020585Y019555D01*
X020585Y021795D01*
X020665Y021875D01*
X020665Y024675D01*
X020745Y024755D01*
X020745Y030035D01*
X020825Y030115D01*
X020825Y030595D01*
X020585Y030275D02*
X020585Y024835D01*
X020505Y024755D01*
X020505Y021955D01*
X020425Y021875D01*
X020425Y019475D01*
X020505Y019395D01*
X020505Y018915D01*
X020585Y018835D01*
X020345Y019315D02*
X020345Y018035D01*
X019865Y017715D02*
X019785Y017635D01*
X019785Y015875D01*
X019865Y015795D01*
X019865Y015075D01*
X019625Y015635D02*
X019625Y017875D01*
X019465Y017635D02*
X019465Y015875D01*
X019305Y015715D01*
X019305Y015395D01*
X019065Y015155D01*
X018745Y015155D01*
X018585Y015315D01*
X017865Y015315D01*
X017865Y015555D01*
X017875Y015625D01*
X018185Y016035D02*
X018185Y016115D01*
X018185Y016035D02*
X018425Y016035D01*
X018825Y015635D01*
X018875Y015625D01*
X018665Y016195D02*
X018505Y016355D01*
X017865Y016355D01*
X017865Y016595D01*
X017875Y016625D01*
X017865Y017315D02*
X017865Y017555D01*
X017875Y017625D01*
X017865Y017315D02*
X018265Y017315D01*
X018425Y017155D01*
X018425Y018035D02*
X017945Y018515D01*
X017865Y018515D01*
X017865Y018595D01*
X017875Y018625D01*
X017865Y019315D02*
X017865Y019555D01*
X017875Y019625D01*
X017865Y019315D02*
X018585Y019315D01*
X018745Y019155D01*
X019225Y019155D01*
X018905Y019635D02*
X018875Y019625D01*
X018905Y019635D02*
X018905Y020035D01*
X018265Y020035D01*
X018185Y020115D01*
X018345Y020515D02*
X018345Y020755D01*
X018025Y021075D01*
X017705Y021075D01*
X017625Y020995D01*
X017465Y020995D01*
X017385Y020115D02*
X016905Y019635D01*
X016875Y019625D01*
X016875Y018625D02*
X017385Y018115D01*
X017385Y016115D02*
X017305Y016035D01*
X016905Y016035D01*
X016905Y015635D01*
X016875Y015625D01*
X016875Y014625D02*
X017225Y014275D01*
X017465Y014275D01*
X017465Y014195D01*
X018665Y016195D02*
X019225Y016195D01*
X019465Y017635D02*
X019385Y017715D01*
X019385Y018035D01*
X019465Y018115D01*
X019465Y019875D01*
X019225Y020195D02*
X018665Y020195D01*
X018345Y020515D01*
X019625Y020595D02*
X019625Y021875D01*
X020105Y022195D02*
X020105Y019155D01*
X019865Y019315D02*
X019865Y017715D01*
X019865Y019315D02*
X019785Y019395D01*
X020265Y019395D02*
X020265Y021955D01*
X020345Y022035D01*
X020345Y024995D01*
X018875Y023625D02*
X018905Y023555D01*
X018905Y023235D01*
X018105Y023235D01*
X018025Y023155D01*
X017705Y023155D01*
X017305Y023555D01*
X016905Y023555D01*
X016875Y023625D01*
X016875Y022625D02*
X017225Y022275D01*
X017465Y022275D01*
X017465Y022195D01*
X017465Y024995D02*
X017625Y024995D01*
X017705Y025075D01*
X018025Y025075D01*
X018105Y024995D01*
X018345Y024995D01*
X017465Y026195D02*
X017465Y026275D01*
X017225Y026275D01*
X016875Y026625D01*
X016905Y027555D02*
X016875Y027625D01*
X016905Y027555D02*
X017305Y027555D01*
X017705Y027155D01*
X018025Y027155D01*
X018105Y027235D01*
X018905Y027235D01*
X018905Y027555D01*
X018875Y027625D01*
X014505Y030435D02*
X014425Y030355D01*
X011465Y028355D02*
X011465Y027235D01*
X011441Y027181D01*
X011385Y027155D01*
X011065Y026835D01*
X011065Y023635D01*
X011225Y023475D01*
X011225Y022995D01*
X011251Y022975D01*
X011225Y022915D01*
X011225Y022435D01*
X011145Y022355D01*
X011145Y021635D01*
X011151Y021575D01*
X011145Y021555D01*
X011145Y020995D01*
X011145Y020595D02*
X011145Y020115D01*
X011151Y020075D01*
X011145Y020035D01*
X011145Y019555D01*
X011145Y018595D01*
X011151Y018575D01*
X010585Y018515D02*
X010585Y022275D01*
X010665Y022355D01*
X010665Y023475D01*
X010745Y023555D01*
X010745Y027155D01*
X010665Y027235D01*
X010665Y027795D01*
X010905Y027395D02*
X010905Y023475D01*
X010825Y023395D01*
X010825Y022115D01*
X010505Y022435D02*
X010425Y022355D01*
X010425Y019395D01*
X010345Y019315D01*
X010105Y018755D02*
X010105Y021235D01*
X009639Y021485D02*
X009625Y021475D01*
X009625Y020995D01*
X009625Y020915D01*
X009705Y020835D01*
X009705Y020355D01*
X009679Y020305D01*
X009705Y019635D02*
X009705Y019155D01*
X009669Y019145D01*
X009705Y019075D01*
X009705Y018035D01*
X009689Y018005D01*
X008985Y018035D02*
X008985Y018515D01*
X008985Y018035D02*
X008981Y018005D01*
X008961Y019145D02*
X008985Y019155D01*
X008985Y019635D01*
X008905Y020275D02*
X008971Y020305D01*
X008985Y020355D01*
X008985Y020995D01*
X009225Y021235D01*
X009225Y022035D01*
X009305Y022115D01*
X008905Y021955D02*
X008905Y021555D01*
X008931Y021485D01*
X008905Y020275D02*
X008125Y020275D01*
X006425Y020755D02*
X006425Y021555D01*
X006505Y021635D01*
X006505Y021955D01*
X006425Y022035D01*
X006425Y024595D01*
X006505Y024675D01*
X006105Y026835D02*
X006025Y026915D01*
X006105Y026835D02*
X006105Y022035D01*
X006025Y021955D01*
X006025Y019795D01*
X006265Y021795D02*
X006265Y028915D01*
X008985Y027955D02*
X008985Y026435D01*
X008971Y026425D01*
X008905Y026355D01*
X008585Y026355D01*
X008585Y025395D02*
X008905Y025395D01*
X008971Y025325D01*
X009679Y025325D02*
X009705Y025315D01*
X009705Y023955D01*
X010505Y023555D02*
X010505Y022435D01*
X010505Y023555D02*
X010585Y023635D01*
X010585Y026035D01*
X010505Y026115D01*
X009705Y026355D02*
X009705Y025395D01*
X009679Y025325D01*
X009705Y026355D02*
X009679Y026425D01*
X011441Y025469D02*
X011465Y025395D01*
X011465Y024195D01*
X011945Y023715D01*
X011945Y022995D01*
X011959Y022975D01*
X011945Y022915D01*
X011945Y022435D01*
X012345Y022035D01*
X012345Y021875D01*
X012345Y019555D01*
X012505Y019315D02*
X012105Y019315D01*
X011865Y019555D01*
X011865Y020035D01*
X011859Y020075D01*
X012505Y019795D02*
X012585Y019715D01*
X012585Y019395D01*
X012825Y019155D01*
X012825Y016675D01*
X013705Y015795D01*
X013705Y009395D01*
X013625Y009315D01*
X014345Y009155D02*
X014425Y009075D01*
X014345Y009155D02*
X014345Y016355D01*
X014585Y016595D01*
X014585Y017795D01*
X014745Y017955D01*
X014745Y018835D01*
X014825Y018915D01*
X014825Y019155D01*
X014079Y018831D02*
X014025Y018835D01*
X013785Y018835D01*
X013785Y019155D01*
X013225Y019555D02*
X013145Y019475D01*
X013145Y018595D01*
X013305Y018595D01*
X013331Y018575D01*
X012985Y018435D02*
X012985Y020435D01*
X013225Y020675D01*
X013225Y020835D01*
X013225Y020675D02*
X013545Y020995D01*
X013545Y021315D01*
X013551Y021375D01*
X012585Y021715D02*
X012505Y021635D01*
X012505Y019795D01*
X012585Y019395D02*
X012505Y019315D01*
X011865Y019155D02*
X011865Y018595D01*
X011859Y018575D01*
X012985Y018435D02*
X013465Y017955D01*
X013465Y017075D01*
X013451Y017075D01*
X013465Y017075D02*
X013465Y016275D01*
X013865Y015875D01*
X013865Y007955D01*
X013785Y007875D01*
X013785Y007235D01*
X013705Y007155D01*
X013705Y006275D01*
X013945Y006995D02*
X013945Y007795D01*
X014025Y007875D01*
X015865Y007635D02*
X015875Y007625D01*
X016875Y007625D02*
X016905Y007635D01*
X017945Y006995D02*
X017945Y006595D01*
X017971Y006525D01*
X018665Y006595D02*
X018679Y006525D01*
X018665Y006595D02*
X018665Y007075D01*
X018905Y007315D01*
X018905Y007555D01*
X018875Y007625D01*
X019785Y007075D02*
X019785Y008435D01*
X019945Y008595D01*
X019945Y008915D01*
X019625Y008675D02*
X019625Y006275D01*
X019865Y006995D02*
X019785Y007075D01*
X020345Y007635D02*
X020345Y008435D01*
X020345Y008675D01*
X020825Y008675D01*
X020825Y008671D01*
X021385Y008675D02*
X021385Y009395D01*
X020825Y009395D01*
X020825Y009379D01*
X018905Y011235D02*
X018905Y011555D01*
X018875Y011625D01*
X018905Y011235D02*
X018105Y011235D01*
X018025Y011155D01*
X017705Y011155D01*
X017305Y011555D01*
X016905Y011555D01*
X016875Y011625D01*
X016875Y010625D02*
X017225Y010275D01*
X017465Y010275D01*
X017465Y010195D01*
X020345Y019315D02*
X020265Y019395D01*
X024265Y020275D02*
X024265Y020355D01*
X024265Y020275D02*
X024665Y020275D01*
X024725Y020271D01*
X023545Y022835D02*
X023545Y024435D01*
X026105Y023075D02*
X026185Y022995D01*
X029145Y024035D02*
X029145Y026915D01*
X029385Y026755D02*
X029385Y047555D01*
X028825Y047715D02*
X028825Y049025D01*
X028825Y049715D02*
X028825Y051025D01*
X026745Y049715D02*
X026745Y047875D01*
X026025Y046835D02*
X026025Y045625D01*
X027785Y045555D02*
X027865Y045635D01*
X027785Y045555D02*
X027785Y041635D01*
X028105Y041315D01*
X028105Y040595D01*
X028116Y040525D01*
X028105Y040515D01*
X028105Y039475D01*
X028078Y039425D01*
X028105Y039395D01*
X028105Y038355D01*
X028058Y038325D01*
X027225Y038675D02*
X027231Y038699D01*
X027225Y038675D02*
X026665Y038675D01*
X026665Y038035D01*
X026585Y037955D01*
X026425Y037955D01*
X026425Y037979D01*
X026425Y037955D02*
X025705Y037955D01*
X025705Y038275D01*
X025679Y038325D01*
X024985Y038275D02*
X024985Y037555D01*
X024985Y038275D02*
X024971Y038325D01*
X025771Y039425D02*
X025785Y039475D01*
X025785Y039955D01*
X026505Y039475D02*
X026479Y039425D01*
X026505Y039395D01*
X026505Y038915D01*
X026505Y039475D02*
X027145Y039475D01*
X027172Y039425D01*
X027225Y039475D01*
X027465Y039715D01*
X027465Y042515D01*
X027385Y042595D01*
X026934Y040525D02*
X026905Y040515D01*
X026905Y039955D01*
X027231Y037951D02*
X027225Y037875D01*
X027225Y037555D01*
X027385Y037395D01*
X026425Y037271D02*
X026425Y036835D01*
X027865Y035795D02*
X027945Y035875D01*
X030025Y039875D02*
X030025Y042625D01*
X031705Y045635D02*
X031725Y045625D01*
X031705Y045635D02*
X031705Y046595D01*
X034105Y047315D02*
X034105Y050275D01*
X034125Y050325D01*
X035465Y050275D02*
X035503Y050325D01*
X035465Y050275D02*
X035465Y047075D01*
X034745Y046355D02*
X034745Y045635D01*
X034725Y045625D01*
X036905Y046915D02*
X036905Y050275D01*
X036881Y050325D01*
X038259Y050325D02*
X038265Y050275D01*
X038265Y046755D01*
X037385Y045635D02*
X037385Y040595D01*
X037416Y040525D01*
X037385Y040515D01*
X037385Y039475D01*
X037378Y039425D01*
X037385Y039395D01*
X037385Y038355D01*
X037458Y038325D01*
X036631Y037951D02*
X036585Y037875D01*
X036585Y037475D01*
X036505Y037395D01*
X035945Y037395D01*
X035925Y037371D01*
X035865Y037315D01*
X035865Y029635D01*
X035875Y029625D01*
X035865Y029555D01*
X035865Y028675D01*
X035875Y028625D01*
X034905Y028675D02*
X034905Y029555D01*
X034875Y029625D01*
X034905Y028675D02*
X034875Y028625D01*
X033875Y028625D02*
X033865Y028675D01*
X033865Y029555D01*
X033875Y029625D01*
X034105Y030515D02*
X034105Y031795D01*
X034185Y031875D01*
X034185Y037875D01*
X033945Y038115D01*
X033945Y039875D01*
X035065Y039875D02*
X035065Y039475D01*
X035071Y039425D01*
X035079Y038525D02*
X035065Y038515D01*
X035065Y038195D01*
X035145Y038115D01*
X035865Y038115D01*
X035925Y038079D01*
X035945Y038115D01*
X036185Y038115D01*
X036185Y038675D01*
X036585Y038675D01*
X036631Y038699D01*
X036472Y039425D02*
X036505Y039475D01*
X036505Y039875D01*
X036265Y040275D02*
X036265Y040515D01*
X036234Y040525D01*
X036265Y040275D02*
X035785Y039795D01*
X035785Y039475D01*
X035779Y039425D01*
X034371Y038525D02*
X034345Y038515D01*
X034345Y031635D01*
X032905Y030595D02*
X032905Y029635D01*
X032875Y029625D01*
X032905Y029555D01*
X032905Y028675D01*
X032875Y028625D01*
X031385Y029555D02*
X031385Y029635D01*
X031385Y029555D02*
X030985Y029555D01*
X030925Y029571D01*
X030905Y029555D01*
X030585Y029555D01*
X030585Y026595D01*
X030665Y026515D01*
X030265Y026035D02*
X030265Y031635D01*
X029785Y031155D02*
X029785Y030115D01*
X029945Y029955D01*
X029945Y026275D01*
X029785Y026115D01*
X030025Y026035D02*
X030025Y025555D01*
X029945Y025475D01*
X030185Y025955D02*
X030265Y026035D01*
X030185Y025955D02*
X030185Y024515D01*
X029385Y024195D02*
X029385Y023635D01*
X029385Y024195D02*
X029305Y024275D01*
X029305Y026675D01*
X029385Y026755D01*
X030105Y026115D02*
X030105Y030195D01*
X030025Y030275D01*
X030425Y030275D02*
X030425Y025795D01*
X030105Y026115D02*
X030025Y026035D01*
X032185Y026275D02*
X032185Y030595D01*
X032171Y030625D01*
X032185Y030675D01*
X032185Y031395D01*
X032879Y030625D02*
X032905Y030595D01*
X031385Y030515D02*
X031385Y030355D01*
X031305Y030275D01*
X030985Y030275D01*
X030925Y030279D01*
X030905Y030275D01*
X030425Y030275D01*
X037385Y030435D02*
X037385Y030515D01*
X037385Y030435D02*
X037705Y030435D01*
X037771Y030425D01*
X037785Y030355D01*
X037785Y029955D01*
X038185Y029795D02*
X038185Y031395D01*
X038505Y030435D02*
X038479Y030425D01*
X038505Y030435D02*
X039225Y030435D01*
X039234Y030425D01*
X038425Y029955D02*
X038425Y029475D01*
X038505Y029395D01*
X038505Y023235D01*
X038425Y023155D01*
X038105Y023315D02*
X038345Y023555D01*
X038345Y029315D01*
X038265Y029395D01*
X038265Y029715D01*
X038185Y029795D01*
X038665Y029635D02*
X038665Y022835D01*
X038625Y022779D01*
X038665Y022755D01*
X038985Y022755D01*
X038985Y022435D01*
X038625Y022071D02*
X038585Y022035D01*
X038345Y022035D01*
X038265Y021955D01*
X038105Y022115D01*
X038105Y023315D01*
X038625Y022071D02*
X038665Y022035D01*
X039385Y022035D01*
X039385Y021555D01*
X039385Y020195D01*
X039785Y019795D01*
X039865Y019795D01*
X039865Y019875D01*
X039871Y019925D01*
X040579Y019925D02*
X040585Y019955D01*
X041225Y020595D01*
X041945Y020595D01*
X042025Y020625D01*
X042025Y020595D01*
X041945Y020595D01*
X041945Y034355D01*
X041305Y034355D01*
X041275Y034325D01*
X041275Y033825D02*
X041305Y033795D01*
X041785Y033795D01*
X041785Y021795D01*
X041705Y021715D01*
X041385Y021955D02*
X041625Y022195D01*
X041625Y033315D01*
X041305Y033315D01*
X041275Y033325D01*
X040425Y032995D02*
X040105Y033315D01*
X039385Y033315D01*
X039335Y033325D01*
X039385Y033395D01*
X039385Y033795D01*
X039335Y033825D01*
X039385Y033875D01*
X039385Y034275D01*
X039335Y034325D01*
X039385Y034355D01*
X039385Y034755D01*
X039335Y034825D01*
X040585Y034835D02*
X040585Y031475D01*
X040665Y031395D01*
X040425Y030435D02*
X040416Y030425D01*
X040425Y030355D01*
X040425Y029635D01*
X040425Y030435D02*
X040425Y032995D01*
X040585Y034835D02*
X041225Y034835D01*
X041275Y034825D01*
X043385Y031155D02*
X043385Y038675D01*
X043371Y038725D01*
X044079Y038725D02*
X044105Y038755D01*
X044665Y038755D01*
X044725Y038779D01*
X044745Y038755D01*
X045225Y038755D01*
X045305Y038675D01*
X046025Y038675D01*
X046031Y038699D01*
X046078Y039525D02*
X046105Y039555D01*
X046105Y040035D01*
X046745Y040035D02*
X046745Y038355D01*
X046825Y038355D01*
X046858Y038325D01*
X046345Y037955D02*
X046345Y029635D01*
X046325Y029605D01*
X042185Y030275D02*
X042105Y030195D01*
X042105Y027155D01*
X042185Y027075D01*
X039865Y023155D02*
X039865Y021075D01*
X039865Y020675D01*
X039871Y020625D01*
X040579Y020625D02*
X040585Y020675D01*
X040585Y021315D01*
X040585Y022435D01*
X038265Y021955D02*
X038265Y016755D01*
X038279Y016725D01*
X038265Y016675D01*
X038265Y016035D01*
X038279Y016025D01*
X038265Y015955D01*
X038265Y014435D01*
X038279Y014425D01*
X038265Y014355D01*
X038265Y013795D01*
X038279Y013725D01*
X038265Y013715D01*
X038265Y008595D01*
X035875Y007625D02*
X035865Y007635D01*
X034905Y007635D02*
X034875Y007625D01*
X032265Y008755D02*
X032265Y006275D01*
X031945Y006515D02*
X031785Y006675D01*
X031785Y008755D01*
X031865Y008835D01*
X031865Y010355D01*
X031785Y010435D01*
X031785Y010755D01*
X032105Y011075D01*
X032105Y018115D01*
X032025Y018195D01*
X032025Y018355D01*
X031865Y018515D01*
X032265Y018355D02*
X032265Y010435D01*
X032185Y010355D01*
X032185Y008835D01*
X032265Y008755D01*
X032025Y008595D02*
X032025Y010595D01*
X036425Y014995D02*
X036425Y016035D01*
X036905Y015475D02*
X037145Y015235D01*
X037145Y013795D01*
X037545Y013795D01*
X037571Y013725D01*
X037571Y014425D02*
X037545Y014435D01*
X037545Y014995D01*
X037545Y015555D02*
X037545Y015955D01*
X037571Y016025D01*
X037545Y016035D01*
X037545Y016115D01*
X037865Y016435D01*
X037865Y016835D01*
X038105Y017075D01*
X038105Y021715D01*
X038025Y021795D01*
X036905Y022035D02*
X036905Y015475D01*
X037145Y016595D02*
X037145Y016675D01*
X037545Y016675D01*
X037571Y016725D01*
X035385Y016355D02*
X035305Y016435D01*
X035305Y016755D01*
X034825Y017235D01*
X034665Y017235D01*
X034345Y017555D01*
X034345Y017795D01*
X034025Y018115D01*
X033705Y018115D01*
X033625Y018035D01*
X033385Y018035D01*
X033065Y019155D02*
X033145Y019235D01*
X033625Y019235D01*
X033705Y019155D01*
X034025Y019155D01*
X034105Y019235D01*
X034505Y019235D01*
X033065Y019155D02*
X032745Y019155D01*
X032665Y019235D01*
X032265Y019235D01*
X043385Y019875D02*
X043545Y019715D01*
X043545Y019395D01*
X043534Y019325D01*
X043385Y019875D02*
X043385Y020355D01*
X043371Y020425D01*
X044079Y020425D02*
X044105Y020435D01*
X044105Y021075D01*
X044079Y020425D02*
X044105Y020355D01*
X044105Y019635D01*
X044185Y019555D01*
X044185Y017795D01*
X044179Y017725D01*
X044185Y017715D01*
X044185Y014675D01*
X044179Y014625D01*
X044185Y014595D01*
X044185Y012915D01*
X044105Y012835D01*
X044105Y012035D01*
X044079Y012025D01*
X044105Y011955D01*
X044105Y010595D01*
X043534Y010925D02*
X043545Y010995D01*
X043545Y011315D01*
X043385Y011475D01*
X043385Y011955D01*
X043371Y012025D01*
X042985Y011475D02*
X042985Y006275D01*
X045971Y009825D02*
X045945Y009875D01*
X045945Y010515D01*
X046265Y010835D01*
X046265Y011315D01*
X046265Y013555D01*
X046345Y013635D01*
X046345Y013795D01*
X046425Y013875D01*
X046665Y013875D01*
X046719Y013899D01*
X046745Y013875D01*
X047465Y013875D01*
X047525Y013859D01*
X047545Y013875D01*
X047945Y013875D01*
X047945Y016835D01*
X047945Y019395D01*
X047865Y019475D01*
X047465Y019475D01*
X047425Y019479D01*
X047385Y019475D01*
X047225Y019475D01*
X047225Y019635D01*
X047145Y019715D01*
X046665Y019715D01*
X046619Y019699D01*
X046585Y019715D01*
X046585Y020675D01*
X046579Y020725D01*
X046585Y020755D01*
X046585Y021315D01*
X045865Y021555D02*
X045865Y020755D01*
X045871Y020725D01*
X045792Y019325D02*
X045785Y019315D01*
X044745Y019315D01*
X044716Y019325D01*
X045865Y018915D02*
X045865Y018275D01*
X045871Y018225D01*
X046579Y018225D02*
X046585Y018275D01*
X046585Y018915D01*
X046619Y018951D01*
X046665Y018915D01*
X047305Y018915D01*
X047385Y018835D01*
X047425Y018771D01*
X047145Y016995D02*
X046585Y016995D01*
X046519Y016999D01*
X045692Y016625D02*
X045625Y016595D01*
X044745Y016595D01*
X044716Y016625D01*
X043545Y016675D02*
X043534Y016625D01*
X043545Y016675D02*
X043545Y017155D01*
X043465Y017235D01*
X043465Y017715D01*
X043471Y017725D01*
X045945Y016195D02*
X045945Y015475D01*
X045971Y015425D01*
X046519Y016251D02*
X046665Y016275D01*
X046745Y016275D01*
X046825Y016195D01*
X047385Y016195D01*
X047425Y016171D01*
X047425Y016879D02*
X047465Y016915D01*
X047865Y016915D01*
X047945Y016835D01*
X047425Y016879D02*
X047385Y016915D01*
X047225Y016915D01*
X047145Y016995D01*
X046665Y016275D02*
X046665Y015475D01*
X046679Y015425D01*
X046519Y016251D02*
X046585Y016275D01*
X046665Y016275D01*
X045865Y013555D02*
X044825Y013555D01*
X044825Y013475D01*
X044816Y013425D01*
X045865Y013555D02*
X045892Y013525D01*
X046665Y013075D02*
X046665Y012355D01*
X046679Y012325D01*
X046665Y013075D02*
X046719Y013151D01*
X046745Y013155D01*
X047465Y013155D01*
X047525Y013151D01*
X045971Y012325D02*
X045945Y012275D01*
X045945Y011475D01*
X046265Y011315D02*
X046585Y011315D01*
X046619Y011299D01*
X046619Y010551D02*
X046665Y010515D01*
X046665Y009875D01*
X046679Y009825D01*
X046745Y009875D01*
X047385Y009875D01*
X047425Y009871D01*
X047945Y010515D02*
X047865Y010595D01*
X047465Y010595D01*
X047425Y010579D01*
X047945Y010515D02*
X047945Y006275D01*
X045785Y010915D02*
X044745Y010915D01*
X044716Y010925D01*
X045785Y010915D02*
X045792Y010925D01*
X043634Y013425D02*
X043625Y013475D01*
X043625Y013955D01*
X043465Y014115D01*
X043465Y014595D01*
X043471Y014625D01*
X045305Y037955D02*
X045225Y038035D01*
X044745Y038035D01*
X044725Y038071D01*
X045305Y037955D02*
X046025Y037955D01*
X046031Y037951D01*
X046105Y037955D01*
X046345Y037955D01*
X045172Y039525D02*
X045145Y039555D01*
X045145Y040275D01*
X045534Y040725D02*
X045545Y040755D01*
X045545Y041235D01*
X046716Y040725D02*
X046745Y040755D01*
X046745Y041875D01*
X046585Y042035D01*
X046585Y045635D01*
X043865Y045635D02*
X043785Y045715D01*
X043785Y050275D01*
X043771Y050325D01*
X042425Y050275D02*
X042393Y050325D01*
X042425Y050275D02*
X042425Y045635D01*
X040985Y046355D02*
X040985Y050275D01*
X041015Y050325D01*
X039637Y050325D02*
X039625Y050275D01*
X039625Y046595D01*
X038725Y042625D02*
X038745Y042595D01*
X038745Y040275D01*
X038745Y039875D01*
X043371Y039825D02*
X043385Y039875D01*
X043385Y040275D01*
X044105Y039875D02*
X044105Y041235D01*
X044105Y039875D02*
X044079Y039825D01*
X046745Y040035D02*
X046745Y040675D01*
X046716Y040725D01*
X047225Y040275D02*
X047225Y042625D01*
X020458Y038025D02*
X020425Y038035D01*
X020105Y038035D01*
X020105Y039315D01*
X020078Y039325D01*
X020105Y039395D01*
X020105Y039955D01*
X020025Y040035D01*
X020025Y040515D01*
X020016Y040525D01*
X020025Y040595D01*
X020025Y045635D01*
X018834Y040525D02*
X018825Y040515D01*
X018825Y040035D01*
X018079Y039625D02*
X018105Y039555D01*
X018105Y038915D01*
X017971Y038425D02*
X017945Y038355D01*
X017945Y035875D01*
X018905Y036915D02*
X018925Y036971D01*
X018985Y036995D01*
X019465Y036995D01*
X019545Y037075D01*
X019545Y037635D01*
X019625Y037635D01*
X019631Y037651D01*
X019705Y037635D01*
X019945Y037635D01*
X020025Y037635D01*
X019945Y037635D02*
X019945Y038595D01*
X018905Y036915D02*
X018905Y033875D01*
X017371Y039625D02*
X017385Y039635D01*
X017385Y040115D01*
X012185Y026675D02*
X012185Y025475D01*
X012209Y025469D01*
X012185Y025395D01*
X012185Y024915D01*
X012585Y022995D02*
X012585Y021715D01*
X011865Y021635D02*
X011859Y021575D01*
X011865Y021635D02*
X011865Y022115D01*
D33*
X011865Y022115D03*
X012345Y021875D03*
X012585Y022995D03*
X013545Y023955D03*
X014265Y022995D03*
X014025Y022115D03*
X013225Y020835D03*
X013545Y020595D03*
X013225Y019555D03*
X013785Y019155D03*
X014825Y019155D03*
X012345Y019555D03*
X011865Y019155D03*
X011145Y019555D03*
X010345Y019315D03*
X010105Y018755D03*
X010585Y018515D03*
X009705Y019635D03*
X008985Y019635D03*
X008985Y018515D03*
X009625Y020995D03*
X010105Y021235D03*
X010825Y022115D03*
X011145Y020995D03*
X011145Y020595D03*
X009305Y022115D03*
X008905Y021955D03*
X009705Y023955D03*
X008585Y025395D03*
X008585Y026355D03*
X008985Y027955D03*
X010665Y027795D03*
X010905Y027395D03*
X011465Y028355D03*
X012185Y026675D03*
X012185Y024915D03*
X013705Y025635D03*
X014025Y025875D03*
X014665Y026115D03*
X014265Y024995D03*
X014905Y027635D03*
X015225Y027875D03*
X014505Y028115D03*
X014025Y030195D03*
X014505Y030435D03*
X014025Y033155D03*
X015785Y033155D03*
X016025Y035635D03*
X017945Y035875D03*
X018905Y033875D03*
X020825Y030595D03*
X020585Y030275D03*
X017465Y026195D03*
X017465Y024995D03*
X018345Y024995D03*
X020345Y024995D03*
X020105Y022195D03*
X019625Y021875D03*
X019625Y020595D03*
X019225Y020195D03*
X019465Y019875D03*
X019785Y019395D03*
X020105Y019155D03*
X020585Y018835D03*
X020345Y018035D03*
X019625Y017875D03*
X018425Y018035D03*
X018425Y017155D03*
X018185Y016115D03*
X017385Y016115D03*
X019225Y016195D03*
X019625Y015635D03*
X019865Y015075D03*
X020825Y017235D03*
X019225Y019155D03*
X018185Y020115D03*
X017385Y020115D03*
X017465Y020995D03*
X017465Y022195D03*
X017385Y018115D03*
X017465Y014195D03*
X017465Y010195D03*
X019625Y008675D03*
X019945Y008915D03*
X020345Y008435D03*
X020345Y007635D03*
X019865Y006995D03*
X019625Y006275D03*
X017945Y006995D03*
X014185Y007635D03*
X013945Y006995D03*
X013705Y006275D03*
X014425Y009075D03*
X013625Y009315D03*
X021385Y008675D03*
X023545Y016195D03*
X023785Y017395D03*
X024425Y017235D03*
X024025Y018355D03*
X024825Y018595D03*
X024425Y019555D03*
X025225Y019555D03*
X025465Y019875D03*
X025945Y020115D03*
X026505Y020035D03*
X026825Y019795D03*
X027305Y020355D03*
X027785Y020355D03*
X027625Y019635D03*
X028025Y018595D03*
X028185Y018035D03*
X027145Y018355D03*
X027065Y017955D03*
X027065Y017475D03*
X026745Y018515D03*
X026505Y018835D03*
X026025Y018515D03*
X025705Y018035D03*
X025705Y017635D03*
X025705Y017235D03*
X024265Y020355D03*
X025705Y021235D03*
X025785Y021635D03*
X026025Y021955D03*
X026265Y022275D03*
X025545Y022275D03*
X025225Y022995D03*
X024825Y023555D03*
X024825Y023955D03*
X024825Y024515D03*
X024825Y024915D03*
X024745Y026195D03*
X024985Y026515D03*
X026105Y026595D03*
X027065Y026115D03*
X027305Y026595D03*
X027785Y025875D03*
X028025Y025475D03*
X028025Y024995D03*
X028905Y025795D03*
X029785Y026115D03*
X029945Y025475D03*
X030425Y025795D03*
X030665Y026515D03*
X032185Y026275D03*
X030185Y024515D03*
X029145Y024035D03*
X029385Y023635D03*
X028025Y023635D03*
X028025Y024035D03*
X027145Y023955D03*
X026745Y023955D03*
X026665Y024355D03*
X027145Y024515D03*
X026505Y023555D03*
X026185Y022995D03*
X027305Y022995D03*
X023785Y022995D03*
X023545Y024435D03*
X023305Y024915D03*
X027945Y026515D03*
X027945Y026915D03*
X029145Y026915D03*
X031385Y029635D03*
X031385Y030515D03*
X032185Y031395D03*
X034105Y030515D03*
X034345Y031635D03*
X037385Y030515D03*
X037785Y029955D03*
X038425Y029955D03*
X038665Y029635D03*
X038185Y031395D03*
X040665Y031395D03*
X040425Y029635D03*
X042185Y030275D03*
X043385Y031155D03*
X042185Y027075D03*
X039865Y023155D03*
X040585Y022435D03*
X041385Y021955D03*
X041705Y021715D03*
X040585Y021315D03*
X039865Y021075D03*
X039385Y021555D03*
X038985Y022435D03*
X038425Y023155D03*
X038025Y021795D03*
X036905Y022035D03*
X034505Y019235D03*
X033385Y018035D03*
X032265Y018355D03*
X031865Y018515D03*
X032265Y019235D03*
X035385Y016355D03*
X036425Y016035D03*
X037145Y016595D03*
X037545Y015555D03*
X037145Y015235D03*
X037545Y014995D03*
X036425Y014995D03*
X032025Y010595D03*
X032025Y008595D03*
X031945Y006515D03*
X032265Y006275D03*
X038265Y008595D03*
X042985Y006275D03*
X044105Y010595D03*
X042985Y011475D03*
X045945Y011475D03*
X045945Y016195D03*
X045865Y018915D03*
X044105Y021075D03*
X045865Y021555D03*
X046585Y021315D03*
X047945Y006275D03*
X030025Y030275D03*
X029785Y031155D03*
X030265Y031635D03*
X027145Y035635D03*
X027945Y035875D03*
X027785Y036835D03*
X027225Y037555D03*
X026425Y036835D03*
X024985Y037555D03*
X026505Y038915D03*
X026905Y039955D03*
X025785Y039955D03*
X027385Y042595D03*
X027865Y045635D03*
X026025Y046835D03*
X025465Y046835D03*
X026745Y047875D03*
X026745Y049715D03*
X028825Y049715D03*
X028825Y047715D03*
X029385Y047555D03*
X031705Y046595D03*
X034105Y047315D03*
X034745Y046355D03*
X035465Y047075D03*
X036905Y046915D03*
X037385Y045635D03*
X038265Y046755D03*
X039625Y046595D03*
X040985Y046355D03*
X042425Y045635D03*
X043865Y045635D03*
X046585Y045635D03*
X045545Y041235D03*
X045145Y040275D03*
X046105Y040035D03*
X046745Y040035D03*
X047225Y040275D03*
X044105Y041235D03*
X043385Y040275D03*
X038745Y040275D03*
X038745Y039875D03*
X036505Y039875D03*
X035065Y039875D03*
X033945Y039875D03*
X030025Y039875D03*
X023065Y047075D03*
X021945Y048995D03*
X020505Y047715D03*
X019385Y048995D03*
X019145Y050435D03*
X017785Y048995D03*
X016745Y047315D03*
X015865Y047075D03*
X015465Y047795D03*
X015145Y048035D03*
X013705Y047555D03*
X015065Y050435D03*
X015705Y052195D03*
X020025Y045635D03*
X019145Y042595D03*
X017385Y040115D03*
X018105Y038915D03*
X019145Y038915D03*
X018825Y040035D03*
X020025Y037635D03*
X010505Y026115D03*
X006505Y024675D03*
X006025Y026915D03*
X006265Y028915D03*
X006265Y021795D03*
X006425Y020755D03*
X006025Y019795D03*
X025545Y052195D03*
M02*
