G75*
G70*
%OFA0B0*%
%FSLAX24Y24*%
%IPPOS*%
%LPD*%
%AMOC8*
5,1,8,0,0,1.08239X$1,22.5*
%
%ADD10C,0.0660*%
%ADD11R,0.0800X0.0800*%
%ADD12C,0.0800*%
%ADD13C,0.0740*%
%ADD14C,0.0700*%
%ADD15R,0.0740X0.0740*%
%ADD16C,0.0768*%
%ADD17R,0.0591X0.0591*%
%ADD18C,0.0591*%
%ADD19C,0.0060*%
%ADD20C,0.0300*%
D10*
X017875Y007625D03*
X017875Y008625D03*
X017875Y009625D03*
X017875Y010625D03*
X017875Y011625D03*
X017875Y012625D03*
X017875Y013625D03*
X017875Y014625D03*
X017875Y015625D03*
X017875Y016625D03*
X017875Y017625D03*
X017875Y018625D03*
X017875Y019625D03*
X017875Y020625D03*
X017875Y021625D03*
X017875Y022625D03*
X017875Y023625D03*
X017875Y024625D03*
X017875Y025625D03*
X017875Y026625D03*
X017875Y027625D03*
X017875Y028625D03*
X017875Y029625D03*
X018875Y029625D03*
X018875Y028625D03*
X018875Y027625D03*
X018875Y026625D03*
X018875Y025625D03*
X018875Y024625D03*
X018875Y023625D03*
X018875Y022625D03*
X018875Y021625D03*
X018875Y020625D03*
X018875Y019625D03*
X018875Y018625D03*
X018875Y017625D03*
X018875Y016625D03*
X018875Y015625D03*
X018875Y014625D03*
X018875Y013625D03*
X018875Y012625D03*
X018875Y011625D03*
X018875Y010625D03*
X018875Y009625D03*
X018875Y008625D03*
X018875Y007625D03*
X032875Y007625D03*
X032875Y008625D03*
X032875Y009625D03*
X032875Y010625D03*
X032875Y011625D03*
X032875Y012625D03*
X032875Y013625D03*
X032875Y014625D03*
X032875Y015625D03*
X032875Y016625D03*
X032875Y017625D03*
X032875Y018625D03*
X032875Y019625D03*
X032875Y020625D03*
X032875Y021625D03*
X032875Y022625D03*
X032875Y023625D03*
X032875Y024625D03*
X032875Y025625D03*
X032875Y026625D03*
X032875Y027625D03*
X032875Y028625D03*
X032875Y029625D03*
X033875Y029625D03*
X033875Y028625D03*
X033875Y027625D03*
X033875Y026625D03*
X033875Y025625D03*
X033875Y024625D03*
X033875Y023625D03*
X033875Y022625D03*
X033875Y021625D03*
X033875Y020625D03*
X033875Y019625D03*
X033875Y018625D03*
X033875Y017625D03*
X033875Y016625D03*
X033875Y015625D03*
X033875Y014625D03*
X033875Y013625D03*
X033875Y012625D03*
X033875Y011625D03*
X033875Y010625D03*
X033875Y009625D03*
X033875Y008625D03*
X033875Y007625D03*
D11*
X015025Y049725D03*
X034125Y050325D03*
D12*
X035503Y050325D03*
X036881Y050325D03*
X038259Y050325D03*
X039637Y050325D03*
X041015Y050325D03*
X042393Y050325D03*
X043771Y050325D03*
X021915Y049725D03*
X020537Y049725D03*
X019159Y049725D03*
X017781Y049725D03*
X016403Y049725D03*
D13*
X024425Y049025D03*
X025425Y049025D03*
X025525Y051125D03*
X024525Y051125D03*
X027825Y051025D03*
X028825Y051025D03*
X028825Y049025D03*
X027825Y049025D03*
X016805Y035615D03*
X016805Y033835D03*
X014245Y033835D03*
X014245Y035615D03*
X008125Y035875D03*
X008125Y034875D03*
X008125Y033875D03*
X008125Y032875D03*
X007125Y033375D03*
X007125Y034375D03*
X007125Y035375D03*
X008025Y040975D03*
X008025Y041975D03*
X008025Y042975D03*
X008025Y043975D03*
X007025Y043475D03*
X007025Y042475D03*
X007025Y041475D03*
X007925Y028375D03*
X007925Y027375D03*
X007925Y026375D03*
X007925Y025375D03*
X006925Y025875D03*
X006925Y026875D03*
X006925Y027875D03*
X008125Y021275D03*
X008125Y020275D03*
X008125Y019275D03*
X008125Y018275D03*
X007125Y018775D03*
X007125Y019775D03*
X007125Y020775D03*
D14*
X046325Y027045D03*
X046325Y029605D03*
D15*
X006925Y028875D03*
X007125Y021775D03*
X007125Y036375D03*
X007025Y044475D03*
D16*
X013725Y045625D03*
X016725Y045625D03*
X014725Y042625D03*
X020725Y042625D03*
X020725Y045625D03*
X023025Y045625D03*
X026025Y045625D03*
X024025Y042625D03*
X030025Y042625D03*
X032725Y042625D03*
X031725Y045625D03*
X030025Y045625D03*
X034725Y045625D03*
X038725Y045625D03*
X040225Y045625D03*
X043225Y045625D03*
X041225Y042625D03*
X038725Y042625D03*
X047225Y042625D03*
X047225Y045625D03*
D17*
X035875Y007625D03*
X016875Y007625D03*
D18*
X016875Y008625D03*
X016875Y009625D03*
X016875Y010625D03*
X016875Y011625D03*
X016875Y012625D03*
X016875Y013625D03*
X016875Y014625D03*
X016875Y015625D03*
X016875Y016625D03*
X016875Y017625D03*
X016875Y018625D03*
X016875Y019625D03*
X016875Y020625D03*
X016875Y021625D03*
X016875Y022625D03*
X016875Y023625D03*
X016875Y024625D03*
X016875Y025625D03*
X016875Y026625D03*
X016875Y027625D03*
X016875Y028625D03*
X016875Y029625D03*
X015875Y029625D03*
X015875Y028625D03*
X015875Y027625D03*
X015875Y026625D03*
X015875Y025625D03*
X015875Y024625D03*
X015875Y023625D03*
X015875Y022625D03*
X015875Y021625D03*
X015875Y020625D03*
X015875Y019625D03*
X015875Y018625D03*
X015875Y017625D03*
X015875Y016625D03*
X015875Y015625D03*
X015875Y014625D03*
X015875Y013625D03*
X015875Y012625D03*
X015875Y011625D03*
X015875Y010625D03*
X015875Y009625D03*
X015875Y008625D03*
X015875Y007625D03*
X034875Y007625D03*
X034875Y008625D03*
X034875Y009625D03*
X034875Y010625D03*
X034875Y011625D03*
X034875Y012625D03*
X034875Y013625D03*
X034875Y014625D03*
X034875Y015625D03*
X034875Y016625D03*
X034875Y017625D03*
X034875Y018625D03*
X034875Y019625D03*
X034875Y020625D03*
X034875Y021625D03*
X034875Y022625D03*
X034875Y023625D03*
X034875Y024625D03*
X034875Y025625D03*
X034875Y026625D03*
X034875Y027625D03*
X034875Y028625D03*
X034875Y029625D03*
X035875Y029625D03*
X035875Y028625D03*
X035875Y027625D03*
X035875Y026625D03*
X035875Y025625D03*
X035875Y024625D03*
X035875Y023625D03*
X035875Y022625D03*
X035875Y021625D03*
X035875Y020625D03*
X035875Y019625D03*
X035875Y018625D03*
X035875Y017625D03*
X035875Y016625D03*
X035875Y015625D03*
X035875Y014625D03*
X035875Y013625D03*
X035875Y012625D03*
X035875Y011625D03*
X035875Y010625D03*
X035875Y009625D03*
X035875Y008625D03*
D19*
X035945Y008595D01*
X038265Y008595D01*
X036425Y009075D02*
X034745Y009075D01*
X034665Y008995D01*
X034105Y008995D01*
X034025Y009075D01*
X033705Y009075D01*
X033625Y008995D01*
X033145Y008995D01*
X033065Y009075D01*
X032665Y009075D01*
X032585Y008995D01*
X031785Y008995D01*
X031705Y008915D01*
X028665Y008915D01*
X028585Y008995D01*
X028825Y009315D02*
X029065Y009075D01*
X031625Y009075D01*
X031705Y009155D01*
X032185Y009155D01*
X032265Y009235D01*
X032185Y008835D02*
X031865Y008835D01*
X031785Y008755D01*
X021705Y008755D01*
X021545Y008915D01*
X019945Y008915D01*
X020345Y008435D02*
X031305Y008435D01*
X032105Y007635D01*
X032825Y007635D01*
X032875Y007625D01*
X032905Y007635D01*
X033865Y007635D01*
X033875Y007625D01*
X033945Y007635D01*
X034825Y007635D01*
X034875Y007625D01*
X034905Y007635D01*
X035865Y007635D01*
X035875Y007625D01*
X035865Y008595D02*
X034905Y008595D01*
X034875Y008625D01*
X034825Y008595D01*
X033945Y008595D01*
X033875Y008625D01*
X033865Y008595D01*
X032905Y008595D01*
X032875Y008625D01*
X032825Y008595D01*
X032425Y008595D01*
X032185Y008835D01*
X032025Y008595D02*
X021625Y008595D01*
X021545Y008675D01*
X021385Y008675D01*
X020345Y007635D02*
X018905Y007635D01*
X018875Y007625D01*
X018825Y007635D01*
X017945Y007635D01*
X017875Y007625D01*
X017865Y007635D01*
X016905Y007635D01*
X016875Y007625D01*
X016825Y007635D01*
X015945Y007635D01*
X015875Y007625D01*
X015865Y007635D01*
X014105Y007635D01*
X013865Y006995D02*
X017945Y006995D01*
X019945Y006995D01*
X018875Y008625D02*
X018825Y008595D01*
X018505Y008595D01*
X018025Y008115D01*
X017225Y008115D01*
X017145Y008035D01*
X015865Y008035D01*
X015465Y008435D01*
X015465Y009075D01*
X013625Y009075D01*
X013865Y009235D02*
X013625Y009475D01*
X013465Y009475D01*
X013865Y009235D02*
X016105Y009235D01*
X016265Y009395D01*
X016265Y009475D01*
X016425Y009635D01*
X016825Y009635D01*
X016875Y009625D01*
X016905Y009635D01*
X017225Y009635D01*
X017705Y009155D01*
X018025Y009155D01*
X018505Y009635D01*
X018825Y009635D01*
X018875Y009625D01*
X018425Y010435D02*
X018585Y010595D01*
X018825Y010595D01*
X018875Y010625D01*
X018425Y010435D02*
X018345Y010435D01*
X018105Y010195D01*
X017465Y010195D01*
X017065Y010195D02*
X017465Y010595D01*
X017865Y010595D01*
X017875Y010625D01*
X018345Y011155D02*
X015785Y011155D01*
X015465Y011475D01*
X015465Y013075D01*
X016025Y013075D01*
X016505Y012595D01*
X016825Y012595D01*
X016875Y012625D01*
X017065Y012195D02*
X016585Y012195D01*
X016185Y012595D01*
X015945Y012595D01*
X015875Y012625D01*
X016585Y012035D02*
X016185Y011635D01*
X015945Y011635D01*
X015875Y011625D01*
X016585Y012035D02*
X017065Y012035D01*
X017465Y011635D01*
X017865Y011635D01*
X017875Y011625D01*
X018345Y011155D02*
X018345Y012115D01*
X018825Y012595D01*
X018875Y012625D01*
X018875Y013625D02*
X018825Y013635D01*
X018505Y013635D01*
X018025Y013155D01*
X017705Y013155D01*
X017225Y013635D01*
X016905Y013635D01*
X016875Y013625D01*
X017065Y014035D02*
X016585Y014035D01*
X016185Y013635D01*
X015945Y013635D01*
X015875Y013625D01*
X016585Y014195D02*
X016185Y014595D01*
X015945Y014595D01*
X015875Y014625D01*
X015785Y015155D02*
X015465Y015475D01*
X015465Y017075D01*
X016105Y017075D01*
X016585Y016595D01*
X016825Y016595D01*
X016875Y016625D01*
X017065Y016195D02*
X016585Y016195D01*
X016185Y016595D01*
X015945Y016595D01*
X015875Y016625D01*
X016585Y016035D02*
X016185Y015635D01*
X015945Y015635D01*
X015875Y015625D01*
X015785Y015155D02*
X018425Y015155D01*
X018425Y016195D01*
X018825Y016595D01*
X018875Y016625D01*
X019225Y016195D02*
X023545Y016195D01*
X023785Y017395D02*
X023705Y017475D01*
X019385Y017475D01*
X019065Y017155D01*
X018425Y017155D01*
X018025Y017155D02*
X018505Y017635D01*
X018825Y017635D01*
X018875Y017625D01*
X018905Y017635D01*
X025705Y017635D01*
X025465Y017795D02*
X019705Y017795D01*
X019625Y017875D01*
X019305Y018435D02*
X018985Y018115D01*
X018745Y018115D01*
X018665Y018035D01*
X018425Y018035D01*
X018185Y018195D02*
X018585Y018595D01*
X018825Y018595D01*
X018875Y018625D01*
X018905Y018595D01*
X024825Y018595D01*
X024585Y018755D02*
X020425Y018755D01*
X020345Y018835D01*
X020105Y019155D02*
X019225Y019155D01*
X018905Y019635D02*
X018875Y019625D01*
X018905Y019635D02*
X024345Y019635D01*
X024425Y019555D01*
X024265Y019315D02*
X024105Y019475D01*
X019865Y019475D01*
X019785Y019395D01*
X019545Y019795D02*
X019465Y019875D01*
X019545Y019795D02*
X025385Y019795D01*
X025465Y019875D01*
X025225Y019555D02*
X024985Y019315D01*
X024265Y019315D01*
X024185Y019155D02*
X024025Y019315D01*
X020665Y019315D01*
X020585Y019235D01*
X020825Y018035D02*
X020905Y017955D01*
X025225Y017955D01*
X025545Y018275D01*
X026585Y018275D01*
X027065Y017795D01*
X028025Y018275D02*
X028665Y018275D01*
X028905Y018675D02*
X028025Y018675D01*
X027625Y019635D02*
X027705Y019715D01*
X031945Y019715D01*
X032265Y019395D01*
X032265Y019235D01*
X032825Y019075D02*
X032025Y019875D01*
X026905Y019875D01*
X026825Y019795D01*
X026505Y020035D02*
X032665Y020035D01*
X032745Y020115D01*
X032985Y020115D01*
X033465Y019635D01*
X033865Y019635D01*
X033875Y019625D01*
X033945Y019635D01*
X034265Y019635D01*
X034665Y020035D01*
X035065Y020035D01*
X035465Y019635D01*
X035865Y019635D01*
X035875Y019625D01*
X036025Y019075D02*
X035225Y019075D01*
X035065Y019235D01*
X034505Y019235D01*
X034745Y019075D02*
X034265Y018595D01*
X033945Y018595D01*
X033875Y018625D01*
X033865Y018595D01*
X033545Y018595D01*
X033065Y019075D01*
X032825Y019075D01*
X032875Y018625D02*
X032905Y018595D01*
X033225Y018595D01*
X033625Y018195D01*
X034105Y018195D01*
X034505Y018595D01*
X034825Y018595D01*
X034875Y018625D01*
X034985Y019075D02*
X034745Y019075D01*
X034985Y019075D02*
X035465Y018595D01*
X035865Y018595D01*
X035875Y018625D01*
X036105Y018995D02*
X045785Y018995D01*
X045865Y018915D01*
X044105Y021075D02*
X039865Y021075D01*
X039385Y021555D02*
X040745Y021555D01*
X040905Y021395D01*
X043785Y021395D01*
X043865Y021475D01*
X045785Y021475D01*
X045865Y021555D01*
X046585Y021315D02*
X043945Y021315D01*
X043865Y021235D01*
X040825Y021235D01*
X040745Y021315D01*
X040585Y021315D01*
X041305Y021875D02*
X039705Y021875D01*
X039625Y021955D01*
X038265Y021955D01*
X038185Y022035D01*
X036905Y022035D01*
X035875Y021625D02*
X035865Y021635D01*
X035465Y021635D01*
X035065Y022035D01*
X034665Y022035D01*
X034265Y021635D01*
X033945Y021635D01*
X033875Y021625D01*
X034025Y021155D02*
X033705Y021155D01*
X033225Y021635D01*
X032905Y021635D01*
X032875Y021625D01*
X032875Y020625D02*
X032905Y020595D01*
X033225Y020595D01*
X033625Y020195D01*
X034105Y020195D01*
X034505Y020595D01*
X034825Y020595D01*
X034875Y020625D01*
X034985Y021075D02*
X034745Y021075D01*
X034265Y020595D01*
X033945Y020595D01*
X033875Y020625D01*
X034025Y021155D02*
X034505Y021635D01*
X034825Y021635D01*
X034875Y021625D01*
X034985Y021075D02*
X035465Y020595D01*
X035865Y020595D01*
X035875Y020625D01*
X034875Y019625D02*
X034825Y019635D01*
X034505Y019635D01*
X034025Y019155D01*
X033705Y019155D01*
X033225Y019635D01*
X032905Y019635D01*
X032875Y019625D01*
X034665Y018035D02*
X034265Y017635D01*
X033945Y017635D01*
X033875Y017625D01*
X034025Y017155D02*
X033705Y017155D01*
X033225Y017635D01*
X032905Y017635D01*
X032875Y017625D01*
X032665Y017235D02*
X028185Y017235D01*
X026745Y018835D02*
X024665Y018835D01*
X024585Y018755D01*
X024185Y019155D02*
X026505Y019155D01*
X025705Y018035D02*
X025465Y017795D01*
X025705Y017235D02*
X024425Y017235D01*
X024025Y018355D02*
X023945Y018435D01*
X019305Y018435D01*
X018425Y019155D02*
X015785Y019155D01*
X015465Y019475D01*
X015465Y021075D01*
X016105Y021075D01*
X016585Y020595D01*
X016825Y020595D01*
X016875Y020625D01*
X017065Y020995D02*
X016985Y021075D01*
X016345Y021075D01*
X016185Y021235D01*
X012825Y021235D01*
X012745Y021155D01*
X011385Y021155D01*
X011305Y021235D01*
X010105Y021235D01*
X010105Y020755D02*
X009385Y020755D01*
X009145Y020995D01*
X008505Y020995D01*
X008265Y020755D01*
X007145Y020755D01*
X007125Y020775D01*
X007065Y020755D01*
X005785Y020755D01*
X006025Y019795D02*
X007065Y019795D01*
X007125Y019775D01*
X008125Y020275D02*
X008505Y020275D01*
X008665Y020435D01*
X010665Y020435D01*
X011145Y020595D02*
X013545Y020595D01*
X012985Y020995D02*
X011145Y020995D01*
X009625Y020995D01*
X009545Y021075D01*
X009305Y021075D01*
X009225Y021155D01*
X008825Y021155D01*
X008665Y021315D01*
X008185Y021315D01*
X008125Y021275D01*
X008745Y021795D02*
X007145Y021795D01*
X007125Y021775D01*
X007065Y021795D01*
X006265Y021795D01*
X008745Y021795D02*
X008905Y021955D01*
X012345Y021955D01*
X012745Y021875D02*
X014265Y021875D01*
X014025Y022195D02*
X011865Y022195D01*
X010665Y022195D01*
X009705Y023955D02*
X013545Y023955D01*
X014185Y024915D02*
X012185Y024915D01*
X012185Y026675D02*
X011945Y026915D01*
X006985Y026915D01*
X006925Y026875D01*
X006905Y026915D01*
X006025Y026915D01*
X005705Y027875D02*
X006925Y027875D01*
X014025Y027875D01*
X015465Y027475D02*
X015465Y029075D01*
X016025Y029075D01*
X016505Y028595D01*
X016825Y028595D01*
X016875Y028625D01*
X017065Y028195D02*
X016585Y028195D01*
X016185Y028595D01*
X015945Y028595D01*
X015875Y028625D01*
X016585Y028035D02*
X016185Y027635D01*
X015945Y027635D01*
X015875Y027625D01*
X015465Y027475D02*
X015785Y027155D01*
X018345Y027155D01*
X018345Y028115D01*
X018825Y028595D01*
X018875Y028625D01*
X018875Y029625D02*
X018825Y029635D01*
X018505Y029635D01*
X018025Y029155D01*
X017705Y029155D01*
X017225Y029635D01*
X016905Y029635D01*
X016875Y029625D01*
X017065Y030035D02*
X016585Y030035D01*
X016185Y029635D01*
X015945Y029635D01*
X015875Y029625D01*
X017065Y030035D02*
X017465Y029635D01*
X017865Y029635D01*
X017875Y029625D01*
X017225Y030275D02*
X017145Y030195D01*
X014025Y030195D01*
X014505Y030435D02*
X014585Y030355D01*
X017065Y030355D01*
X017145Y030435D01*
X020105Y030435D01*
X020185Y030515D01*
X020505Y030515D01*
X020585Y030595D01*
X020425Y030835D02*
X020265Y030675D01*
X020105Y030675D01*
X020025Y030595D01*
X017065Y030595D01*
X016985Y030515D01*
X014825Y030515D01*
X014665Y030675D01*
X007225Y030675D01*
X006905Y028915D02*
X006265Y028915D01*
X006905Y028915D02*
X006925Y028875D01*
X007925Y028375D02*
X007945Y028355D01*
X008425Y028355D01*
X008745Y028035D01*
X009465Y028035D01*
X009465Y028115D01*
X009465Y028035D02*
X011385Y028035D01*
X011465Y028115D01*
X010665Y027395D02*
X009705Y027395D01*
X007945Y027395D01*
X007925Y027375D01*
X007925Y026375D02*
X007945Y026355D01*
X008585Y026355D01*
X008985Y025955D01*
X008265Y025715D02*
X008105Y025875D01*
X006925Y025875D01*
X005465Y025875D01*
X007925Y025375D02*
X007945Y025395D01*
X010105Y025395D01*
X008985Y024755D02*
X007945Y024755D01*
X008265Y025715D02*
X014505Y025715D01*
X014265Y024995D02*
X014185Y024915D01*
X015465Y025075D02*
X016025Y025075D01*
X016505Y024595D01*
X016825Y024595D01*
X016875Y024625D01*
X017065Y024195D02*
X016585Y024195D01*
X016185Y024595D01*
X015945Y024595D01*
X015875Y024625D01*
X015465Y025075D02*
X015465Y023475D01*
X015785Y023155D01*
X018345Y023155D01*
X018345Y024115D01*
X018825Y024595D01*
X018875Y024625D01*
X018875Y025625D02*
X018825Y025635D01*
X018505Y025635D01*
X018025Y025155D01*
X017705Y025155D01*
X017225Y025635D01*
X016905Y025635D01*
X016875Y025625D01*
X017065Y026035D02*
X016585Y026035D01*
X016185Y025635D01*
X015945Y025635D01*
X015875Y025625D01*
X016585Y026195D02*
X016185Y026595D01*
X015945Y026595D01*
X015875Y026625D01*
X016585Y026195D02*
X017065Y026195D01*
X017465Y026595D01*
X017865Y026595D01*
X017875Y026625D01*
X018105Y026195D02*
X017465Y026195D01*
X017065Y026035D02*
X017465Y025635D01*
X017865Y025635D01*
X017875Y025625D01*
X018105Y026195D02*
X018345Y026435D01*
X018425Y026435D01*
X018585Y026595D01*
X018825Y026595D01*
X018875Y026625D01*
X017875Y027625D02*
X017865Y027635D01*
X017465Y027635D01*
X017065Y028035D01*
X016585Y028035D01*
X017065Y028195D02*
X017465Y028595D01*
X017865Y028595D01*
X017875Y028625D01*
X017225Y030275D02*
X020345Y030275D01*
X020425Y030835D02*
X020745Y030835D01*
X020825Y030915D01*
X018905Y033875D02*
X016825Y033875D01*
X016805Y033835D01*
X016745Y033875D01*
X014265Y033875D01*
X014245Y033835D01*
X014245Y035615D02*
X014265Y035635D01*
X016025Y035635D01*
X016745Y035635D01*
X016805Y035615D01*
X016825Y035635D01*
X027145Y035635D01*
X026985Y035875D02*
X027945Y035875D01*
X027785Y036835D02*
X026425Y036835D01*
X026985Y035875D02*
X026905Y035795D01*
X018025Y035795D01*
X017945Y035875D01*
X020025Y037635D02*
X024905Y037635D01*
X024985Y037555D01*
X027225Y037555D01*
X026505Y038915D02*
X020745Y038915D01*
X020745Y038835D01*
X020745Y038915D02*
X019145Y038915D01*
X019065Y038995D01*
X018185Y038995D01*
X018105Y038915D01*
X009305Y038915D01*
X009545Y038755D02*
X009305Y038515D01*
X009145Y038515D01*
X009545Y038755D02*
X015705Y038755D01*
X015785Y038675D01*
X017385Y040115D02*
X017465Y040035D01*
X018825Y040035D01*
X019305Y039155D02*
X017945Y039155D01*
X017865Y039075D01*
X010025Y039075D01*
X009945Y039155D01*
X009945Y040995D02*
X008025Y040995D01*
X008025Y040975D01*
X008025Y041955D02*
X008025Y041975D01*
X008025Y041955D02*
X009785Y041955D01*
X009625Y042995D02*
X008025Y042995D01*
X008025Y042975D01*
X008025Y043955D02*
X008025Y043975D01*
X008025Y043955D02*
X009385Y043955D01*
X007025Y043475D02*
X005865Y043475D01*
X006105Y044515D02*
X006985Y044515D01*
X007025Y044475D01*
X006985Y042515D02*
X006345Y042515D01*
X006985Y042515D02*
X007025Y042475D01*
X007025Y041475D02*
X005785Y041475D01*
X006105Y036355D02*
X007065Y036355D01*
X007125Y036375D01*
X007065Y035395D02*
X007125Y035375D01*
X007065Y035395D02*
X005865Y035395D01*
X006345Y034355D02*
X007065Y034355D01*
X007125Y034375D01*
X008125Y033875D02*
X010185Y033875D01*
X009625Y034915D02*
X008185Y034915D01*
X008125Y034875D01*
X008125Y035875D02*
X009385Y035875D01*
X009145Y032915D02*
X008185Y032915D01*
X008125Y032875D01*
X008985Y028835D02*
X009785Y028835D01*
X015875Y023625D02*
X015945Y023635D01*
X016185Y023635D01*
X016585Y024035D01*
X017065Y024035D01*
X017465Y023635D01*
X017865Y023635D01*
X017875Y023625D01*
X017865Y024595D02*
X017465Y024595D01*
X017065Y024195D01*
X017865Y024595D02*
X017875Y024625D01*
X017875Y022625D02*
X017865Y022595D01*
X017465Y022595D01*
X017065Y022195D01*
X016585Y022195D01*
X016185Y022595D01*
X015945Y022595D01*
X015875Y022625D01*
X016585Y022035D02*
X016185Y021635D01*
X015945Y021635D01*
X015875Y021625D01*
X015875Y020625D02*
X015945Y020595D01*
X016185Y020595D01*
X016585Y020195D01*
X017065Y020195D01*
X017465Y020595D01*
X017865Y020595D01*
X017875Y020625D01*
X017945Y020595D01*
X018185Y020595D01*
X018665Y021075D01*
X018985Y021075D01*
X019385Y021475D01*
X025465Y021475D01*
X025705Y021235D01*
X025545Y020995D02*
X025225Y021315D01*
X019625Y021315D01*
X019305Y020995D01*
X019625Y020595D02*
X018905Y020595D01*
X018875Y020625D01*
X018825Y020595D01*
X018425Y020195D01*
X018425Y019155D01*
X017875Y019625D02*
X017865Y019635D01*
X017465Y019635D01*
X017065Y020035D01*
X016585Y020035D01*
X016185Y019635D01*
X015945Y019635D01*
X015875Y019625D01*
X015875Y018625D02*
X015945Y018595D01*
X016185Y018595D01*
X016585Y018195D01*
X017065Y018195D01*
X017465Y018595D01*
X017865Y018595D01*
X017875Y018625D01*
X018185Y018195D02*
X017465Y018195D01*
X017385Y018115D01*
X017065Y018035D02*
X017465Y017635D01*
X017865Y017635D01*
X017875Y017625D01*
X018025Y017155D02*
X017705Y017155D01*
X017225Y017635D01*
X016905Y017635D01*
X016875Y017625D01*
X017065Y018035D02*
X016585Y018035D01*
X016185Y017635D01*
X015945Y017635D01*
X015875Y017625D01*
X016585Y016035D02*
X017065Y016035D01*
X017465Y015635D01*
X017865Y015635D01*
X017875Y015625D01*
X018185Y016115D02*
X017385Y016115D01*
X017065Y016195D02*
X017465Y016595D01*
X017865Y016595D01*
X017875Y016625D01*
X018875Y015625D02*
X018905Y015635D01*
X019625Y015635D01*
X019865Y015075D02*
X018665Y015075D01*
X018185Y014595D01*
X017945Y014595D01*
X017875Y014625D01*
X017865Y014595D01*
X017465Y014595D01*
X017065Y014195D01*
X016585Y014195D01*
X017065Y014035D02*
X017465Y013635D01*
X017865Y013635D01*
X017875Y013625D01*
X018105Y014195D02*
X017465Y014195D01*
X018105Y014195D02*
X018505Y014595D01*
X018825Y014595D01*
X018875Y014625D01*
X017875Y012625D02*
X017865Y012595D01*
X017465Y012595D01*
X017065Y012195D01*
X016185Y010595D02*
X015945Y010595D01*
X015875Y010625D01*
X016185Y010595D02*
X016585Y010195D01*
X017065Y010195D01*
X017065Y010035D02*
X016585Y010035D01*
X016185Y009635D01*
X015945Y009635D01*
X015875Y009625D01*
X016025Y009075D02*
X015465Y009075D01*
X016025Y009075D02*
X016505Y008595D01*
X016825Y008595D01*
X016875Y008625D01*
X017065Y008195D02*
X016585Y008195D01*
X016185Y008595D01*
X015945Y008595D01*
X015875Y008625D01*
X017065Y008195D02*
X017465Y008595D01*
X017865Y008595D01*
X017875Y008625D01*
X017875Y009625D02*
X017865Y009635D01*
X017465Y009635D01*
X017065Y010035D01*
X013625Y016595D02*
X011865Y016595D01*
X011865Y019155D02*
X013785Y019155D01*
X013225Y019555D02*
X012345Y019555D01*
X011145Y019555D02*
X009785Y019555D01*
X009705Y019635D01*
X008665Y020435D02*
X008985Y020755D01*
X009305Y018435D02*
X009145Y018275D01*
X008125Y018275D01*
X016585Y022035D02*
X017065Y022035D01*
X017465Y021635D01*
X017865Y021635D01*
X017875Y021625D01*
X017945Y021635D01*
X018265Y021635D01*
X018745Y022115D01*
X019785Y022115D01*
X019945Y021955D01*
X025465Y021955D01*
X025545Y022035D01*
X025705Y022035D01*
X025865Y022195D01*
X026185Y022195D01*
X026265Y022275D01*
X026025Y021955D02*
X025945Y021875D01*
X025625Y021875D01*
X025545Y021795D01*
X019705Y021795D01*
X019625Y021875D01*
X020105Y022195D02*
X020185Y022115D01*
X025385Y022115D01*
X025545Y022275D01*
X025785Y021635D02*
X018905Y021635D01*
X018875Y021625D01*
X018825Y021635D01*
X018505Y021635D01*
X018025Y021155D01*
X017705Y021155D01*
X017225Y021635D01*
X016905Y021635D01*
X016875Y021625D01*
X017065Y020995D02*
X017465Y020995D01*
X017385Y020115D02*
X018185Y020115D01*
X018105Y022195D02*
X017465Y022195D01*
X018105Y022195D02*
X018345Y022435D01*
X018425Y022435D01*
X018585Y022595D01*
X018825Y022595D01*
X018875Y022625D01*
X020905Y023315D02*
X024985Y023315D01*
X025065Y023395D01*
X026265Y023395D01*
X026345Y023315D01*
X028025Y023315D01*
X028025Y024035D02*
X029145Y024035D01*
X030185Y024515D02*
X027145Y024515D01*
X026745Y024355D02*
X027145Y023955D01*
X026745Y023955D02*
X024825Y023955D01*
X024825Y023555D02*
X026505Y023555D01*
X026185Y022995D02*
X027305Y022995D01*
X026745Y024355D02*
X026665Y024355D01*
X027785Y024995D02*
X028025Y024995D01*
X027785Y024995D02*
X027785Y025875D01*
X027785Y026275D02*
X027705Y026355D01*
X025225Y026355D01*
X025065Y026195D01*
X024745Y026195D01*
X024985Y026515D02*
X026105Y026515D01*
X026105Y026595D01*
X026105Y026515D02*
X027305Y026515D01*
X027305Y026595D01*
X027305Y026515D02*
X027945Y026515D01*
X030665Y026515D01*
X030425Y026355D02*
X028185Y026355D01*
X028105Y026275D01*
X027785Y026275D01*
X028185Y026115D02*
X027065Y026115D01*
X028185Y026115D02*
X028265Y026195D01*
X029705Y026195D01*
X029785Y026115D01*
X029945Y025475D02*
X028025Y025475D01*
X028905Y025795D02*
X030425Y025795D01*
X030505Y026275D02*
X030425Y026355D01*
X030505Y026275D02*
X032185Y026275D01*
X032875Y026625D02*
X032905Y026595D01*
X033225Y026595D01*
X033625Y026195D01*
X034105Y026195D01*
X034505Y026595D01*
X034825Y026595D01*
X034875Y026625D01*
X034985Y027075D02*
X034745Y027075D01*
X034265Y026595D01*
X033945Y026595D01*
X033875Y026625D01*
X034665Y026035D02*
X034265Y025635D01*
X033945Y025635D01*
X033875Y025625D01*
X034025Y025155D02*
X033705Y025155D01*
X033225Y025635D01*
X032905Y025635D01*
X032875Y025625D01*
X032875Y024625D02*
X032905Y024595D01*
X033225Y024595D01*
X033625Y024195D01*
X034105Y024195D01*
X034505Y024595D01*
X034825Y024595D01*
X034875Y024625D01*
X034985Y025075D02*
X034745Y025075D01*
X034265Y024595D01*
X033945Y024595D01*
X033875Y024625D01*
X034025Y025155D02*
X034505Y025635D01*
X034825Y025635D01*
X034875Y025625D01*
X035065Y026035D02*
X034665Y026035D01*
X035065Y026035D02*
X035465Y025635D01*
X035865Y025635D01*
X035875Y025625D01*
X035865Y026595D02*
X035465Y026595D01*
X034985Y027075D01*
X035065Y027235D02*
X034665Y027235D01*
X034265Y027635D01*
X033945Y027635D01*
X033875Y027625D01*
X034025Y028115D02*
X033705Y028115D01*
X033225Y027635D01*
X032905Y027635D01*
X032875Y027625D01*
X032905Y028595D02*
X032875Y028625D01*
X032905Y028595D02*
X033865Y028595D01*
X033875Y028625D01*
X033945Y028595D01*
X034825Y028595D01*
X034875Y028625D01*
X034905Y028595D01*
X035865Y028595D01*
X035875Y028625D01*
X035865Y027635D02*
X035465Y027635D01*
X035065Y027235D01*
X034875Y027625D02*
X034825Y027635D01*
X034505Y027635D01*
X034025Y028115D01*
X032875Y029625D02*
X032825Y029635D01*
X031385Y029635D01*
X031465Y030435D02*
X031385Y030515D01*
X031465Y030435D02*
X034105Y030435D01*
X034105Y030515D01*
X034105Y030435D02*
X037305Y030435D01*
X037385Y030515D01*
X037785Y029955D02*
X038425Y029955D01*
X038665Y029635D02*
X040425Y029635D01*
X046265Y029635D01*
X046325Y029605D01*
X046265Y027075D02*
X046325Y027045D01*
X046265Y027075D02*
X042185Y027075D01*
X042185Y030275D02*
X030025Y030275D01*
X029785Y031155D02*
X032345Y031155D01*
X032425Y031235D01*
X037945Y031235D01*
X038025Y031155D01*
X038345Y031155D01*
X038425Y031235D01*
X040425Y031235D01*
X040505Y031155D01*
X043385Y031155D01*
X040665Y031395D02*
X038185Y031395D01*
X032185Y031395D01*
X032425Y031555D02*
X034265Y031555D01*
X034345Y031635D01*
X035875Y029625D02*
X035945Y029635D01*
X038665Y029635D01*
X035875Y027625D02*
X035865Y027635D01*
X035875Y026625D02*
X035865Y026595D01*
X034985Y025075D02*
X035465Y024595D01*
X035865Y024595D01*
X035875Y024625D01*
X035865Y023635D02*
X035465Y023635D01*
X035065Y024035D01*
X034665Y024035D01*
X034265Y023635D01*
X033945Y023635D01*
X033875Y023625D01*
X034025Y023155D02*
X033705Y023155D01*
X033225Y023635D01*
X032905Y023635D01*
X032875Y023625D01*
X032875Y022625D02*
X032905Y022595D01*
X033225Y022595D01*
X033625Y022195D01*
X034105Y022195D01*
X034505Y022595D01*
X034825Y022595D01*
X034875Y022625D01*
X034985Y023075D02*
X034745Y023075D01*
X034265Y022595D01*
X033945Y022595D01*
X033875Y022625D01*
X034025Y023155D02*
X034505Y023635D01*
X034825Y023635D01*
X034875Y023625D01*
X034985Y023075D02*
X035465Y022595D01*
X035865Y022595D01*
X035875Y022625D01*
X035875Y023625D02*
X035865Y023635D01*
X038025Y021795D02*
X039545Y021795D01*
X039625Y021715D01*
X041705Y021715D01*
X041385Y021955D02*
X041305Y021875D01*
X040585Y022435D02*
X038985Y022435D01*
X038425Y023155D02*
X039865Y023155D01*
X036025Y019075D02*
X036105Y018995D01*
X035065Y018035D02*
X034665Y018035D01*
X035065Y018035D02*
X035465Y017635D01*
X035865Y017635D01*
X035875Y017625D01*
X035875Y016625D02*
X035945Y016595D01*
X037145Y016595D01*
X036425Y016035D02*
X035305Y016035D01*
X035145Y016195D01*
X034345Y016195D01*
X034265Y016275D01*
X034185Y016275D01*
X034505Y016595D01*
X034825Y016595D01*
X034875Y016625D01*
X034985Y017075D02*
X034665Y017075D01*
X034185Y016595D01*
X033945Y016595D01*
X033875Y016625D01*
X034185Y016275D02*
X034105Y016195D01*
X033625Y016195D01*
X033225Y016595D01*
X032905Y016595D01*
X032875Y016625D01*
X033145Y016995D02*
X032985Y017155D01*
X032745Y017155D01*
X032665Y017235D01*
X033145Y016995D02*
X033465Y016995D01*
X034025Y017155D02*
X034505Y017635D01*
X034825Y017635D01*
X034875Y017625D01*
X034985Y017075D02*
X035465Y016595D01*
X035865Y016595D01*
X035875Y016625D01*
X036105Y016275D02*
X036025Y016195D01*
X035705Y016195D01*
X035625Y016275D01*
X035465Y016275D01*
X035065Y016035D02*
X035465Y015635D01*
X035865Y015635D01*
X035875Y015625D01*
X035945Y015635D01*
X037465Y015635D01*
X037545Y015555D01*
X037145Y015235D02*
X034105Y015235D01*
X034505Y015635D01*
X034825Y015635D01*
X034875Y015625D01*
X035065Y016035D02*
X034585Y016035D01*
X034185Y015635D01*
X033945Y015635D01*
X033875Y015625D01*
X034105Y015235D02*
X034025Y015155D01*
X033705Y015155D01*
X033225Y015635D01*
X032905Y015635D01*
X032875Y015625D01*
X032875Y014625D02*
X032905Y014595D01*
X033225Y014595D01*
X033625Y014195D01*
X034105Y014195D01*
X034505Y014595D01*
X034825Y014595D01*
X034875Y014625D01*
X034985Y015075D02*
X034745Y015075D01*
X034265Y014595D01*
X033945Y014595D01*
X033875Y014625D01*
X034665Y014035D02*
X034265Y013635D01*
X033945Y013635D01*
X033875Y013625D01*
X034025Y013155D02*
X033705Y013155D01*
X033225Y013635D01*
X032905Y013635D01*
X032875Y013625D01*
X032875Y012625D02*
X032905Y012595D01*
X033225Y012595D01*
X033625Y012195D01*
X034105Y012195D01*
X034505Y012595D01*
X034825Y012595D01*
X034875Y012625D01*
X034985Y013075D02*
X034745Y013075D01*
X034265Y012595D01*
X033945Y012595D01*
X033875Y012625D01*
X034025Y013155D02*
X034505Y013635D01*
X034825Y013635D01*
X034875Y013625D01*
X035065Y014035D02*
X034665Y014035D01*
X035065Y014035D02*
X035465Y013635D01*
X035865Y013635D01*
X035875Y013625D01*
X035865Y014595D02*
X035465Y014595D01*
X034985Y015075D01*
X035875Y014625D02*
X035865Y014595D01*
X036425Y014995D02*
X037545Y014995D01*
X036105Y016275D02*
X045865Y016275D01*
X045945Y016195D01*
X045945Y011395D02*
X042985Y011395D01*
X043865Y010435D02*
X044025Y010275D01*
X046985Y010275D01*
X044105Y010595D02*
X035945Y010595D01*
X035875Y010625D01*
X035865Y010595D01*
X034905Y010595D01*
X034875Y010625D01*
X034825Y010595D01*
X033945Y010595D01*
X033875Y010625D01*
X033865Y010595D01*
X032905Y010595D01*
X032875Y010625D01*
X032825Y010595D01*
X032025Y010595D01*
X032875Y009625D02*
X032905Y009635D01*
X033225Y009635D01*
X033705Y010115D01*
X034025Y010115D01*
X034505Y009635D01*
X034825Y009635D01*
X034875Y009625D01*
X035065Y009235D02*
X034665Y009235D01*
X034265Y009635D01*
X033945Y009635D01*
X033875Y009625D01*
X035065Y009235D02*
X035465Y009635D01*
X035865Y009635D01*
X035875Y009625D01*
X036425Y010355D02*
X036505Y010435D01*
X043865Y010435D01*
X042985Y006275D02*
X042905Y006195D01*
X032345Y006195D01*
X032265Y006275D01*
X035865Y008595D02*
X035875Y008625D01*
X034025Y011155D02*
X033705Y011155D01*
X033225Y011635D01*
X032905Y011635D01*
X032875Y011625D01*
X033875Y011625D02*
X033945Y011635D01*
X034265Y011635D01*
X034665Y012035D01*
X035065Y012035D01*
X035465Y011635D01*
X035865Y011635D01*
X035875Y011625D01*
X035865Y012595D02*
X035465Y012595D01*
X034985Y013075D01*
X035875Y012625D02*
X035865Y012595D01*
X034875Y011625D02*
X034825Y011635D01*
X034505Y011635D01*
X034025Y011155D01*
X027785Y020355D02*
X027305Y020355D01*
X024265Y020355D01*
X025545Y020995D02*
X027065Y020995D01*
X025225Y022995D02*
X023785Y022995D01*
X023545Y024435D02*
X024745Y024435D01*
X024825Y024515D01*
X024825Y024915D02*
X023305Y024915D01*
X027945Y026915D02*
X029145Y026915D01*
X030265Y031635D02*
X032345Y031635D01*
X032425Y031555D01*
X025225Y039075D02*
X019385Y039075D01*
X019305Y039155D01*
X019545Y041955D02*
X020985Y041955D01*
X020665Y042595D02*
X020725Y042625D01*
X020665Y042595D02*
X019145Y042595D01*
X020025Y045635D02*
X020665Y045635D01*
X020725Y045625D01*
X023065Y047075D02*
X026185Y047075D01*
X026265Y046995D01*
X031945Y046995D01*
X032025Y046915D01*
X035065Y046915D01*
X035145Y046835D01*
X036825Y046835D01*
X036905Y046915D01*
X038185Y046675D02*
X038265Y046755D01*
X038185Y046675D02*
X035065Y046675D01*
X034985Y046755D01*
X031945Y046755D01*
X031865Y046835D01*
X026025Y046835D01*
X026345Y047155D02*
X032025Y047155D01*
X032105Y047075D01*
X035465Y047075D01*
X034985Y046515D02*
X039545Y046515D01*
X039625Y046595D01*
X040225Y045625D02*
X040265Y045635D01*
X042425Y045635D01*
X043225Y045635D02*
X043225Y045625D01*
X043225Y045635D02*
X043865Y045635D01*
X040985Y046355D02*
X034745Y046355D01*
X034985Y046515D02*
X034905Y046595D01*
X031705Y046595D01*
X032185Y047235D02*
X034025Y047235D01*
X034105Y047315D01*
X032185Y047235D02*
X032105Y047315D01*
X026425Y047315D01*
X026345Y047395D01*
X023385Y047395D01*
X023305Y047475D01*
X016985Y047475D01*
X016905Y047555D01*
X013705Y047555D01*
X015865Y047795D02*
X015945Y047715D01*
X016985Y047715D01*
X017065Y047635D01*
X023385Y047635D01*
X023465Y047555D01*
X026425Y047555D01*
X026505Y047475D01*
X028745Y047475D01*
X028825Y047555D01*
X027785Y048995D02*
X027825Y049025D01*
X027785Y048995D02*
X026105Y048995D01*
X025625Y048515D01*
X025225Y048515D01*
X024745Y048995D01*
X024425Y048995D01*
X024425Y049025D01*
X023225Y047315D02*
X023305Y047235D01*
X026265Y047235D01*
X026345Y047155D01*
X027865Y045635D02*
X030025Y045635D01*
X030025Y045625D01*
X030025Y042625D02*
X030025Y042595D01*
X027385Y042595D01*
X026905Y039955D02*
X025785Y039955D01*
X025305Y039155D02*
X025225Y039075D01*
X030025Y039875D02*
X033945Y039875D01*
X035065Y039875D01*
X036505Y039875D01*
X038745Y040275D02*
X043385Y040275D01*
X045145Y040275D01*
X047225Y040275D01*
X046745Y040035D02*
X046105Y040035D01*
X045545Y041235D02*
X044105Y041235D01*
X046585Y045635D02*
X047225Y045635D01*
X047225Y045625D01*
X038725Y045625D02*
X038665Y045635D01*
X037385Y045635D01*
X036745Y042595D02*
X038665Y042595D01*
X038725Y042625D01*
X028825Y051955D02*
X025385Y051955D01*
X025145Y052195D01*
X010345Y052195D01*
X010265Y052115D01*
X010025Y052355D02*
X009865Y052195D01*
X010025Y052355D02*
X025385Y052355D01*
X025545Y052195D01*
X021945Y048995D02*
X019385Y048995D01*
X017785Y048995D01*
X016745Y047315D02*
X023225Y047315D01*
X020537Y049725D02*
X020505Y049715D01*
X019865Y049715D01*
X019145Y050435D02*
X015065Y050435D01*
D20*
X013865Y006995D03*
X014105Y007635D03*
X013625Y009075D03*
X013465Y009475D03*
X017465Y010195D03*
X019945Y008915D03*
X020345Y008435D03*
X020345Y007635D03*
X019945Y006995D03*
X021385Y008675D03*
X017945Y006995D03*
X017465Y014195D03*
X017385Y016115D03*
X018185Y016115D03*
X019225Y016195D03*
X019625Y015635D03*
X019865Y015075D03*
X018425Y017155D03*
X018425Y018035D03*
X017385Y018115D03*
X017385Y020115D03*
X017465Y020995D03*
X018185Y020115D03*
X019465Y019875D03*
X019785Y019395D03*
X020105Y019155D03*
X020345Y018835D03*
X020585Y019235D03*
X020825Y018035D03*
X019625Y017875D03*
X019225Y019155D03*
X019625Y020595D03*
X019305Y020995D03*
X019625Y021875D03*
X020105Y022195D03*
X020905Y023315D03*
X023545Y024435D03*
X023305Y024915D03*
X024825Y024915D03*
X024825Y024515D03*
X024825Y023955D03*
X024825Y023555D03*
X025225Y022995D03*
X025545Y022275D03*
X026025Y021955D03*
X026265Y022275D03*
X026185Y022995D03*
X026505Y023555D03*
X026745Y023955D03*
X027145Y023955D03*
X027145Y024515D03*
X026665Y024355D03*
X028025Y024035D03*
X028025Y023315D03*
X027305Y022995D03*
X025785Y021635D03*
X025705Y021235D03*
X025465Y019875D03*
X025225Y019555D03*
X024425Y019555D03*
X024265Y020355D03*
X024825Y018595D03*
X024025Y018355D03*
X023785Y017395D03*
X024425Y017235D03*
X025705Y017235D03*
X025705Y017635D03*
X025705Y018035D03*
X026745Y018835D03*
X026505Y019155D03*
X026825Y019795D03*
X026505Y020035D03*
X027305Y020355D03*
X027785Y020355D03*
X027625Y019635D03*
X028025Y018675D03*
X028025Y018275D03*
X028665Y018275D03*
X028905Y018675D03*
X028185Y017235D03*
X027065Y017795D03*
X027065Y020995D03*
X029145Y024035D03*
X030185Y024515D03*
X029945Y025475D03*
X030425Y025795D03*
X029785Y026115D03*
X028905Y025795D03*
X028025Y025475D03*
X027785Y025875D03*
X027945Y026515D03*
X027945Y026915D03*
X027305Y026595D03*
X027065Y026115D03*
X026105Y026595D03*
X024985Y026515D03*
X024745Y026195D03*
X023785Y022995D03*
X028025Y024995D03*
X029145Y026915D03*
X030665Y026515D03*
X032185Y026275D03*
X031385Y029635D03*
X031385Y030515D03*
X032185Y031395D03*
X034105Y030515D03*
X034345Y031635D03*
X037385Y030515D03*
X037785Y029955D03*
X038425Y029955D03*
X038665Y029635D03*
X038185Y031395D03*
X040665Y031395D03*
X040425Y029635D03*
X042185Y030275D03*
X043385Y031155D03*
X042185Y027075D03*
X039865Y023155D03*
X040585Y022435D03*
X041385Y021955D03*
X041705Y021715D03*
X040585Y021315D03*
X039865Y021075D03*
X039385Y021555D03*
X038985Y022435D03*
X038425Y023155D03*
X038025Y021795D03*
X036905Y022035D03*
X034505Y019235D03*
X032265Y019235D03*
X033465Y016995D03*
X035465Y016275D03*
X036425Y016035D03*
X037145Y016595D03*
X037545Y015555D03*
X037145Y015235D03*
X037545Y014995D03*
X036425Y014995D03*
X036425Y010355D03*
X036425Y009075D03*
X038265Y008595D03*
X042985Y006275D03*
X046985Y010275D03*
X045945Y011395D03*
X044105Y010595D03*
X042985Y011395D03*
X045945Y016195D03*
X045865Y018915D03*
X044105Y021075D03*
X045865Y021555D03*
X046585Y021315D03*
X032265Y009235D03*
X032025Y008595D03*
X032025Y010595D03*
X028825Y009315D03*
X028585Y008995D03*
X032265Y006275D03*
X023545Y016195D03*
X017465Y022195D03*
X014265Y021875D03*
X014025Y022195D03*
X012745Y021875D03*
X012345Y021955D03*
X011865Y022195D03*
X010665Y022195D03*
X010105Y021235D03*
X010105Y020755D03*
X009625Y020995D03*
X008985Y020755D03*
X008905Y021955D03*
X010665Y020435D03*
X011145Y020595D03*
X011145Y020995D03*
X011145Y019555D03*
X011865Y019155D03*
X012345Y019555D03*
X013225Y019555D03*
X013785Y019155D03*
X013545Y020595D03*
X012985Y020995D03*
X013545Y023955D03*
X014265Y024995D03*
X014505Y025715D03*
X014025Y027875D03*
X012185Y026675D03*
X011465Y028115D03*
X010665Y027395D03*
X009705Y027395D03*
X009465Y028115D03*
X009785Y028835D03*
X008985Y028835D03*
X007225Y030675D03*
X006265Y028915D03*
X005705Y027875D03*
X006025Y026915D03*
X005465Y025875D03*
X007945Y024755D03*
X008985Y024755D03*
X009705Y023955D03*
X010105Y025395D03*
X008985Y025955D03*
X012185Y024915D03*
X017465Y026195D03*
X020345Y030275D03*
X020585Y030595D03*
X020825Y030915D03*
X018905Y033875D03*
X017945Y035875D03*
X016025Y035635D03*
X015785Y038675D03*
X017385Y040115D03*
X018105Y038915D03*
X019145Y038915D03*
X018825Y040035D03*
X019545Y041955D03*
X019145Y042595D03*
X020985Y041955D03*
X020745Y038835D03*
X020025Y037635D03*
X024985Y037555D03*
X026425Y036835D03*
X027225Y037555D03*
X027785Y036835D03*
X027945Y035875D03*
X027145Y035635D03*
X026505Y038915D03*
X026905Y039955D03*
X025785Y039955D03*
X025305Y039155D03*
X027385Y042595D03*
X027865Y045635D03*
X026025Y046835D03*
X028825Y047555D03*
X031705Y046595D03*
X034105Y047315D03*
X034745Y046355D03*
X035465Y047075D03*
X036905Y046915D03*
X037385Y045635D03*
X038265Y046755D03*
X039625Y046595D03*
X040985Y046355D03*
X042425Y045635D03*
X043865Y045635D03*
X046585Y045635D03*
X045545Y041235D03*
X045145Y040275D03*
X046105Y040035D03*
X046745Y040035D03*
X047225Y040275D03*
X044105Y041235D03*
X043385Y040275D03*
X038745Y040275D03*
X036505Y039875D03*
X035065Y039875D03*
X033945Y039875D03*
X036745Y042595D03*
X030025Y039875D03*
X023065Y047075D03*
X021945Y048995D03*
X019865Y049715D03*
X019385Y048995D03*
X019145Y050435D03*
X017785Y048995D03*
X016745Y047315D03*
X015865Y047795D03*
X013705Y047555D03*
X015065Y050435D03*
X020025Y045635D03*
X025545Y052195D03*
X028825Y051955D03*
X010265Y052115D03*
X009865Y052195D03*
X006105Y044515D03*
X005865Y043475D03*
X006345Y042515D03*
X005785Y041475D03*
X009305Y038915D03*
X009145Y038515D03*
X009945Y039155D03*
X009945Y040995D03*
X009785Y041955D03*
X009625Y042995D03*
X009385Y043955D03*
X009385Y035875D03*
X009625Y034915D03*
X010185Y033875D03*
X009145Y032915D03*
X006345Y034355D03*
X005865Y035395D03*
X006105Y036355D03*
X014025Y030195D03*
X014505Y030435D03*
X006265Y021795D03*
X005785Y020755D03*
X006025Y019795D03*
X009305Y018435D03*
X009705Y019635D03*
X011865Y016595D03*
X013625Y016595D03*
X029785Y031155D03*
X030265Y031635D03*
X030025Y030275D03*
M02*
