G75*
G70*
%OFA0B0*%
%FSLAX24Y24*%
%IPPOS*%
%LPD*%
%AMOC8*
5,1,8,0,0,1.08239X$1,22.5*
%
%ADD10C,0.0720*%
%ADD11R,0.0860X0.0860*%
%ADD12C,0.0860*%
%ADD13C,0.0800*%
%ADD14C,0.0760*%
%ADD15R,0.0800X0.0800*%
%ADD16C,0.1320*%
%ADD17C,0.0828*%
%ADD18R,0.0651X0.0651*%
%ADD19C,0.0651*%
%ADD20C,0.0360*%
D10*
X017875Y007625D03*
X017875Y008625D03*
X017875Y009625D03*
X017875Y010625D03*
X017875Y011625D03*
X017875Y012625D03*
X017875Y013625D03*
X017875Y014625D03*
X017875Y015625D03*
X017875Y016625D03*
X017875Y017625D03*
X017875Y018625D03*
X017875Y019625D03*
X017875Y020625D03*
X017875Y021625D03*
X017875Y022625D03*
X017875Y023625D03*
X017875Y024625D03*
X017875Y025625D03*
X017875Y026625D03*
X017875Y027625D03*
X017875Y028625D03*
X017875Y029625D03*
X018875Y029625D03*
X018875Y028625D03*
X018875Y027625D03*
X018875Y026625D03*
X018875Y025625D03*
X018875Y024625D03*
X018875Y023625D03*
X018875Y022625D03*
X018875Y021625D03*
X018875Y020625D03*
X018875Y019625D03*
X018875Y018625D03*
X018875Y017625D03*
X018875Y016625D03*
X018875Y015625D03*
X018875Y014625D03*
X018875Y013625D03*
X018875Y012625D03*
X018875Y011625D03*
X018875Y010625D03*
X018875Y009625D03*
X018875Y008625D03*
X018875Y007625D03*
X032875Y007625D03*
X032875Y008625D03*
X032875Y009625D03*
X032875Y010625D03*
X032875Y011625D03*
X032875Y012625D03*
X032875Y013625D03*
X032875Y014625D03*
X032875Y015625D03*
X032875Y016625D03*
X032875Y017625D03*
X032875Y018625D03*
X032875Y019625D03*
X032875Y020625D03*
X032875Y021625D03*
X032875Y022625D03*
X032875Y023625D03*
X032875Y024625D03*
X032875Y025625D03*
X032875Y026625D03*
X032875Y027625D03*
X032875Y028625D03*
X032875Y029625D03*
X033875Y029625D03*
X033875Y028625D03*
X033875Y027625D03*
X033875Y026625D03*
X033875Y025625D03*
X033875Y024625D03*
X033875Y023625D03*
X033875Y022625D03*
X033875Y021625D03*
X033875Y020625D03*
X033875Y019625D03*
X033875Y018625D03*
X033875Y017625D03*
X033875Y016625D03*
X033875Y015625D03*
X033875Y014625D03*
X033875Y013625D03*
X033875Y012625D03*
X033875Y011625D03*
X033875Y010625D03*
X033875Y009625D03*
X033875Y008625D03*
X033875Y007625D03*
D11*
X015025Y049725D03*
X034125Y050325D03*
D12*
X035503Y050325D03*
X036881Y050325D03*
X038259Y050325D03*
X039637Y050325D03*
X041015Y050325D03*
X042393Y050325D03*
X043771Y050325D03*
X021915Y049725D03*
X020537Y049725D03*
X019159Y049725D03*
X017781Y049725D03*
X016403Y049725D03*
D13*
X024425Y049025D03*
X025425Y049025D03*
X025525Y051125D03*
X024525Y051125D03*
X027825Y051025D03*
X028825Y051025D03*
X028825Y049025D03*
X027825Y049025D03*
X016805Y035615D03*
X016805Y033835D03*
X014245Y033835D03*
X014245Y035615D03*
X008125Y035875D03*
X008125Y034875D03*
X008125Y033875D03*
X008125Y032875D03*
X007125Y033375D03*
X007125Y034375D03*
X007125Y035375D03*
X008025Y040975D03*
X008025Y041975D03*
X008025Y042975D03*
X008025Y043975D03*
X007025Y043475D03*
X007025Y042475D03*
X007025Y041475D03*
X007925Y028375D03*
X007925Y027375D03*
X007925Y026375D03*
X007925Y025375D03*
X006925Y025875D03*
X006925Y026875D03*
X006925Y027875D03*
X008125Y021275D03*
X008125Y020275D03*
X008125Y019275D03*
X008125Y018275D03*
X007125Y018775D03*
X007125Y019775D03*
X007125Y020775D03*
D14*
X046325Y027045D03*
X046325Y029605D03*
D15*
X006925Y028875D03*
X007125Y021775D03*
X007125Y036375D03*
X007025Y044475D03*
D16*
X004525Y044975D03*
X004525Y040475D03*
X004625Y036875D03*
X004625Y032375D03*
X004425Y029375D03*
X004425Y024875D03*
X004625Y022275D03*
X004625Y017775D03*
D17*
X014725Y042625D03*
X013725Y045625D03*
X016725Y045625D03*
X020725Y045625D03*
X023025Y045625D03*
X026025Y045625D03*
X024025Y042625D03*
X020725Y042625D03*
X030025Y042625D03*
X032725Y042625D03*
X031725Y045625D03*
X030025Y045625D03*
X034725Y045625D03*
X038725Y045625D03*
X040225Y045625D03*
X043225Y045625D03*
X041225Y042625D03*
X038725Y042625D03*
X047225Y042625D03*
X047225Y045625D03*
D18*
X035875Y007625D03*
X016875Y007625D03*
D19*
X016875Y008625D03*
X016875Y009625D03*
X016875Y010625D03*
X016875Y011625D03*
X016875Y012625D03*
X016875Y013625D03*
X016875Y014625D03*
X016875Y015625D03*
X016875Y016625D03*
X016875Y017625D03*
X016875Y018625D03*
X016875Y019625D03*
X016875Y020625D03*
X016875Y021625D03*
X016875Y022625D03*
X016875Y023625D03*
X016875Y024625D03*
X016875Y025625D03*
X016875Y026625D03*
X016875Y027625D03*
X016875Y028625D03*
X016875Y029625D03*
X015875Y029625D03*
X015875Y028625D03*
X015875Y027625D03*
X015875Y026625D03*
X015875Y025625D03*
X015875Y024625D03*
X015875Y023625D03*
X015875Y022625D03*
X015875Y021625D03*
X015875Y020625D03*
X015875Y019625D03*
X015875Y018625D03*
X015875Y017625D03*
X015875Y016625D03*
X015875Y015625D03*
X015875Y014625D03*
X015875Y013625D03*
X015875Y012625D03*
X015875Y011625D03*
X015875Y010625D03*
X015875Y009625D03*
X015875Y008625D03*
X015875Y007625D03*
X034875Y007625D03*
X034875Y008625D03*
X034875Y009625D03*
X034875Y010625D03*
X034875Y011625D03*
X034875Y012625D03*
X034875Y013625D03*
X034875Y014625D03*
X034875Y015625D03*
X034875Y016625D03*
X034875Y017625D03*
X034875Y018625D03*
X034875Y019625D03*
X034875Y020625D03*
X034875Y021625D03*
X034875Y022625D03*
X034875Y023625D03*
X034875Y024625D03*
X034875Y025625D03*
X034875Y026625D03*
X034875Y027625D03*
X034875Y028625D03*
X034875Y029625D03*
X035875Y029625D03*
X035875Y028625D03*
X035875Y027625D03*
X035875Y026625D03*
X035875Y025625D03*
X035875Y024625D03*
X035875Y023625D03*
X035875Y022625D03*
X035875Y021625D03*
X035875Y020625D03*
X035875Y019625D03*
X035875Y018625D03*
X035875Y017625D03*
X035875Y016625D03*
X035875Y015625D03*
X035875Y014625D03*
X035875Y013625D03*
X035875Y012625D03*
X035875Y011625D03*
X035875Y010625D03*
X035875Y009625D03*
X035875Y008625D03*
D20*
X013865Y006995D03*
X014105Y007635D03*
X013625Y009075D03*
X013465Y009475D03*
X017465Y010195D03*
X019945Y008915D03*
X020345Y008435D03*
X020345Y007635D03*
X019945Y006995D03*
X021385Y008675D03*
X017945Y006995D03*
X017465Y014195D03*
X017385Y016115D03*
X018185Y016115D03*
X019225Y016195D03*
X019625Y015635D03*
X019865Y015075D03*
X018425Y017155D03*
X018425Y018035D03*
X017385Y018115D03*
X017385Y020115D03*
X017465Y020995D03*
X018185Y020115D03*
X019465Y019875D03*
X019785Y019395D03*
X020105Y019155D03*
X020345Y018835D03*
X020585Y019235D03*
X020825Y018035D03*
X019625Y017875D03*
X019225Y019155D03*
X019625Y020595D03*
X019305Y020995D03*
X019625Y021875D03*
X020105Y022195D03*
X020905Y023315D03*
X023545Y024435D03*
X023305Y024915D03*
X024825Y024915D03*
X024825Y024515D03*
X024825Y023955D03*
X024825Y023555D03*
X025225Y022995D03*
X025545Y022275D03*
X026025Y021955D03*
X026265Y022275D03*
X026185Y022995D03*
X026505Y023555D03*
X026745Y023955D03*
X027145Y023955D03*
X027145Y024515D03*
X026665Y024355D03*
X028025Y024035D03*
X028025Y023315D03*
X027305Y022995D03*
X025785Y021635D03*
X025705Y021235D03*
X025465Y019875D03*
X025225Y019555D03*
X024425Y019555D03*
X024265Y020355D03*
X024825Y018595D03*
X024025Y018355D03*
X023785Y017395D03*
X024425Y017235D03*
X025705Y017235D03*
X025705Y017635D03*
X025705Y018035D03*
X026745Y018835D03*
X026505Y019155D03*
X026825Y019795D03*
X026505Y020035D03*
X027305Y020355D03*
X027785Y020355D03*
X027625Y019635D03*
X028025Y018675D03*
X028025Y018275D03*
X028665Y018275D03*
X028905Y018675D03*
X028185Y017235D03*
X027065Y017795D03*
X027065Y020995D03*
X029145Y024035D03*
X030185Y024515D03*
X029945Y025475D03*
X030425Y025795D03*
X029785Y026115D03*
X028905Y025795D03*
X028025Y025475D03*
X027785Y025875D03*
X027945Y026515D03*
X027945Y026915D03*
X027305Y026595D03*
X027065Y026115D03*
X026105Y026595D03*
X024985Y026515D03*
X024745Y026195D03*
X023785Y022995D03*
X028025Y024995D03*
X029145Y026915D03*
X030665Y026515D03*
X032185Y026275D03*
X031385Y029635D03*
X031385Y030515D03*
X032185Y031395D03*
X034105Y030515D03*
X034345Y031635D03*
X037385Y030515D03*
X037785Y029955D03*
X038425Y029955D03*
X038665Y029635D03*
X038185Y031395D03*
X040665Y031395D03*
X040425Y029635D03*
X042185Y030275D03*
X043385Y031155D03*
X042185Y027075D03*
X039865Y023155D03*
X040585Y022435D03*
X041385Y021955D03*
X041705Y021715D03*
X040585Y021315D03*
X039865Y021075D03*
X039385Y021555D03*
X038985Y022435D03*
X038425Y023155D03*
X038025Y021795D03*
X036905Y022035D03*
X034505Y019235D03*
X032265Y019235D03*
X033465Y016995D03*
X035465Y016275D03*
X036425Y016035D03*
X037145Y016595D03*
X037545Y015555D03*
X037145Y015235D03*
X037545Y014995D03*
X036425Y014995D03*
X036425Y010355D03*
X036425Y009075D03*
X038265Y008595D03*
X042985Y006275D03*
X046985Y010275D03*
X045945Y011395D03*
X044105Y010595D03*
X042985Y011395D03*
X045945Y016195D03*
X045865Y018915D03*
X044105Y021075D03*
X045865Y021555D03*
X046585Y021315D03*
X032265Y009235D03*
X032025Y008595D03*
X032025Y010595D03*
X028825Y009315D03*
X028585Y008995D03*
X032265Y006275D03*
X023545Y016195D03*
X017465Y022195D03*
X014265Y021875D03*
X014025Y022195D03*
X012745Y021875D03*
X012345Y021955D03*
X011865Y022195D03*
X010665Y022195D03*
X010105Y021235D03*
X010105Y020755D03*
X009625Y020995D03*
X008985Y020755D03*
X008905Y021955D03*
X010665Y020435D03*
X011145Y020595D03*
X011145Y020995D03*
X011145Y019555D03*
X011865Y019155D03*
X012345Y019555D03*
X013225Y019555D03*
X013785Y019155D03*
X013545Y020595D03*
X012985Y020995D03*
X013545Y023955D03*
X014265Y024995D03*
X014505Y025715D03*
X014025Y027875D03*
X012185Y026675D03*
X011465Y028115D03*
X010665Y027395D03*
X009705Y027395D03*
X009465Y028115D03*
X009785Y028835D03*
X008985Y028835D03*
X007225Y030675D03*
X006265Y028915D03*
X005705Y027875D03*
X006025Y026915D03*
X005465Y025875D03*
X007945Y024755D03*
X008985Y024755D03*
X009705Y023955D03*
X010105Y025395D03*
X008985Y025955D03*
X012185Y024915D03*
X017465Y026195D03*
X020345Y030275D03*
X020585Y030595D03*
X020825Y030915D03*
X018905Y033875D03*
X017945Y035875D03*
X016025Y035635D03*
X015785Y038675D03*
X017385Y040115D03*
X018105Y038915D03*
X019145Y038915D03*
X018825Y040035D03*
X019545Y041955D03*
X019145Y042595D03*
X020985Y041955D03*
X020745Y038835D03*
X020025Y037635D03*
X024985Y037555D03*
X026425Y036835D03*
X027225Y037555D03*
X027785Y036835D03*
X027945Y035875D03*
X027145Y035635D03*
X026505Y038915D03*
X026905Y039955D03*
X025785Y039955D03*
X025305Y039155D03*
X027385Y042595D03*
X027865Y045635D03*
X026025Y046835D03*
X028825Y047555D03*
X031705Y046595D03*
X034105Y047315D03*
X034745Y046355D03*
X035465Y047075D03*
X036905Y046915D03*
X037385Y045635D03*
X038265Y046755D03*
X039625Y046595D03*
X040985Y046355D03*
X042425Y045635D03*
X043865Y045635D03*
X046585Y045635D03*
X045545Y041235D03*
X045145Y040275D03*
X046105Y040035D03*
X046745Y040035D03*
X047225Y040275D03*
X044105Y041235D03*
X043385Y040275D03*
X038745Y040275D03*
X036505Y039875D03*
X035065Y039875D03*
X033945Y039875D03*
X036745Y042595D03*
X030025Y039875D03*
X023065Y047075D03*
X021945Y048995D03*
X019865Y049715D03*
X019385Y048995D03*
X019145Y050435D03*
X017785Y048995D03*
X016745Y047315D03*
X015865Y047795D03*
X013705Y047555D03*
X015065Y050435D03*
X020025Y045635D03*
X025545Y052195D03*
X028825Y051955D03*
X010265Y052115D03*
X009865Y052195D03*
X006105Y044515D03*
X005865Y043475D03*
X006345Y042515D03*
X005785Y041475D03*
X009305Y038915D03*
X009145Y038515D03*
X009945Y039155D03*
X009945Y040995D03*
X009785Y041955D03*
X009625Y042995D03*
X009385Y043955D03*
X009385Y035875D03*
X009625Y034915D03*
X010185Y033875D03*
X009145Y032915D03*
X006345Y034355D03*
X005865Y035395D03*
X006105Y036355D03*
X014025Y030195D03*
X014505Y030435D03*
X006265Y021795D03*
X005785Y020755D03*
X006025Y019795D03*
X009305Y018435D03*
X009705Y019635D03*
X011865Y016595D03*
X013625Y016595D03*
X029785Y031155D03*
X030265Y031635D03*
X030025Y030275D03*
M02*
