%
M48
M72
T01C0.0200
T02C0.0354
T03C0.0394
T04C0.0400
T05C0.0472
T06C0.0512
T07C0.1260
%
T01
X10045Y9625
X12685Y8665
X13645Y10025
X15405Y9065
X15085Y7625
X13005Y6425
X11485Y6265
X17485Y6425
X19325Y6425
X19805Y6265
X20445Y7625
X19485Y8345
X19565Y12265
X19885Y13145
X16285Y14105
X15165Y13465
X14365Y14185
X13325Y15065
X13005Y14025
X13005Y13545
X12685Y13145
X13325Y13145
X12125Y14985
X11085Y14745
X11085Y14265
X11085Y15225
X11005Y15865
X10685Y16425
X11325Y16425
X11965Y16745
X13005Y16425
X14285Y16425
X14685Y15865
X14365Y15465
X14045Y17225
X14525Y18425
X15165Y19305
X16365Y18985
X16365Y18025
X16285Y16105
X12925Y19785
X12445Y20265
X12765Y20905
X12925Y21385
X13085Y21865
X12045Y21385
X11725Y20905
X11085Y20665
X10845Y21705
X10685Y22345
X11725Y22025
X13165Y20585
X14845Y20665
X14525Y21625
X14845Y22345
X12205Y24745
X11085Y24745
X10365Y24585
X10605Y25545
X10125Y25865
X9005Y25865
X9005Y27065
X10125Y27065
X9645Y28185
X9005Y29305
X10765Y30585
X11405Y28185
X14045Y27625
X14365Y26665
X14845Y29865
X15165Y30265
X13245Y30905
X13085Y33385
X12605Y33865
X12925Y34905
X10285Y33865
X9165Y35865
X6365Y34345
X5885Y34825
X5405Y34345
X3645Y35385
X3325Y34825
X5085Y31545
X5725Y28905
X5245Y27865
X6045Y27385
X5725Y26745
X5565Y25865
X3325Y27865
X7965Y24585
X9005Y24585
X8925Y22025
X9005Y20825
X9645Y20905
X10845Y18905
X10525Y18265
X10045Y17225
X9725Y16425
X9005Y18585
X6525Y19145
X5405Y19785
X4925Y19145
X4605Y18745
X3645Y20745
X5725Y20745
X6525Y16745
X5405Y15945
X5725Y15545
X6205Y14745
X5805Y14425
X7165Y15065
X12045Y19305
X19565Y20025
X20205Y20665
X19885Y21145
X20445Y21625
X20765Y19145
X21165Y18825
X23085Y26665
X22765Y27625
X22445Y28665
X22125Y29625
X21405Y31305
X21805Y31625
X20925Y31625
X21085Y32585
X20445Y33865
X19965Y33865
X19645Y34665
X21565Y34665
X22125Y33865
X22765Y35625
X23725Y35465
X24525Y34025
X24605Y33465
X24365Y32985
X24365Y32505
X24445Y31945
X25165Y31945
X25165Y31465
X24765Y30905
X24285Y30905
X24285Y29945
X25485Y32505
X26365Y32985
X25645Y34345
X25645Y35465
X25325Y36905
X25005Y37465
X23325Y38185
X23005Y37785
X22365Y38185
X21885Y37305
X22205Y36905
X20125Y37465
X19165Y38825
X19325Y39945
X18845Y39945
X18045Y38985
X17965Y37785
X16045Y35625
X15725Y32905
X10125Y39305
X9165Y38985
X10125Y40985
X9965Y41465
X9805Y41945
X9485Y42985
X9165Y43945
X6365Y42505
X5725Y43465
X6045Y44505
X10285Y52105
X9805Y52265
X13725Y48025
X15005Y48985
X16765Y47705
X15885Y46745
X19165Y48985
X20525Y48985
X21565Y48265
X22205Y48985
X22685Y49065
X21885Y50425
X24525Y51785
X25565Y52265
X27805Y51785
X28845Y52105
X25405Y48265
X26045Y47065
X28125Y45625
X28845Y46745
X31725Y46745
X34125Y47545
X34765Y46425
X35485Y47385
X36845Y47065
X38285Y46905
X37405Y45625
X39645Y46745
X41005Y46425
X42365Y45625
X46525Y45625
X45565Y41305
X45165Y40185
X44045Y41305
X43405Y40345
X47245Y40345
X45485Y34345
X43405Y34025
X40445Y29625
X40205Y29145
X37805Y29145
X37565Y28665
X37405Y29625
X36605Y30185
X36765Y30665
X37085Y31305
X37805Y30985
X36045Y30265
X32845Y31625
X32205Y31305
X30925Y30985
X31485Y29625
X34365Y33705
X35085Y39945
X36445Y39945
X38765Y39945
X38765Y40425
X30045Y39945
X27485Y42665
X26925Y41145
X27165Y39945
X26445Y39945
X25805Y41145
X24045Y39945
X21565Y39305
X19405Y42665
X17405Y40185
X20045Y45625
X23005Y47385
X17805Y50425
X27165Y37465
X37565Y21945
X36445Y20105
X36925Y19465
X36605Y19065
X36525Y16985
X37085Y16665
X36845Y16105
X37085Y15625
X37565Y14745
X36525Y14745
X36845Y13065
X37645Y13065
X40125Y15625
X40445Y16105
X43005Y16185
X45965Y16185
X45885Y18825
X45885Y19785
X46605Y21305
X48125Y21945
X44045Y21625
X42685Y20105
X43005Y19305
X41165Y21305
X40205Y21625
X39245Y19785
X42685Y13065
X45965Y13065
X45965Y6265
X38365Y8665
X35885Y6265
X45485Y27065
X8125Y31545
T02
X46325Y29605
X46325Y27045
T03
X35875Y26625
X35875Y25625
X35875Y24625
X35875Y23625
X35875Y22625
X35875Y21625
X35875Y20625
X35875Y19625
X35875Y18625
X35875Y17625
X35875Y16625
X35875Y15625
X35875Y14625
X35875Y13625
X35875Y12625
X35875Y11625
X35875Y10625
X35875Y9625
X35875Y8625
X35875Y7625
X34875Y7625
X34875Y8625
X34875Y9625
X34875Y10625
X34875Y11625
X34875Y12625
X34875Y13625
X34875Y14625
X34875Y15625
X34875Y16625
X34875Y17625
X34875Y18625
X34875Y19625
X34875Y20625
X34875Y21625
X34875Y22625
X34875Y23625
X34875Y24625
X34875Y25625
X34875Y26625
X34875Y27625
X34875Y28625
X34875Y29625
X33875Y29625
X33875Y28625
X33875Y27625
X33875Y26625
X33875Y25625
X33875Y24625
X33875Y23625
X33875Y22625
X33875Y21625
X33875Y20625
X33875Y19625
X33875Y18625
X33875Y17625
X33875Y16625
X33875Y15625
X33875Y14625
X33875Y13625
X33875Y12625
X33875Y11625
X33875Y10625
X33875Y9625
X33875Y8625
X33875Y7625
X32875Y7625
X32875Y8625
X32875Y9625
X32875Y10625
X32875Y11625
X32875Y12625
X32875Y13625
X32875Y14625
X32875Y15625
X32875Y16625
X32875Y17625
X32875Y18625
X32875Y19625
X32875Y20625
X32875Y21625
X32875Y22625
X32875Y23625
X32875Y24625
X32875Y25625
X32875Y26625
X32875Y27625
X32875Y28625
X32875Y29625
X35875Y29625
X35875Y28625
X35875Y27625
X18875Y27625
X18875Y26625
X18875Y25625
X18875Y24625
X18875Y23625
X18875Y22625
X18875Y21625
X18875Y20625
X18875Y19625
X18875Y18625
X18875Y17625
X18875Y16625
X18875Y15625
X18875Y14625
X18875Y13625
X18875Y12625
X18875Y11625
X18875Y10625
X18875Y9625
X18875Y8625
X18875Y7625
X17875Y7625
X17875Y8625
X17875Y9625
X17875Y10625
X17875Y11625
X17875Y12625
X17875Y13625
X17875Y14625
X17875Y15625
X17875Y16625
X17875Y17625
X17875Y18625
X17875Y19625
X17875Y20625
X17875Y21625
X17875Y22625
X17875Y23625
X17875Y24625
X17875Y25625
X17875Y26625
X17875Y27625
X17875Y28625
X17875Y29625
X16875Y29625
X16875Y28625
X16875Y27625
X16875Y26625
X16875Y25625
X16875Y24625
X16875Y23625
X16875Y22625
X16875Y21625
X16875Y20625
X16875Y19625
X16875Y18625
X16875Y17625
X16875Y16625
X16875Y15625
X16875Y14625
X16875Y13625
X16875Y12625
X16875Y11625
X16875Y10625
X16875Y9625
X16875Y8625
X16875Y7625
X15875Y7625
X15875Y8625
X15875Y9625
X15875Y10625
X15875Y11625
X15875Y12625
X15875Y13625
X15875Y14625
X15875Y15625
X15875Y16625
X15875Y17625
X15875Y18625
X15875Y19625
X15875Y20625
X15875Y21625
X15875Y22625
X15875Y23625
X15875Y24625
X15875Y25625
X15875Y26625
X15875Y27625
X15875Y28625
X15875Y29625
X18875Y29625
X18875Y28625
X7925Y28375
X7925Y27375
X7925Y26375
X7925Y25375
X6925Y25875
X6925Y26875
X6925Y27875
X6925Y28875
X8125Y32875
X8125Y33875
X8125Y34875
X8125Y35875
X7125Y35375
X7125Y36375
X7125Y34375
X7125Y33375
X8025Y40975
X8025Y41975
X8025Y42975
X8025Y43975
X7025Y43475
X7025Y42475
X7025Y41475
X7025Y44475
X7125Y21775
X7125Y20775
X7125Y19775
X7125Y18775
X8125Y18275
X8125Y19275
X8125Y20275
X8125Y21275
T04
X14245Y33835
X14245Y35615
X16805Y35615
X16805Y33835
X24425Y49025
X25425Y49025
X25525Y51125
X24525Y51125
X27825Y51025
X28825Y51025
X28825Y49025
X27825Y49025
T05
X21915Y49725
X20537Y49725
X19159Y49725
X17781Y49725
X16403Y49725
X15025Y49725
X34125Y50325
X35503Y50325
X36881Y50325
X38259Y50325
X39637Y50325
X41015Y50325
X42393Y50325
X43771Y50325
T06
X43225Y45625
X40225Y45625
X38725Y45625
X38725Y42625
X41225Y42625
X47225Y42625
X47225Y45625
X34725Y45625
X31725Y45625
X30025Y45625
X30025Y42625
X32725Y42625
X26025Y45625
X23025Y45625
X20725Y45625
X20725Y42625
X24025Y42625
X16725Y45625
X13725Y45625
X14725Y42625
T07
X4525Y40475
X4625Y36875
X4625Y32375
X4425Y29375
X4425Y24875
X4625Y22275
X4625Y17775
X4525Y44975
M30
