G75*
G70*
%OFA0B0*%
%FSLAX24Y24*%
%IPPOS*%
%LPD*%
%AMOC8*
5,1,8,0,0,1.08239X$1,22.5*
%
%ADD10C,0.0660*%
%ADD11R,0.0800X0.0800*%
%ADD12C,0.0800*%
%ADD13C,0.0740*%
%ADD14C,0.0700*%
%ADD15R,0.0740X0.0740*%
%ADD16C,0.0768*%
%ADD17R,0.0634X0.0634*%
%ADD18C,0.0634*%
%ADD19C,0.0080*%
%ADD20C,0.0400*%
D10*
X017875Y007625D03*
X017875Y008625D03*
X017875Y009625D03*
X017875Y010625D03*
X017875Y011625D03*
X017875Y012625D03*
X017875Y013625D03*
X017875Y014625D03*
X017875Y015625D03*
X017875Y016625D03*
X017875Y017625D03*
X017875Y018625D03*
X017875Y019625D03*
X017875Y020625D03*
X017875Y021625D03*
X017875Y022625D03*
X017875Y023625D03*
X017875Y024625D03*
X017875Y025625D03*
X017875Y026625D03*
X017875Y027625D03*
X017875Y028625D03*
X017875Y029625D03*
X018875Y029625D03*
X018875Y028625D03*
X018875Y027625D03*
X018875Y026625D03*
X018875Y025625D03*
X018875Y024625D03*
X018875Y023625D03*
X018875Y022625D03*
X018875Y021625D03*
X018875Y020625D03*
X018875Y019625D03*
X018875Y018625D03*
X018875Y017625D03*
X018875Y016625D03*
X018875Y015625D03*
X018875Y014625D03*
X018875Y013625D03*
X018875Y012625D03*
X018875Y011625D03*
X018875Y010625D03*
X018875Y009625D03*
X018875Y008625D03*
X018875Y007625D03*
X032875Y007625D03*
X032875Y008625D03*
X032875Y009625D03*
X032875Y010625D03*
X032875Y011625D03*
X032875Y012625D03*
X032875Y013625D03*
X032875Y014625D03*
X032875Y015625D03*
X032875Y016625D03*
X032875Y017625D03*
X032875Y018625D03*
X032875Y019625D03*
X032875Y020625D03*
X032875Y021625D03*
X032875Y022625D03*
X032875Y023625D03*
X032875Y024625D03*
X032875Y025625D03*
X032875Y026625D03*
X032875Y027625D03*
X032875Y028625D03*
X032875Y029625D03*
X033875Y029625D03*
X033875Y028625D03*
X033875Y027625D03*
X033875Y026625D03*
X033875Y025625D03*
X033875Y024625D03*
X033875Y023625D03*
X033875Y022625D03*
X033875Y021625D03*
X033875Y020625D03*
X033875Y019625D03*
X033875Y018625D03*
X033875Y017625D03*
X033875Y016625D03*
X033875Y015625D03*
X033875Y014625D03*
X033875Y013625D03*
X033875Y012625D03*
X033875Y011625D03*
X033875Y010625D03*
X033875Y009625D03*
X033875Y008625D03*
X033875Y007625D03*
D11*
X015025Y049725D03*
X034125Y050325D03*
D12*
X035503Y050325D03*
X036881Y050325D03*
X038259Y050325D03*
X039637Y050325D03*
X041015Y050325D03*
X042393Y050325D03*
X043771Y050325D03*
X021915Y049725D03*
X020537Y049725D03*
X019159Y049725D03*
X017781Y049725D03*
X016403Y049725D03*
D13*
X024425Y049025D03*
X025425Y049025D03*
X025525Y051125D03*
X024525Y051125D03*
X027825Y051025D03*
X028825Y051025D03*
X028825Y049025D03*
X027825Y049025D03*
X016805Y035615D03*
X016805Y033835D03*
X014245Y033835D03*
X014245Y035615D03*
X008125Y035875D03*
X008125Y034875D03*
X008125Y033875D03*
X008125Y032875D03*
X007125Y033375D03*
X007125Y034375D03*
X007125Y035375D03*
X008025Y040975D03*
X008025Y041975D03*
X008025Y042975D03*
X008025Y043975D03*
X007025Y043475D03*
X007025Y042475D03*
X007025Y041475D03*
X007925Y028375D03*
X007925Y027375D03*
X007925Y026375D03*
X007925Y025375D03*
X006925Y025875D03*
X006925Y026875D03*
X006925Y027875D03*
X008125Y021275D03*
X008125Y020275D03*
X008125Y019275D03*
X008125Y018275D03*
X007125Y018775D03*
X007125Y019775D03*
X007125Y020775D03*
D14*
X046325Y027045D03*
X046325Y029605D03*
D15*
X006925Y028875D03*
X007125Y021775D03*
X007125Y036375D03*
X007025Y044475D03*
D16*
X013725Y045625D03*
X016725Y045625D03*
X014725Y042625D03*
X020725Y042625D03*
X020725Y045625D03*
X023025Y045625D03*
X026025Y045625D03*
X024025Y042625D03*
X030025Y042625D03*
X032725Y042625D03*
X031725Y045625D03*
X030025Y045625D03*
X034725Y045625D03*
X038725Y045625D03*
X040225Y045625D03*
X043225Y045625D03*
X041225Y042625D03*
X038725Y042625D03*
X047225Y042625D03*
X047225Y045625D03*
D17*
X035875Y007625D03*
X016875Y007625D03*
D18*
X016875Y008625D03*
X016875Y009625D03*
X016875Y010625D03*
X016875Y011625D03*
X016875Y012625D03*
X016875Y013625D03*
X016875Y014625D03*
X016875Y015625D03*
X016875Y016625D03*
X016875Y017625D03*
X016875Y018625D03*
X016875Y019625D03*
X016875Y020625D03*
X016875Y021625D03*
X016875Y022625D03*
X016875Y023625D03*
X016875Y024625D03*
X016875Y025625D03*
X016875Y026625D03*
X016875Y027625D03*
X016875Y028625D03*
X016875Y029625D03*
X015875Y029625D03*
X015875Y028625D03*
X015875Y027625D03*
X015875Y026625D03*
X015875Y025625D03*
X015875Y024625D03*
X015875Y023625D03*
X015875Y022625D03*
X015875Y021625D03*
X015875Y020625D03*
X015875Y019625D03*
X015875Y018625D03*
X015875Y017625D03*
X015875Y016625D03*
X015875Y015625D03*
X015875Y014625D03*
X015875Y013625D03*
X015875Y012625D03*
X015875Y011625D03*
X015875Y010625D03*
X015875Y009625D03*
X015875Y008625D03*
X015875Y007625D03*
X034875Y007625D03*
X034875Y008625D03*
X034875Y009625D03*
X034875Y010625D03*
X034875Y011625D03*
X034875Y012625D03*
X034875Y013625D03*
X034875Y014625D03*
X034875Y015625D03*
X034875Y016625D03*
X034875Y017625D03*
X034875Y018625D03*
X034875Y019625D03*
X034875Y020625D03*
X034875Y021625D03*
X034875Y022625D03*
X034875Y023625D03*
X034875Y024625D03*
X034875Y025625D03*
X034875Y026625D03*
X034875Y027625D03*
X034875Y028625D03*
X034875Y029625D03*
X035875Y029625D03*
X035875Y028625D03*
X035875Y027625D03*
X035875Y026625D03*
X035875Y025625D03*
X035875Y024625D03*
X035875Y023625D03*
X035875Y022625D03*
X035875Y021625D03*
X035875Y020625D03*
X035875Y019625D03*
X035875Y018625D03*
X035875Y017625D03*
X035875Y016625D03*
X035875Y015625D03*
X035875Y014625D03*
X035875Y013625D03*
X035875Y012625D03*
X035875Y011625D03*
X035875Y010625D03*
X035875Y009625D03*
X035875Y008625D03*
D19*
X035945Y008595D01*
X038265Y008595D01*
X037945Y006995D02*
X031865Y006995D01*
X032105Y007635D02*
X031385Y008355D01*
X020505Y008355D01*
X020425Y008275D01*
X020665Y008515D02*
X020585Y008595D01*
X019545Y008595D01*
X020025Y008915D02*
X020185Y008755D01*
X020665Y008755D01*
X020745Y008675D01*
X031545Y008675D01*
X031785Y008915D01*
X032185Y008915D01*
X031865Y008515D02*
X020665Y008515D01*
X020425Y007635D02*
X018905Y007635D01*
X018875Y007625D01*
X018825Y007635D01*
X017945Y007635D01*
X017875Y007625D01*
X017865Y007635D01*
X016905Y007635D01*
X016875Y007625D01*
X016825Y007635D01*
X015945Y007635D01*
X015875Y007625D01*
X015865Y007635D01*
X014905Y007635D01*
X015225Y006995D02*
X017625Y006995D01*
X016985Y008115D02*
X016665Y008115D01*
X016185Y008595D01*
X015945Y008595D01*
X015875Y008625D01*
X015785Y009075D02*
X016105Y009075D01*
X016185Y008995D01*
X017545Y008995D01*
X017625Y009075D01*
X018105Y009075D01*
X018585Y008595D01*
X018825Y008595D01*
X018875Y008625D01*
X018875Y009625D02*
X018825Y009635D01*
X018505Y009635D01*
X018025Y010115D01*
X017705Y010115D01*
X017225Y009635D01*
X016905Y009635D01*
X016875Y009625D01*
X016825Y009635D01*
X016505Y009635D01*
X016025Y010115D01*
X009865Y010115D01*
X010185Y009235D02*
X015625Y009235D01*
X015785Y009075D01*
X015875Y009625D02*
X015945Y009635D01*
X016185Y009635D01*
X016665Y009155D01*
X017065Y009155D01*
X017545Y009635D01*
X017865Y009635D01*
X017875Y009625D01*
X017545Y008995D02*
X017145Y008595D01*
X016905Y008595D01*
X016875Y008625D01*
X016985Y008115D02*
X017465Y008595D01*
X017865Y008595D01*
X017875Y008625D01*
X016985Y010115D02*
X016665Y010115D01*
X016185Y010595D01*
X015945Y010595D01*
X015875Y010625D01*
X016665Y011155D02*
X016185Y011635D01*
X015945Y011635D01*
X015875Y011625D01*
X016665Y012115D02*
X016185Y012595D01*
X015945Y012595D01*
X015875Y012625D01*
X016665Y012115D02*
X016985Y012115D01*
X017465Y012595D01*
X017865Y012595D01*
X017875Y012625D01*
X018105Y013075D02*
X017625Y013075D01*
X017145Y012595D01*
X016905Y012595D01*
X016875Y012625D01*
X017065Y013155D02*
X016665Y013155D01*
X016185Y013635D01*
X015945Y013635D01*
X015875Y013625D01*
X015225Y013795D02*
X015145Y013715D01*
X012345Y013715D01*
X012105Y013475D01*
X011705Y012755D02*
X014025Y012755D01*
X014585Y014035D02*
X009705Y014035D01*
X009305Y014355D02*
X012105Y014355D01*
X012105Y014835D02*
X011385Y014835D01*
X011225Y014995D01*
X007465Y014995D01*
X007305Y014835D01*
X005225Y014835D01*
X005145Y014915D01*
X005625Y015635D02*
X011865Y015635D01*
X012105Y015395D01*
X012425Y016275D02*
X013465Y016275D01*
X013545Y015955D02*
X014105Y015955D01*
X014745Y016595D01*
X014745Y016675D01*
X014185Y016515D02*
X014105Y016595D01*
X011625Y016595D01*
X010345Y016595D01*
X005785Y016595D01*
X007145Y015155D02*
X010905Y015155D01*
X011065Y015315D01*
X011065Y016035D02*
X009705Y016035D01*
X010025Y017075D02*
X011785Y017075D01*
X011465Y017475D02*
X009705Y017475D01*
X010185Y017795D02*
X009225Y017795D01*
X008905Y017475D01*
X008665Y018275D02*
X008125Y018275D01*
X008665Y018275D02*
X008985Y018595D01*
X008585Y019315D02*
X010345Y019315D01*
X009465Y019715D02*
X008905Y020275D01*
X009225Y020595D01*
X011865Y020595D01*
X012345Y020595D02*
X014585Y020595D01*
X015225Y020595D02*
X015865Y020595D01*
X015875Y020625D01*
X015945Y020675D01*
X016265Y020995D01*
X016585Y020995D01*
X016665Y021075D01*
X017065Y021075D01*
X017545Y020595D01*
X017865Y020595D01*
X017875Y020625D01*
X018025Y020115D02*
X017705Y020115D01*
X017225Y020595D01*
X016905Y020595D01*
X016875Y020625D01*
X017065Y020115D02*
X016665Y020115D01*
X016185Y019635D01*
X015945Y019635D01*
X015875Y019625D01*
X016105Y019235D02*
X016025Y019155D01*
X015785Y019155D01*
X015385Y018755D01*
X014905Y018755D01*
X014025Y019315D02*
X013945Y019235D01*
X011865Y019235D01*
X011145Y019555D02*
X013545Y019555D01*
X013145Y020915D02*
X011145Y020915D01*
X009625Y020915D01*
X009225Y021315D01*
X008185Y021315D01*
X008125Y021275D01*
X008505Y021795D02*
X007145Y021795D01*
X007125Y021775D01*
X007065Y021795D01*
X006105Y021795D01*
X005305Y020755D02*
X007065Y020755D01*
X007125Y020775D01*
X007065Y019795D02*
X005785Y019795D01*
X006425Y018755D02*
X007065Y018755D01*
X007125Y018775D01*
X007125Y019775D02*
X007065Y019795D01*
X008125Y020275D02*
X008905Y020275D01*
X008985Y019715D02*
X008585Y019315D01*
X008185Y019315D01*
X008125Y019275D01*
X008505Y021795D02*
X008745Y022035D01*
X011465Y022035D01*
X011865Y022435D01*
X012825Y022435D01*
X012505Y021635D02*
X014905Y021635D01*
X015865Y021635D01*
X015875Y021625D01*
X016665Y022115D02*
X016185Y022595D01*
X015945Y022595D01*
X015875Y022625D01*
X016665Y022115D02*
X016985Y022115D01*
X017465Y022595D01*
X017865Y022595D01*
X017875Y022625D01*
X018105Y023075D02*
X017625Y023075D01*
X017145Y022595D01*
X016905Y022595D01*
X016875Y022625D01*
X017065Y023155D02*
X016665Y023155D01*
X016185Y023635D01*
X015945Y023635D01*
X015875Y023625D01*
X016665Y024115D02*
X016185Y024595D01*
X015945Y024595D01*
X015875Y024625D01*
X016665Y024115D02*
X016985Y024115D01*
X017465Y024595D01*
X017865Y024595D01*
X017875Y024625D01*
X018025Y024115D02*
X017705Y024115D01*
X017225Y023635D01*
X016905Y023635D01*
X016875Y023625D01*
X017065Y023155D02*
X017545Y023635D01*
X017865Y023635D01*
X017875Y023625D01*
X018025Y024115D02*
X018505Y023635D01*
X018825Y023635D01*
X018875Y023625D01*
X018105Y023075D02*
X018585Y022595D01*
X018825Y022595D01*
X018875Y022625D01*
X018905Y021635D02*
X018875Y021625D01*
X018825Y021635D01*
X018505Y021635D01*
X018025Y022115D01*
X017705Y022115D01*
X017225Y021635D01*
X016905Y021635D01*
X016875Y021625D01*
X017065Y020115D02*
X017545Y019635D01*
X017865Y019635D01*
X017875Y019625D01*
X017945Y019635D01*
X018345Y019635D01*
X018425Y019715D01*
X018425Y019955D01*
X018505Y019955D01*
X018665Y020115D01*
X019865Y020115D01*
X018905Y020595D02*
X018875Y020625D01*
X018825Y020595D01*
X018505Y020595D01*
X018025Y020115D01*
X018585Y019635D02*
X018825Y019635D01*
X018875Y019625D01*
X018585Y019635D02*
X018105Y019155D01*
X017705Y019155D01*
X017625Y019235D01*
X017225Y019235D01*
X016105Y019235D01*
X015875Y018625D02*
X015945Y018595D01*
X016265Y018595D01*
X016745Y018115D01*
X016985Y018115D01*
X017305Y018435D01*
X017465Y018435D01*
X017625Y018595D01*
X017865Y018595D01*
X017875Y018625D01*
X017945Y018595D01*
X018265Y018595D01*
X018425Y018755D01*
X018425Y018995D01*
X018585Y018995D01*
X018665Y019075D01*
X019545Y019075D01*
X018875Y017625D02*
X018825Y017635D01*
X018505Y017635D01*
X018025Y018115D01*
X017705Y018115D01*
X017225Y017635D01*
X016905Y017635D01*
X016875Y017625D01*
X016825Y017635D01*
X016585Y017635D01*
X016425Y017795D01*
X016345Y017795D01*
X016025Y018115D01*
X015705Y018115D01*
X015385Y017795D01*
X014905Y017795D01*
X014745Y017635D01*
X013785Y017875D02*
X012825Y017875D01*
X013545Y015955D02*
X013385Y015795D01*
X013145Y015315D02*
X014105Y015315D01*
X014585Y015795D01*
X015385Y015795D01*
X015705Y016115D01*
X016025Y016115D01*
X016345Y015795D01*
X016425Y015795D01*
X016585Y015635D01*
X016825Y015635D01*
X016875Y015625D01*
X016905Y015635D01*
X017225Y015635D01*
X017705Y016115D01*
X018025Y016115D01*
X018345Y015795D01*
X018425Y015795D01*
X018585Y015635D01*
X018825Y015635D01*
X018875Y015625D01*
X018745Y016115D02*
X018585Y016275D01*
X018425Y016275D01*
X018425Y016515D01*
X018345Y016595D01*
X017945Y016595D01*
X017875Y016625D01*
X017865Y016595D01*
X017465Y016595D01*
X016985Y016115D01*
X016665Y016115D01*
X016185Y016595D01*
X015945Y016595D01*
X015875Y016625D01*
X016665Y017155D02*
X016185Y017635D01*
X015945Y017635D01*
X015875Y017625D01*
X016665Y017155D02*
X017065Y017155D01*
X017545Y017635D01*
X017865Y017635D01*
X017875Y017625D01*
X017945Y017635D01*
X018265Y017635D01*
X018425Y017475D01*
X018425Y017315D01*
X018505Y017315D01*
X018745Y017075D01*
X020505Y017075D01*
X020185Y016115D02*
X018745Y016115D01*
X018825Y016595D02*
X018585Y016595D01*
X018105Y017075D01*
X017625Y017075D01*
X017145Y016595D01*
X016905Y016595D01*
X016875Y016625D01*
X017545Y015635D02*
X017065Y015155D01*
X016665Y015155D01*
X016185Y015635D01*
X015945Y015635D01*
X015875Y015625D01*
X015465Y015155D02*
X014585Y015155D01*
X014505Y015235D01*
X014425Y014755D02*
X012745Y014755D01*
X013065Y015235D02*
X013145Y015315D01*
X013225Y014435D02*
X014985Y014435D01*
X015145Y014595D01*
X015865Y014595D01*
X015875Y014625D01*
X015945Y014595D01*
X016185Y014595D01*
X016665Y014115D01*
X016985Y014115D01*
X017465Y014595D01*
X017865Y014595D01*
X017875Y014625D01*
X018105Y015075D02*
X017625Y015075D01*
X017145Y014595D01*
X016905Y014595D01*
X016875Y014625D01*
X017705Y014115D02*
X017225Y013635D01*
X016905Y013635D01*
X016875Y013625D01*
X017065Y013155D02*
X017545Y013635D01*
X017865Y013635D01*
X017875Y013625D01*
X018025Y014115D02*
X017705Y014115D01*
X018025Y014115D02*
X018505Y013635D01*
X018825Y013635D01*
X018875Y013625D01*
X018105Y013075D02*
X018585Y012595D01*
X018825Y012595D01*
X018875Y012625D01*
X018025Y012115D02*
X018505Y011635D01*
X018825Y011635D01*
X018875Y011625D01*
X018105Y011075D02*
X017625Y011075D01*
X017145Y010595D01*
X016905Y010595D01*
X016875Y010625D01*
X016985Y010115D02*
X017465Y010595D01*
X017865Y010595D01*
X017875Y010625D01*
X018105Y011075D02*
X018585Y010595D01*
X018825Y010595D01*
X018875Y010625D01*
X017875Y011625D02*
X017865Y011635D01*
X017545Y011635D01*
X017065Y011155D01*
X016665Y011155D01*
X016875Y011625D02*
X016905Y011635D01*
X017225Y011635D01*
X017705Y012115D01*
X018025Y012115D01*
X018585Y014595D02*
X018105Y015075D01*
X017875Y015625D02*
X017865Y015635D01*
X017545Y015635D01*
X018585Y014595D02*
X018825Y014595D01*
X018875Y014625D01*
X018825Y016595D02*
X018875Y016625D01*
X019545Y016755D02*
X032345Y016755D01*
X032665Y017075D01*
X033305Y017075D01*
X033705Y017155D02*
X033225Y017635D01*
X032905Y017635D01*
X032875Y017625D01*
X033705Y017155D02*
X034105Y017155D01*
X034585Y017635D01*
X034825Y017635D01*
X034875Y017625D01*
X034745Y018115D02*
X034265Y017635D01*
X033945Y017635D01*
X033875Y017625D01*
X034025Y018115D02*
X033705Y018115D01*
X033225Y018595D01*
X032905Y018595D01*
X032875Y018625D01*
X033145Y018995D02*
X033065Y019075D01*
X032745Y019075D01*
X031865Y019955D01*
X023945Y019955D01*
X023785Y019795D01*
X023385Y020115D02*
X033065Y020115D01*
X033385Y019795D01*
X033465Y019795D01*
X033625Y019635D01*
X033865Y019635D01*
X033875Y019625D01*
X033945Y019635D01*
X034265Y019635D01*
X034745Y020115D01*
X035065Y020115D01*
X035545Y019635D01*
X035865Y019635D01*
X035875Y019625D01*
X035865Y020595D02*
X035545Y020595D01*
X035065Y021075D01*
X034665Y021075D01*
X034185Y020595D01*
X033945Y020595D01*
X033875Y020625D01*
X034025Y020115D02*
X033705Y020115D01*
X033225Y020595D01*
X032905Y020595D01*
X032875Y020625D01*
X033705Y021155D02*
X033225Y021635D01*
X032905Y021635D01*
X032875Y021625D01*
X033705Y021155D02*
X034105Y021155D01*
X034585Y021635D01*
X034825Y021635D01*
X034875Y021625D01*
X034745Y022115D02*
X034265Y021635D01*
X033945Y021635D01*
X033875Y021625D01*
X034025Y022115D02*
X033705Y022115D01*
X033225Y022595D01*
X032905Y022595D01*
X032875Y022625D01*
X033705Y023155D02*
X033225Y023635D01*
X032905Y023635D01*
X032875Y023625D01*
X033705Y023155D02*
X034105Y023155D01*
X034585Y023635D01*
X034825Y023635D01*
X034875Y023625D01*
X034745Y024115D02*
X034265Y023635D01*
X033945Y023635D01*
X033875Y023625D01*
X034025Y024115D02*
X033705Y024115D01*
X033225Y024595D01*
X032905Y024595D01*
X032875Y024625D01*
X033705Y025155D02*
X033225Y025635D01*
X032905Y025635D01*
X032875Y025625D01*
X033705Y025155D02*
X034105Y025155D01*
X034585Y025635D01*
X034825Y025635D01*
X034875Y025625D01*
X034745Y026115D02*
X034265Y025635D01*
X033945Y025635D01*
X033875Y025625D01*
X034025Y026115D02*
X033705Y026115D01*
X033225Y026595D01*
X032905Y026595D01*
X032875Y026625D01*
X032875Y027625D02*
X032905Y027635D01*
X033225Y027635D01*
X033705Y028115D01*
X034025Y028115D01*
X034505Y027635D01*
X034825Y027635D01*
X034875Y027625D01*
X035065Y027155D02*
X034665Y027155D01*
X034185Y027635D01*
X033945Y027635D01*
X033875Y027625D01*
X034505Y026595D02*
X034025Y026115D01*
X034505Y026595D02*
X034825Y026595D01*
X034875Y026625D01*
X034745Y026115D02*
X035065Y026115D01*
X035545Y025635D01*
X035865Y025635D01*
X035875Y025625D01*
X035065Y025075D02*
X035545Y024595D01*
X035865Y024595D01*
X035875Y024625D01*
X035065Y025075D02*
X034665Y025075D01*
X034185Y024595D01*
X033945Y024595D01*
X033875Y024625D01*
X034025Y024115D02*
X034505Y024595D01*
X034825Y024595D01*
X034875Y024625D01*
X034745Y024115D02*
X035065Y024115D01*
X035545Y023635D01*
X035865Y023635D01*
X035875Y023625D01*
X035065Y023075D02*
X035545Y022595D01*
X035865Y022595D01*
X035875Y022625D01*
X036745Y022675D02*
X041545Y022675D01*
X041705Y021955D02*
X038985Y021955D01*
X038585Y021555D01*
X038745Y020755D02*
X037465Y020755D01*
X037785Y021155D02*
X039865Y021155D01*
X044105Y021155D01*
X043785Y021315D02*
X040185Y021315D01*
X040025Y021475D01*
X039385Y021475D01*
X039145Y022355D02*
X040585Y022355D01*
X040585Y021635D02*
X040745Y021475D01*
X043705Y021475D01*
X043865Y021635D01*
X045545Y021635D01*
X045705Y021795D01*
X046585Y021795D01*
X045865Y021475D02*
X043945Y021475D01*
X043785Y021315D01*
X045865Y017235D02*
X036105Y017235D01*
X036025Y017155D01*
X035705Y017155D01*
X035625Y017235D01*
X035385Y017235D01*
X035065Y017075D02*
X035545Y016595D01*
X035865Y016595D01*
X035875Y016625D01*
X035945Y016595D01*
X037065Y016595D01*
X036505Y016115D02*
X035705Y016115D01*
X035385Y016435D01*
X035305Y016435D01*
X035145Y016595D01*
X034905Y016595D01*
X034875Y016625D01*
X034825Y016595D01*
X034505Y016595D01*
X034025Y016115D01*
X033705Y016115D01*
X033225Y016595D01*
X032905Y016595D01*
X032875Y016625D01*
X032905Y015635D02*
X032875Y015625D01*
X032905Y015635D02*
X033225Y015635D01*
X033705Y015155D01*
X034105Y015155D01*
X034585Y015635D01*
X034825Y015635D01*
X034875Y015625D01*
X034905Y015635D01*
X035225Y015635D01*
X035705Y015155D01*
X036025Y015155D01*
X036105Y015235D01*
X037065Y015235D01*
X037385Y015635D02*
X035945Y015635D01*
X035875Y015625D01*
X035865Y015635D01*
X035545Y015635D01*
X035065Y016115D01*
X034665Y016115D01*
X034185Y015635D01*
X033945Y015635D01*
X033875Y015625D01*
X034665Y015075D02*
X034185Y014595D01*
X033945Y014595D01*
X033875Y014625D01*
X034025Y014115D02*
X033705Y014115D01*
X033225Y014595D01*
X032905Y014595D01*
X032875Y014625D01*
X032905Y013635D02*
X032875Y013625D01*
X032905Y013635D02*
X033225Y013635D01*
X033705Y013155D01*
X034105Y013155D01*
X034585Y013635D01*
X034825Y013635D01*
X034875Y013625D01*
X034745Y014115D02*
X034265Y013635D01*
X033945Y013635D01*
X033875Y013625D01*
X034025Y014115D02*
X034505Y014595D01*
X034825Y014595D01*
X034875Y014625D01*
X035065Y015075D02*
X034665Y015075D01*
X035065Y015075D02*
X035545Y014595D01*
X035865Y014595D01*
X035875Y014625D01*
X036505Y014915D02*
X037465Y014915D01*
X037545Y014995D01*
X037545Y015475D02*
X038745Y015475D01*
X037545Y015475D02*
X037385Y015635D01*
X035875Y017625D02*
X035865Y017635D01*
X035545Y017635D01*
X035065Y018115D01*
X034745Y018115D01*
X034825Y018595D02*
X034505Y018595D01*
X034025Y018115D01*
X033945Y018595D02*
X033875Y018625D01*
X033945Y018595D02*
X034185Y018595D01*
X034585Y018995D01*
X033145Y018995D01*
X033705Y019155D02*
X033225Y019635D01*
X032905Y019635D01*
X032875Y019625D01*
X033705Y019155D02*
X034105Y019155D01*
X034585Y019635D01*
X034825Y019635D01*
X034875Y019625D01*
X035065Y019075D02*
X034665Y019075D01*
X034585Y018995D01*
X034825Y018595D02*
X034875Y018625D01*
X035065Y019075D02*
X035545Y018595D01*
X035865Y018595D01*
X035875Y018625D01*
X035065Y017075D02*
X034665Y017075D01*
X034185Y016595D01*
X033945Y016595D01*
X033875Y016625D01*
X034745Y014115D02*
X035065Y014115D01*
X035545Y013635D01*
X035865Y013635D01*
X035875Y013625D01*
X035065Y013075D02*
X035545Y012595D01*
X035865Y012595D01*
X035875Y012625D01*
X035065Y012115D02*
X035545Y011635D01*
X035865Y011635D01*
X035875Y011625D01*
X035065Y012115D02*
X034745Y012115D01*
X034265Y011635D01*
X033945Y011635D01*
X033875Y011625D01*
X033705Y011155D02*
X033225Y011635D01*
X032905Y011635D01*
X032875Y011625D01*
X033705Y012115D02*
X033225Y012595D01*
X032905Y012595D01*
X032875Y012625D01*
X033705Y012115D02*
X034025Y012115D01*
X034505Y012595D01*
X034825Y012595D01*
X034875Y012625D01*
X035065Y013075D02*
X034665Y013075D01*
X034185Y012595D01*
X033945Y012595D01*
X033875Y012625D01*
X034585Y011635D02*
X034105Y011155D01*
X033705Y011155D01*
X033875Y010625D02*
X033865Y010595D01*
X032905Y010595D01*
X032875Y010625D01*
X032825Y010595D01*
X031145Y010595D01*
X031145Y008995D02*
X030985Y008835D01*
X021945Y008835D01*
X021625Y009155D01*
X021545Y009155D01*
X021385Y009315D01*
X020025Y006995D02*
X020025Y006675D01*
X019465Y006115D01*
X009465Y006115D01*
X009305Y006275D01*
X012025Y006675D02*
X019545Y006675D01*
X011065Y014675D02*
X008905Y014675D01*
X016905Y019555D02*
X016875Y019625D01*
X016905Y019555D02*
X017225Y019235D01*
X018905Y020595D02*
X023065Y020595D01*
X022745Y021635D02*
X018905Y021635D01*
X018105Y025155D02*
X017705Y025155D01*
X017225Y025635D01*
X016905Y025635D01*
X016875Y025625D01*
X017065Y026115D02*
X016665Y026115D01*
X016185Y025635D01*
X015945Y025635D01*
X015875Y025625D01*
X015865Y026595D02*
X015225Y026595D01*
X015865Y026595D02*
X015875Y026625D01*
X016665Y027155D02*
X016185Y027635D01*
X015945Y027635D01*
X015875Y027625D01*
X015865Y027635D01*
X014905Y027635D01*
X015875Y028625D02*
X015945Y028595D01*
X016185Y028595D01*
X016665Y028115D01*
X016985Y028115D01*
X017465Y028595D01*
X017865Y028595D01*
X017875Y028625D01*
X017705Y029155D02*
X017225Y029635D01*
X016905Y029635D01*
X016875Y029625D01*
X017065Y030115D02*
X016665Y030115D01*
X016185Y029635D01*
X015945Y029635D01*
X015875Y029625D01*
X017065Y030115D02*
X017545Y029635D01*
X017865Y029635D01*
X017875Y029625D01*
X017705Y029155D02*
X018105Y029155D01*
X018585Y029635D01*
X018825Y029635D01*
X018875Y029625D01*
X018905Y029635D01*
X019865Y029635D01*
X021785Y029635D01*
X021385Y028995D02*
X022905Y028995D01*
X023225Y029955D02*
X020905Y029955D01*
X020185Y028595D02*
X019545Y028595D01*
X018905Y028595D01*
X018875Y028625D01*
X018905Y027635D02*
X018875Y027625D01*
X018905Y027635D02*
X020345Y027635D01*
X022105Y027635D01*
X022425Y026595D02*
X020025Y026595D01*
X018905Y026595D01*
X018875Y026625D01*
X018825Y026595D01*
X018505Y026595D01*
X018025Y026115D01*
X017705Y026115D01*
X017225Y026595D01*
X016905Y026595D01*
X016875Y026625D01*
X017065Y026115D02*
X017545Y025635D01*
X017865Y025635D01*
X017875Y025625D01*
X018105Y025155D02*
X018585Y025635D01*
X018825Y025635D01*
X018875Y025625D01*
X017875Y027625D02*
X017865Y027635D01*
X017545Y027635D01*
X017065Y027155D01*
X016665Y027155D01*
X014265Y024995D02*
X014185Y024915D01*
X012185Y024915D01*
X012185Y024355D02*
X005945Y024355D01*
X006905Y024035D02*
X007065Y024195D01*
X010265Y024195D01*
X010425Y024035D01*
X010905Y023875D02*
X012425Y023875D01*
X013945Y023875D01*
X014745Y023315D02*
X010185Y023315D01*
X008985Y024675D02*
X007945Y024675D01*
X007925Y025375D02*
X007945Y025395D01*
X010665Y025395D01*
X008985Y025875D02*
X008505Y026355D01*
X007945Y026355D01*
X007925Y026375D01*
X007925Y027375D02*
X007945Y027395D01*
X009305Y027395D01*
X011065Y027395D01*
X011465Y028675D02*
X008745Y028675D01*
X008665Y028675D01*
X008665Y029235D01*
X008745Y028675D02*
X008425Y028355D01*
X007945Y028355D01*
X007925Y028375D01*
X008185Y027875D02*
X008665Y028355D01*
X008985Y028355D01*
X008985Y027875D02*
X009785Y027875D01*
X008185Y027875D02*
X006925Y027875D01*
X005625Y027875D01*
X005945Y026915D02*
X006905Y026915D01*
X006925Y026875D01*
X006925Y028875D02*
X006905Y028915D01*
X006105Y028915D01*
X005465Y028915D01*
X008125Y032875D02*
X008185Y032915D01*
X017465Y032915D01*
X017945Y033155D02*
X023385Y033155D01*
X023305Y033635D02*
X023625Y033955D01*
X024505Y033955D01*
X024665Y033795D01*
X034025Y033795D01*
X034185Y033955D01*
X043385Y033955D01*
X042345Y034275D02*
X042185Y034115D01*
X034105Y034115D01*
X033945Y033955D01*
X024745Y033955D01*
X024585Y034115D01*
X024345Y034115D01*
X023785Y034675D01*
X024345Y033635D02*
X034345Y033635D01*
X032345Y031875D02*
X032905Y031315D01*
X037145Y031315D01*
X037305Y031475D01*
X037465Y031155D02*
X032585Y031155D01*
X032185Y031555D01*
X021545Y031555D01*
X020745Y031555D01*
X013945Y031555D01*
X014585Y031875D02*
X014745Y031715D01*
X020425Y031715D01*
X020585Y031875D01*
X021705Y031875D01*
X021865Y031715D01*
X031865Y031715D01*
X032025Y031875D01*
X032345Y031875D01*
X030985Y030995D02*
X037785Y030995D01*
X037465Y031155D02*
X037625Y031315D01*
X038185Y031315D01*
X040585Y031315D01*
X040425Y029635D02*
X046265Y029635D01*
X046325Y029605D01*
X046265Y027075D02*
X046325Y027045D01*
X046265Y027075D02*
X042345Y027075D01*
X040425Y029635D02*
X038665Y029635D01*
X035945Y029635D01*
X035875Y029625D01*
X035865Y027635D02*
X035545Y027635D01*
X035065Y027155D01*
X035865Y027635D02*
X035875Y027625D01*
X032875Y029625D02*
X032825Y029635D01*
X031465Y029635D01*
X030345Y031235D02*
X030185Y031395D01*
X025305Y031395D01*
X025145Y031235D01*
X024425Y033155D02*
X025945Y033155D01*
X022905Y036035D02*
X022825Y035955D01*
X022425Y035955D01*
X022265Y035795D01*
X017625Y035795D01*
X017465Y035955D01*
X016825Y035635D02*
X016805Y035615D01*
X016745Y035635D01*
X016025Y035635D01*
X014265Y035635D01*
X014245Y035615D01*
X014265Y033875D02*
X014245Y033835D01*
X014265Y033875D02*
X016745Y033875D01*
X016805Y033835D01*
X016825Y033875D01*
X020105Y033875D01*
X020185Y032835D02*
X021065Y032835D01*
X022585Y035635D02*
X016825Y035635D01*
X018105Y038995D02*
X018985Y038995D01*
X019145Y038835D01*
X023865Y038835D01*
X024105Y038595D01*
X026505Y038595D01*
X027225Y037475D02*
X024985Y037475D01*
X020105Y037475D01*
X018825Y039955D02*
X017625Y039955D01*
X017385Y040195D01*
X018105Y040675D02*
X015545Y040675D01*
X015385Y040835D01*
X010105Y040835D01*
X009945Y040675D01*
X008665Y040675D01*
X008025Y040975D02*
X008025Y040995D01*
X009785Y040995D01*
X015705Y040995D01*
X018105Y042595D02*
X019145Y042595D01*
X020665Y042595D01*
X020725Y042625D01*
X022905Y044915D02*
X028825Y044915D01*
X028105Y045635D02*
X030025Y045635D01*
X030025Y045625D01*
X031705Y046675D02*
X034905Y046675D01*
X035065Y046515D01*
X039465Y046515D01*
X039625Y046675D01*
X040225Y045625D02*
X040265Y045635D01*
X042425Y045635D01*
X040985Y046355D02*
X034745Y046355D01*
X035145Y046675D02*
X038105Y046675D01*
X038265Y046835D01*
X038665Y045635D02*
X037385Y045635D01*
X038665Y045635D02*
X038725Y045625D01*
X036905Y046995D02*
X032105Y046995D01*
X031945Y047155D01*
X026345Y047155D01*
X026185Y047315D01*
X023065Y047315D01*
X023385Y048595D02*
X020505Y048595D01*
X019465Y048995D02*
X017785Y048995D01*
X019465Y048995D02*
X021945Y048995D01*
X023705Y048995D02*
X024425Y048995D01*
X024425Y049025D01*
X025065Y047635D02*
X025225Y047475D01*
X026265Y047475D01*
X026425Y047315D01*
X032025Y047315D01*
X032185Y047155D01*
X035305Y047155D01*
X035465Y047315D01*
X034985Y046835D02*
X035145Y046675D01*
X034985Y046835D02*
X032025Y046835D01*
X031865Y046995D01*
X026025Y046995D01*
X025465Y046595D02*
X015865Y046595D01*
X016185Y046435D02*
X016025Y046275D01*
X013785Y046275D01*
X013705Y046355D01*
X016185Y046435D02*
X025145Y046435D01*
X025305Y046275D01*
X025625Y046275D01*
X025705Y046355D01*
X026585Y046355D01*
X026745Y047475D02*
X034105Y047475D01*
X030025Y042625D02*
X030025Y042595D01*
X027465Y042595D01*
X026905Y039955D02*
X025785Y039955D01*
X030025Y039955D02*
X030985Y039955D01*
X035065Y039955D01*
X036505Y039955D01*
X038745Y039955D01*
X038745Y040675D02*
X043385Y040675D01*
X044985Y040675D01*
X045545Y040115D02*
X044345Y040115D01*
X044105Y040355D01*
X046105Y040035D02*
X046745Y040035D01*
X047225Y042595D02*
X044985Y042595D01*
X047225Y042595D02*
X047225Y042625D01*
X047225Y045625D02*
X047225Y045635D01*
X046505Y045635D01*
X028825Y052115D02*
X027705Y052115D01*
X027545Y051955D01*
X024825Y051955D01*
X024505Y052275D01*
X010265Y052275D01*
X010105Y052115D01*
X009785Y052435D02*
X009625Y052275D01*
X009785Y052435D02*
X025385Y052435D01*
X025545Y052275D01*
X024505Y051795D02*
X027865Y051795D01*
X026585Y047635D02*
X026745Y047475D01*
X025065Y046915D02*
X024905Y046755D01*
X016905Y046755D01*
X016745Y046915D01*
X020025Y045635D02*
X020665Y045635D01*
X020725Y045625D01*
X019145Y050435D02*
X015065Y050435D01*
X008745Y043955D02*
X008025Y043955D01*
X008025Y043975D01*
X008265Y043475D02*
X007025Y043475D01*
X006985Y042515D02*
X006345Y042515D01*
X006985Y042515D02*
X007025Y042475D01*
X007025Y041475D02*
X009625Y041475D01*
X009465Y041955D02*
X008025Y041955D01*
X008025Y041975D01*
X008025Y042975D02*
X008025Y042995D01*
X009305Y042995D01*
X008985Y043395D02*
X008345Y043395D01*
X008265Y043475D01*
X007025Y044475D02*
X006985Y044515D01*
X006025Y044515D01*
X006025Y036355D02*
X005465Y036355D01*
X006025Y036355D02*
X007065Y036355D01*
X007125Y036375D01*
X007065Y035395D02*
X007125Y035375D01*
X007065Y035395D02*
X005145Y035395D01*
X005785Y034355D02*
X006345Y034355D01*
X007065Y034355D01*
X007125Y034375D01*
X007065Y033395D02*
X006425Y033395D01*
X007065Y033395D02*
X007125Y033375D01*
X008125Y033875D02*
X009465Y033875D01*
X010425Y033875D01*
X009305Y034915D02*
X008185Y034915D01*
X008125Y034875D01*
X032875Y009625D02*
X032905Y009635D01*
X033225Y009635D01*
X033705Y010115D01*
X034025Y010115D01*
X034505Y009635D01*
X034825Y009635D01*
X034875Y009625D01*
X035065Y009155D02*
X034665Y009155D01*
X034185Y009635D01*
X033945Y009635D01*
X033875Y009625D01*
X033945Y010595D02*
X033875Y010625D01*
X033945Y010595D02*
X034825Y010595D01*
X034875Y010625D01*
X034905Y010595D01*
X035865Y010595D01*
X035875Y010625D01*
X035945Y010595D01*
X037465Y010595D01*
X038265Y011395D01*
X043945Y011395D01*
X044105Y011235D01*
X045625Y011715D02*
X045785Y011875D01*
X047145Y011875D01*
X045945Y011555D02*
X037945Y011555D01*
X039065Y011875D02*
X039225Y011715D01*
X045625Y011715D01*
X045945Y014595D02*
X042905Y014595D01*
X035875Y009625D02*
X035865Y009635D01*
X035545Y009635D01*
X035065Y009155D01*
X034875Y008625D02*
X034905Y008595D01*
X035865Y008595D01*
X035875Y008625D01*
X035865Y007635D02*
X034905Y007635D01*
X034875Y007625D01*
X034825Y007635D01*
X033945Y007635D01*
X033875Y007625D01*
X033865Y007635D01*
X032905Y007635D01*
X032875Y007625D01*
X032825Y007635D01*
X032105Y007635D01*
X032905Y008595D02*
X032875Y008625D01*
X032905Y008595D02*
X033865Y008595D01*
X033875Y008625D01*
X033945Y008595D01*
X034825Y008595D01*
X034875Y008625D01*
X035865Y007635D02*
X035875Y007625D01*
X032345Y006115D02*
X042745Y006115D01*
X042905Y006275D01*
X034875Y011625D02*
X034825Y011635D01*
X034585Y011635D01*
X032185Y006275D02*
X032345Y006115D01*
X034025Y020115D02*
X034505Y020595D01*
X034825Y020595D01*
X034875Y020625D01*
X035545Y021635D02*
X035065Y022115D01*
X034745Y022115D01*
X034825Y022595D02*
X034505Y022595D01*
X034025Y022115D01*
X033945Y022595D02*
X033875Y022625D01*
X033945Y022595D02*
X034185Y022595D01*
X034665Y023075D01*
X035065Y023075D01*
X034875Y022625D02*
X034825Y022595D01*
X035545Y021635D02*
X035865Y021635D01*
X035875Y021625D01*
X035875Y020625D02*
X035865Y020595D01*
D20*
X009305Y006275D03*
X012025Y006675D03*
X014905Y007635D03*
X015225Y006995D03*
X017625Y006995D03*
X019545Y006675D03*
X020025Y006995D03*
X020425Y007635D03*
X020425Y008275D03*
X020025Y008915D03*
X019545Y008595D03*
X021385Y009315D03*
X015225Y013795D03*
X014585Y014035D03*
X014425Y014755D03*
X014505Y015235D03*
X015465Y015155D03*
X014745Y016675D03*
X014185Y016515D03*
X013465Y016275D03*
X013385Y015795D03*
X013065Y015235D03*
X012745Y014755D03*
X013225Y014435D03*
X012105Y014355D03*
X012105Y014835D03*
X012105Y015395D03*
X012425Y016275D03*
X011625Y016595D03*
X011785Y017075D03*
X011465Y017475D03*
X012825Y017875D03*
X013785Y017875D03*
X014745Y017635D03*
X014905Y018755D03*
X014025Y019315D03*
X013545Y019555D03*
X013145Y020915D03*
X012505Y021635D03*
X012345Y020595D03*
X011865Y020595D03*
X011145Y020915D03*
X011145Y019555D03*
X011865Y019235D03*
X010345Y019315D03*
X009465Y019715D03*
X008985Y019715D03*
X008985Y018595D03*
X008905Y017475D03*
X009705Y017475D03*
X010025Y017075D03*
X010345Y016595D03*
X009705Y016035D03*
X011065Y016035D03*
X011065Y015315D03*
X011065Y014675D03*
X012105Y013475D03*
X011705Y012755D03*
X009705Y014035D03*
X009305Y014355D03*
X008905Y014675D03*
X007145Y015155D03*
X005625Y015635D03*
X005145Y014915D03*
X005785Y016595D03*
X006425Y018755D03*
X005785Y019795D03*
X005305Y020755D03*
X006105Y021795D03*
X006905Y024035D03*
X005945Y024355D03*
X007945Y024675D03*
X008985Y024675D03*
X010185Y023315D03*
X010425Y024035D03*
X010905Y023875D03*
X012185Y024355D03*
X012425Y023875D03*
X012185Y024915D03*
X010665Y025395D03*
X008985Y025875D03*
X009305Y027395D03*
X008985Y027875D03*
X008985Y028355D03*
X009785Y027875D03*
X011065Y027395D03*
X011465Y028675D03*
X013945Y031555D03*
X014585Y031875D03*
X017465Y032915D03*
X017945Y033155D03*
X020105Y033875D03*
X020185Y032835D03*
X021065Y032835D03*
X020745Y031555D03*
X021545Y031555D03*
X020905Y029955D03*
X021785Y029635D03*
X021385Y028995D03*
X020185Y028595D03*
X019545Y028595D03*
X019865Y029635D03*
X020345Y027635D03*
X020025Y026595D03*
X022105Y027635D03*
X022425Y026595D03*
X022905Y028995D03*
X023225Y029955D03*
X025145Y031235D03*
X024425Y033155D03*
X024345Y033635D03*
X023305Y033635D03*
X023385Y033155D03*
X023785Y034675D03*
X022585Y035635D03*
X022905Y036035D03*
X024985Y037475D03*
X024105Y038595D03*
X025785Y039955D03*
X026905Y039955D03*
X026505Y038595D03*
X027225Y037475D03*
X030025Y039955D03*
X030985Y039955D03*
X027465Y042595D03*
X028825Y044915D03*
X028105Y045635D03*
X026585Y046355D03*
X026025Y046995D03*
X025465Y046595D03*
X025065Y046915D03*
X025065Y047635D03*
X026585Y047635D03*
X023705Y048995D03*
X023385Y048595D03*
X023065Y047315D03*
X021945Y048995D03*
X020505Y048595D03*
X019465Y048995D03*
X019145Y050435D03*
X017785Y048995D03*
X016745Y046915D03*
X015865Y046595D03*
X013705Y046355D03*
X015065Y050435D03*
X020025Y045635D03*
X022905Y044915D03*
X019145Y042595D03*
X018105Y042595D03*
X018105Y040675D03*
X017385Y040195D03*
X018105Y038995D03*
X019145Y038835D03*
X018825Y039955D03*
X020105Y037475D03*
X017465Y035955D03*
X016025Y035635D03*
X015705Y040995D03*
X009785Y040995D03*
X009625Y041475D03*
X009465Y041955D03*
X009305Y042995D03*
X008985Y043395D03*
X008745Y043955D03*
X006345Y042515D03*
X006025Y044515D03*
X008665Y040675D03*
X006025Y036355D03*
X005465Y036355D03*
X005145Y035395D03*
X005785Y034355D03*
X006345Y034355D03*
X006425Y033395D03*
X009305Y034915D03*
X009465Y033875D03*
X010425Y033875D03*
X008665Y029235D03*
X006105Y028915D03*
X005465Y028915D03*
X005625Y027875D03*
X005945Y026915D03*
X008745Y022035D03*
X009625Y020915D03*
X011865Y022435D03*
X012825Y022435D03*
X013945Y023875D03*
X014745Y023315D03*
X014265Y024995D03*
X015225Y026595D03*
X014905Y027635D03*
X014905Y021635D03*
X014585Y020595D03*
X015225Y020595D03*
X019545Y019075D03*
X019865Y020115D03*
X022745Y021635D03*
X023065Y020595D03*
X023385Y020115D03*
X023785Y019795D03*
X020505Y017075D03*
X020185Y016115D03*
X019545Y016755D03*
X014025Y012755D03*
X009865Y010115D03*
X010185Y009235D03*
X010185Y017795D03*
X025945Y033155D03*
X030345Y031235D03*
X030985Y030995D03*
X031465Y029635D03*
X032185Y031555D03*
X034345Y033635D03*
X037305Y031475D03*
X037785Y030995D03*
X038185Y031315D03*
X038665Y029635D03*
X040425Y029635D03*
X040585Y031315D03*
X042345Y034275D03*
X043385Y033955D03*
X046105Y040035D03*
X045545Y040115D03*
X044985Y040675D03*
X044105Y040355D03*
X043385Y040675D03*
X044985Y042595D03*
X046745Y040035D03*
X046505Y045635D03*
X042425Y045635D03*
X040985Y046355D03*
X039625Y046675D03*
X038265Y046835D03*
X036905Y046995D03*
X037385Y045635D03*
X035465Y047315D03*
X034745Y046355D03*
X034105Y047475D03*
X031705Y046675D03*
X028825Y052115D03*
X027865Y051795D03*
X025545Y052275D03*
X024505Y051795D03*
X035065Y039955D03*
X036505Y039955D03*
X038745Y039955D03*
X038745Y040675D03*
X042345Y027075D03*
X041545Y022675D03*
X041705Y021955D03*
X040585Y021635D03*
X039865Y021155D03*
X039385Y021475D03*
X038585Y021555D03*
X038745Y020755D03*
X037785Y021155D03*
X037465Y020755D03*
X036745Y022675D03*
X039145Y022355D03*
X040585Y022355D03*
X044105Y021155D03*
X045865Y021475D03*
X046585Y021795D03*
X045865Y017235D03*
X045945Y014595D03*
X047145Y011875D03*
X045945Y011555D03*
X044105Y011235D03*
X042905Y014595D03*
X039065Y011875D03*
X037945Y011555D03*
X038265Y008595D03*
X037945Y006995D03*
X042905Y006275D03*
X037545Y014995D03*
X037545Y015475D03*
X037065Y015235D03*
X036505Y014915D03*
X036505Y016115D03*
X037065Y016595D03*
X035385Y017235D03*
X033305Y017075D03*
X038745Y015475D03*
X032185Y008915D03*
X031865Y008515D03*
X031145Y008995D03*
X031145Y010595D03*
X031865Y006995D03*
X032185Y006275D03*
X010105Y052115D03*
X009625Y052275D03*
M02*
