G75*
G70*
%OFA0B0*%
%FSLAX24Y24*%
%IPPOS*%
%LPD*%
%AMOC8*
5,1,8,0,0,1.08239X$1,22.5*
%
%ADD10C,0.0660*%
%ADD11R,0.0800X0.0800*%
%ADD12C,0.0800*%
%ADD13C,0.0740*%
%ADD14C,0.0700*%
%ADD15R,0.0740X0.0740*%
%ADD16C,0.0768*%
%ADD17R,0.0634X0.0634*%
%ADD18C,0.0634*%
%ADD19C,0.0080*%
%ADD20C,0.0400*%
D10*
X017875Y007625D03*
X017875Y008625D03*
X017875Y009625D03*
X017875Y010625D03*
X017875Y011625D03*
X017875Y012625D03*
X017875Y013625D03*
X017875Y014625D03*
X017875Y015625D03*
X017875Y016625D03*
X017875Y017625D03*
X017875Y018625D03*
X017875Y019625D03*
X017875Y020625D03*
X017875Y021625D03*
X017875Y022625D03*
X017875Y023625D03*
X017875Y024625D03*
X017875Y025625D03*
X017875Y026625D03*
X017875Y027625D03*
X017875Y028625D03*
X017875Y029625D03*
X018875Y029625D03*
X018875Y028625D03*
X018875Y027625D03*
X018875Y026625D03*
X018875Y025625D03*
X018875Y024625D03*
X018875Y023625D03*
X018875Y022625D03*
X018875Y021625D03*
X018875Y020625D03*
X018875Y019625D03*
X018875Y018625D03*
X018875Y017625D03*
X018875Y016625D03*
X018875Y015625D03*
X018875Y014625D03*
X018875Y013625D03*
X018875Y012625D03*
X018875Y011625D03*
X018875Y010625D03*
X018875Y009625D03*
X018875Y008625D03*
X018875Y007625D03*
X032875Y007625D03*
X032875Y008625D03*
X032875Y009625D03*
X032875Y010625D03*
X032875Y011625D03*
X032875Y012625D03*
X032875Y013625D03*
X032875Y014625D03*
X032875Y015625D03*
X032875Y016625D03*
X032875Y017625D03*
X032875Y018625D03*
X032875Y019625D03*
X032875Y020625D03*
X032875Y021625D03*
X032875Y022625D03*
X032875Y023625D03*
X032875Y024625D03*
X032875Y025625D03*
X032875Y026625D03*
X032875Y027625D03*
X032875Y028625D03*
X032875Y029625D03*
X033875Y029625D03*
X033875Y028625D03*
X033875Y027625D03*
X033875Y026625D03*
X033875Y025625D03*
X033875Y024625D03*
X033875Y023625D03*
X033875Y022625D03*
X033875Y021625D03*
X033875Y020625D03*
X033875Y019625D03*
X033875Y018625D03*
X033875Y017625D03*
X033875Y016625D03*
X033875Y015625D03*
X033875Y014625D03*
X033875Y013625D03*
X033875Y012625D03*
X033875Y011625D03*
X033875Y010625D03*
X033875Y009625D03*
X033875Y008625D03*
X033875Y007625D03*
D11*
X015025Y049725D03*
X034125Y050325D03*
D12*
X035503Y050325D03*
X036881Y050325D03*
X038259Y050325D03*
X039637Y050325D03*
X041015Y050325D03*
X042393Y050325D03*
X043771Y050325D03*
X021915Y049725D03*
X020537Y049725D03*
X019159Y049725D03*
X017781Y049725D03*
X016403Y049725D03*
D13*
X024425Y049025D03*
X025425Y049025D03*
X025525Y051125D03*
X024525Y051125D03*
X027825Y051025D03*
X028825Y051025D03*
X028825Y049025D03*
X027825Y049025D03*
X016805Y035615D03*
X016805Y033835D03*
X014245Y033835D03*
X014245Y035615D03*
X008125Y035875D03*
X008125Y034875D03*
X008125Y033875D03*
X008125Y032875D03*
X007125Y033375D03*
X007125Y034375D03*
X007125Y035375D03*
X008025Y040975D03*
X008025Y041975D03*
X008025Y042975D03*
X008025Y043975D03*
X007025Y043475D03*
X007025Y042475D03*
X007025Y041475D03*
X007925Y028375D03*
X007925Y027375D03*
X007925Y026375D03*
X007925Y025375D03*
X006925Y025875D03*
X006925Y026875D03*
X006925Y027875D03*
X008125Y021275D03*
X008125Y020275D03*
X008125Y019275D03*
X008125Y018275D03*
X007125Y018775D03*
X007125Y019775D03*
X007125Y020775D03*
D14*
X046325Y027045D03*
X046325Y029605D03*
D15*
X006925Y028875D03*
X007125Y021775D03*
X007125Y036375D03*
X007025Y044475D03*
D16*
X013725Y045625D03*
X016725Y045625D03*
X014725Y042625D03*
X020725Y042625D03*
X020725Y045625D03*
X023025Y045625D03*
X026025Y045625D03*
X024025Y042625D03*
X030025Y042625D03*
X032725Y042625D03*
X031725Y045625D03*
X030025Y045625D03*
X034725Y045625D03*
X038725Y045625D03*
X040225Y045625D03*
X043225Y045625D03*
X041225Y042625D03*
X038725Y042625D03*
X047225Y042625D03*
X047225Y045625D03*
D17*
X035875Y007625D03*
X016875Y007625D03*
D18*
X016875Y008625D03*
X016875Y009625D03*
X016875Y010625D03*
X016875Y011625D03*
X016875Y012625D03*
X016875Y013625D03*
X016875Y014625D03*
X016875Y015625D03*
X016875Y016625D03*
X016875Y017625D03*
X016875Y018625D03*
X016875Y019625D03*
X016875Y020625D03*
X016875Y021625D03*
X016875Y022625D03*
X016875Y023625D03*
X016875Y024625D03*
X016875Y025625D03*
X016875Y026625D03*
X016875Y027625D03*
X016875Y028625D03*
X016875Y029625D03*
X015875Y029625D03*
X015875Y028625D03*
X015875Y027625D03*
X015875Y026625D03*
X015875Y025625D03*
X015875Y024625D03*
X015875Y023625D03*
X015875Y022625D03*
X015875Y021625D03*
X015875Y020625D03*
X015875Y019625D03*
X015875Y018625D03*
X015875Y017625D03*
X015875Y016625D03*
X015875Y015625D03*
X015875Y014625D03*
X015875Y013625D03*
X015875Y012625D03*
X015875Y011625D03*
X015875Y010625D03*
X015875Y009625D03*
X015875Y008625D03*
X015875Y007625D03*
X034875Y007625D03*
X034875Y008625D03*
X034875Y009625D03*
X034875Y010625D03*
X034875Y011625D03*
X034875Y012625D03*
X034875Y013625D03*
X034875Y014625D03*
X034875Y015625D03*
X034875Y016625D03*
X034875Y017625D03*
X034875Y018625D03*
X034875Y019625D03*
X034875Y020625D03*
X034875Y021625D03*
X034875Y022625D03*
X034875Y023625D03*
X034875Y024625D03*
X034875Y025625D03*
X034875Y026625D03*
X034875Y027625D03*
X034875Y028625D03*
X034875Y029625D03*
X035875Y029625D03*
X035875Y028625D03*
X035875Y027625D03*
X035875Y026625D03*
X035875Y025625D03*
X035875Y024625D03*
X035875Y023625D03*
X035875Y022625D03*
X035875Y021625D03*
X035875Y020625D03*
X035875Y019625D03*
X035875Y018625D03*
X035875Y017625D03*
X035875Y016625D03*
X035875Y015625D03*
X035875Y014625D03*
X035875Y013625D03*
X035875Y012625D03*
X035875Y011625D03*
X035875Y010625D03*
X035875Y009625D03*
X035875Y008625D03*
D19*
X035885Y008665D01*
X038365Y008665D01*
X035875Y008625D02*
X035805Y008665D01*
X034925Y008665D01*
X034875Y008625D01*
X034845Y008665D01*
X033885Y008665D01*
X033875Y008625D01*
X033805Y008665D01*
X032925Y008665D01*
X032875Y008625D01*
X032845Y008665D01*
X032125Y008665D01*
X031805Y008345D01*
X019485Y008345D01*
X018875Y008625D02*
X018845Y008665D01*
X018525Y008665D01*
X018045Y009145D01*
X017645Y009145D01*
X017485Y008985D01*
X016285Y008985D01*
X016205Y009065D01*
X015405Y009065D01*
X015805Y008665D02*
X015875Y008625D01*
X015885Y008665D01*
X016205Y008665D01*
X016685Y008185D01*
X017085Y008185D01*
X017565Y008665D01*
X017805Y008665D01*
X017875Y008625D01*
X017485Y008985D02*
X017165Y008665D01*
X016925Y008665D01*
X016875Y008625D01*
X016685Y009145D02*
X016205Y009625D01*
X015875Y009625D01*
X010045Y009625D01*
X012685Y008665D02*
X015805Y008665D01*
X016685Y009145D02*
X017085Y009145D01*
X017565Y009625D01*
X017875Y009625D01*
X018045Y010105D02*
X017645Y010105D01*
X017165Y009625D01*
X016875Y009625D01*
X016525Y009625D01*
X016045Y010105D01*
X015725Y010105D01*
X015645Y010025D01*
X013645Y010025D01*
X015875Y010625D02*
X015885Y010665D01*
X016205Y010665D01*
X016685Y010185D01*
X017085Y010185D01*
X017565Y010665D01*
X017805Y010665D01*
X017875Y010625D01*
X018045Y010105D02*
X018525Y009625D01*
X018875Y009625D01*
X018875Y010625D02*
X018845Y010665D01*
X018525Y010665D01*
X018045Y011145D01*
X017645Y011145D01*
X017165Y010665D01*
X016925Y010665D01*
X016875Y010625D01*
X016685Y011145D02*
X016205Y011625D01*
X015875Y011625D01*
X015875Y012625D02*
X015885Y012665D01*
X016205Y012665D01*
X016685Y012185D01*
X017085Y012185D01*
X017165Y012265D01*
X018525Y012265D01*
X018685Y012105D01*
X019005Y012105D01*
X019165Y012265D01*
X019565Y012265D01*
X018875Y012625D02*
X018845Y012665D01*
X018525Y012665D01*
X018045Y013145D01*
X017645Y013145D01*
X017485Y012985D01*
X016285Y012985D01*
X016125Y013145D01*
X013325Y013145D01*
X013085Y013465D02*
X015165Y013465D01*
X015875Y013625D02*
X016205Y013625D01*
X016685Y013145D01*
X017085Y013145D01*
X017565Y013625D01*
X017875Y013625D01*
X018205Y013625D01*
X018685Y013145D01*
X019885Y013145D01*
X018875Y013625D02*
X018525Y013625D01*
X018045Y014105D01*
X017645Y014105D01*
X017165Y013625D01*
X016875Y013625D01*
X016685Y014185D02*
X016205Y014665D01*
X015885Y014665D01*
X015875Y014625D01*
X016285Y014105D02*
X014445Y014105D01*
X014365Y014185D01*
X013325Y015065D02*
X016525Y015065D01*
X016605Y014985D01*
X017485Y014985D01*
X017645Y015145D01*
X018045Y015145D01*
X018525Y014665D01*
X018845Y014665D01*
X018875Y014625D01*
X018875Y015625D02*
X018525Y015625D01*
X018045Y016105D01*
X017645Y016105D01*
X017165Y015625D01*
X016875Y015625D01*
X016685Y015145D02*
X017085Y015145D01*
X017565Y015625D01*
X017875Y015625D01*
X017485Y014985D02*
X017165Y014665D01*
X016925Y014665D01*
X016875Y014625D01*
X016685Y014185D02*
X017085Y014185D01*
X017565Y014665D01*
X017805Y014665D01*
X017875Y014625D01*
X016685Y015145D02*
X016205Y015625D01*
X015875Y015625D01*
X015485Y015865D02*
X015725Y016105D01*
X016285Y016105D01*
X016685Y016185D02*
X016205Y016665D01*
X015885Y016665D01*
X015875Y016625D01*
X015485Y015865D02*
X014685Y015865D01*
X014445Y016105D02*
X014605Y016265D01*
X014605Y016905D01*
X013885Y016905D01*
X013725Y017065D01*
X013725Y017545D01*
X014125Y017545D01*
X015645Y019065D01*
X016125Y019065D01*
X016205Y018985D01*
X016365Y018985D01*
X016205Y018665D02*
X015885Y018665D01*
X015875Y018625D01*
X016205Y018665D02*
X016685Y018185D01*
X017085Y018185D01*
X017565Y018665D01*
X017805Y018665D01*
X017875Y018625D01*
X018365Y018825D02*
X018045Y019145D01*
X017725Y019145D01*
X017245Y018665D01*
X016925Y018665D01*
X016875Y018625D01*
X016685Y019145D02*
X016205Y019625D01*
X015875Y019625D01*
X015165Y019305D02*
X014845Y018985D01*
X010925Y018985D01*
X010845Y018905D01*
X010525Y018265D02*
X009005Y018265D01*
X009005Y018585D01*
X009005Y018265D02*
X008125Y018265D01*
X008125Y018275D01*
X008125Y018265D02*
X006925Y018265D01*
X006605Y018585D01*
X004765Y018585D01*
X004605Y018745D01*
X004925Y019145D02*
X006525Y019145D01*
X007085Y019785D02*
X007125Y019775D01*
X007165Y019785D01*
X012925Y019785D01*
X012445Y020265D02*
X009005Y020265D01*
X009005Y020825D01*
X009245Y021305D02*
X009645Y020905D01*
X009245Y021305D02*
X008125Y021305D01*
X008125Y021275D01*
X008685Y021785D02*
X007165Y021785D01*
X007125Y021775D01*
X007125Y020775D02*
X007085Y020745D01*
X005725Y020745D01*
X003645Y020745D01*
X005405Y019785D02*
X007085Y019785D01*
X008125Y019305D02*
X008125Y019275D01*
X008125Y019305D02*
X012045Y019305D01*
X012285Y018105D02*
X012205Y018025D01*
X010845Y018025D01*
X010045Y017225D01*
X009725Y016425D02*
X010685Y016425D01*
X011325Y016425D02*
X013005Y016425D01*
X014285Y016425D01*
X014365Y016105D02*
X014445Y016105D01*
X014365Y016105D02*
X014365Y015465D01*
X014045Y017225D02*
X014765Y017945D01*
X015405Y017945D01*
X015485Y018025D01*
X015645Y018025D01*
X015725Y018105D01*
X016045Y018105D01*
X016125Y018025D01*
X016365Y018025D01*
X016205Y017625D02*
X015875Y017625D01*
X016205Y017625D02*
X016685Y017145D01*
X017085Y017145D01*
X017565Y017625D01*
X017875Y017625D01*
X018045Y017145D02*
X017645Y017145D01*
X017165Y016665D01*
X016925Y016665D01*
X016875Y016625D01*
X016685Y016185D02*
X017085Y016185D01*
X017565Y016665D01*
X017805Y016665D01*
X017875Y016625D01*
X018045Y017145D02*
X018525Y016665D01*
X018845Y016665D01*
X018875Y016625D01*
X018875Y017625D02*
X018525Y017625D01*
X018045Y018105D01*
X017645Y018105D01*
X017165Y017625D01*
X016875Y017625D01*
X016685Y019145D02*
X017085Y019145D01*
X017565Y019625D01*
X017875Y019625D01*
X018045Y020105D02*
X018365Y019785D01*
X018445Y019785D01*
X018605Y019625D01*
X018875Y019625D01*
X019165Y020025D02*
X019085Y020105D01*
X018685Y020105D01*
X018525Y020265D01*
X017165Y020265D01*
X017085Y020185D01*
X016685Y020185D01*
X016205Y020665D01*
X015885Y020665D01*
X015875Y020625D01*
X015805Y020665D01*
X014845Y020665D01*
X014525Y021625D02*
X015875Y021625D01*
X016205Y021625D01*
X016685Y021145D01*
X017085Y021145D01*
X017245Y021305D01*
X018445Y021305D01*
X018605Y021145D01*
X019885Y021145D01*
X020205Y020665D02*
X018925Y020665D01*
X018875Y020625D01*
X018845Y020665D01*
X018525Y020665D01*
X018045Y021145D01*
X017645Y021145D01*
X017165Y020665D01*
X016925Y020665D01*
X016875Y020625D01*
X017165Y020265D02*
X017565Y020665D01*
X017805Y020665D01*
X017875Y020625D01*
X018045Y020105D02*
X017645Y020105D01*
X017165Y019625D01*
X016875Y019625D01*
X018365Y018825D02*
X018445Y018825D01*
X018605Y018665D01*
X018845Y018665D01*
X018875Y018625D01*
X019165Y020025D02*
X019565Y020025D01*
X020765Y019145D02*
X033085Y019145D01*
X033405Y019465D01*
X033485Y019465D01*
X033645Y019625D01*
X033875Y019625D01*
X034205Y019625D01*
X034685Y019145D01*
X035085Y019145D01*
X035565Y019625D01*
X035875Y019625D01*
X036445Y020105D02*
X039405Y020105D01*
X039565Y019945D01*
X042525Y019945D01*
X042685Y020105D01*
X042845Y019465D02*
X043005Y019305D01*
X042845Y019465D02*
X039645Y019465D01*
X039485Y019305D01*
X037245Y019305D01*
X037085Y019145D01*
X036685Y019145D01*
X036605Y019065D01*
X036925Y019465D02*
X039405Y019465D01*
X039565Y019625D01*
X045085Y019625D01*
X045885Y018825D01*
X045885Y019785D02*
X039245Y019785D01*
X040205Y021625D02*
X044045Y021625D01*
X043885Y021945D02*
X048125Y021945D01*
X046605Y021305D02*
X043885Y021305D01*
X043725Y021465D01*
X041325Y021465D01*
X041165Y021305D01*
X040525Y021785D02*
X043725Y021785D01*
X043885Y021945D01*
X040525Y021785D02*
X040365Y021945D01*
X037565Y021945D01*
X035875Y021625D02*
X035565Y021625D01*
X035085Y021145D01*
X034685Y021145D01*
X034205Y021625D01*
X033875Y021625D01*
X034045Y021145D02*
X033645Y021145D01*
X033165Y020665D01*
X032925Y020665D01*
X032875Y020625D01*
X032875Y021625D02*
X033165Y021625D01*
X033645Y022105D01*
X034045Y022105D01*
X034525Y021625D01*
X034875Y021625D01*
X034045Y021145D02*
X034525Y020665D01*
X034845Y020665D01*
X034875Y020625D01*
X034685Y020185D02*
X034205Y020665D01*
X033885Y020665D01*
X033875Y020625D01*
X034045Y020105D02*
X033645Y020105D01*
X033165Y019625D01*
X032875Y019625D01*
X033645Y019145D02*
X033165Y018665D01*
X032925Y018665D01*
X032875Y018625D01*
X033165Y018265D02*
X033005Y018105D01*
X032685Y018105D01*
X031805Y018985D01*
X021325Y018985D01*
X021165Y018825D01*
X020445Y021625D02*
X018875Y021625D01*
X018525Y021625D01*
X018045Y022105D01*
X017645Y022105D01*
X017165Y021625D01*
X016875Y021625D01*
X017245Y021305D02*
X017565Y021625D01*
X017875Y021625D01*
X017085Y022185D02*
X016685Y022185D01*
X016205Y022665D01*
X015885Y022665D01*
X015875Y022625D01*
X016685Y023145D02*
X016205Y023625D01*
X015875Y023625D01*
X016685Y023145D02*
X017085Y023145D01*
X017565Y023625D01*
X017875Y023625D01*
X018045Y023145D02*
X017645Y023145D01*
X017165Y022665D01*
X016925Y022665D01*
X016875Y022625D01*
X017085Y022185D02*
X017565Y022665D01*
X017805Y022665D01*
X017875Y022625D01*
X018045Y023145D02*
X018525Y022665D01*
X018845Y022665D01*
X018875Y022625D01*
X018875Y023625D02*
X018525Y023625D01*
X018045Y024105D01*
X017645Y024105D01*
X017165Y023625D01*
X016875Y023625D01*
X016685Y024185D02*
X016205Y024665D01*
X015885Y024665D01*
X015875Y024625D01*
X016685Y024185D02*
X017085Y024185D01*
X017565Y024665D01*
X017805Y024665D01*
X017875Y024625D01*
X018045Y025145D02*
X017645Y025145D01*
X017165Y024665D01*
X016925Y024665D01*
X016875Y024625D01*
X016685Y025145D02*
X016205Y025625D01*
X015875Y025625D01*
X016685Y025145D02*
X017085Y025145D01*
X017565Y025625D01*
X017875Y025625D01*
X018045Y025145D02*
X018525Y024665D01*
X018845Y024665D01*
X018875Y024625D01*
X018875Y025625D02*
X018525Y025625D01*
X018045Y026105D01*
X017645Y026105D01*
X017165Y025625D01*
X016875Y025625D01*
X016685Y026185D02*
X017085Y026185D01*
X017565Y026665D01*
X017805Y026665D01*
X017875Y026625D01*
X018045Y027145D02*
X017645Y027145D01*
X017165Y026665D01*
X016925Y026665D01*
X016875Y026625D01*
X016685Y026185D02*
X016205Y026665D01*
X015885Y026665D01*
X015875Y026625D01*
X015805Y026665D01*
X014365Y026665D01*
X014045Y027625D02*
X015875Y027625D01*
X016205Y027625D01*
X016685Y027145D01*
X017085Y027145D01*
X017565Y027625D01*
X017875Y027625D01*
X018045Y027145D02*
X018525Y026665D01*
X018845Y026665D01*
X018875Y026625D01*
X018925Y026665D01*
X023085Y026665D01*
X022765Y027625D02*
X018875Y027625D01*
X018525Y027625D01*
X018045Y028105D01*
X017645Y028105D01*
X017165Y027625D01*
X016875Y027625D01*
X016685Y028185D02*
X016205Y028665D01*
X015885Y028665D01*
X015875Y028625D01*
X016685Y028185D02*
X017085Y028185D01*
X017565Y028665D01*
X017805Y028665D01*
X017875Y028625D01*
X018045Y029145D02*
X017645Y029145D01*
X017165Y028665D01*
X016925Y028665D01*
X016875Y028625D01*
X016685Y029145D02*
X016205Y029625D01*
X015875Y029625D01*
X015245Y029865D02*
X015645Y030265D01*
X025085Y030265D01*
X025325Y030505D01*
X030445Y030505D01*
X030605Y030345D01*
X031245Y030345D01*
X031405Y030505D01*
X036045Y030505D01*
X036045Y030265D01*
X036125Y030665D02*
X036605Y030185D01*
X036765Y030665D02*
X036605Y030825D01*
X031245Y030825D01*
X031085Y030665D01*
X030765Y030665D01*
X030605Y030825D01*
X025165Y030825D01*
X024925Y030585D01*
X010765Y030585D01*
X009005Y029305D02*
X008605Y028905D01*
X006925Y028905D01*
X006925Y028875D01*
X006925Y028905D02*
X005725Y028905D01*
X005245Y027865D02*
X003325Y027865D01*
X005245Y027865D02*
X006925Y027865D01*
X006925Y027875D01*
X006925Y026905D02*
X005885Y026905D01*
X005725Y026745D01*
X006045Y027385D02*
X007885Y027385D01*
X007925Y027375D01*
X007965Y027385D01*
X008685Y027385D01*
X009005Y027065D01*
X010125Y027065D01*
X010125Y025865D02*
X009005Y025865D01*
X008525Y026345D01*
X007965Y026345D01*
X007925Y026375D01*
X008205Y025865D02*
X006925Y025865D01*
X006925Y025875D01*
X006925Y025865D02*
X005565Y025865D01*
X006925Y026875D02*
X006925Y026905D01*
X008205Y025865D02*
X008525Y025545D01*
X010605Y025545D01*
X011085Y024745D02*
X012205Y024745D01*
X010365Y024585D02*
X009005Y024585D01*
X007965Y024585D01*
X008925Y022025D02*
X008685Y021785D01*
X008925Y022025D02*
X011725Y022025D01*
X012045Y021385D02*
X012925Y021385D01*
X012925Y021705D02*
X013085Y021865D01*
X012925Y021705D02*
X010845Y021705D01*
X010685Y022345D02*
X014845Y022345D01*
X013165Y020585D02*
X011165Y020585D01*
X011085Y020665D01*
X011725Y020905D02*
X012765Y020905D01*
X012285Y018105D02*
X014205Y018105D01*
X014525Y018425D01*
X011965Y016745D02*
X006525Y016745D01*
X005805Y015945D02*
X005405Y015945D01*
X005805Y015945D02*
X006045Y015705D01*
X010845Y015705D01*
X011005Y015865D01*
X011565Y015545D02*
X005725Y015545D01*
X006205Y014745D02*
X011085Y014745D01*
X010765Y014585D02*
X011085Y014265D01*
X010765Y014585D02*
X006525Y014585D01*
X006365Y014425D01*
X005805Y014425D01*
X007165Y015065D02*
X007325Y014905D01*
X010765Y014905D01*
X011085Y015225D01*
X011565Y015545D02*
X012125Y014985D01*
X013005Y014025D02*
X012685Y013705D01*
X012685Y013145D01*
X013085Y013465D02*
X013005Y013545D01*
X016875Y012625D02*
X016925Y012665D01*
X017165Y012665D01*
X017485Y012985D01*
X017565Y012665D02*
X017805Y012665D01*
X017875Y012625D01*
X017565Y012665D02*
X017165Y012265D01*
X017645Y012105D02*
X017165Y011625D01*
X016875Y011625D01*
X016685Y011145D02*
X017085Y011145D01*
X017565Y011625D01*
X017875Y011625D01*
X018045Y012105D02*
X017645Y012105D01*
X018045Y012105D02*
X018525Y011625D01*
X018875Y011625D01*
X018875Y007625D02*
X017875Y007625D01*
X016875Y007625D01*
X015875Y007625D01*
X015085Y007625D01*
X013165Y006265D02*
X013005Y006425D01*
X013165Y006265D02*
X017325Y006265D01*
X019165Y006265D01*
X019325Y006425D01*
X019645Y006105D02*
X011645Y006105D01*
X011485Y006265D01*
X017325Y006265D02*
X017485Y006425D01*
X018875Y007625D02*
X020445Y007625D01*
X019805Y006265D02*
X019645Y006105D01*
X032875Y007625D02*
X033875Y007625D01*
X034875Y007625D01*
X035875Y007625D01*
X035885Y006265D02*
X036045Y006105D01*
X045805Y006105D01*
X045965Y006265D01*
X045965Y013065D02*
X042685Y013065D01*
X040125Y015625D02*
X037085Y015625D01*
X035875Y015625D01*
X035565Y015625D01*
X035085Y015145D01*
X034685Y015145D01*
X034205Y015625D01*
X033875Y015625D01*
X034045Y015145D02*
X033645Y015145D01*
X033165Y014665D01*
X032925Y014665D01*
X032875Y014625D01*
X033645Y014105D02*
X033165Y013625D01*
X032875Y013625D01*
X033645Y013145D02*
X033165Y012665D01*
X032925Y012665D01*
X032875Y012625D01*
X033645Y012105D02*
X033165Y011625D01*
X032875Y011625D01*
X033645Y012105D02*
X034045Y012105D01*
X034525Y011625D01*
X034875Y011625D01*
X034685Y011145D02*
X034205Y011625D01*
X033875Y011625D01*
X033875Y012625D02*
X033885Y012665D01*
X034205Y012665D01*
X034685Y012185D01*
X035085Y012185D01*
X035565Y012665D01*
X035805Y012665D01*
X035875Y012625D01*
X035875Y011625D02*
X035565Y011625D01*
X035085Y011145D01*
X034685Y011145D01*
X034045Y010105D02*
X033645Y010105D01*
X033165Y009625D01*
X032875Y009625D01*
X033875Y009625D02*
X034205Y009625D01*
X034685Y009145D01*
X035085Y009145D01*
X035565Y009625D01*
X035875Y009625D01*
X034875Y009625D02*
X034525Y009625D01*
X034045Y010105D01*
X034875Y012625D02*
X034845Y012665D01*
X034525Y012665D01*
X034045Y013145D01*
X033645Y013145D01*
X033875Y013625D02*
X034205Y013625D01*
X034685Y013145D01*
X035085Y013145D01*
X035565Y013625D01*
X035875Y013625D01*
X035085Y014185D02*
X035565Y014665D01*
X035805Y014665D01*
X035875Y014625D01*
X036525Y014745D02*
X037565Y014745D01*
X036845Y016105D02*
X035725Y016105D01*
X035245Y015625D01*
X034875Y015625D01*
X034525Y015625D01*
X034045Y016105D01*
X033645Y016105D01*
X033165Y015625D01*
X032875Y015625D01*
X032875Y016625D02*
X032925Y016665D01*
X033165Y016665D01*
X033645Y017145D01*
X034045Y017145D01*
X034525Y016665D01*
X034845Y016665D01*
X034875Y016625D01*
X034925Y016665D01*
X035165Y016665D01*
X035325Y016825D01*
X035405Y016825D01*
X035645Y017065D01*
X036125Y017065D01*
X036205Y016985D01*
X036525Y016985D01*
X037085Y016665D02*
X035885Y016665D01*
X035875Y016625D01*
X035805Y016665D01*
X035565Y016665D01*
X035085Y016185D01*
X034685Y016185D01*
X034205Y016665D01*
X033885Y016665D01*
X033875Y016625D01*
X034685Y017145D02*
X034205Y017625D01*
X033875Y017625D01*
X034045Y018105D02*
X033645Y018105D01*
X033165Y017625D01*
X032875Y017625D01*
X033165Y018265D02*
X034605Y018265D01*
X034685Y018185D01*
X035085Y018185D01*
X035565Y018665D01*
X035805Y018665D01*
X035875Y018625D01*
X035875Y017625D02*
X035565Y017625D01*
X035085Y017145D01*
X034685Y017145D01*
X034525Y017625D02*
X034045Y018105D01*
X033875Y018625D02*
X033885Y018665D01*
X034205Y018665D01*
X034605Y018265D01*
X034525Y018665D02*
X034045Y019145D01*
X033645Y019145D01*
X034525Y018665D02*
X034845Y018665D01*
X034875Y018625D01*
X034875Y017625D02*
X034525Y017625D01*
X034525Y019625D02*
X034045Y020105D01*
X034525Y019625D02*
X034875Y019625D01*
X034685Y020185D02*
X035085Y020185D01*
X035565Y020665D01*
X035805Y020665D01*
X035875Y020625D01*
X035085Y022185D02*
X034685Y022185D01*
X034205Y022665D01*
X033885Y022665D01*
X033875Y022625D01*
X034045Y023145D02*
X033645Y023145D01*
X033165Y022665D01*
X032925Y022665D01*
X032875Y022625D01*
X032875Y023625D02*
X033165Y023625D01*
X033645Y024105D01*
X034045Y024105D01*
X034525Y023625D01*
X034875Y023625D01*
X034685Y023145D02*
X034205Y023625D01*
X033875Y023625D01*
X034045Y023145D02*
X034525Y022665D01*
X034845Y022665D01*
X034875Y022625D01*
X035085Y022185D02*
X035565Y022665D01*
X035805Y022665D01*
X035875Y022625D01*
X035085Y023145D02*
X035565Y023625D01*
X035875Y023625D01*
X035085Y023145D02*
X034685Y023145D01*
X034685Y024185D02*
X034205Y024665D01*
X033885Y024665D01*
X033875Y024625D01*
X034045Y025145D02*
X033645Y025145D01*
X033165Y024665D01*
X032925Y024665D01*
X032875Y024625D01*
X032875Y025625D02*
X033165Y025625D01*
X033645Y026105D01*
X034045Y026105D01*
X034525Y025625D01*
X034875Y025625D01*
X034685Y025145D02*
X034205Y025625D01*
X033875Y025625D01*
X034045Y025145D02*
X034525Y024665D01*
X034845Y024665D01*
X034875Y024625D01*
X034685Y024185D02*
X035085Y024185D01*
X035565Y024665D01*
X035805Y024665D01*
X035875Y024625D01*
X035085Y025145D02*
X035565Y025625D01*
X035875Y025625D01*
X035085Y025145D02*
X034685Y025145D01*
X034685Y026185D02*
X034205Y026665D01*
X033885Y026665D01*
X033875Y026625D01*
X034045Y027145D02*
X033645Y027145D01*
X033165Y026665D01*
X032925Y026665D01*
X032875Y026625D01*
X032875Y027625D02*
X033165Y027625D01*
X033645Y028105D01*
X034045Y028105D01*
X034525Y027625D01*
X034875Y027625D01*
X034685Y027145D02*
X034205Y027625D01*
X033875Y027625D01*
X034045Y027145D02*
X034525Y026665D01*
X034845Y026665D01*
X034875Y026625D01*
X034685Y026185D02*
X035085Y026185D01*
X035565Y026665D01*
X035805Y026665D01*
X035875Y026625D01*
X035085Y027145D02*
X035565Y027625D01*
X035875Y027625D01*
X035085Y027145D02*
X034685Y027145D01*
X034875Y028625D02*
X034925Y028665D01*
X035805Y028665D01*
X035875Y028625D01*
X035805Y029065D02*
X035405Y029465D01*
X035405Y029785D01*
X034845Y030345D01*
X031485Y030345D01*
X031325Y030185D01*
X030525Y030185D01*
X030365Y030345D01*
X025405Y030345D01*
X025165Y030105D01*
X024445Y030105D01*
X024285Y029945D01*
X024125Y030745D02*
X024285Y030905D01*
X024125Y030745D02*
X013405Y030745D01*
X013245Y030905D01*
X014845Y029865D02*
X015245Y029865D01*
X015165Y030265D02*
X015325Y030425D01*
X025005Y030425D01*
X025245Y030665D01*
X030525Y030665D01*
X030685Y030505D01*
X031165Y030505D01*
X031325Y030665D01*
X036125Y030665D01*
X036925Y031145D02*
X037085Y031305D01*
X036925Y031145D02*
X032365Y031145D01*
X032205Y031305D01*
X030765Y031305D01*
X030605Y031145D01*
X025005Y031145D01*
X024845Y031305D01*
X022125Y031305D01*
X022125Y031785D01*
X021965Y031945D01*
X021725Y031945D01*
X021085Y032585D01*
X020925Y031625D02*
X021805Y031625D01*
X022125Y031305D02*
X021405Y031305D01*
X022125Y029625D02*
X018875Y029625D01*
X018525Y029625D01*
X018045Y030105D01*
X017645Y030105D01*
X017165Y029625D01*
X016875Y029625D01*
X016685Y029145D02*
X017085Y029145D01*
X017565Y029625D01*
X017875Y029625D01*
X018045Y029145D02*
X018525Y028665D01*
X018845Y028665D01*
X018875Y028625D01*
X018925Y028665D01*
X022445Y028665D01*
X024765Y030905D02*
X024845Y030985D01*
X030925Y030985D01*
X037805Y030985D01*
X037405Y029625D02*
X040445Y029625D01*
X046285Y029625D01*
X046325Y029605D01*
X046285Y027065D02*
X045485Y027065D01*
X046285Y027065D02*
X046325Y027045D01*
X040205Y029145D02*
X037805Y029145D01*
X037565Y028665D02*
X036525Y028665D01*
X036125Y029065D01*
X035805Y029065D01*
X035875Y029625D02*
X037405Y029625D01*
X034875Y029625D02*
X033875Y029625D01*
X033805Y028665D02*
X032925Y028665D01*
X032875Y028625D01*
X033805Y028665D02*
X033875Y028625D01*
X032875Y029625D02*
X031485Y029625D01*
X031885Y031465D02*
X030685Y031465D01*
X030525Y031305D01*
X025325Y031305D01*
X025165Y031465D01*
X025165Y031945D02*
X024445Y031945D01*
X024365Y032505D02*
X025485Y032505D01*
X026365Y032985D02*
X024365Y032985D01*
X024605Y033465D02*
X025005Y033865D01*
X034205Y033865D01*
X034365Y033705D01*
X032845Y031625D02*
X032045Y031625D01*
X031885Y031465D01*
X027165Y037465D02*
X025005Y037465D01*
X021885Y037465D01*
X021885Y037305D01*
X021885Y037465D02*
X020125Y037465D01*
X020285Y037785D02*
X017965Y037785D01*
X018045Y038985D02*
X009165Y038985D01*
X010125Y039305D02*
X010285Y039145D01*
X017725Y039145D01*
X017885Y039305D01*
X021565Y039305D01*
X022365Y038185D02*
X023325Y038185D01*
X023005Y037785D02*
X022845Y037625D01*
X020445Y037625D01*
X020285Y037785D01*
X019165Y038825D02*
X019005Y038985D01*
X018045Y038985D01*
X017645Y039945D02*
X018845Y039945D01*
X019325Y039945D02*
X024045Y039945D01*
X026445Y039945D01*
X027165Y039945D01*
X026925Y041145D02*
X025805Y041145D01*
X027485Y042665D02*
X029965Y042665D01*
X030025Y042625D01*
X030045Y039945D02*
X035085Y039945D01*
X036445Y039945D01*
X038765Y039945D01*
X038765Y040425D02*
X043325Y040425D01*
X043405Y040345D01*
X045005Y040345D01*
X047245Y040345D01*
X045565Y041305D02*
X044045Y041305D01*
X045005Y040345D02*
X045165Y040185D01*
X046525Y045625D02*
X047225Y045625D01*
X042365Y045625D02*
X040225Y045625D01*
X041005Y046425D02*
X034765Y046425D01*
X035085Y046585D02*
X039485Y046585D01*
X039645Y046745D01*
X038725Y045625D02*
X037405Y045625D01*
X038125Y046745D02*
X038285Y046905D01*
X038125Y046745D02*
X035165Y046745D01*
X035005Y046905D01*
X032045Y046905D01*
X031885Y047065D01*
X026045Y047065D01*
X026365Y047225D02*
X031965Y047225D01*
X032125Y047065D01*
X036845Y047065D01*
X035485Y047385D02*
X035325Y047225D01*
X032205Y047225D01*
X032045Y047385D01*
X026445Y047385D01*
X026285Y047545D01*
X023325Y047545D01*
X023165Y047705D01*
X016765Y047705D01*
X017085Y047865D02*
X016925Y048025D01*
X013725Y048025D01*
X015005Y048985D02*
X019165Y048985D01*
X020525Y048985D02*
X022205Y048985D01*
X022685Y049065D02*
X024365Y049065D01*
X024425Y049025D01*
X025405Y048265D02*
X021565Y048265D01*
X023005Y047385D02*
X026205Y047385D01*
X026365Y047225D01*
X026365Y046905D02*
X026205Y046745D01*
X015885Y046745D01*
X017085Y047865D02*
X023245Y047865D01*
X023405Y047705D01*
X026365Y047705D01*
X026525Y047545D01*
X034125Y047545D01*
X034925Y046745D02*
X035085Y046585D01*
X034925Y046745D02*
X031725Y046745D01*
X030025Y045625D02*
X028125Y045625D01*
X028845Y046745D02*
X028685Y046905D01*
X026365Y046905D01*
X021885Y050425D02*
X017805Y050425D01*
X020045Y045625D02*
X020725Y045625D01*
X020685Y042665D02*
X019405Y042665D01*
X020685Y042665D02*
X020725Y042625D01*
X017645Y039945D02*
X017405Y040185D01*
X016845Y035625D02*
X016805Y035615D01*
X016765Y035625D01*
X016045Y035625D01*
X014285Y035625D01*
X014245Y035615D01*
X012925Y034905D02*
X008125Y034905D01*
X008125Y034875D01*
X008125Y035865D02*
X008125Y035875D01*
X008125Y035865D02*
X009165Y035865D01*
X008125Y033875D02*
X008125Y033865D01*
X010285Y033865D01*
X012125Y033865D01*
X012605Y033385D01*
X013085Y033385D01*
X012605Y033865D02*
X014205Y033865D01*
X014245Y033835D01*
X014285Y033865D01*
X016765Y033865D01*
X016805Y033835D01*
X016845Y033865D01*
X019965Y033865D01*
X020445Y033865D02*
X022125Y033865D01*
X021565Y034665D02*
X019645Y034665D01*
X016845Y035625D02*
X022765Y035625D01*
X023725Y035465D02*
X025645Y035465D01*
X025645Y034345D02*
X025805Y034185D01*
X043085Y034185D01*
X043245Y034345D01*
X045485Y034345D01*
X043405Y034025D02*
X024525Y034025D01*
X025325Y036905D02*
X022205Y036905D01*
X015725Y032905D02*
X008125Y032905D01*
X008125Y032875D01*
X008125Y031545D02*
X005085Y031545D01*
X005405Y034345D02*
X006365Y034345D01*
X007085Y034345D01*
X007125Y034375D01*
X007125Y035375D02*
X007085Y035385D01*
X003645Y035385D01*
X003325Y034825D02*
X005885Y034825D01*
X008025Y040975D02*
X008045Y040985D01*
X010125Y040985D01*
X009965Y041465D02*
X007085Y041465D01*
X007025Y041475D01*
X007025Y042475D02*
X007005Y042505D01*
X006365Y042505D01*
X005725Y043465D02*
X007005Y043465D01*
X007025Y043475D01*
X007025Y044475D02*
X007005Y044505D01*
X006045Y044505D01*
X008025Y043975D02*
X008045Y043945D01*
X009165Y043945D01*
X009485Y042985D02*
X008045Y042985D01*
X008025Y042975D01*
X008025Y041975D02*
X008045Y041945D01*
X009805Y041945D01*
X010285Y052105D02*
X010445Y052265D01*
X024525Y052265D01*
X024845Y051945D01*
X027485Y051945D01*
X027645Y052105D01*
X028845Y052105D01*
X027805Y051785D02*
X024525Y051785D01*
X025405Y052425D02*
X009965Y052425D01*
X009805Y052265D01*
X025405Y052425D02*
X025565Y052265D01*
X011405Y028185D02*
X009645Y028185D01*
X009485Y028345D01*
X007965Y028345D01*
X007925Y028375D01*
X008125Y020275D02*
X008125Y020265D01*
X009005Y020265D01*
X033645Y014105D02*
X034045Y014105D01*
X034525Y013625D01*
X034875Y013625D01*
X034685Y014185D02*
X034205Y014665D01*
X033885Y014665D01*
X033875Y014625D01*
X034045Y015145D02*
X034525Y014665D01*
X034845Y014665D01*
X034875Y014625D01*
X034685Y014185D02*
X035085Y014185D01*
X036845Y013065D02*
X037645Y013065D01*
X036845Y016105D02*
X040445Y016105D01*
X043005Y016185D02*
X045965Y016185D01*
D20*
X010045Y009625D03*
X012685Y008665D03*
X013645Y010025D03*
X015405Y009065D03*
X015085Y007625D03*
X013005Y006425D03*
X011485Y006265D03*
X017485Y006425D03*
X019325Y006425D03*
X019805Y006265D03*
X020445Y007625D03*
X019485Y008345D03*
X019565Y012265D03*
X019885Y013145D03*
X016285Y014105D03*
X015165Y013465D03*
X014365Y014185D03*
X013325Y015065D03*
X013005Y014025D03*
X013005Y013545D03*
X012685Y013145D03*
X013325Y013145D03*
X012125Y014985D03*
X011085Y014745D03*
X011085Y014265D03*
X011085Y015225D03*
X011005Y015865D03*
X010685Y016425D03*
X011325Y016425D03*
X011965Y016745D03*
X013005Y016425D03*
X014285Y016425D03*
X014685Y015865D03*
X014365Y015465D03*
X014045Y017225D03*
X014525Y018425D03*
X015165Y019305D03*
X016365Y018985D03*
X016365Y018025D03*
X016285Y016105D03*
X012925Y019785D03*
X012445Y020265D03*
X012765Y020905D03*
X012925Y021385D03*
X013085Y021865D03*
X012045Y021385D03*
X011725Y020905D03*
X011085Y020665D03*
X010845Y021705D03*
X010685Y022345D03*
X011725Y022025D03*
X013165Y020585D03*
X014845Y020665D03*
X014525Y021625D03*
X014845Y022345D03*
X012205Y024745D03*
X011085Y024745D03*
X010365Y024585D03*
X010605Y025545D03*
X010125Y025865D03*
X009005Y025865D03*
X009005Y027065D03*
X010125Y027065D03*
X009645Y028185D03*
X009005Y029305D03*
X010765Y030585D03*
X011405Y028185D03*
X014045Y027625D03*
X014365Y026665D03*
X014845Y029865D03*
X015165Y030265D03*
X013245Y030905D03*
X013085Y033385D03*
X012605Y033865D03*
X012925Y034905D03*
X010285Y033865D03*
X009165Y035865D03*
X006365Y034345D03*
X005885Y034825D03*
X005405Y034345D03*
X003645Y035385D03*
X003325Y034825D03*
X005085Y031545D03*
X005725Y028905D03*
X005245Y027865D03*
X006045Y027385D03*
X005725Y026745D03*
X005565Y025865D03*
X003325Y027865D03*
X007965Y024585D03*
X009005Y024585D03*
X008925Y022025D03*
X009005Y020825D03*
X009645Y020905D03*
X010845Y018905D03*
X010525Y018265D03*
X010045Y017225D03*
X009725Y016425D03*
X009005Y018585D03*
X006525Y019145D03*
X005405Y019785D03*
X004925Y019145D03*
X004605Y018745D03*
X003645Y020745D03*
X005725Y020745D03*
X006525Y016745D03*
X005405Y015945D03*
X005725Y015545D03*
X006205Y014745D03*
X005805Y014425D03*
X007165Y015065D03*
X012045Y019305D03*
X019565Y020025D03*
X020205Y020665D03*
X019885Y021145D03*
X020445Y021625D03*
X020765Y019145D03*
X021165Y018825D03*
X023085Y026665D03*
X022765Y027625D03*
X022445Y028665D03*
X022125Y029625D03*
X021405Y031305D03*
X021805Y031625D03*
X020925Y031625D03*
X021085Y032585D03*
X020445Y033865D03*
X019965Y033865D03*
X019645Y034665D03*
X021565Y034665D03*
X022125Y033865D03*
X022765Y035625D03*
X023725Y035465D03*
X024525Y034025D03*
X024605Y033465D03*
X024365Y032985D03*
X024365Y032505D03*
X024445Y031945D03*
X025165Y031945D03*
X025165Y031465D03*
X024765Y030905D03*
X024285Y030905D03*
X024285Y029945D03*
X025485Y032505D03*
X026365Y032985D03*
X025645Y034345D03*
X025645Y035465D03*
X025325Y036905D03*
X025005Y037465D03*
X023325Y038185D03*
X023005Y037785D03*
X022365Y038185D03*
X021885Y037305D03*
X022205Y036905D03*
X020125Y037465D03*
X019165Y038825D03*
X019325Y039945D03*
X018845Y039945D03*
X018045Y038985D03*
X017965Y037785D03*
X016045Y035625D03*
X015725Y032905D03*
X010125Y039305D03*
X009165Y038985D03*
X010125Y040985D03*
X009965Y041465D03*
X009805Y041945D03*
X009485Y042985D03*
X009165Y043945D03*
X006365Y042505D03*
X005725Y043465D03*
X006045Y044505D03*
X010285Y052105D03*
X009805Y052265D03*
X013725Y048025D03*
X015005Y048985D03*
X016765Y047705D03*
X015885Y046745D03*
X019165Y048985D03*
X020525Y048985D03*
X021565Y048265D03*
X022205Y048985D03*
X022685Y049065D03*
X021885Y050425D03*
X024525Y051785D03*
X025565Y052265D03*
X027805Y051785D03*
X028845Y052105D03*
X025405Y048265D03*
X026045Y047065D03*
X028125Y045625D03*
X028845Y046745D03*
X031725Y046745D03*
X034125Y047545D03*
X034765Y046425D03*
X035485Y047385D03*
X036845Y047065D03*
X038285Y046905D03*
X037405Y045625D03*
X039645Y046745D03*
X041005Y046425D03*
X042365Y045625D03*
X046525Y045625D03*
X045565Y041305D03*
X045165Y040185D03*
X044045Y041305D03*
X043405Y040345D03*
X047245Y040345D03*
X045485Y034345D03*
X043405Y034025D03*
X040445Y029625D03*
X040205Y029145D03*
X037805Y029145D03*
X037565Y028665D03*
X037405Y029625D03*
X036605Y030185D03*
X036765Y030665D03*
X037085Y031305D03*
X037805Y030985D03*
X036045Y030265D03*
X032845Y031625D03*
X032205Y031305D03*
X030925Y030985D03*
X031485Y029625D03*
X034365Y033705D03*
X035085Y039945D03*
X036445Y039945D03*
X038765Y039945D03*
X038765Y040425D03*
X030045Y039945D03*
X027485Y042665D03*
X026925Y041145D03*
X027165Y039945D03*
X026445Y039945D03*
X025805Y041145D03*
X024045Y039945D03*
X021565Y039305D03*
X019405Y042665D03*
X017405Y040185D03*
X020045Y045625D03*
X023005Y047385D03*
X017805Y050425D03*
X027165Y037465D03*
X037565Y021945D03*
X036445Y020105D03*
X036925Y019465D03*
X036605Y019065D03*
X036525Y016985D03*
X037085Y016665D03*
X036845Y016105D03*
X037085Y015625D03*
X037565Y014745D03*
X036525Y014745D03*
X036845Y013065D03*
X037645Y013065D03*
X040125Y015625D03*
X040445Y016105D03*
X043005Y016185D03*
X045965Y016185D03*
X045885Y018825D03*
X045885Y019785D03*
X046605Y021305D03*
X048125Y021945D03*
X044045Y021625D03*
X042685Y020105D03*
X043005Y019305D03*
X041165Y021305D03*
X040205Y021625D03*
X039245Y019785D03*
X042685Y013065D03*
X045965Y013065D03*
X045965Y006265D03*
X038365Y008665D03*
X035885Y006265D03*
X045485Y027065D03*
X008125Y031545D03*
M02*
