G75*
G70*
%OFA0B0*%
%FSLAX24Y24*%
%IPPOS*%
%LPD*%
%AMOC8*
5,1,8,0,0,1.08239X$1,22.5*
%
%ADD10C,0.0160*%
%ADD11C,0.0060*%
%ADD12C,0.0040*%
%ADD13C,0.0080*%
%ADD14C,0.0197*%
%ADD15C,0.0030*%
%ADD16C,0.0050*%
D10*
X032625Y012125D02*
X036125Y012125D01*
X036125Y017125D02*
X032625Y017125D01*
X032625Y022125D02*
X036125Y022125D01*
X036125Y027125D02*
X032625Y027125D01*
D11*
X034375Y026875D02*
X034375Y026375D01*
X034625Y026125D01*
X036125Y026125D01*
X036375Y026375D01*
X036375Y026875D01*
X036125Y027125D01*
X036375Y027375D01*
X036375Y027875D01*
X036125Y028125D01*
X036375Y028375D01*
X036375Y028875D01*
X036125Y029125D01*
X036375Y029375D01*
X036375Y029875D01*
X036125Y030125D01*
X034625Y030125D01*
X034375Y029875D01*
X034375Y029375D01*
X034625Y029125D01*
X036125Y029125D01*
X036125Y028125D02*
X034625Y028125D01*
X034375Y028375D01*
X034375Y028875D01*
X034625Y029125D01*
X034625Y028125D02*
X034375Y027875D01*
X034375Y027375D01*
X034625Y027125D01*
X036125Y027125D01*
X036125Y026125D02*
X036375Y025875D01*
X036375Y025375D01*
X036125Y025125D01*
X034625Y025125D01*
X034375Y025375D01*
X034375Y025875D01*
X034625Y026125D01*
X034375Y026875D02*
X034625Y027125D01*
X034625Y025125D02*
X034375Y024875D01*
X034375Y024375D01*
X034625Y024125D01*
X036125Y024125D01*
X036375Y024375D01*
X036375Y024875D01*
X036125Y025125D01*
X036125Y024125D02*
X036375Y023875D01*
X036375Y023375D01*
X036125Y023125D01*
X034625Y023125D01*
X034375Y023375D01*
X034375Y023875D01*
X034625Y024125D01*
X034625Y023125D02*
X034375Y022875D01*
X034375Y022375D01*
X034625Y022125D01*
X036125Y022125D01*
X036375Y021875D01*
X036375Y021375D01*
X036125Y021125D01*
X034625Y021125D01*
X034375Y021375D01*
X034375Y021875D01*
X034625Y022125D01*
X034625Y021125D02*
X034375Y020875D01*
X034375Y020375D01*
X034625Y020125D01*
X036125Y020125D01*
X036375Y019875D01*
X036375Y019375D01*
X036125Y019125D01*
X034625Y019125D01*
X034375Y019375D01*
X034375Y019875D01*
X034625Y020125D01*
X034625Y019125D02*
X034375Y018875D01*
X034375Y018375D01*
X034625Y018125D01*
X036125Y018125D01*
X036375Y017875D01*
X036375Y017375D01*
X036125Y017125D01*
X034625Y017125D01*
X034375Y017375D01*
X034375Y017875D01*
X034625Y018125D01*
X034625Y017125D02*
X034375Y016875D01*
X034375Y016375D01*
X034625Y016125D01*
X036125Y016125D01*
X036375Y015875D01*
X036375Y015375D01*
X036125Y015125D01*
X034625Y015125D01*
X034375Y015375D01*
X034375Y015875D01*
X034625Y016125D01*
X034625Y015125D02*
X034375Y014875D01*
X034375Y014375D01*
X034625Y014125D01*
X036125Y014125D01*
X036375Y013875D01*
X036375Y013375D01*
X036125Y013125D01*
X034625Y013125D01*
X034375Y013375D01*
X034375Y013875D01*
X034625Y014125D01*
X034625Y013125D02*
X034375Y012875D01*
X034375Y012375D01*
X034625Y012125D01*
X036125Y012125D01*
X036375Y012375D01*
X036375Y012875D01*
X036125Y013125D01*
X036125Y012125D02*
X036375Y011875D01*
X036375Y011375D01*
X036125Y011125D01*
X034625Y011125D01*
X034375Y011375D01*
X034375Y011875D01*
X034625Y012125D01*
X034625Y011125D02*
X034375Y010875D01*
X034375Y010375D01*
X034625Y010125D01*
X036125Y010125D01*
X036375Y010375D01*
X036375Y010875D01*
X036125Y011125D01*
X036125Y010125D02*
X036375Y009875D01*
X036375Y009375D01*
X036125Y009125D01*
X034625Y009125D01*
X034375Y009375D01*
X034375Y009875D01*
X034625Y010125D01*
X034625Y009125D02*
X034375Y008875D01*
X034375Y008375D01*
X034625Y008125D01*
X036125Y008125D01*
X036375Y008375D01*
X036375Y008875D01*
X036125Y009125D01*
X036125Y008125D02*
X036375Y007875D01*
X036375Y007375D01*
X036125Y007125D01*
X034625Y007125D01*
X034375Y007375D01*
X034375Y007875D01*
X034625Y008125D01*
X035724Y006796D02*
X035510Y006582D01*
X035724Y006796D02*
X035724Y006155D01*
X035937Y006155D02*
X035510Y006155D01*
X037907Y012289D02*
X038143Y012289D01*
X038143Y012761D02*
X037907Y012761D01*
X037807Y013389D02*
X038043Y013389D01*
X038043Y013861D02*
X037807Y013861D01*
X036375Y014375D02*
X036125Y014125D01*
X036375Y014375D02*
X036375Y014875D01*
X036125Y015125D01*
X036125Y016125D02*
X036375Y016375D01*
X036375Y016875D01*
X036125Y017125D01*
X036125Y018125D02*
X036375Y018375D01*
X036375Y018875D01*
X036125Y019125D01*
X036125Y020125D02*
X036375Y020375D01*
X036375Y020875D01*
X036125Y021125D01*
X036125Y022125D02*
X036375Y022375D01*
X036375Y022875D01*
X036125Y023125D01*
X037389Y020843D02*
X037389Y020607D01*
X037861Y020607D02*
X037861Y020843D01*
X038985Y021405D02*
X039405Y021405D01*
X039645Y021405D01*
X040065Y021405D01*
X039645Y021405D02*
X039643Y021384D01*
X039638Y021364D01*
X039629Y021345D01*
X039617Y021328D01*
X039602Y021313D01*
X039585Y021301D01*
X039566Y021292D01*
X039546Y021287D01*
X039525Y021285D01*
X039504Y021287D01*
X039484Y021292D01*
X039465Y021301D01*
X039448Y021313D01*
X039433Y021328D01*
X039421Y021345D01*
X039412Y021364D01*
X039407Y021384D01*
X039405Y021405D01*
X040407Y021989D02*
X040643Y021989D01*
X040643Y022461D02*
X040407Y022461D01*
X040065Y019445D02*
X038985Y019445D01*
X039307Y018961D02*
X039543Y018961D01*
X039543Y018489D02*
X039307Y018489D01*
X038043Y016961D02*
X037807Y016961D01*
X037807Y016489D02*
X038043Y016489D01*
X038043Y015861D02*
X037807Y015861D01*
X037807Y015389D02*
X038043Y015389D01*
X043707Y014861D02*
X043943Y014861D01*
X043943Y014389D02*
X043707Y014389D01*
X043607Y012261D02*
X043843Y012261D01*
X043843Y011789D02*
X043607Y011789D01*
X046207Y012089D02*
X046443Y012089D01*
X046443Y012561D02*
X046207Y012561D01*
X047289Y013387D02*
X047289Y013623D01*
X047761Y013623D02*
X047761Y013387D01*
X046443Y015189D02*
X046207Y015189D01*
X046207Y015661D02*
X046443Y015661D01*
X047189Y016407D02*
X047189Y016643D01*
X047661Y016643D02*
X047661Y016407D01*
X046343Y017989D02*
X046107Y017989D01*
X046107Y018461D02*
X046343Y018461D01*
X047189Y019007D02*
X047189Y019243D01*
X047661Y019243D02*
X047661Y019007D01*
X046343Y020489D02*
X046107Y020489D01*
X046107Y020961D02*
X046343Y020961D01*
X043843Y020661D02*
X043607Y020661D01*
X043607Y020189D02*
X043843Y020189D01*
X043943Y017961D02*
X043707Y017961D01*
X043707Y017489D02*
X043943Y017489D01*
X046207Y010061D02*
X046443Y010061D01*
X046443Y009589D02*
X046207Y009589D01*
X047189Y010107D02*
X047189Y010343D01*
X047661Y010343D02*
X047661Y010107D01*
X031161Y029807D02*
X031161Y030043D01*
X030689Y030043D02*
X030689Y029807D01*
X032407Y030389D02*
X032643Y030389D01*
X032643Y030861D02*
X032407Y030861D01*
X038007Y030661D02*
X038243Y030661D01*
X038243Y030189D02*
X038007Y030189D01*
X036161Y037607D02*
X036161Y037843D01*
X035689Y037843D02*
X035689Y037607D01*
X034843Y038289D02*
X034607Y038289D01*
X034607Y038761D02*
X034843Y038761D01*
X035307Y039189D02*
X035543Y039189D01*
X035543Y039661D02*
X035307Y039661D01*
X043607Y039589D02*
X043843Y039589D01*
X043843Y040061D02*
X043607Y040061D01*
X043607Y038961D02*
X043843Y038961D01*
X043843Y038489D02*
X043607Y038489D01*
X044489Y038543D02*
X044489Y038307D01*
X044961Y038307D02*
X044961Y038543D01*
X026661Y037743D02*
X026661Y037507D01*
X026189Y037507D02*
X026189Y037743D01*
X025443Y038089D02*
X025207Y038089D01*
X025207Y038561D02*
X025443Y038561D01*
X026007Y039189D02*
X026243Y039189D01*
X026243Y039661D02*
X026007Y039661D01*
X024861Y034943D02*
X024861Y034707D01*
X024389Y034707D02*
X024389Y034943D01*
X023624Y034371D02*
X021826Y034371D01*
X022065Y034021D02*
X022067Y034047D01*
X022073Y034073D01*
X022082Y034097D01*
X022095Y034120D01*
X022111Y034141D01*
X022130Y034159D01*
X022151Y034175D01*
X022175Y034187D01*
X022199Y034195D01*
X022225Y034200D01*
X022252Y034201D01*
X022278Y034198D01*
X022303Y034191D01*
X022327Y034181D01*
X022350Y034167D01*
X022370Y034151D01*
X022387Y034131D01*
X022402Y034109D01*
X022413Y034085D01*
X022421Y034060D01*
X022425Y034034D01*
X022425Y034008D01*
X022421Y033982D01*
X022413Y033957D01*
X022402Y033933D01*
X022387Y033911D01*
X022370Y033891D01*
X022350Y033875D01*
X022327Y033861D01*
X022303Y033851D01*
X022278Y033844D01*
X022252Y033841D01*
X022225Y033842D01*
X022199Y033847D01*
X022175Y033855D01*
X022151Y033867D01*
X022130Y033883D01*
X022111Y033901D01*
X022095Y033922D01*
X022082Y033945D01*
X022073Y033969D01*
X022067Y033995D01*
X022065Y034021D01*
X020861Y034807D02*
X020861Y035043D01*
X020389Y035043D02*
X020389Y034807D01*
X019161Y037207D02*
X019161Y037443D01*
X018689Y037443D02*
X018689Y037207D01*
X018443Y038189D02*
X018207Y038189D01*
X018207Y038661D02*
X018443Y038661D01*
X017843Y039389D02*
X017607Y039389D01*
X017607Y039861D02*
X017843Y039861D01*
X021826Y031879D02*
X023624Y031879D01*
X017375Y029875D02*
X017375Y029375D01*
X017125Y029125D01*
X015625Y029125D01*
X015375Y029375D01*
X015375Y029875D01*
X015625Y030125D01*
X017125Y030125D01*
X017375Y029875D01*
X017125Y029125D02*
X017375Y028875D01*
X017375Y028375D01*
X017125Y028125D01*
X015625Y028125D01*
X015375Y028375D01*
X015375Y028875D01*
X015625Y029125D01*
X015625Y028125D02*
X015375Y027875D01*
X015375Y027375D01*
X015625Y027125D01*
X017125Y027125D01*
X017375Y027375D01*
X017375Y027875D01*
X017125Y028125D01*
X017125Y027125D02*
X017375Y026875D01*
X017375Y026375D01*
X017125Y026125D01*
X015625Y026125D01*
X015375Y026375D01*
X015375Y026875D01*
X015625Y027125D01*
X015625Y026125D02*
X015375Y025875D01*
X015375Y025375D01*
X015625Y025125D01*
X017125Y025125D01*
X017375Y025375D01*
X017375Y025875D01*
X017125Y026125D01*
X017125Y025125D02*
X017375Y024875D01*
X017375Y024375D01*
X017125Y024125D01*
X015625Y024125D01*
X015375Y024375D01*
X015375Y024875D01*
X015625Y025125D01*
X015625Y024125D02*
X015375Y023875D01*
X015375Y023375D01*
X015625Y023125D01*
X017125Y023125D01*
X017375Y023375D01*
X017375Y023875D01*
X017125Y024125D01*
X017125Y023125D02*
X017375Y022875D01*
X017375Y022375D01*
X017125Y022125D01*
X015625Y022125D01*
X015375Y022375D01*
X015375Y022875D01*
X015625Y023125D01*
X015625Y022125D02*
X015375Y021875D01*
X015375Y021375D01*
X015625Y021125D01*
X017125Y021125D01*
X017375Y020875D01*
X017375Y020375D01*
X017125Y020125D01*
X015625Y020125D01*
X015375Y020375D01*
X015375Y020875D01*
X015625Y021125D01*
X015625Y020125D02*
X015375Y019875D01*
X015375Y019375D01*
X015625Y019125D01*
X017125Y019125D01*
X017375Y018875D01*
X017375Y018375D01*
X017125Y018125D01*
X015625Y018125D01*
X015375Y018375D01*
X015375Y018875D01*
X015625Y019125D01*
X015625Y018125D02*
X015375Y017875D01*
X015375Y017375D01*
X015625Y017125D01*
X017125Y017125D01*
X017375Y016875D01*
X017375Y016375D01*
X017125Y016125D01*
X015625Y016125D01*
X015375Y016375D01*
X015375Y016875D01*
X015625Y017125D01*
X014761Y017107D02*
X014761Y017343D01*
X014289Y017343D02*
X014289Y017107D01*
X013424Y017879D02*
X011626Y017879D01*
X010861Y017343D02*
X010861Y017107D01*
X010389Y017107D02*
X010389Y017343D01*
X009453Y017769D02*
X009217Y017769D01*
X009217Y018241D02*
X009453Y018241D01*
X009433Y018909D02*
X009197Y018909D01*
X009197Y019381D02*
X009433Y019381D01*
X009443Y020069D02*
X009207Y020069D01*
X009207Y020541D02*
X009443Y020541D01*
X009403Y021249D02*
X009167Y021249D01*
X009167Y021721D02*
X009403Y021721D01*
X011626Y020371D02*
X013424Y020371D01*
X012825Y018229D02*
X012827Y018255D01*
X012833Y018281D01*
X012842Y018305D01*
X012855Y018328D01*
X012871Y018349D01*
X012890Y018367D01*
X012911Y018383D01*
X012935Y018395D01*
X012959Y018403D01*
X012985Y018408D01*
X013012Y018409D01*
X013038Y018406D01*
X013063Y018399D01*
X013087Y018389D01*
X013110Y018375D01*
X013130Y018359D01*
X013147Y018339D01*
X013162Y018317D01*
X013173Y018293D01*
X013181Y018268D01*
X013185Y018242D01*
X013185Y018216D01*
X013181Y018190D01*
X013173Y018165D01*
X013162Y018141D01*
X013147Y018119D01*
X013130Y018099D01*
X013110Y018083D01*
X013087Y018069D01*
X013063Y018059D01*
X013038Y018052D01*
X013012Y018049D01*
X012985Y018050D01*
X012959Y018055D01*
X012935Y018063D01*
X012911Y018075D01*
X012890Y018091D01*
X012871Y018109D01*
X012855Y018130D01*
X012842Y018153D01*
X012833Y018177D01*
X012827Y018203D01*
X012825Y018229D01*
X013624Y015971D02*
X011826Y015971D01*
X013025Y013829D02*
X013027Y013855D01*
X013033Y013881D01*
X013042Y013905D01*
X013055Y013928D01*
X013071Y013949D01*
X013090Y013967D01*
X013111Y013983D01*
X013135Y013995D01*
X013159Y014003D01*
X013185Y014008D01*
X013212Y014009D01*
X013238Y014006D01*
X013263Y013999D01*
X013287Y013989D01*
X013310Y013975D01*
X013330Y013959D01*
X013347Y013939D01*
X013362Y013917D01*
X013373Y013893D01*
X013381Y013868D01*
X013385Y013842D01*
X013385Y013816D01*
X013381Y013790D01*
X013373Y013765D01*
X013362Y013741D01*
X013347Y013719D01*
X013330Y013699D01*
X013310Y013683D01*
X013287Y013669D01*
X013263Y013659D01*
X013238Y013652D01*
X013212Y013649D01*
X013185Y013650D01*
X013159Y013655D01*
X013135Y013663D01*
X013111Y013675D01*
X013090Y013691D01*
X013071Y013709D01*
X013055Y013730D01*
X013042Y013753D01*
X013033Y013777D01*
X013027Y013803D01*
X013025Y013829D01*
X013624Y013479D02*
X011826Y013479D01*
X011161Y013243D02*
X011161Y013007D01*
X010689Y013007D02*
X010689Y013243D01*
X007902Y010649D02*
X007778Y010649D01*
X007531Y010402D01*
X007288Y010402D02*
X006795Y010402D01*
X006795Y010525D02*
X006918Y010649D01*
X007165Y010649D01*
X007288Y010525D01*
X007288Y010402D01*
X007165Y010155D02*
X006918Y010155D01*
X006795Y010278D01*
X006795Y010525D01*
X006552Y010525D02*
X006428Y010649D01*
X006181Y010649D01*
X006058Y010525D01*
X006058Y010278D01*
X006181Y010155D01*
X006428Y010155D01*
X006552Y010402D02*
X006058Y010402D01*
X005815Y010402D02*
X005815Y010278D01*
X005692Y010155D01*
X005321Y010155D01*
X005321Y010896D01*
X005692Y010896D01*
X005815Y010772D01*
X005815Y010649D01*
X005692Y010525D01*
X005321Y010525D01*
X005078Y010525D02*
X004955Y010649D01*
X004708Y010649D01*
X004585Y010525D01*
X004585Y010278D01*
X004708Y010155D01*
X004955Y010155D01*
X005078Y010402D02*
X004585Y010402D01*
X004341Y010155D02*
X004094Y010155D01*
X004217Y010155D02*
X004217Y010896D01*
X004094Y010896D01*
X003851Y010649D02*
X003480Y010649D01*
X003357Y010525D01*
X003357Y010278D01*
X003480Y010155D01*
X003851Y010155D01*
X003851Y010032D02*
X003851Y010649D01*
X003851Y010032D02*
X003727Y009908D01*
X003604Y009908D01*
X003725Y009449D02*
X003972Y008955D01*
X004219Y009449D01*
X004462Y009325D02*
X004585Y009449D01*
X004832Y009449D01*
X004956Y009325D01*
X004956Y009202D01*
X004462Y009202D01*
X004462Y009325D02*
X004462Y009078D01*
X004585Y008955D01*
X004832Y008955D01*
X005199Y008955D02*
X005199Y009449D01*
X005569Y009449D01*
X005692Y009325D01*
X005692Y008955D01*
X005935Y009078D02*
X006059Y008955D01*
X006429Y008955D01*
X006672Y009078D02*
X006795Y009202D01*
X007166Y009202D01*
X007166Y009325D02*
X007166Y008955D01*
X006795Y008955D01*
X006672Y009078D01*
X006795Y009449D02*
X007042Y009449D01*
X007166Y009325D01*
X007408Y009325D02*
X007655Y009325D01*
X007532Y009572D02*
X007532Y008955D01*
X007900Y008955D02*
X007900Y009078D01*
X008023Y009078D01*
X008023Y008955D01*
X007900Y008955D01*
X008268Y009078D02*
X008391Y008955D01*
X008638Y008955D01*
X008762Y009078D01*
X008762Y009325D01*
X008638Y009449D01*
X008391Y009449D01*
X008268Y009325D01*
X008268Y009078D01*
X007655Y009696D02*
X007532Y009572D01*
X007531Y010155D02*
X007531Y010649D01*
X006552Y010525D02*
X006552Y010402D01*
X005815Y010402D02*
X005692Y010525D01*
X005078Y010525D02*
X005078Y010402D01*
X006059Y009449D02*
X005935Y009325D01*
X005935Y009078D01*
X006059Y009449D02*
X006429Y009449D01*
X009005Y009449D02*
X009005Y008955D01*
X009005Y009202D02*
X009251Y009449D01*
X009375Y009449D01*
X009618Y009325D02*
X009618Y009078D01*
X009742Y008955D01*
X010112Y008955D01*
X010112Y008832D02*
X010112Y009449D01*
X009742Y009449D01*
X009618Y009325D01*
X009865Y008708D02*
X009989Y008708D01*
X010112Y008832D01*
X014389Y013007D02*
X014389Y013243D01*
X014861Y013243D02*
X014861Y013007D01*
X015375Y012875D02*
X015375Y012375D01*
X015625Y012125D01*
X017125Y012125D01*
X017375Y012375D01*
X017375Y012875D01*
X017125Y013125D01*
X015625Y013125D01*
X015375Y013375D01*
X015375Y013875D01*
X015625Y014125D01*
X017125Y014125D01*
X017375Y013875D01*
X017375Y013375D01*
X017125Y013125D01*
X017125Y012125D02*
X017375Y011875D01*
X017375Y011375D01*
X017125Y011125D01*
X015625Y011125D01*
X015375Y011375D01*
X015375Y011875D01*
X015625Y012125D01*
X015625Y011125D02*
X015375Y010875D01*
X015375Y010375D01*
X015625Y010125D01*
X017125Y010125D01*
X017375Y010375D01*
X017375Y010875D01*
X017125Y011125D01*
X017125Y010125D02*
X017375Y009875D01*
X017375Y009375D01*
X017125Y009125D01*
X015625Y009125D01*
X015375Y009375D01*
X015375Y009875D01*
X015625Y010125D01*
X015625Y009125D02*
X015375Y008875D01*
X015375Y008375D01*
X015625Y008125D01*
X017125Y008125D01*
X017375Y008375D01*
X017375Y008875D01*
X017125Y009125D01*
X017125Y008125D02*
X017375Y007875D01*
X017375Y007375D01*
X017125Y007125D01*
X015625Y007125D01*
X015375Y007375D01*
X015375Y007875D01*
X015625Y008125D01*
X016724Y006796D02*
X016510Y006582D01*
X016724Y006796D02*
X016724Y006155D01*
X016937Y006155D02*
X016510Y006155D01*
X018207Y006289D02*
X018443Y006289D01*
X018443Y006761D02*
X018207Y006761D01*
X020589Y008907D02*
X020589Y009143D01*
X021061Y009143D02*
X021061Y008907D01*
X017125Y014125D02*
X017375Y014375D01*
X017375Y014875D01*
X017125Y015125D01*
X015625Y015125D01*
X015375Y015375D01*
X015375Y015875D01*
X015625Y016125D01*
X015625Y015125D02*
X015375Y014875D01*
X015375Y014375D01*
X015625Y014125D01*
X015625Y013125D02*
X015375Y012875D01*
X017125Y015125D02*
X017375Y015375D01*
X017375Y015875D01*
X017125Y016125D01*
X017125Y017125D02*
X017375Y017375D01*
X017375Y017875D01*
X017125Y018125D01*
X017125Y019125D02*
X017375Y019375D01*
X017375Y019875D01*
X017125Y020125D01*
X017125Y021125D02*
X017375Y021375D01*
X017375Y021875D01*
X017125Y022125D01*
X009443Y025089D02*
X009207Y025089D01*
X009207Y025561D02*
X009443Y025561D01*
X009443Y026189D02*
X009207Y026189D01*
X009207Y026661D02*
X009443Y026661D01*
X009443Y027389D02*
X009207Y027389D01*
X009207Y027861D02*
X009443Y027861D01*
X009443Y028489D02*
X009207Y028489D01*
X009207Y028961D02*
X009443Y028961D01*
X002991Y010649D02*
X003114Y010525D01*
X003114Y010155D01*
X002744Y010155D01*
X002620Y010278D01*
X002744Y010402D01*
X003114Y010402D01*
X002991Y010649D02*
X002744Y010649D01*
X002378Y010525D02*
X002378Y010402D01*
X001884Y010402D01*
X001884Y010525D02*
X002007Y010649D01*
X002254Y010649D01*
X002378Y010525D01*
X002254Y010155D02*
X002007Y010155D01*
X001884Y010278D01*
X001884Y010525D01*
X001641Y010402D02*
X001641Y010278D01*
X001517Y010155D01*
X001147Y010155D01*
X001147Y010896D01*
X001517Y010896D01*
X001641Y010772D01*
X001641Y010649D01*
X001517Y010525D01*
X001147Y010525D01*
X001517Y010525D02*
X001641Y010402D01*
X001641Y009449D02*
X001641Y009078D01*
X001517Y008955D01*
X001394Y009078D01*
X001271Y008955D01*
X001147Y009078D01*
X001147Y009449D01*
X001884Y009449D02*
X001884Y009078D01*
X002007Y008955D01*
X002131Y009078D01*
X002254Y008955D01*
X002378Y009078D01*
X002378Y009449D01*
X002620Y009449D02*
X002620Y009078D01*
X002744Y008955D01*
X002867Y009078D01*
X002991Y008955D01*
X003114Y009078D01*
X003114Y009449D01*
X003357Y009078D02*
X003480Y009078D01*
X003480Y008955D01*
X003357Y008955D01*
X003357Y009078D01*
X003256Y050255D02*
X003256Y050749D01*
X003012Y050749D02*
X002765Y050749D01*
X002888Y050872D02*
X002888Y050378D01*
X003012Y050255D01*
X003256Y050502D02*
X003503Y050749D01*
X003626Y050749D01*
X003870Y050625D02*
X003993Y050749D01*
X004240Y050749D01*
X004364Y050625D01*
X004364Y050378D01*
X004240Y050255D01*
X003993Y050255D01*
X003870Y050378D01*
X003870Y050625D01*
X004606Y050255D02*
X004853Y050255D01*
X004730Y050255D02*
X004730Y050996D01*
X004606Y050996D01*
X005098Y050996D02*
X005221Y050996D01*
X005221Y050255D01*
X005098Y050255D02*
X005344Y050255D01*
X005589Y050378D02*
X005589Y050625D01*
X005712Y050749D01*
X005959Y050749D01*
X006082Y050625D01*
X006082Y050502D01*
X005589Y050502D01*
X005589Y050378D02*
X005712Y050255D01*
X005959Y050255D01*
X006325Y050255D02*
X006325Y050749D01*
X006325Y050502D02*
X006572Y050749D01*
X006696Y050749D01*
X006451Y051208D02*
X006451Y051949D01*
X006080Y051949D01*
X005957Y051825D01*
X005957Y051578D01*
X006080Y051455D01*
X006451Y051455D01*
X006694Y051578D02*
X006817Y051455D01*
X007187Y051455D01*
X007187Y051949D01*
X007430Y051949D02*
X007554Y051949D01*
X007554Y051455D01*
X007677Y051455D02*
X007430Y051455D01*
X007921Y051455D02*
X007921Y051949D01*
X007921Y051702D02*
X008168Y051949D01*
X008292Y051949D01*
X008535Y051949D02*
X008535Y051455D01*
X008535Y051702D02*
X008782Y051949D01*
X008905Y051949D01*
X009149Y051825D02*
X009272Y051949D01*
X009519Y051949D01*
X009643Y051825D01*
X009643Y051702D01*
X009149Y051702D01*
X009149Y051825D02*
X009149Y051578D01*
X009272Y051455D01*
X009519Y051455D01*
X009886Y051455D02*
X010133Y051455D01*
X010009Y051455D02*
X010009Y052196D01*
X009886Y052196D01*
X007554Y052196D02*
X007554Y052319D01*
X006694Y051949D02*
X006694Y051578D01*
X005714Y051578D02*
X005591Y051455D01*
X005344Y051455D01*
X005220Y051578D01*
X005344Y051825D02*
X005591Y051825D01*
X005714Y051702D01*
X005714Y051578D01*
X005344Y051825D02*
X005220Y051949D01*
X005220Y052072D01*
X005344Y052196D01*
X005591Y052196D01*
X005714Y052072D01*
X004241Y051949D02*
X004241Y051332D01*
X004117Y051208D01*
X003994Y051208D01*
X003870Y051455D02*
X004241Y051455D01*
X003870Y051455D02*
X003747Y051578D01*
X003747Y051825D01*
X003870Y051949D01*
X004241Y051949D01*
X003504Y051825D02*
X003504Y051455D01*
X003504Y051825D02*
X003381Y051949D01*
X003010Y051949D01*
X003010Y051455D01*
X002766Y051455D02*
X002519Y051455D01*
X002643Y051455D02*
X002643Y051949D01*
X002519Y051949D01*
X002276Y051949D02*
X002276Y051332D01*
X002153Y051208D01*
X002030Y051208D01*
X001906Y051455D02*
X002276Y051455D01*
X001906Y051455D02*
X001783Y051578D01*
X001783Y051949D01*
X001415Y052196D02*
X001415Y051455D01*
X001292Y051455D02*
X001539Y051455D01*
X001662Y050749D02*
X001415Y050749D01*
X001292Y050625D01*
X001292Y050378D01*
X001415Y050255D01*
X001662Y050255D01*
X001785Y050378D01*
X001785Y050625D01*
X001662Y050749D01*
X002028Y050749D02*
X002399Y050749D01*
X002522Y050625D01*
X002522Y050255D01*
X002028Y050255D02*
X002028Y050749D01*
X001049Y050872D02*
X000925Y050996D01*
X000678Y050996D01*
X000555Y050872D01*
X000555Y050378D01*
X000678Y050255D01*
X000925Y050255D01*
X001049Y050378D01*
X000555Y051455D02*
X000555Y052196D01*
X001049Y052196D01*
X001292Y052196D02*
X001415Y052196D01*
X000802Y051825D02*
X000555Y051825D01*
X002643Y052196D02*
X002643Y052319D01*
D12*
X001045Y007505D02*
X001045Y007045D01*
X001352Y007045D02*
X001352Y007505D01*
X001198Y007352D01*
X001045Y007505D01*
X001045Y007795D02*
X001045Y008255D01*
X001352Y008255D01*
X001505Y008025D02*
X001582Y008102D01*
X001736Y008102D01*
X001812Y008025D01*
X001812Y007948D01*
X001505Y007948D01*
X001505Y007872D02*
X001505Y008025D01*
X001505Y007872D02*
X001582Y007795D01*
X001736Y007795D01*
X001966Y007795D02*
X002196Y007795D01*
X002273Y007872D01*
X002273Y008025D01*
X002196Y008102D01*
X001966Y008102D01*
X001966Y008255D02*
X001966Y007795D01*
X002273Y007505D02*
X002273Y007045D01*
X002043Y007045D01*
X001966Y007122D01*
X001966Y007275D01*
X002043Y007352D01*
X002273Y007352D01*
X002426Y007275D02*
X002503Y007352D01*
X002656Y007352D01*
X002733Y007275D01*
X002733Y007198D01*
X002426Y007198D01*
X002426Y007122D02*
X002426Y007275D01*
X002426Y007122D02*
X002503Y007045D01*
X002656Y007045D01*
X003347Y007045D02*
X003500Y007045D01*
X003424Y007045D02*
X003424Y007352D01*
X003347Y007352D01*
X003424Y007505D02*
X003424Y007582D01*
X003347Y007795D02*
X003270Y007872D01*
X003347Y007948D01*
X003577Y007948D01*
X003577Y008025D02*
X003577Y007795D01*
X003347Y007795D01*
X003117Y007795D02*
X003117Y008102D01*
X003347Y008102D02*
X003500Y008102D01*
X003577Y008025D01*
X003731Y007948D02*
X003884Y008102D01*
X003961Y008102D01*
X004114Y008102D02*
X004114Y007872D01*
X004191Y007795D01*
X004421Y007795D01*
X004421Y007718D02*
X004344Y007642D01*
X004268Y007642D01*
X004421Y007718D02*
X004421Y008102D01*
X005035Y008179D02*
X005112Y008255D01*
X005265Y008255D01*
X005342Y008179D01*
X005342Y008102D01*
X005035Y007795D01*
X005342Y007795D01*
X005495Y007872D02*
X005802Y008179D01*
X005802Y007872D01*
X005726Y007795D01*
X005572Y007795D01*
X005495Y007872D01*
X005495Y008179D01*
X005572Y008255D01*
X005726Y008255D01*
X005802Y008179D01*
X005956Y008102D02*
X006109Y008255D01*
X006109Y007795D01*
X005956Y007795D02*
X006263Y007795D01*
X006416Y007872D02*
X006493Y007795D01*
X006646Y007795D01*
X006723Y007872D01*
X006723Y007948D01*
X006646Y008025D01*
X006570Y008025D01*
X006646Y008025D02*
X006723Y008102D01*
X006723Y008179D01*
X006646Y008255D01*
X006493Y008255D01*
X006416Y008179D01*
X006263Y007505D02*
X006263Y007122D01*
X006340Y007045D01*
X006493Y007045D01*
X006570Y007122D01*
X006570Y007505D01*
X006723Y007429D02*
X006723Y007352D01*
X006800Y007275D01*
X006953Y007275D01*
X007030Y007198D01*
X007030Y007122D01*
X006953Y007045D01*
X006800Y007045D01*
X006723Y007122D01*
X006723Y007429D02*
X006800Y007505D01*
X006953Y007505D01*
X007030Y007429D01*
X007184Y007352D02*
X007337Y007505D01*
X007490Y007352D01*
X007490Y007045D01*
X007490Y007275D02*
X007184Y007275D01*
X007184Y007352D02*
X007184Y007045D01*
X005649Y007198D02*
X005342Y007198D01*
X005342Y007122D02*
X005342Y007275D01*
X005419Y007352D01*
X005572Y007352D01*
X005649Y007275D01*
X005649Y007198D01*
X005572Y007045D02*
X005419Y007045D01*
X005342Y007122D01*
X005189Y007045D02*
X005189Y007275D01*
X005112Y007352D01*
X004958Y007352D01*
X004882Y007275D01*
X004728Y007352D02*
X004575Y007352D01*
X004651Y007429D02*
X004651Y007122D01*
X004728Y007045D01*
X004882Y007045D02*
X004882Y007505D01*
X003961Y007275D02*
X003961Y007045D01*
X003961Y007275D02*
X003884Y007352D01*
X003654Y007352D01*
X003654Y007045D01*
X003731Y007795D02*
X003731Y008102D01*
X003117Y007795D02*
X002887Y007795D01*
X002810Y007872D01*
X002810Y008102D01*
X002656Y008102D02*
X002580Y008102D01*
X002426Y007948D01*
X002426Y007795D02*
X002426Y008102D01*
X001736Y007352D02*
X001812Y007275D01*
X001812Y007045D01*
X001582Y007045D01*
X001505Y007122D01*
X001582Y007198D01*
X001812Y007198D01*
X001736Y007352D02*
X001582Y007352D01*
X001198Y008025D02*
X001045Y008025D01*
X019554Y029945D02*
X019554Y030405D01*
X019324Y030175D01*
X019631Y030175D01*
X019785Y030175D02*
X019938Y030252D01*
X020015Y030252D01*
X020092Y030175D01*
X020092Y030022D01*
X020015Y029945D01*
X019861Y029945D01*
X019785Y030022D01*
X019785Y030175D02*
X019785Y030405D01*
X020092Y030405D01*
X031424Y029175D02*
X031731Y029175D01*
X031885Y029175D02*
X032115Y029175D01*
X032192Y029098D01*
X032192Y029022D01*
X032115Y028945D01*
X031961Y028945D01*
X031885Y029022D01*
X031885Y029175D01*
X032038Y029329D01*
X032192Y029405D01*
X031654Y029405D02*
X031654Y028945D01*
X031424Y029175D02*
X031654Y029405D01*
D13*
X038880Y030031D02*
X039431Y030031D01*
X039707Y030189D02*
X039943Y030425D01*
X039707Y030661D01*
X039707Y030189D01*
X039943Y030149D02*
X039943Y030425D01*
X039943Y030701D01*
X040219Y030819D02*
X040770Y030819D01*
X040770Y030031D01*
X040219Y030031D01*
X039431Y030819D02*
X038880Y030819D01*
X038880Y030031D01*
X044002Y028325D02*
X044005Y028439D01*
X044013Y028553D01*
X044027Y028666D01*
X044047Y028778D01*
X044072Y028889D01*
X044102Y028999D01*
X044138Y029108D01*
X044179Y029214D01*
X044225Y029318D01*
X044276Y029420D01*
X044332Y029519D01*
X044393Y029616D01*
X044459Y029709D01*
X044529Y029799D01*
X044604Y029885D01*
X044682Y029968D01*
X044765Y030046D01*
X044851Y030121D01*
X044941Y030191D01*
X045034Y030257D01*
X045131Y030318D01*
X045230Y030374D01*
X045332Y030425D01*
X045436Y030471D01*
X045542Y030512D01*
X045651Y030548D01*
X045761Y030578D01*
X045872Y030603D01*
X045984Y030623D01*
X046097Y030637D01*
X046211Y030645D01*
X046325Y030648D01*
X046439Y030645D01*
X046553Y030637D01*
X046666Y030623D01*
X046778Y030603D01*
X046889Y030578D01*
X046999Y030548D01*
X047108Y030512D01*
X047214Y030471D01*
X047318Y030425D01*
X047420Y030374D01*
X047519Y030318D01*
X047616Y030257D01*
X047709Y030191D01*
X047799Y030121D01*
X047885Y030046D01*
X047968Y029968D01*
X048046Y029885D01*
X048121Y029799D01*
X048191Y029709D01*
X048257Y029616D01*
X048318Y029519D01*
X048374Y029420D01*
X048425Y029318D01*
X048471Y029214D01*
X048512Y029108D01*
X048548Y028999D01*
X048578Y028889D01*
X048603Y028778D01*
X048623Y028666D01*
X048637Y028553D01*
X048645Y028439D01*
X048648Y028325D01*
X048645Y028211D01*
X048637Y028097D01*
X048623Y027984D01*
X048603Y027872D01*
X048578Y027761D01*
X048548Y027651D01*
X048512Y027542D01*
X048471Y027436D01*
X048425Y027332D01*
X048374Y027230D01*
X048318Y027131D01*
X048257Y027034D01*
X048191Y026941D01*
X048121Y026851D01*
X048046Y026765D01*
X047968Y026682D01*
X047885Y026604D01*
X047799Y026529D01*
X047709Y026459D01*
X047616Y026393D01*
X047519Y026332D01*
X047420Y026276D01*
X047318Y026225D01*
X047214Y026179D01*
X047108Y026138D01*
X046999Y026102D01*
X046889Y026072D01*
X046778Y026047D01*
X046666Y026027D01*
X046553Y026013D01*
X046439Y026005D01*
X046325Y026002D01*
X046211Y026005D01*
X046097Y026013D01*
X045984Y026027D01*
X045872Y026047D01*
X045761Y026072D01*
X045651Y026102D01*
X045542Y026138D01*
X045436Y026179D01*
X045332Y026225D01*
X045230Y026276D01*
X045131Y026332D01*
X045034Y026393D01*
X044941Y026459D01*
X044851Y026529D01*
X044765Y026604D01*
X044682Y026682D01*
X044604Y026765D01*
X044529Y026851D01*
X044459Y026941D01*
X044393Y027034D01*
X044332Y027131D01*
X044276Y027230D01*
X044225Y027332D01*
X044179Y027436D01*
X044138Y027542D01*
X044102Y027651D01*
X044072Y027761D01*
X044047Y027872D01*
X044027Y027984D01*
X044013Y028097D01*
X044005Y028211D01*
X044002Y028325D01*
X043731Y019719D02*
X043180Y019719D01*
X043180Y018931D01*
X043731Y018931D01*
X044007Y019089D02*
X044243Y019325D01*
X044007Y019561D01*
X044007Y019089D01*
X044243Y019049D02*
X044243Y019325D01*
X044243Y019601D01*
X044519Y019719D02*
X045070Y019719D01*
X045070Y018931D01*
X044519Y018931D01*
X045949Y019010D02*
X045949Y018774D01*
X046264Y018774D01*
X045949Y019640D02*
X045949Y019876D01*
X046264Y019876D01*
X046164Y017176D02*
X045849Y017176D01*
X045849Y016940D01*
X045070Y017019D02*
X045070Y016231D01*
X044519Y016231D01*
X044243Y016349D02*
X044243Y016625D01*
X044007Y016389D01*
X044007Y016861D01*
X044243Y016625D01*
X044243Y016901D01*
X044519Y017019D02*
X045070Y017019D01*
X045849Y016310D02*
X045849Y016074D01*
X046164Y016074D01*
X046049Y014076D02*
X046364Y014076D01*
X046049Y014076D02*
X046049Y013840D01*
X046049Y013210D02*
X046049Y012974D01*
X046364Y012974D01*
X045170Y013031D02*
X045170Y013819D01*
X044619Y013819D01*
X044343Y013701D02*
X044343Y013425D01*
X044107Y013189D01*
X044107Y013661D01*
X044343Y013425D01*
X044343Y013149D01*
X044619Y013031D02*
X045170Y013031D01*
X043831Y013031D02*
X043280Y013031D01*
X043280Y013819D01*
X043831Y013819D01*
X043731Y016231D02*
X043180Y016231D01*
X043180Y017019D01*
X043731Y017019D01*
X043731Y011319D02*
X043180Y011319D01*
X043180Y010531D01*
X043731Y010531D01*
X044007Y010689D02*
X044243Y010925D01*
X044007Y011161D01*
X044007Y010689D01*
X044243Y010649D02*
X044243Y010925D01*
X044243Y011201D01*
X044519Y011319D02*
X045070Y011319D01*
X045070Y010531D01*
X044519Y010531D01*
X045949Y010610D02*
X045949Y010374D01*
X046264Y010374D01*
X045949Y011240D02*
X045949Y011476D01*
X046264Y011476D01*
X046386Y037774D02*
X046701Y037774D01*
X046701Y038010D01*
X046701Y038640D02*
X046701Y038876D01*
X046386Y038876D01*
X045979Y039269D02*
X045428Y039269D01*
X045428Y039781D01*
X045979Y039781D01*
X045428Y039781D02*
X045271Y039781D01*
X045271Y039269D02*
X045428Y039269D01*
X045180Y040331D02*
X045731Y040331D01*
X046007Y040489D02*
X046243Y040725D01*
X046007Y040961D01*
X046007Y040489D01*
X046243Y040449D02*
X046243Y040725D01*
X046243Y041001D01*
X046519Y041119D02*
X047070Y041119D01*
X047070Y040331D01*
X046519Y040331D01*
X045731Y041119D02*
X045180Y041119D01*
X045180Y040331D01*
X047725Y042125D02*
X039725Y042125D01*
X039725Y046125D01*
X047725Y046125D01*
X047725Y042125D01*
X044660Y048908D02*
X033219Y048908D01*
X033219Y049223D01*
X044660Y049223D01*
X044660Y048908D01*
X044660Y049223D02*
X044660Y051664D01*
X033219Y051664D01*
X033219Y049223D01*
X031225Y046125D02*
X039225Y046125D01*
X039225Y042125D01*
X031225Y042125D01*
X031225Y046125D01*
X030525Y046125D02*
X022525Y046125D01*
X022525Y042125D01*
X030525Y042125D01*
X030525Y046125D01*
X029075Y048525D02*
X028575Y048525D01*
X028325Y048775D01*
X028075Y048525D01*
X027575Y048525D01*
X027325Y048775D01*
X027325Y049275D01*
X027575Y049525D01*
X028075Y049525D01*
X028325Y049275D01*
X028575Y049525D01*
X029075Y049525D01*
X029325Y049275D01*
X029325Y048775D01*
X029075Y048525D01*
X029075Y050525D02*
X028575Y050525D01*
X028325Y050775D01*
X028075Y050525D01*
X027575Y050525D01*
X027325Y050775D01*
X027325Y051275D01*
X027575Y051525D01*
X028075Y051525D01*
X028325Y051275D01*
X028575Y051525D01*
X029075Y051525D01*
X029325Y051275D01*
X029325Y050775D01*
X029075Y050525D01*
X026025Y050875D02*
X026025Y051375D01*
X025775Y051625D01*
X025275Y051625D01*
X025025Y051375D01*
X024775Y051625D01*
X024275Y051625D01*
X024025Y051375D01*
X024025Y050875D01*
X024275Y050625D01*
X024775Y050625D01*
X025025Y050875D01*
X025275Y050625D01*
X025775Y050625D01*
X026025Y050875D01*
X025675Y049525D02*
X025175Y049525D01*
X024925Y049275D01*
X024675Y049525D01*
X024175Y049525D01*
X023925Y049275D01*
X023925Y048775D01*
X024175Y048525D01*
X024675Y048525D01*
X024925Y048775D01*
X025175Y048525D01*
X025675Y048525D01*
X025925Y048775D01*
X025925Y049275D01*
X025675Y049525D01*
X022805Y048623D02*
X022805Y048308D01*
X014119Y048308D01*
X014119Y048623D01*
X022805Y048623D01*
X022805Y051064D01*
X014119Y051064D01*
X014119Y048623D01*
X013225Y046125D02*
X021225Y046125D01*
X021225Y042125D01*
X013225Y042125D01*
X013225Y046125D01*
X008462Y045725D02*
X003344Y045725D01*
X003344Y039725D01*
X008462Y039725D01*
X008462Y045725D01*
X008562Y037625D02*
X003444Y037625D01*
X003444Y031625D01*
X008562Y031625D01*
X008562Y037625D01*
X014325Y035125D02*
X014325Y034332D01*
X014675Y033525D02*
X016375Y033525D01*
X016725Y034320D02*
X016725Y035125D01*
X016375Y035925D02*
X014675Y035925D01*
X014825Y034725D02*
X014827Y034777D01*
X014833Y034829D01*
X014843Y034881D01*
X014856Y034931D01*
X014873Y034981D01*
X014894Y035029D01*
X014919Y035075D01*
X014947Y035119D01*
X014978Y035161D01*
X015012Y035201D01*
X015049Y035238D01*
X015089Y035272D01*
X015131Y035303D01*
X015175Y035331D01*
X015221Y035356D01*
X015269Y035377D01*
X015319Y035394D01*
X015369Y035407D01*
X015421Y035417D01*
X015473Y035423D01*
X015525Y035425D01*
X015577Y035423D01*
X015629Y035417D01*
X015681Y035407D01*
X015731Y035394D01*
X015781Y035377D01*
X015829Y035356D01*
X015875Y035331D01*
X015919Y035303D01*
X015961Y035272D01*
X016001Y035238D01*
X016038Y035201D01*
X016072Y035161D01*
X016103Y035119D01*
X016131Y035075D01*
X016156Y035029D01*
X016177Y034981D01*
X016194Y034931D01*
X016207Y034881D01*
X016217Y034829D01*
X016223Y034777D01*
X016225Y034725D01*
X016223Y034673D01*
X016217Y034621D01*
X016207Y034569D01*
X016194Y034519D01*
X016177Y034469D01*
X016156Y034421D01*
X016131Y034375D01*
X016103Y034331D01*
X016072Y034289D01*
X016038Y034249D01*
X016001Y034212D01*
X015961Y034178D01*
X015919Y034147D01*
X015875Y034119D01*
X015829Y034094D01*
X015781Y034073D01*
X015731Y034056D01*
X015681Y034043D01*
X015629Y034033D01*
X015577Y034027D01*
X015525Y034025D01*
X015473Y034027D01*
X015421Y034033D01*
X015369Y034043D01*
X015319Y034056D01*
X015269Y034073D01*
X015221Y034094D01*
X015175Y034119D01*
X015131Y034147D01*
X015089Y034178D01*
X015049Y034212D01*
X015012Y034249D01*
X014978Y034289D01*
X014947Y034331D01*
X014919Y034375D01*
X014894Y034421D01*
X014873Y034469D01*
X014856Y034519D01*
X014843Y034569D01*
X014833Y034621D01*
X014827Y034673D01*
X014825Y034725D01*
X019271Y039069D02*
X019428Y039069D01*
X019428Y039581D01*
X019979Y039581D01*
X019979Y039069D02*
X019428Y039069D01*
X019428Y039581D02*
X019271Y039581D01*
X019031Y040131D02*
X018480Y040131D01*
X018480Y040919D01*
X019031Y040919D01*
X019307Y040761D02*
X019307Y040289D01*
X019543Y040525D01*
X019307Y040761D01*
X019543Y040801D02*
X019543Y040525D01*
X019543Y040249D01*
X019819Y040131D02*
X020370Y040131D01*
X020370Y040919D01*
X019819Y040919D01*
X019986Y038576D02*
X020301Y038576D01*
X020301Y038340D01*
X020301Y037710D02*
X020301Y037474D01*
X019986Y037474D01*
X026580Y040131D02*
X027131Y040131D01*
X027407Y040289D02*
X027643Y040525D01*
X027407Y040761D01*
X027407Y040289D01*
X027643Y040249D02*
X027643Y040525D01*
X027643Y040801D01*
X027919Y040919D02*
X028470Y040919D01*
X028470Y040131D01*
X027919Y040131D01*
X027979Y039681D02*
X027428Y039681D01*
X027428Y039169D01*
X027979Y039169D01*
X027901Y038876D02*
X027586Y038876D01*
X027901Y038876D02*
X027901Y038640D01*
X027901Y038010D02*
X027901Y037774D01*
X027586Y037774D01*
X027428Y039169D02*
X027271Y039169D01*
X027271Y039681D02*
X027428Y039681D01*
X026580Y040131D02*
X026580Y040919D01*
X027131Y040919D01*
X035880Y040919D02*
X035880Y040131D01*
X036431Y040131D01*
X036707Y040289D02*
X036943Y040525D01*
X036707Y040761D01*
X036707Y040289D01*
X036943Y040249D02*
X036943Y040525D01*
X036943Y040801D01*
X037219Y040919D02*
X037770Y040919D01*
X037770Y040131D01*
X037219Y040131D01*
X037279Y039681D02*
X036728Y039681D01*
X036728Y039169D01*
X037279Y039169D01*
X037301Y038876D02*
X036986Y038876D01*
X037301Y038876D02*
X037301Y038640D01*
X037301Y038010D02*
X037301Y037774D01*
X036986Y037774D01*
X036728Y039169D02*
X036571Y039169D01*
X036571Y039681D02*
X036728Y039681D01*
X036431Y040919D02*
X035880Y040919D01*
X012376Y026817D02*
X012376Y025833D01*
X011274Y025833D01*
X011274Y026817D01*
X012376Y026817D01*
X008362Y024125D02*
X008362Y030125D01*
X003244Y030125D01*
X003244Y024125D01*
X008362Y024125D01*
X008562Y023025D02*
X003444Y023025D01*
X003444Y017025D01*
X008562Y017025D01*
X008562Y023025D01*
D14*
X011490Y026010D03*
D15*
X038240Y021752D02*
X038554Y021438D01*
X038397Y021438D02*
X038397Y021752D01*
X038554Y021752D02*
X038240Y021438D01*
X038240Y021595D02*
X038554Y021595D01*
D16*
X046625Y041375D02*
X046625Y041625D01*
M02*
