G75*
G70*
%OFA0B0*%
%FSLAX24Y24*%
%IPPOS*%
%LPD*%
%AMOC8*
5,1,8,0,0,1.08239X$1,22.5*
%
%ADD10C,0.0740*%
%ADD11C,0.0080*%
D10*
X001100Y001200D03*
X003100Y001200D03*
X004100Y001200D03*
X005100Y001200D03*
X006100Y001200D03*
X007100Y001200D03*
X008100Y001200D03*
X010600Y002450D03*
X011600Y001950D03*
X011600Y002950D03*
X010600Y003450D03*
X011600Y003950D03*
X010600Y004450D03*
X011600Y004950D03*
X010600Y005450D03*
X008100Y006200D03*
X007100Y006200D03*
X006100Y006200D03*
X005100Y006200D03*
X004100Y006200D03*
X003100Y006200D03*
X001100Y006200D03*
X001100Y005200D03*
X001100Y004200D03*
X001100Y003200D03*
X001100Y002200D03*
X006850Y003700D03*
X007600Y003200D03*
X007600Y004200D03*
D11*
X007600Y005700D01*
X008100Y006200D01*
X007100Y006200D02*
X007100Y004450D01*
X006850Y004200D01*
X006850Y003700D01*
X007600Y003200D02*
X008100Y002700D01*
X008100Y001700D01*
X005600Y001700D01*
X001600Y001700D01*
X001600Y004200D01*
X002600Y004200D01*
X003100Y004700D01*
X003100Y006200D01*
X004100Y006200D02*
X004600Y006700D01*
X008600Y006700D01*
X009100Y006200D01*
X009100Y004950D01*
X010600Y003450D01*
X010600Y002450D02*
X009350Y002450D01*
X007600Y004200D01*
X011100Y004450D02*
X011100Y001200D01*
X010600Y000700D01*
X007600Y000700D01*
X007100Y001200D01*
X008100Y001200D02*
X008100Y001700D01*
X006100Y001200D02*
X005600Y000700D01*
X003600Y000700D01*
X003100Y001200D01*
X001600Y001700D02*
X001100Y001200D01*
X005100Y001200D02*
X005600Y001700D01*
X001100Y003200D02*
X000600Y003700D01*
X000600Y005700D01*
X001100Y006200D01*
X001100Y004200D02*
X001600Y004200D01*
X011100Y004450D02*
X011600Y004950D01*
M02*
